G04 Layer_Color=2752767*
%FSLAX25Y25*%
%MOIN*%
G70*
G01*
G75*
%ADD12C,0.00591*%
%ADD34C,0.00984*%
%ADD35C,0.01575*%
%ADD36C,0.00787*%
%ADD56C,0.01000*%
%ADD57C,0.00394*%
%ADD93C,0.00200*%
%ADD94C,0.00267*%
%ADD95C,0.00945*%
%ADD96C,0.00467*%
%ADD97C,0.00827*%
G36*
X1093521Y-64032D02*
Y-64318D01*
Y-64605D01*
Y-64891D01*
Y-65177D01*
Y-65464D01*
Y-65750D01*
Y-66036D01*
Y-66322D01*
Y-66609D01*
Y-66895D01*
Y-67181D01*
Y-67468D01*
Y-67754D01*
Y-68040D01*
Y-68327D01*
Y-68613D01*
Y-68899D01*
Y-69186D01*
Y-69472D01*
Y-69758D01*
X1093234D01*
Y-70044D01*
Y-70331D01*
Y-70617D01*
Y-70903D01*
Y-71190D01*
X1092948D01*
Y-71476D01*
Y-71762D01*
Y-72049D01*
Y-72335D01*
X1092662D01*
Y-72621D01*
Y-72908D01*
Y-73194D01*
Y-73480D01*
X1092375D01*
Y-73767D01*
Y-74053D01*
Y-74339D01*
X1092089D01*
Y-74625D01*
Y-74912D01*
Y-75198D01*
X1091803D01*
Y-75485D01*
Y-75771D01*
Y-76057D01*
X1091516D01*
Y-76343D01*
Y-76630D01*
Y-76916D01*
X1091230D01*
Y-77202D01*
Y-77489D01*
X1090944D01*
Y-77775D01*
Y-78061D01*
X1090657D01*
Y-78348D01*
Y-78634D01*
Y-78920D01*
X1090371D01*
Y-79207D01*
Y-79493D01*
X1090085D01*
Y-79779D01*
Y-80066D01*
Y-80352D01*
X1089799D01*
Y-80638D01*
Y-80924D01*
X1089512D01*
Y-81211D01*
Y-81497D01*
Y-81783D01*
X1089226D01*
Y-82070D01*
Y-82356D01*
X1088939D01*
Y-82642D01*
Y-82929D01*
Y-83215D01*
X1088653D01*
Y-83501D01*
Y-83788D01*
X1088367D01*
Y-84074D01*
Y-84360D01*
Y-84646D01*
X1088081D01*
Y-84933D01*
Y-85219D01*
X1087794D01*
Y-85505D01*
Y-85792D01*
Y-86078D01*
X1087508D01*
Y-86364D01*
Y-86651D01*
X1087222D01*
Y-86937D01*
Y-87223D01*
Y-87510D01*
X1086935D01*
Y-87796D01*
Y-88082D01*
X1086649D01*
Y-88369D01*
Y-88655D01*
Y-88941D01*
X1086363D01*
Y-89227D01*
Y-89514D01*
X1086076D01*
Y-89800D01*
Y-90086D01*
Y-90373D01*
X1085790D01*
Y-90659D01*
Y-90945D01*
X1085504D01*
Y-91232D01*
Y-91518D01*
Y-91804D01*
X1085217D01*
Y-92091D01*
Y-92377D01*
X1084931D01*
Y-92663D01*
Y-92950D01*
Y-93236D01*
X1084645D01*
Y-93522D01*
Y-93809D01*
X1084359D01*
Y-94095D01*
Y-94381D01*
Y-94667D01*
X1084072D01*
Y-94954D01*
Y-95240D01*
X1083786D01*
Y-95526D01*
Y-95813D01*
Y-96099D01*
X1083500D01*
Y-96385D01*
Y-96672D01*
X1083213D01*
Y-96958D01*
Y-97244D01*
Y-97531D01*
X1082927D01*
Y-97817D01*
Y-98103D01*
X1082641D01*
Y-98390D01*
Y-98676D01*
Y-98962D01*
X1082354D01*
Y-99248D01*
Y-99535D01*
X1082068D01*
Y-99821D01*
Y-100107D01*
Y-100394D01*
X1081782D01*
Y-100680D01*
Y-100966D01*
X1081495D01*
Y-101253D01*
Y-101539D01*
X1081209D01*
Y-101825D01*
Y-102112D01*
X1080923D01*
Y-102398D01*
Y-102684D01*
Y-102971D01*
X1080637D01*
Y-103257D01*
X1080350D01*
Y-103543D01*
Y-103829D01*
Y-104116D01*
X1080064D01*
Y-104402D01*
X1079778D01*
Y-104688D01*
Y-104975D01*
X1079491D01*
Y-105261D01*
Y-105547D01*
X1079205D01*
Y-105834D01*
Y-106120D01*
X1078919D01*
Y-106406D01*
Y-106693D01*
X1078632D01*
Y-106979D01*
X1078346D01*
Y-107265D01*
Y-107552D01*
X1078060D01*
Y-107838D01*
Y-108124D01*
X1077773D01*
Y-108410D01*
X1077487D01*
Y-108697D01*
X1077201D01*
Y-108983D01*
Y-109269D01*
X1076914D01*
Y-109556D01*
X1076628D01*
Y-109842D01*
Y-110128D01*
X1076342D01*
Y-110415D01*
X1076056D01*
Y-110701D01*
X1075769D01*
Y-110987D01*
Y-111274D01*
X1075483D01*
Y-111560D01*
X1075196D01*
Y-111846D01*
X1074910D01*
Y-112133D01*
X1074624D01*
Y-112419D01*
X1074338D01*
Y-112705D01*
Y-112991D01*
X1074051D01*
Y-113278D01*
X1073765D01*
Y-113564D01*
X1073479D01*
Y-113850D01*
X1073192D01*
Y-114137D01*
X1072906D01*
Y-114423D01*
X1072620D01*
Y-114709D01*
X1072333D01*
Y-114996D01*
X1071761D01*
Y-115282D01*
X1071474D01*
Y-115568D01*
X1071188D01*
Y-115855D01*
X1070902D01*
Y-116141D01*
X1070615D01*
Y-116427D01*
X1070043D01*
Y-116714D01*
X1069757D01*
Y-117000D01*
X1069184D01*
Y-117286D01*
X1068898D01*
Y-117572D01*
X1068325D01*
Y-117859D01*
X1068039D01*
Y-118145D01*
X1067466D01*
Y-118431D01*
X1066893D01*
Y-118718D01*
X1066321D01*
Y-119004D01*
X1065748D01*
Y-119290D01*
X1065176D01*
Y-119577D01*
X1064317D01*
Y-119863D01*
X1063744D01*
Y-120149D01*
X1062885D01*
Y-120436D01*
X1061740D01*
Y-120722D01*
X1060595D01*
Y-121008D01*
X1058877D01*
Y-121294D01*
X1056872D01*
Y-121581D01*
X1056586D01*
Y-121294D01*
Y-121008D01*
Y-120722D01*
Y-120436D01*
Y-120149D01*
Y-119863D01*
Y-119577D01*
Y-119290D01*
Y-119004D01*
Y-118718D01*
Y-118431D01*
Y-118145D01*
Y-117859D01*
Y-117572D01*
Y-117286D01*
Y-117000D01*
Y-116714D01*
Y-116427D01*
Y-116141D01*
Y-115855D01*
Y-115568D01*
Y-115282D01*
Y-114996D01*
Y-114709D01*
Y-114423D01*
Y-114137D01*
Y-113850D01*
Y-113564D01*
Y-113278D01*
Y-112991D01*
Y-112705D01*
Y-112419D01*
Y-112133D01*
X1057159D01*
Y-111846D01*
X1057731D01*
Y-111560D01*
X1058304D01*
Y-111274D01*
X1058877D01*
Y-110987D01*
X1059449D01*
Y-110701D01*
X1060022D01*
Y-110415D01*
X1060308D01*
Y-110128D01*
X1060881D01*
Y-109842D01*
X1061167D01*
Y-109556D01*
X1061740D01*
Y-109269D01*
X1062026D01*
Y-108983D01*
X1062312D01*
Y-108697D01*
X1062885D01*
Y-108410D01*
X1063171D01*
Y-108124D01*
X1063458D01*
Y-107838D01*
X1063744D01*
Y-107552D01*
X1064030D01*
Y-107265D01*
X1064317D01*
Y-106979D01*
X1064603D01*
Y-106693D01*
X1064889D01*
Y-106406D01*
X1065176D01*
Y-106120D01*
X1065462D01*
Y-105834D01*
X1065748D01*
Y-105547D01*
X1066035D01*
Y-105261D01*
Y-104975D01*
X1066321D01*
Y-104688D01*
X1066607D01*
Y-104402D01*
X1066893D01*
Y-104116D01*
Y-103829D01*
X1067180D01*
Y-103543D01*
X1067466D01*
Y-103257D01*
Y-102971D01*
X1067752D01*
Y-102684D01*
Y-102398D01*
X1068039D01*
Y-102112D01*
X1068325D01*
Y-101825D01*
Y-101539D01*
X1068611D01*
Y-101253D01*
Y-100966D01*
X1068898D01*
Y-100680D01*
Y-100394D01*
X1067180D01*
Y-100107D01*
X1065176D01*
Y-99821D01*
X1064030D01*
Y-99535D01*
X1063458D01*
Y-99248D01*
X1062599D01*
Y-98962D01*
X1062026D01*
Y-98676D01*
X1061740D01*
Y-98390D01*
X1061167D01*
Y-98103D01*
X1060881D01*
Y-97817D01*
X1060595D01*
Y-97531D01*
X1060308D01*
Y-97244D01*
X1060022D01*
Y-96958D01*
X1059736D01*
Y-96672D01*
Y-96385D01*
X1059449D01*
Y-96099D01*
X1059163D01*
Y-95813D01*
Y-95526D01*
X1058877D01*
Y-95240D01*
Y-94954D01*
X1058590D01*
Y-94667D01*
Y-94381D01*
X1058304D01*
Y-94095D01*
Y-93809D01*
Y-93522D01*
X1058018D01*
Y-93236D01*
Y-92950D01*
Y-92663D01*
Y-92377D01*
X1057731D01*
Y-92091D01*
Y-91804D01*
Y-91518D01*
Y-91232D01*
Y-90945D01*
Y-90659D01*
Y-90373D01*
X1057445D01*
Y-90086D01*
Y-89800D01*
Y-89514D01*
Y-89227D01*
Y-88941D01*
Y-88655D01*
Y-88369D01*
Y-88082D01*
Y-87796D01*
Y-87510D01*
Y-87223D01*
Y-86937D01*
Y-86651D01*
Y-86364D01*
Y-86078D01*
X1057159D01*
Y-85792D01*
Y-85505D01*
Y-85219D01*
Y-84933D01*
Y-84646D01*
Y-84360D01*
Y-84074D01*
Y-83788D01*
Y-83501D01*
Y-83215D01*
Y-82929D01*
Y-82642D01*
Y-82356D01*
Y-82070D01*
Y-81783D01*
X1056872D01*
Y-81497D01*
Y-81211D01*
Y-80924D01*
Y-80638D01*
Y-80352D01*
Y-80066D01*
Y-79779D01*
Y-79493D01*
Y-79207D01*
Y-78920D01*
Y-78634D01*
Y-78348D01*
Y-78061D01*
Y-77775D01*
Y-77489D01*
Y-77202D01*
X1056586D01*
Y-76916D01*
Y-76630D01*
Y-76343D01*
Y-76057D01*
Y-75771D01*
Y-75485D01*
Y-75198D01*
Y-74912D01*
Y-74625D01*
Y-74339D01*
Y-74053D01*
Y-73767D01*
Y-73480D01*
Y-73194D01*
Y-72908D01*
Y-72621D01*
X1056300D01*
Y-72335D01*
Y-72049D01*
Y-71762D01*
Y-71476D01*
Y-71190D01*
Y-70903D01*
Y-70617D01*
Y-70331D01*
Y-70044D01*
Y-69758D01*
Y-69472D01*
Y-69186D01*
Y-68899D01*
Y-68613D01*
X1056014D01*
Y-68327D01*
Y-68040D01*
Y-67754D01*
Y-67468D01*
Y-67181D01*
Y-66895D01*
Y-66609D01*
Y-66322D01*
Y-66036D01*
Y-65750D01*
Y-65464D01*
Y-65177D01*
Y-64891D01*
Y-64605D01*
Y-64318D01*
Y-64032D01*
X1055727D01*
Y-63746D01*
X1069470D01*
Y-64032D01*
Y-64318D01*
Y-64605D01*
Y-64891D01*
Y-65177D01*
Y-65464D01*
Y-65750D01*
Y-66036D01*
Y-66322D01*
Y-66609D01*
Y-66895D01*
Y-67181D01*
Y-67468D01*
Y-67754D01*
X1069757D01*
Y-68040D01*
Y-68327D01*
Y-68613D01*
Y-68899D01*
Y-69186D01*
Y-69472D01*
Y-69758D01*
Y-70044D01*
Y-70331D01*
Y-70617D01*
Y-70903D01*
Y-71190D01*
Y-71476D01*
Y-71762D01*
Y-72049D01*
Y-72335D01*
Y-72621D01*
Y-72908D01*
Y-73194D01*
Y-73480D01*
Y-73767D01*
Y-74053D01*
Y-74339D01*
Y-74625D01*
Y-74912D01*
Y-75198D01*
Y-75485D01*
Y-75771D01*
Y-76057D01*
Y-76343D01*
Y-76630D01*
Y-76916D01*
Y-77202D01*
Y-77489D01*
Y-77775D01*
Y-78061D01*
Y-78348D01*
Y-78634D01*
Y-78920D01*
Y-79207D01*
Y-79493D01*
X1070043D01*
Y-79779D01*
X1069757D01*
Y-80066D01*
Y-80352D01*
X1070043D01*
Y-80638D01*
Y-80924D01*
Y-81211D01*
Y-81497D01*
Y-81783D01*
Y-82070D01*
Y-82356D01*
Y-82642D01*
Y-82929D01*
Y-83215D01*
Y-83501D01*
Y-83788D01*
Y-84074D01*
Y-84360D01*
Y-84646D01*
Y-84933D01*
Y-85219D01*
Y-85505D01*
Y-85792D01*
Y-86078D01*
Y-86364D01*
Y-86651D01*
Y-86937D01*
Y-87223D01*
Y-87510D01*
Y-87796D01*
X1070329D01*
Y-88082D01*
Y-88369D01*
Y-88655D01*
X1070615D01*
Y-88941D01*
X1070902D01*
Y-89227D01*
X1071188D01*
Y-89514D01*
X1072047D01*
Y-89800D01*
X1072906D01*
Y-89514D01*
X1073192D01*
Y-89227D01*
Y-88941D01*
Y-88655D01*
X1073479D01*
Y-88369D01*
Y-88082D01*
X1073765D01*
Y-87796D01*
Y-87510D01*
Y-87223D01*
X1074051D01*
Y-86937D01*
Y-86651D01*
Y-86364D01*
X1074338D01*
Y-86078D01*
Y-85792D01*
Y-85505D01*
X1074624D01*
Y-85219D01*
Y-84933D01*
Y-84646D01*
X1074910D01*
Y-84360D01*
Y-84074D01*
X1075196D01*
Y-83788D01*
Y-83501D01*
Y-83215D01*
X1075483D01*
Y-82929D01*
Y-82642D01*
Y-82356D01*
X1075769D01*
Y-82070D01*
Y-81783D01*
Y-81497D01*
X1076056D01*
Y-81211D01*
Y-80924D01*
X1076342D01*
Y-80638D01*
Y-80352D01*
Y-80066D01*
X1076628D01*
Y-79779D01*
Y-79493D01*
Y-79207D01*
X1076914D01*
Y-78920D01*
Y-78634D01*
Y-78348D01*
X1077201D01*
Y-78061D01*
Y-77775D01*
X1077487D01*
Y-77489D01*
Y-77202D01*
Y-76916D01*
X1077773D01*
Y-76630D01*
Y-76343D01*
Y-76057D01*
X1078060D01*
Y-75771D01*
Y-75485D01*
Y-75198D01*
X1078346D01*
Y-74912D01*
Y-74625D01*
X1078632D01*
Y-74339D01*
Y-74053D01*
Y-73767D01*
X1078919D01*
Y-73480D01*
Y-73194D01*
Y-72908D01*
X1079205D01*
Y-72621D01*
Y-72335D01*
Y-72049D01*
X1079491D01*
Y-71762D01*
Y-71476D01*
Y-71190D01*
Y-70903D01*
X1079778D01*
Y-70617D01*
Y-70331D01*
Y-70044D01*
Y-69758D01*
X1080064D01*
Y-69472D01*
Y-69186D01*
Y-68899D01*
Y-68613D01*
Y-68327D01*
X1080350D01*
Y-68040D01*
Y-67754D01*
Y-67468D01*
Y-67181D01*
Y-66895D01*
Y-66609D01*
X1080637D01*
Y-66322D01*
Y-66036D01*
Y-65750D01*
Y-65464D01*
Y-65177D01*
Y-64891D01*
Y-64605D01*
Y-64318D01*
Y-64032D01*
Y-63746D01*
X1093521D01*
Y-64032D01*
D02*
G37*
G36*
X1035685Y-46567D02*
Y-46853D01*
X1035399D01*
Y-47139D01*
Y-47426D01*
Y-47712D01*
Y-47998D01*
Y-48285D01*
Y-48571D01*
X1035113D01*
Y-48857D01*
Y-49144D01*
Y-49430D01*
Y-49716D01*
Y-50003D01*
Y-50289D01*
X1034826D01*
Y-50575D01*
Y-50862D01*
Y-51148D01*
Y-51434D01*
Y-51720D01*
Y-52007D01*
Y-52293D01*
X1034540D01*
Y-52579D01*
Y-52866D01*
Y-53152D01*
Y-53438D01*
Y-53725D01*
Y-54011D01*
X1034254D01*
Y-54297D01*
Y-54584D01*
Y-54870D01*
Y-55156D01*
Y-55443D01*
Y-55729D01*
X1033967D01*
Y-56015D01*
Y-56301D01*
Y-56588D01*
Y-56874D01*
Y-57161D01*
Y-57447D01*
Y-57733D01*
X1033681D01*
Y-58019D01*
Y-58306D01*
Y-58592D01*
Y-58878D01*
Y-59165D01*
Y-59451D01*
X1033395D01*
Y-59737D01*
Y-60024D01*
Y-60310D01*
Y-60596D01*
Y-60883D01*
Y-61169D01*
X1033109D01*
Y-61455D01*
Y-61742D01*
Y-62028D01*
Y-62314D01*
Y-62600D01*
Y-62887D01*
X1032822D01*
Y-63173D01*
Y-63459D01*
Y-63746D01*
Y-64032D01*
Y-64318D01*
Y-64605D01*
Y-64891D01*
X1032536D01*
Y-65177D01*
Y-65464D01*
Y-65750D01*
Y-66036D01*
Y-66322D01*
Y-66609D01*
X1032250D01*
Y-66895D01*
Y-67181D01*
X1032822D01*
Y-66895D01*
X1033109D01*
Y-66609D01*
X1033395D01*
Y-66322D01*
X1033967D01*
Y-66036D01*
X1034254D01*
Y-65750D01*
X1034540D01*
Y-65464D01*
X1035113D01*
Y-65177D01*
X1035685D01*
Y-64891D01*
X1035972D01*
Y-64605D01*
X1036544D01*
Y-64318D01*
X1037403D01*
Y-64032D01*
X1037976D01*
Y-63746D01*
X1038835D01*
Y-63459D01*
X1040266D01*
Y-63173D01*
X1046565D01*
Y-63459D01*
X1047711D01*
Y-63746D01*
X1048569D01*
Y-64032D01*
X1049142D01*
Y-64318D01*
X1049428D01*
Y-64605D01*
X1050001D01*
Y-64891D01*
X1050287D01*
Y-65177D01*
X1050574D01*
Y-65464D01*
X1050860D01*
Y-65750D01*
X1051146D01*
Y-66036D01*
Y-66322D01*
X1051433D01*
Y-66609D01*
Y-66895D01*
X1051719D01*
Y-67181D01*
Y-67468D01*
Y-67754D01*
X1052005D01*
Y-68040D01*
Y-68327D01*
Y-68613D01*
Y-68899D01*
X1052291D01*
Y-69186D01*
Y-69472D01*
Y-69758D01*
Y-70044D01*
Y-70331D01*
Y-70617D01*
Y-70903D01*
Y-71190D01*
Y-71476D01*
Y-71762D01*
Y-72049D01*
Y-72335D01*
Y-72621D01*
Y-72908D01*
Y-73194D01*
Y-73480D01*
Y-73767D01*
Y-74053D01*
X1052005D01*
Y-74339D01*
Y-74625D01*
Y-74912D01*
Y-75198D01*
Y-75485D01*
Y-75771D01*
Y-76057D01*
X1051719D01*
Y-76343D01*
Y-76630D01*
Y-76916D01*
Y-77202D01*
Y-77489D01*
Y-77775D01*
Y-78061D01*
X1051433D01*
Y-78348D01*
Y-78634D01*
Y-78920D01*
Y-79207D01*
Y-79493D01*
Y-79779D01*
X1051146D01*
Y-80066D01*
Y-80352D01*
Y-80638D01*
Y-80924D01*
Y-81211D01*
Y-81497D01*
X1050860D01*
Y-81783D01*
Y-82070D01*
Y-82356D01*
Y-82642D01*
Y-82929D01*
Y-83215D01*
X1050574D01*
Y-83501D01*
Y-83788D01*
Y-84074D01*
Y-84360D01*
Y-84646D01*
Y-84933D01*
Y-85219D01*
X1050287D01*
Y-85505D01*
Y-85792D01*
Y-86078D01*
Y-86364D01*
Y-86651D01*
Y-86937D01*
X1050001D01*
Y-87223D01*
Y-87510D01*
Y-87796D01*
Y-88082D01*
Y-88369D01*
Y-88655D01*
X1049715D01*
Y-88941D01*
Y-89227D01*
Y-89514D01*
Y-89800D01*
Y-90086D01*
Y-90373D01*
Y-90659D01*
X1049428D01*
Y-90945D01*
Y-91232D01*
Y-91518D01*
Y-91804D01*
Y-92091D01*
Y-92377D01*
X1049142D01*
Y-92663D01*
Y-92950D01*
Y-93236D01*
Y-93522D01*
Y-93809D01*
Y-94095D01*
X1048856D01*
Y-94381D01*
Y-94667D01*
Y-94954D01*
Y-95240D01*
Y-95526D01*
Y-95813D01*
X1048569D01*
Y-96099D01*
Y-96385D01*
Y-96672D01*
Y-96958D01*
Y-97244D01*
Y-97531D01*
Y-97817D01*
X1048283D01*
Y-98103D01*
Y-98390D01*
Y-98676D01*
Y-98962D01*
Y-99248D01*
Y-99535D01*
X1047997D01*
Y-99821D01*
Y-100107D01*
X1034826D01*
Y-99821D01*
Y-99535D01*
X1035113D01*
Y-99248D01*
Y-98962D01*
Y-98676D01*
Y-98390D01*
Y-98103D01*
Y-97817D01*
X1035399D01*
Y-97531D01*
Y-97244D01*
Y-96958D01*
Y-96672D01*
Y-96385D01*
Y-96099D01*
Y-95813D01*
X1035685D01*
Y-95526D01*
Y-95240D01*
Y-94954D01*
Y-94667D01*
Y-94381D01*
Y-94095D01*
X1035972D01*
Y-93809D01*
Y-93522D01*
Y-93236D01*
Y-92950D01*
Y-92663D01*
Y-92377D01*
X1036258D01*
Y-92091D01*
Y-91804D01*
Y-91518D01*
Y-91232D01*
Y-90945D01*
Y-90659D01*
Y-90373D01*
X1036544D01*
Y-90086D01*
Y-89800D01*
Y-89514D01*
Y-89227D01*
Y-88941D01*
Y-88655D01*
X1036831D01*
Y-88369D01*
Y-88082D01*
Y-87796D01*
Y-87510D01*
Y-87223D01*
Y-86937D01*
Y-86651D01*
X1037117D01*
Y-86364D01*
Y-86078D01*
Y-85792D01*
Y-85505D01*
Y-85219D01*
Y-84933D01*
X1037403D01*
Y-84646D01*
Y-84360D01*
Y-84074D01*
Y-83788D01*
Y-83501D01*
Y-83215D01*
X1037689D01*
Y-82929D01*
Y-82642D01*
Y-82356D01*
Y-82070D01*
Y-81783D01*
Y-81497D01*
X1037976D01*
Y-81211D01*
Y-80924D01*
Y-80638D01*
Y-80352D01*
Y-80066D01*
Y-79779D01*
Y-79493D01*
X1038262D01*
Y-79207D01*
Y-78920D01*
Y-78634D01*
Y-78348D01*
Y-78061D01*
Y-77775D01*
X1038548D01*
Y-77489D01*
Y-77202D01*
Y-76916D01*
Y-76630D01*
Y-76343D01*
Y-76057D01*
Y-75771D01*
X1038835D01*
Y-75485D01*
Y-75198D01*
Y-74912D01*
Y-74625D01*
Y-74339D01*
Y-74053D01*
X1038548D01*
Y-73767D01*
Y-73480D01*
X1038262D01*
Y-73194D01*
X1037976D01*
Y-72908D01*
X1037403D01*
Y-72621D01*
X1035685D01*
Y-72908D01*
X1034254D01*
Y-73194D01*
X1033395D01*
Y-73480D01*
X1032822D01*
Y-73767D01*
X1032536D01*
Y-74053D01*
X1031963D01*
Y-74339D01*
X1031677D01*
Y-74625D01*
X1031391D01*
Y-74912D01*
Y-75198D01*
X1031104D01*
Y-75485D01*
Y-75771D01*
Y-76057D01*
X1030818D01*
Y-76343D01*
Y-76630D01*
Y-76916D01*
Y-77202D01*
Y-77489D01*
Y-77775D01*
X1030532D01*
Y-78061D01*
Y-78348D01*
Y-78634D01*
Y-78920D01*
Y-79207D01*
Y-79493D01*
Y-79779D01*
X1030245D01*
Y-80066D01*
Y-80352D01*
Y-80638D01*
Y-80924D01*
Y-81211D01*
Y-81497D01*
X1029959D01*
Y-81783D01*
Y-82070D01*
Y-82356D01*
Y-82642D01*
Y-82929D01*
Y-83215D01*
X1029673D01*
Y-83501D01*
Y-83788D01*
Y-84074D01*
Y-84360D01*
Y-84646D01*
Y-84933D01*
X1029387D01*
Y-85219D01*
Y-85505D01*
Y-85792D01*
Y-86078D01*
Y-86364D01*
Y-86651D01*
Y-86937D01*
X1029100D01*
Y-87223D01*
Y-87510D01*
Y-87796D01*
Y-88082D01*
Y-88369D01*
Y-88655D01*
X1028814D01*
Y-88941D01*
Y-89227D01*
Y-89514D01*
Y-89800D01*
Y-90086D01*
Y-90373D01*
X1028528D01*
Y-90659D01*
Y-90945D01*
Y-91232D01*
Y-91518D01*
Y-91804D01*
Y-92091D01*
Y-92377D01*
X1028241D01*
Y-92663D01*
Y-92950D01*
Y-93236D01*
Y-93522D01*
Y-93809D01*
Y-94095D01*
X1027955D01*
Y-94381D01*
Y-94667D01*
Y-94954D01*
Y-95240D01*
Y-95526D01*
Y-95813D01*
X1027669D01*
Y-96099D01*
Y-96385D01*
Y-96672D01*
Y-96958D01*
Y-97244D01*
Y-97531D01*
X1027382D01*
Y-97817D01*
Y-98103D01*
Y-98390D01*
Y-98676D01*
Y-98962D01*
Y-99248D01*
Y-99535D01*
X1027096D01*
Y-99821D01*
Y-100107D01*
X1013926D01*
Y-99821D01*
Y-99535D01*
X1014212D01*
Y-99248D01*
Y-98962D01*
Y-98676D01*
Y-98390D01*
Y-98103D01*
Y-97817D01*
Y-97531D01*
X1014498D01*
Y-97244D01*
Y-96958D01*
Y-96672D01*
Y-96385D01*
Y-96099D01*
Y-95813D01*
X1014785D01*
Y-95526D01*
Y-95240D01*
Y-94954D01*
Y-94667D01*
Y-94381D01*
Y-94095D01*
X1015071D01*
Y-93809D01*
Y-93522D01*
Y-93236D01*
Y-92950D01*
Y-92663D01*
Y-92377D01*
Y-92091D01*
X1015357D01*
Y-91804D01*
Y-91518D01*
Y-91232D01*
Y-90945D01*
Y-90659D01*
Y-90373D01*
X1015643D01*
Y-90086D01*
Y-89800D01*
Y-89514D01*
Y-89227D01*
Y-88941D01*
Y-88655D01*
X1015930D01*
Y-88369D01*
Y-88082D01*
Y-87796D01*
Y-87510D01*
Y-87223D01*
Y-86937D01*
X1016216D01*
Y-86651D01*
Y-86364D01*
Y-86078D01*
Y-85792D01*
Y-85505D01*
Y-85219D01*
Y-84933D01*
X1016502D01*
Y-84646D01*
Y-84360D01*
Y-84074D01*
Y-83788D01*
Y-83501D01*
Y-83215D01*
X1016789D01*
Y-82929D01*
Y-82642D01*
Y-82356D01*
Y-82070D01*
Y-81783D01*
Y-81497D01*
X1017075D01*
Y-81211D01*
Y-80924D01*
Y-80638D01*
Y-80352D01*
Y-80066D01*
Y-79779D01*
Y-79493D01*
X1017361D01*
Y-79207D01*
Y-78920D01*
Y-78634D01*
Y-78348D01*
Y-78061D01*
Y-77775D01*
X1017648D01*
Y-77489D01*
Y-77202D01*
Y-76916D01*
Y-76630D01*
Y-76343D01*
Y-76057D01*
X1017934D01*
Y-75771D01*
Y-75485D01*
Y-75198D01*
Y-74912D01*
Y-74625D01*
Y-74339D01*
X1018220D01*
Y-74053D01*
Y-73767D01*
Y-73480D01*
Y-73194D01*
Y-72908D01*
Y-72621D01*
Y-72335D01*
X1018507D01*
Y-72049D01*
Y-71762D01*
Y-71476D01*
Y-71190D01*
Y-70903D01*
Y-70617D01*
X1018793D01*
Y-70331D01*
Y-70044D01*
Y-69758D01*
Y-69472D01*
Y-69186D01*
Y-68899D01*
X1019079D01*
Y-68613D01*
Y-68327D01*
Y-68040D01*
Y-67754D01*
Y-67468D01*
Y-67181D01*
X1019366D01*
Y-66895D01*
Y-66609D01*
Y-66322D01*
Y-66036D01*
Y-65750D01*
Y-65464D01*
Y-65177D01*
X1019652D01*
Y-64891D01*
Y-64605D01*
Y-64318D01*
Y-64032D01*
Y-63746D01*
Y-63459D01*
X1019938D01*
Y-63173D01*
Y-62887D01*
Y-62600D01*
Y-62314D01*
Y-62028D01*
Y-61742D01*
X1020224D01*
Y-61455D01*
Y-61169D01*
Y-60883D01*
Y-60596D01*
Y-60310D01*
Y-60024D01*
Y-59737D01*
X1020511D01*
Y-59451D01*
Y-59165D01*
Y-58878D01*
Y-58592D01*
Y-58306D01*
Y-58019D01*
X1020797D01*
Y-57733D01*
Y-57447D01*
Y-57161D01*
Y-56874D01*
Y-56588D01*
Y-56301D01*
X1021083D01*
Y-56015D01*
Y-55729D01*
Y-55443D01*
Y-55156D01*
Y-54870D01*
Y-54584D01*
X1021370D01*
Y-54297D01*
Y-54011D01*
Y-53725D01*
Y-53438D01*
Y-53152D01*
Y-52866D01*
Y-52579D01*
X1021656D01*
Y-52293D01*
Y-52007D01*
Y-51720D01*
Y-51434D01*
Y-51148D01*
Y-50862D01*
X1021942D01*
Y-50575D01*
Y-50289D01*
Y-50003D01*
Y-49716D01*
Y-49430D01*
Y-49144D01*
X1022229D01*
Y-48857D01*
Y-48571D01*
Y-48285D01*
Y-47998D01*
Y-47712D01*
Y-47426D01*
Y-47139D01*
X1022515D01*
Y-46853D01*
Y-46567D01*
Y-46281D01*
X1035685D01*
Y-46567D01*
D02*
G37*
G36*
X1004477Y-50003D02*
X1006195D01*
Y-50289D01*
X1007054D01*
Y-50575D01*
X1007913D01*
Y-50862D01*
X1008772D01*
Y-51148D01*
X1009345D01*
Y-51434D01*
X1009631D01*
Y-51720D01*
X1010203D01*
Y-52007D01*
X1010490D01*
Y-52293D01*
X1011062D01*
Y-52579D01*
X1011349D01*
Y-52866D01*
X1011635D01*
Y-53152D01*
X1011921D01*
Y-53438D01*
X1012208D01*
Y-53725D01*
X1012494D01*
Y-54011D01*
X1012780D01*
Y-54297D01*
Y-54584D01*
X1013067D01*
Y-54870D01*
X1013353D01*
Y-55156D01*
Y-55443D01*
X1013639D01*
Y-55729D01*
X1013926D01*
Y-56015D01*
Y-56301D01*
X1014212D01*
Y-56588D01*
Y-56874D01*
Y-57161D01*
X1014498D01*
Y-57447D01*
Y-57733D01*
Y-58019D01*
X1014785D01*
Y-58306D01*
Y-58592D01*
Y-58878D01*
Y-59165D01*
X1015071D01*
Y-59451D01*
Y-59737D01*
Y-60024D01*
Y-60310D01*
Y-60596D01*
X1015357D01*
Y-60883D01*
Y-61169D01*
Y-61455D01*
Y-61742D01*
Y-62028D01*
Y-62314D01*
Y-62600D01*
Y-62887D01*
Y-63173D01*
Y-63459D01*
Y-63746D01*
Y-64032D01*
Y-64318D01*
Y-64605D01*
Y-64891D01*
Y-65177D01*
Y-65464D01*
Y-65750D01*
Y-66036D01*
Y-66322D01*
X1015071D01*
Y-66609D01*
Y-66895D01*
Y-67181D01*
Y-67468D01*
Y-67754D01*
Y-68040D01*
Y-68327D01*
X1014785D01*
Y-68613D01*
Y-68899D01*
Y-69186D01*
Y-69472D01*
Y-69758D01*
X1014498D01*
Y-70044D01*
Y-70331D01*
Y-70617D01*
Y-70903D01*
Y-71190D01*
X1014212D01*
Y-71476D01*
Y-71762D01*
Y-72049D01*
X1013926D01*
Y-72335D01*
Y-72621D01*
Y-72908D01*
Y-73194D01*
X1013639D01*
Y-73480D01*
Y-73767D01*
Y-74053D01*
X1013353D01*
Y-74339D01*
Y-74625D01*
X1013067D01*
Y-74912D01*
Y-75198D01*
Y-75485D01*
X1012780D01*
Y-75771D01*
Y-76057D01*
X1012494D01*
Y-76343D01*
Y-76630D01*
X1012208D01*
Y-76916D01*
Y-77202D01*
X1011921D01*
Y-77489D01*
X1011635D01*
Y-77775D01*
Y-78061D01*
X1011349D01*
Y-78348D01*
X1011062D01*
Y-78634D01*
X1010776D01*
Y-78920D01*
Y-79207D01*
X1010490D01*
Y-79493D01*
X1010203D01*
Y-79779D01*
X1009917D01*
Y-80066D01*
X1009631D01*
Y-80352D01*
X1009345D01*
Y-80638D01*
X1008772D01*
Y-80924D01*
X1008486D01*
Y-81211D01*
X1007913D01*
Y-81497D01*
X1007627D01*
Y-81783D01*
X1007054D01*
Y-82070D01*
X1006195D01*
Y-82356D01*
X1005336D01*
Y-82642D01*
X1004477D01*
Y-82929D01*
X1002759D01*
Y-83215D01*
X997606D01*
Y-82929D01*
X995029D01*
Y-82642D01*
X993025D01*
Y-82356D01*
X991593D01*
Y-82070D01*
X990162D01*
Y-81783D01*
X988730D01*
Y-82070D01*
Y-82356D01*
Y-82642D01*
Y-82929D01*
Y-83215D01*
Y-83501D01*
Y-83788D01*
X988444D01*
Y-84074D01*
Y-84360D01*
Y-84646D01*
Y-84933D01*
Y-85219D01*
Y-85505D01*
X988157D01*
Y-85792D01*
Y-86078D01*
Y-86364D01*
Y-86651D01*
Y-86937D01*
Y-87223D01*
X987871D01*
Y-87510D01*
Y-87796D01*
Y-88082D01*
Y-88369D01*
Y-88655D01*
Y-88941D01*
Y-89227D01*
X987585D01*
Y-89514D01*
Y-89800D01*
Y-90086D01*
Y-90373D01*
Y-90659D01*
Y-90945D01*
X987298D01*
Y-91232D01*
Y-91518D01*
Y-91804D01*
Y-92091D01*
Y-92377D01*
Y-92663D01*
X987012D01*
Y-92950D01*
Y-93236D01*
Y-93522D01*
Y-93809D01*
Y-94095D01*
Y-94381D01*
Y-94667D01*
X986726D01*
Y-94954D01*
Y-95240D01*
Y-95526D01*
Y-95813D01*
Y-96099D01*
Y-96385D01*
X986440D01*
Y-96672D01*
Y-96958D01*
Y-97244D01*
Y-97531D01*
Y-97817D01*
Y-98103D01*
X986153D01*
Y-98390D01*
Y-98676D01*
Y-98962D01*
Y-99248D01*
Y-99535D01*
Y-99821D01*
Y-100107D01*
X972696D01*
Y-99821D01*
X972983D01*
Y-99535D01*
Y-99248D01*
Y-98962D01*
Y-98676D01*
Y-98390D01*
X973269D01*
Y-98103D01*
Y-97817D01*
Y-97531D01*
Y-97244D01*
Y-96958D01*
Y-96672D01*
Y-96385D01*
X973555D01*
Y-96099D01*
Y-95813D01*
Y-95526D01*
Y-95240D01*
Y-94954D01*
Y-94667D01*
X973842D01*
Y-94381D01*
Y-94095D01*
Y-93809D01*
Y-93522D01*
Y-93236D01*
Y-92950D01*
X974128D01*
Y-92663D01*
Y-92377D01*
Y-92091D01*
Y-91804D01*
Y-91518D01*
Y-91232D01*
Y-90945D01*
X974414D01*
Y-90659D01*
Y-90373D01*
Y-90086D01*
Y-89800D01*
Y-89514D01*
Y-89227D01*
X974701D01*
Y-88941D01*
Y-88655D01*
Y-88369D01*
Y-88082D01*
Y-87796D01*
Y-87510D01*
X974987D01*
Y-87223D01*
Y-86937D01*
Y-86651D01*
Y-86364D01*
Y-86078D01*
Y-85792D01*
X975273D01*
Y-85505D01*
Y-85219D01*
Y-84933D01*
Y-84646D01*
Y-84360D01*
Y-84074D01*
Y-83788D01*
X975560D01*
Y-83501D01*
Y-83215D01*
Y-82929D01*
Y-82642D01*
Y-82356D01*
Y-82070D01*
X975846D01*
Y-81783D01*
Y-81497D01*
Y-81211D01*
Y-80924D01*
Y-80638D01*
Y-80352D01*
X976132D01*
Y-80066D01*
Y-79779D01*
Y-79493D01*
Y-79207D01*
Y-78920D01*
Y-78634D01*
X976419D01*
Y-78348D01*
Y-78061D01*
Y-77775D01*
Y-77489D01*
Y-77202D01*
Y-76916D01*
Y-76630D01*
X976705D01*
Y-76343D01*
Y-76057D01*
Y-75771D01*
Y-75485D01*
Y-75198D01*
Y-74912D01*
X976991D01*
Y-74625D01*
Y-74339D01*
Y-74053D01*
Y-73767D01*
Y-73480D01*
Y-73194D01*
X977277D01*
Y-72908D01*
Y-72621D01*
Y-72335D01*
Y-72049D01*
Y-71762D01*
Y-71476D01*
Y-71190D01*
X977564D01*
Y-70903D01*
Y-70617D01*
Y-70331D01*
Y-70044D01*
Y-69758D01*
Y-69472D01*
X977850D01*
Y-69186D01*
Y-68899D01*
Y-68613D01*
Y-68327D01*
Y-68040D01*
Y-67754D01*
X978137D01*
Y-67468D01*
Y-67181D01*
Y-66895D01*
Y-66609D01*
Y-66322D01*
Y-66036D01*
X978423D01*
Y-65750D01*
Y-65464D01*
Y-65177D01*
Y-64891D01*
Y-64605D01*
Y-64318D01*
Y-64032D01*
X978709D01*
Y-63746D01*
Y-63459D01*
Y-63173D01*
Y-62887D01*
Y-62600D01*
Y-62314D01*
X978995D01*
Y-62028D01*
Y-61742D01*
Y-61455D01*
Y-61169D01*
Y-60883D01*
Y-60596D01*
X979282D01*
Y-60310D01*
Y-60024D01*
Y-59737D01*
Y-59451D01*
Y-59165D01*
Y-58878D01*
Y-58592D01*
X979568D01*
Y-58306D01*
Y-58019D01*
Y-57733D01*
Y-57447D01*
Y-57161D01*
Y-56874D01*
X979854D01*
Y-56588D01*
Y-56301D01*
Y-56015D01*
Y-55729D01*
Y-55443D01*
Y-55156D01*
X980141D01*
Y-54870D01*
Y-54584D01*
Y-54297D01*
Y-54011D01*
Y-53725D01*
Y-53438D01*
Y-53152D01*
X980427D01*
Y-52866D01*
Y-52579D01*
Y-52293D01*
Y-52007D01*
Y-51720D01*
Y-51434D01*
X980713D01*
Y-51148D01*
Y-50862D01*
Y-50575D01*
Y-50289D01*
Y-50003D01*
Y-49716D01*
X1004477D01*
Y-50003D01*
D02*
G37*
G36*
X1137613Y-64032D02*
X1137326D01*
Y-64318D01*
X1137040D01*
Y-64605D01*
Y-64891D01*
X1136754D01*
Y-65177D01*
X1136467D01*
Y-65464D01*
X1136181D01*
Y-65750D01*
Y-66036D01*
X1135895D01*
Y-66322D01*
X1135608D01*
Y-66609D01*
X1135322D01*
Y-66895D01*
X1135036D01*
Y-67181D01*
Y-67468D01*
X1134750D01*
Y-67754D01*
X1134463D01*
Y-68040D01*
X1134177D01*
Y-68327D01*
Y-68613D01*
X1133891D01*
Y-68899D01*
X1133604D01*
Y-69186D01*
X1133318D01*
Y-69472D01*
X1133032D01*
Y-69758D01*
Y-70044D01*
X1132745D01*
Y-70331D01*
X1132459D01*
Y-70617D01*
X1132173D01*
Y-70903D01*
Y-71190D01*
X1131886D01*
Y-71476D01*
X1131600D01*
Y-71762D01*
X1131314D01*
Y-72049D01*
Y-72335D01*
X1131028D01*
Y-72621D01*
X1130741D01*
Y-72908D01*
X1130455D01*
Y-73194D01*
X1130169D01*
Y-73480D01*
Y-73767D01*
X1129882D01*
Y-74053D01*
X1129596D01*
Y-74339D01*
X1129310D01*
Y-74625D01*
Y-74912D01*
X1129023D01*
Y-75198D01*
X1128737D01*
Y-75485D01*
X1128451D01*
Y-75771D01*
Y-76057D01*
X1128164D01*
Y-76343D01*
X1127878D01*
Y-76630D01*
X1127592D01*
Y-76916D01*
X1127306D01*
Y-77202D01*
Y-77489D01*
X1127019D01*
Y-77775D01*
X1126733D01*
Y-78061D01*
X1126447D01*
Y-78348D01*
Y-78634D01*
X1126160D01*
Y-78920D01*
X1125874D01*
Y-79207D01*
X1125588D01*
Y-79493D01*
Y-79779D01*
X1125301D01*
Y-80066D01*
X1125015D01*
Y-80352D01*
X1124729D01*
Y-80638D01*
X1124442D01*
Y-80924D01*
Y-81211D01*
X1124156D01*
Y-81497D01*
X1123870D01*
Y-81783D01*
X1123583D01*
Y-82070D01*
Y-82356D01*
X1123297D01*
Y-82642D01*
X1123011D01*
Y-82929D01*
X1122725D01*
Y-83215D01*
X1122438D01*
Y-83501D01*
Y-83788D01*
X1122725D01*
Y-84074D01*
Y-84360D01*
X1123011D01*
Y-84646D01*
Y-84933D01*
X1123297D01*
Y-85219D01*
X1123583D01*
Y-85505D01*
Y-85792D01*
X1123870D01*
Y-86078D01*
Y-86364D01*
X1124156D01*
Y-86651D01*
Y-86937D01*
X1124442D01*
Y-87223D01*
Y-87510D01*
X1124729D01*
Y-87796D01*
Y-88082D01*
X1125015D01*
Y-88369D01*
Y-88655D01*
X1125301D01*
Y-88941D01*
Y-89227D01*
X1125588D01*
Y-89514D01*
Y-89800D01*
X1125874D01*
Y-90086D01*
X1126160D01*
Y-90373D01*
Y-90659D01*
X1126447D01*
Y-90945D01*
Y-91232D01*
X1126733D01*
Y-91518D01*
Y-91804D01*
X1127019D01*
Y-92091D01*
Y-92377D01*
X1127306D01*
Y-92663D01*
Y-92950D01*
X1127592D01*
Y-93236D01*
Y-93522D01*
X1127878D01*
Y-93809D01*
Y-94095D01*
X1128164D01*
Y-94381D01*
X1128451D01*
Y-94667D01*
Y-94954D01*
X1128737D01*
Y-95240D01*
Y-95526D01*
X1129023D01*
Y-95813D01*
Y-96099D01*
X1129310D01*
Y-96385D01*
Y-96672D01*
X1129596D01*
Y-96958D01*
Y-97244D01*
X1129882D01*
Y-97531D01*
Y-97817D01*
X1130169D01*
Y-98103D01*
Y-98390D01*
X1130455D01*
Y-98676D01*
X1130741D01*
Y-98962D01*
Y-99248D01*
X1131028D01*
Y-99535D01*
Y-99821D01*
X1131314D01*
Y-100107D01*
X1116139D01*
Y-99821D01*
X1115853D01*
Y-99535D01*
Y-99248D01*
Y-98962D01*
X1115567D01*
Y-98676D01*
Y-98390D01*
Y-98103D01*
X1115280D01*
Y-97817D01*
Y-97531D01*
X1114994D01*
Y-97244D01*
Y-96958D01*
Y-96672D01*
X1114708D01*
Y-96385D01*
Y-96099D01*
Y-95813D01*
X1114421D01*
Y-95526D01*
Y-95240D01*
X1114135D01*
Y-94954D01*
Y-94667D01*
Y-94381D01*
X1113849D01*
Y-94095D01*
Y-93809D01*
Y-93522D01*
X1113562D01*
Y-93236D01*
Y-92950D01*
Y-92663D01*
X1113276D01*
Y-92377D01*
X1112704D01*
Y-92663D01*
Y-92950D01*
X1112417D01*
Y-93236D01*
X1112131D01*
Y-93522D01*
Y-93809D01*
X1111845D01*
Y-94095D01*
X1111558D01*
Y-94381D01*
Y-94667D01*
X1111272D01*
Y-94954D01*
X1110986D01*
Y-95240D01*
Y-95526D01*
X1110699D01*
Y-95813D01*
X1110413D01*
Y-96099D01*
X1110127D01*
Y-96385D01*
Y-96672D01*
X1109840D01*
Y-96958D01*
X1109554D01*
Y-97244D01*
Y-97531D01*
X1109268D01*
Y-97817D01*
X1108981D01*
Y-98103D01*
Y-98390D01*
X1108695D01*
Y-98676D01*
X1108409D01*
Y-98962D01*
Y-99248D01*
X1108123D01*
Y-99535D01*
X1107836D01*
Y-99821D01*
Y-100107D01*
X1091803D01*
Y-99821D01*
X1092089D01*
Y-99535D01*
X1092375D01*
Y-99248D01*
X1092662D01*
Y-98962D01*
X1092948D01*
Y-98676D01*
Y-98390D01*
X1093234D01*
Y-98103D01*
X1093521D01*
Y-97817D01*
X1093807D01*
Y-97531D01*
X1094093D01*
Y-97244D01*
Y-96958D01*
X1094380D01*
Y-96672D01*
X1094666D01*
Y-96385D01*
X1094952D01*
Y-96099D01*
Y-95813D01*
X1095238D01*
Y-95526D01*
X1095525D01*
Y-95240D01*
X1095811D01*
Y-94954D01*
X1096097D01*
Y-94667D01*
Y-94381D01*
X1096384D01*
Y-94095D01*
X1096670D01*
Y-93809D01*
X1096956D01*
Y-93522D01*
X1097243D01*
Y-93236D01*
Y-92950D01*
X1097529D01*
Y-92663D01*
X1097815D01*
Y-92377D01*
X1098102D01*
Y-92091D01*
Y-91804D01*
X1098388D01*
Y-91518D01*
X1098674D01*
Y-91232D01*
X1098960D01*
Y-90945D01*
X1099247D01*
Y-90659D01*
Y-90373D01*
X1099533D01*
Y-90086D01*
X1099819D01*
Y-89800D01*
X1100106D01*
Y-89514D01*
Y-89227D01*
X1100392D01*
Y-88941D01*
X1100678D01*
Y-88655D01*
X1100965D01*
Y-88369D01*
X1101251D01*
Y-88082D01*
Y-87796D01*
X1101537D01*
Y-87510D01*
X1101824D01*
Y-87223D01*
X1102110D01*
Y-86937D01*
Y-86651D01*
X1102396D01*
Y-86364D01*
X1102683D01*
Y-86078D01*
X1102969D01*
Y-85792D01*
X1103255D01*
Y-85505D01*
Y-85219D01*
X1103541D01*
Y-84933D01*
X1103828D01*
Y-84646D01*
X1104114D01*
Y-84360D01*
X1104400D01*
Y-84074D01*
Y-83788D01*
X1104687D01*
Y-83501D01*
X1104973D01*
Y-83215D01*
X1105259D01*
Y-82929D01*
Y-82642D01*
X1105546D01*
Y-82356D01*
X1105832D01*
Y-82070D01*
X1106118D01*
Y-81783D01*
X1106405D01*
Y-81497D01*
Y-81211D01*
X1106691D01*
Y-80924D01*
Y-80638D01*
Y-80352D01*
X1106405D01*
Y-80066D01*
X1106118D01*
Y-79779D01*
Y-79493D01*
X1105832D01*
Y-79207D01*
Y-78920D01*
X1105546D01*
Y-78634D01*
Y-78348D01*
X1105259D01*
Y-78061D01*
Y-77775D01*
X1104973D01*
Y-77489D01*
Y-77202D01*
X1104687D01*
Y-76916D01*
Y-76630D01*
X1104400D01*
Y-76343D01*
X1104114D01*
Y-76057D01*
Y-75771D01*
X1103828D01*
Y-75485D01*
Y-75198D01*
X1103541D01*
Y-74912D01*
Y-74625D01*
X1103255D01*
Y-74339D01*
Y-74053D01*
X1102969D01*
Y-73767D01*
Y-73480D01*
X1102683D01*
Y-73194D01*
Y-72908D01*
X1102396D01*
Y-72621D01*
X1102110D01*
Y-72335D01*
Y-72049D01*
X1101824D01*
Y-71762D01*
Y-71476D01*
X1101537D01*
Y-71190D01*
Y-70903D01*
X1101251D01*
Y-70617D01*
Y-70331D01*
X1100965D01*
Y-70044D01*
Y-69758D01*
X1100678D01*
Y-69472D01*
Y-69186D01*
X1100392D01*
Y-68899D01*
Y-68613D01*
X1100106D01*
Y-68327D01*
X1099819D01*
Y-68040D01*
Y-67754D01*
X1099533D01*
Y-67468D01*
Y-67181D01*
X1099247D01*
Y-66895D01*
Y-66609D01*
X1098960D01*
Y-66322D01*
Y-66036D01*
X1098674D01*
Y-65750D01*
Y-65464D01*
X1098388D01*
Y-65177D01*
Y-64891D01*
X1098102D01*
Y-64605D01*
X1097815D01*
Y-64318D01*
Y-64032D01*
X1097529D01*
Y-63746D01*
X1113276D01*
Y-64032D01*
X1113562D01*
Y-64318D01*
Y-64605D01*
Y-64891D01*
X1113849D01*
Y-65177D01*
Y-65464D01*
Y-65750D01*
X1114135D01*
Y-66036D01*
Y-66322D01*
Y-66609D01*
X1114421D01*
Y-66895D01*
Y-67181D01*
Y-67468D01*
X1114708D01*
Y-67754D01*
Y-68040D01*
Y-68327D01*
X1114994D01*
Y-68613D01*
Y-68899D01*
Y-69186D01*
X1115280D01*
Y-69472D01*
Y-69758D01*
Y-70044D01*
X1115567D01*
Y-70331D01*
Y-70617D01*
Y-70903D01*
X1115853D01*
Y-71190D01*
Y-71476D01*
Y-71762D01*
Y-72049D01*
X1116426D01*
Y-71762D01*
X1116712D01*
Y-71476D01*
X1116998D01*
Y-71190D01*
Y-70903D01*
X1117284D01*
Y-70617D01*
X1117571D01*
Y-70331D01*
Y-70044D01*
X1117857D01*
Y-69758D01*
X1118143D01*
Y-69472D01*
Y-69186D01*
X1118430D01*
Y-68899D01*
X1118716D01*
Y-68613D01*
Y-68327D01*
X1119002D01*
Y-68040D01*
X1119289D01*
Y-67754D01*
Y-67468D01*
X1119575D01*
Y-67181D01*
X1119861D01*
Y-66895D01*
Y-66609D01*
X1120148D01*
Y-66322D01*
X1120434D01*
Y-66036D01*
Y-65750D01*
X1120720D01*
Y-65464D01*
X1121007D01*
Y-65177D01*
Y-64891D01*
X1121293D01*
Y-64605D01*
X1121579D01*
Y-64318D01*
Y-64032D01*
X1121865D01*
Y-63746D01*
X1137613D01*
Y-64032D01*
D02*
G37*
%LPC*%
G36*
X1000183Y-60883D02*
X992166D01*
Y-61169D01*
Y-61455D01*
Y-61742D01*
Y-62028D01*
Y-62314D01*
X991879D01*
Y-62600D01*
Y-62887D01*
Y-63173D01*
Y-63459D01*
Y-63746D01*
Y-64032D01*
X991593D01*
Y-64318D01*
Y-64605D01*
Y-64891D01*
Y-65177D01*
Y-65464D01*
Y-65750D01*
X991307D01*
Y-66036D01*
Y-66322D01*
Y-66609D01*
Y-66895D01*
Y-67181D01*
Y-67468D01*
X991020D01*
Y-67754D01*
Y-68040D01*
Y-68327D01*
Y-68613D01*
Y-68899D01*
Y-69186D01*
Y-69472D01*
X990734D01*
Y-69758D01*
Y-70044D01*
Y-70331D01*
Y-70617D01*
Y-70903D01*
Y-71190D01*
X990448D01*
Y-71476D01*
Y-71762D01*
Y-72049D01*
X997606D01*
Y-71762D01*
X998751D01*
Y-71476D01*
X999324D01*
Y-71190D01*
X999610D01*
Y-70903D01*
X999896D01*
Y-70617D01*
X1000183D01*
Y-70331D01*
X1000469D01*
Y-70044D01*
Y-69758D01*
X1000755D01*
Y-69472D01*
Y-69186D01*
X1001042D01*
Y-68899D01*
Y-68613D01*
X1001328D01*
Y-68327D01*
Y-68040D01*
Y-67754D01*
Y-67468D01*
X1001614D01*
Y-67181D01*
Y-66895D01*
Y-66609D01*
Y-66322D01*
Y-66036D01*
X1001900D01*
Y-65750D01*
Y-65464D01*
Y-65177D01*
Y-64891D01*
Y-64605D01*
Y-64318D01*
Y-64032D01*
Y-63746D01*
Y-63459D01*
Y-63173D01*
Y-62887D01*
X1001614D01*
Y-62600D01*
Y-62314D01*
X1001328D01*
Y-62028D01*
Y-61742D01*
X1001042D01*
Y-61455D01*
X1000755D01*
Y-61169D01*
X1000183D01*
Y-60883D01*
D02*
G37*
%LPD*%
D12*
X241408Y140748D02*
Y144684D01*
X239441Y142716D01*
X242064D01*
X243376Y141404D02*
X244032Y140748D01*
X245344D01*
X246000Y141404D01*
Y144028D01*
X245344Y144684D01*
X244032D01*
X243376Y144028D01*
Y143372D01*
X244032Y142716D01*
X246000D01*
X284783Y140748D02*
X286095D01*
X285439D01*
Y144684D01*
X284783Y144028D01*
X288063Y140748D02*
X289374D01*
X288719D01*
Y144684D01*
X288063Y144028D01*
X291342Y140748D02*
Y141404D01*
X291998D01*
Y140748D01*
X291342D01*
X294622Y144028D02*
X295278Y144684D01*
X296590D01*
X297246Y144028D01*
Y143372D01*
X296590Y142716D01*
X297246Y142060D01*
Y141404D01*
X296590Y140748D01*
X295278D01*
X294622Y141404D01*
Y142060D01*
X295278Y142716D01*
X294622Y143372D01*
Y144028D01*
X295278Y142716D02*
X296590D01*
X298558Y140748D02*
X299870D01*
X299214D01*
Y144684D01*
X298558Y144028D01*
X301838Y140748D02*
X303150D01*
X302494D01*
Y144684D01*
X301838Y144028D01*
X305117Y140748D02*
Y143372D01*
X305773D01*
X306429Y142716D01*
Y140748D01*
Y142716D01*
X307085Y143372D01*
X307741Y142716D01*
Y140748D01*
X309053D02*
X310365D01*
X309709D01*
Y143372D01*
X309053D01*
X312333Y140748D02*
X313645D01*
X312989D01*
Y144684D01*
X312333D01*
X320860Y140748D02*
X319548Y142060D01*
Y143372D01*
X320860Y144684D01*
X322828Y144028D02*
X323484Y144684D01*
X324796D01*
X325452Y144028D01*
Y141404D01*
X324796Y140748D01*
X323484D01*
X322828Y141404D01*
Y144028D01*
X326764Y140748D02*
Y141404D01*
X327420D01*
Y140748D01*
X326764D01*
X330044Y144028D02*
X330700Y144684D01*
X332012D01*
X332667Y144028D01*
Y143372D01*
X332012Y142716D01*
X331356D01*
X332012D01*
X332667Y142060D01*
Y141404D01*
X332012Y140748D01*
X330700D01*
X330044Y141404D01*
X333980Y140748D02*
Y143372D01*
X334635D01*
X335291Y142716D01*
Y140748D01*
Y142716D01*
X335947Y143372D01*
X336603Y142716D01*
Y140748D01*
X337915D02*
Y143372D01*
X338571D01*
X339227Y142716D01*
Y140748D01*
Y142716D01*
X339883Y143372D01*
X340539Y142716D01*
Y140748D01*
X341851D02*
X343163Y142060D01*
Y143372D01*
X341851Y144684D01*
X526287Y140748D02*
Y144684D01*
X528255D01*
X528911Y144028D01*
Y142716D01*
X528255Y142060D01*
X526287D01*
X530223Y144684D02*
X532846D01*
X531534D01*
Y140748D01*
X534158Y144684D02*
Y140748D01*
Y142716D01*
X536782D01*
Y144684D01*
Y140748D01*
X559034D02*
Y144684D01*
X561002D01*
X561658Y144028D01*
Y142716D01*
X561002Y142060D01*
X559034D01*
X560346D02*
X561658Y140748D01*
X563626D02*
X564938D01*
X565594Y141404D01*
Y142716D01*
X564938Y143372D01*
X563626D01*
X562970Y142716D01*
Y141404D01*
X563626Y140748D01*
X566906Y143372D02*
Y141404D01*
X567562Y140748D01*
X569530D01*
Y143372D01*
X570842Y140748D02*
Y143372D01*
X572810D01*
X573465Y142716D01*
Y140748D01*
X577401Y144684D02*
Y140748D01*
X575433D01*
X574778Y141404D01*
Y142716D01*
X575433Y143372D01*
X577401D01*
X242064Y136810D02*
X239441D01*
Y134842D01*
X240753Y135498D01*
X241408D01*
X242064Y134842D01*
Y133530D01*
X241408Y132874D01*
X240097D01*
X239441Y133530D01*
X284783Y136154D02*
X285439Y136810D01*
X286751D01*
X287407Y136154D01*
Y135498D01*
X286751Y134842D01*
X286095D01*
X286751D01*
X287407Y134186D01*
Y133530D01*
X286751Y132874D01*
X285439D01*
X284783Y133530D01*
X291342Y136810D02*
X288719D01*
Y134842D01*
X290030Y135498D01*
X290686D01*
X291342Y134842D01*
Y133530D01*
X290686Y132874D01*
X289374D01*
X288719Y133530D01*
X292654Y132874D02*
Y133530D01*
X293310D01*
Y132874D01*
X292654D01*
X297902D02*
Y136810D01*
X295934Y134842D01*
X298558D01*
X299870Y136154D02*
X300526Y136810D01*
X301838D01*
X302494Y136154D01*
Y135498D01*
X301838Y134842D01*
X301182D01*
X301838D01*
X302494Y134186D01*
Y133530D01*
X301838Y132874D01*
X300526D01*
X299870Y133530D01*
X303805Y136154D02*
X304462Y136810D01*
X305773D01*
X306429Y136154D01*
Y135498D01*
X305773Y134842D01*
X305117D01*
X305773D01*
X306429Y134186D01*
Y133530D01*
X305773Y132874D01*
X304462D01*
X303805Y133530D01*
X307741Y132874D02*
Y135498D01*
X308397D01*
X309053Y134842D01*
Y132874D01*
Y134842D01*
X309709Y135498D01*
X310365Y134842D01*
Y132874D01*
X311677D02*
X312989D01*
X312333D01*
Y135498D01*
X311677D01*
X314957Y132874D02*
X316269D01*
X315613D01*
Y136810D01*
X314957D01*
X323484Y132874D02*
X322172Y134186D01*
Y135498D01*
X323484Y136810D01*
X325452Y136154D02*
X326108Y136810D01*
X327420D01*
X328076Y136154D01*
Y133530D01*
X327420Y132874D01*
X326108D01*
X325452Y133530D01*
Y136154D01*
X329388Y132874D02*
Y133530D01*
X330044D01*
Y132874D01*
X329388D01*
X332668Y133530D02*
X333324Y132874D01*
X334635D01*
X335291Y133530D01*
Y136154D01*
X334635Y136810D01*
X333324D01*
X332668Y136154D01*
Y135498D01*
X333324Y134842D01*
X335291D01*
X336603Y132874D02*
Y135498D01*
X337259D01*
X337915Y134842D01*
Y132874D01*
Y134842D01*
X338571Y135498D01*
X339227Y134842D01*
Y132874D01*
X340539D02*
Y135498D01*
X341195D01*
X341851Y134842D01*
Y132874D01*
Y134842D01*
X342507Y135498D01*
X343163Y134842D01*
Y132874D01*
X344475D02*
X345787Y134186D01*
Y135498D01*
X344475Y136810D01*
X526287Y132874D02*
Y136810D01*
X528255D01*
X528911Y136154D01*
Y134842D01*
X528255Y134186D01*
X526287D01*
X530223Y136810D02*
X532846D01*
X531534D01*
Y132874D01*
X534158Y136810D02*
Y132874D01*
Y134842D01*
X536782D01*
Y136810D01*
Y132874D01*
X559034D02*
Y136810D01*
X561002D01*
X561658Y136154D01*
Y134842D01*
X561002Y134186D01*
X559034D01*
X560346D02*
X561658Y132874D01*
X563626D02*
X564938D01*
X565594Y133530D01*
Y134842D01*
X564938Y135498D01*
X563626D01*
X562970Y134842D01*
Y133530D01*
X563626Y132874D01*
X566906Y135498D02*
Y133530D01*
X567562Y132874D01*
X569530D01*
Y135498D01*
X570842Y132874D02*
Y135498D01*
X572810D01*
X573465Y134842D01*
Y132874D01*
X577401Y136810D02*
Y132874D01*
X575433D01*
X574778Y133530D01*
Y134842D01*
X575433Y135498D01*
X577401D01*
X239441Y125656D02*
X240097Y125000D01*
X241408D01*
X242064Y125656D01*
Y128280D01*
X241408Y128936D01*
X240097D01*
X239441Y128280D01*
Y127624D01*
X240097Y126968D01*
X242064D01*
X287407Y128936D02*
X284783D01*
Y126968D01*
X286095Y127624D01*
X286751D01*
X287407Y126968D01*
Y125656D01*
X286751Y125000D01*
X285439D01*
X284783Y125656D01*
X291342Y128936D02*
X288719D01*
Y126968D01*
X290030Y127624D01*
X290686D01*
X291342Y126968D01*
Y125656D01*
X290686Y125000D01*
X289374D01*
X288719Y125656D01*
X292654Y125000D02*
Y125656D01*
X293310D01*
Y125000D01*
X292654D01*
X295934D02*
X297246D01*
X296590D01*
Y128936D01*
X295934Y128280D01*
X299214Y125000D02*
X300526D01*
X299870D01*
Y128936D01*
X299214Y128280D01*
X302494D02*
X303150Y128936D01*
X304461D01*
X305117Y128280D01*
Y127624D01*
X304461Y126968D01*
X305117Y126312D01*
Y125656D01*
X304461Y125000D01*
X303150D01*
X302494Y125656D01*
Y126312D01*
X303150Y126968D01*
X302494Y127624D01*
Y128280D01*
X303150Y126968D02*
X304461D01*
X306429Y125000D02*
Y127624D01*
X307085D01*
X307741Y126968D01*
Y125000D01*
Y126968D01*
X308397Y127624D01*
X309053Y126968D01*
Y125000D01*
X310365D02*
X311677D01*
X311021D01*
Y127624D01*
X310365D01*
X313645Y125000D02*
X314957D01*
X314301D01*
Y128936D01*
X313645D01*
X322172Y125000D02*
X320860Y126312D01*
Y127624D01*
X322172Y128936D01*
X324140Y125000D02*
X325452D01*
X324796D01*
Y128936D01*
X324140Y128280D01*
X327420Y125000D02*
Y125656D01*
X328076D01*
Y125000D01*
X327420D01*
X332668D02*
Y128936D01*
X330700Y126968D01*
X333324D01*
X334635Y125000D02*
Y127624D01*
X335291D01*
X335947Y126968D01*
Y125000D01*
Y126968D01*
X336603Y127624D01*
X337259Y126968D01*
Y125000D01*
X338571D02*
Y127624D01*
X339227D01*
X339883Y126968D01*
Y125000D01*
Y126968D01*
X340539Y127624D01*
X341195Y126968D01*
Y125000D01*
X342507D02*
X343819Y126312D01*
Y127624D01*
X342507Y128936D01*
X526287Y125000D02*
Y128936D01*
X528255D01*
X528911Y128280D01*
Y126968D01*
X528255Y126312D01*
X526287D01*
X530223Y128936D02*
X532846D01*
X531534D01*
Y125000D01*
X534158Y128936D02*
Y125000D01*
Y126968D01*
X536782D01*
Y128936D01*
Y125000D01*
X559034D02*
Y128936D01*
X561002D01*
X561658Y128280D01*
Y126968D01*
X561002Y126312D01*
X559034D01*
X560346D02*
X561658Y125000D01*
X563626D02*
X564938D01*
X565594Y125656D01*
Y126968D01*
X564938Y127624D01*
X563626D01*
X562970Y126968D01*
Y125656D01*
X563626Y125000D01*
X566906Y127624D02*
Y125656D01*
X567562Y125000D01*
X569530D01*
Y127624D01*
X570842Y125000D02*
Y127624D01*
X572810D01*
X573465Y126968D01*
Y125000D01*
X577401Y128936D02*
Y125000D01*
X575433D01*
X574778Y125656D01*
Y126968D01*
X575433Y127624D01*
X577401D01*
X239441Y120406D02*
X240097Y121062D01*
X241408D01*
X242064Y120406D01*
Y119750D01*
X241408Y119094D01*
X240753D01*
X241408D01*
X242064Y118438D01*
Y117782D01*
X241408Y117126D01*
X240097D01*
X239441Y117782D01*
X284783Y117126D02*
X286095D01*
X285439D01*
Y121062D01*
X284783Y120406D01*
X290686Y117126D02*
X288063D01*
X290686Y119750D01*
Y120406D01*
X290030Y121062D01*
X288719D01*
X288063Y120406D01*
X294622Y121062D02*
X291998D01*
Y119094D01*
X293310Y119750D01*
X293966D01*
X294622Y119094D01*
Y117782D01*
X293966Y117126D01*
X292654D01*
X291998Y117782D01*
X295934Y117126D02*
Y117782D01*
X296590D01*
Y117126D01*
X295934D01*
X299214Y117782D02*
X299870Y117126D01*
X301182D01*
X301838Y117782D01*
Y120406D01*
X301182Y121062D01*
X299870D01*
X299214Y120406D01*
Y119750D01*
X299870Y119094D01*
X301838D01*
X303150Y120406D02*
X303805Y121062D01*
X305117D01*
X305773Y120406D01*
Y119750D01*
X305117Y119094D01*
X305773Y118438D01*
Y117782D01*
X305117Y117126D01*
X303805D01*
X303150Y117782D01*
Y118438D01*
X303805Y119094D01*
X303150Y119750D01*
Y120406D01*
X303805Y119094D02*
X305117D01*
X309053Y117126D02*
Y121062D01*
X307085Y119094D01*
X309709D01*
X311021Y117126D02*
Y119750D01*
X311677D01*
X312333Y119094D01*
Y117126D01*
Y119094D01*
X312989Y119750D01*
X313645Y119094D01*
Y117126D01*
X314957D02*
X316269D01*
X315613D01*
Y119750D01*
X314957D01*
X318236Y117126D02*
X319548D01*
X318893D01*
Y121062D01*
X318236D01*
X326764Y117126D02*
X325452Y118438D01*
Y119750D01*
X326764Y121062D01*
X328732Y120406D02*
X329388Y121062D01*
X330700D01*
X331356Y120406D01*
Y119750D01*
X330700Y119094D01*
X330044D01*
X330700D01*
X331356Y118438D01*
Y117782D01*
X330700Y117126D01*
X329388D01*
X328732Y117782D01*
X332668Y117126D02*
Y117782D01*
X333324D01*
Y117126D01*
X332668D01*
X338571D02*
X335947D01*
X338571Y119750D01*
Y120406D01*
X337915Y121062D01*
X336603D01*
X335947Y120406D01*
X339883Y117126D02*
Y119750D01*
X340539D01*
X341195Y119094D01*
Y117126D01*
Y119094D01*
X341851Y119750D01*
X342507Y119094D01*
Y117126D01*
X343819D02*
Y119750D01*
X344475D01*
X345131Y119094D01*
Y117126D01*
Y119094D01*
X345787Y119750D01*
X346443Y119094D01*
Y117126D01*
X347755D02*
X349066Y118438D01*
Y119750D01*
X347755Y121062D01*
X526287Y117126D02*
Y121062D01*
X528911Y117126D01*
Y121062D01*
X530223Y117126D02*
Y121062D01*
X532190D01*
X532846Y120406D01*
Y119094D01*
X532190Y118438D01*
X530223D01*
X534158Y121062D02*
X536782D01*
X535470D01*
Y117126D01*
X538094Y121062D02*
Y117126D01*
Y119094D01*
X540718D01*
Y121062D01*
Y117126D01*
X559034D02*
Y121062D01*
X561002D01*
X561658Y120406D01*
Y119094D01*
X561002Y118438D01*
X559034D01*
X560346D02*
X561658Y117126D01*
X563626D02*
X564938D01*
X565594Y117782D01*
Y119094D01*
X564938Y119750D01*
X563626D01*
X562970Y119094D01*
Y117782D01*
X563626Y117126D01*
X566906Y119750D02*
Y117782D01*
X567562Y117126D01*
X569530D01*
Y119750D01*
X570842Y117126D02*
Y119750D01*
X572810D01*
X573465Y119094D01*
Y117126D01*
X577401Y121062D02*
Y117126D01*
X575433D01*
X574778Y117782D01*
Y119094D01*
X575433Y119750D01*
X577401D01*
X239441Y109252D02*
X240753D01*
X240097D01*
Y113188D01*
X239441Y112532D01*
X287407Y109252D02*
X284783D01*
X287407Y111876D01*
Y112532D01*
X286751Y113188D01*
X285439D01*
X284783Y112532D01*
X288719Y113188D02*
X291342D01*
Y112532D01*
X288719Y109908D01*
Y109252D01*
X292654D02*
Y109908D01*
X293310D01*
Y109252D01*
X292654D01*
X298558Y113188D02*
X295934D01*
Y111220D01*
X297246Y111876D01*
X297902D01*
X298558Y111220D01*
Y109908D01*
X297902Y109252D01*
X296590D01*
X295934Y109908D01*
X302494Y113188D02*
X299870D01*
Y111220D01*
X301182Y111876D01*
X301838D01*
X302494Y111220D01*
Y109908D01*
X301838Y109252D01*
X300526D01*
X299870Y109908D01*
X303805D02*
X304462Y109252D01*
X305773D01*
X306429Y109908D01*
Y112532D01*
X305773Y113188D01*
X304462D01*
X303805Y112532D01*
Y111876D01*
X304462Y111220D01*
X306429D01*
X307741Y109252D02*
Y111876D01*
X308397D01*
X309053Y111220D01*
Y109252D01*
Y111220D01*
X309709Y111876D01*
X310365Y111220D01*
Y109252D01*
X311677D02*
X312989D01*
X312333D01*
Y111876D01*
X311677D01*
X314957Y109252D02*
X316269D01*
X315613D01*
Y113188D01*
X314957D01*
X323484Y109252D02*
X322172Y110564D01*
Y111876D01*
X323484Y113188D01*
X325452Y112532D02*
X326108Y113188D01*
X327420D01*
X328076Y112532D01*
Y109908D01*
X327420Y109252D01*
X326108D01*
X325452Y109908D01*
Y112532D01*
X329388Y109252D02*
Y109908D01*
X330044D01*
Y109252D01*
X329388D01*
X332668Y113188D02*
X335291D01*
Y112532D01*
X332668Y109908D01*
Y109252D01*
X336603D02*
Y111876D01*
X337259D01*
X337915Y111220D01*
Y109252D01*
Y111220D01*
X338571Y111876D01*
X339227Y111220D01*
Y109252D01*
X340539D02*
Y111876D01*
X341195D01*
X341851Y111220D01*
Y109252D01*
Y111220D01*
X342507Y111876D01*
X343163Y111220D01*
Y109252D01*
X344475D02*
X345787Y110564D01*
Y111876D01*
X344475Y113188D01*
X372631D02*
X375255D01*
Y112532D01*
X372631Y109908D01*
Y109252D01*
X378534D02*
Y113188D01*
X376567Y111220D01*
X379190D01*
X380502Y109252D02*
Y109908D01*
X381158D01*
Y109252D01*
X380502D01*
X383782Y112532D02*
X384438Y113188D01*
X385750D01*
X386406Y112532D01*
Y111876D01*
X385750Y111220D01*
X386406Y110564D01*
Y109908D01*
X385750Y109252D01*
X384438D01*
X383782Y109908D01*
Y110564D01*
X384438Y111220D01*
X383782Y111876D01*
Y112532D01*
X384438Y111220D02*
X385750D01*
X387718Y112532D02*
X388374Y113188D01*
X389686D01*
X390342Y112532D01*
Y109908D01*
X389686Y109252D01*
X388374D01*
X387718Y109908D01*
Y112532D01*
X391653D02*
X392309Y113188D01*
X393621D01*
X394277Y112532D01*
Y111876D01*
X393621Y111220D01*
X392965D01*
X393621D01*
X394277Y110564D01*
Y109908D01*
X393621Y109252D01*
X392309D01*
X391653Y109908D01*
X395589Y109252D02*
Y111876D01*
X396245D01*
X396901Y111220D01*
Y109252D01*
Y111220D01*
X397557Y111876D01*
X398213Y111220D01*
Y109252D01*
X399525D02*
X400837D01*
X400181D01*
Y111876D01*
X399525D01*
X402805Y109252D02*
X404117D01*
X403461D01*
Y113188D01*
X402805D01*
X411332Y109252D02*
X410020Y110564D01*
Y111876D01*
X411332Y113188D01*
X413300Y109252D02*
X414612D01*
X413956D01*
Y113188D01*
X413300Y112532D01*
X416580Y109252D02*
Y109908D01*
X417236D01*
Y109252D01*
X416580D01*
X419860Y109908D02*
X420516Y109252D01*
X421828D01*
X422483Y109908D01*
Y112532D01*
X421828Y113188D01*
X420516D01*
X419860Y112532D01*
Y111876D01*
X420516Y111220D01*
X422483D01*
X423795Y109252D02*
Y111876D01*
X424451D01*
X425107Y111220D01*
Y109252D01*
Y111220D01*
X425763Y111876D01*
X426419Y111220D01*
Y109252D01*
X427731D02*
Y111876D01*
X428387D01*
X429043Y111220D01*
Y109252D01*
Y111220D01*
X429699Y111876D01*
X430355Y111220D01*
Y109252D01*
X431667D02*
X432979Y110564D01*
Y111876D01*
X431667Y113188D01*
X449065Y109252D02*
Y113188D01*
X447097Y111220D01*
X449721D01*
X451033Y113188D02*
X453657D01*
Y112532D01*
X451033Y109908D01*
Y109252D01*
X454969D02*
Y109908D01*
X455625D01*
Y109252D01*
X454969D01*
X460872D02*
X458249D01*
X460872Y111876D01*
Y112532D01*
X460217Y113188D01*
X458905D01*
X458249Y112532D01*
X464152Y109252D02*
Y113188D01*
X462184Y111220D01*
X464808D01*
X468088Y109252D02*
Y113188D01*
X466120Y111220D01*
X468744D01*
X470056Y109252D02*
Y111876D01*
X470712D01*
X471368Y111220D01*
Y109252D01*
Y111220D01*
X472024Y111876D01*
X472680Y111220D01*
Y109252D01*
X473992D02*
X475304D01*
X474648D01*
Y111876D01*
X473992D01*
X477271Y109252D02*
X478583D01*
X477927D01*
Y113188D01*
X477271D01*
X485799Y109252D02*
X484487Y110564D01*
Y111876D01*
X485799Y113188D01*
X487767Y109252D02*
X489079D01*
X488423D01*
Y113188D01*
X487767Y112532D01*
X491046Y109252D02*
Y109908D01*
X491702D01*
Y109252D01*
X491046D01*
X496950D02*
X494326D01*
X496950Y111876D01*
Y112532D01*
X496294Y113188D01*
X494982D01*
X494326Y112532D01*
X498262Y109252D02*
Y111876D01*
X498918D01*
X499574Y111220D01*
Y109252D01*
Y111220D01*
X500230Y111876D01*
X500886Y111220D01*
Y109252D01*
X502198D02*
Y111876D01*
X502854D01*
X503510Y111220D01*
Y109252D01*
Y111220D01*
X504166Y111876D01*
X504821Y111220D01*
Y109252D01*
X506133D02*
X507445Y110564D01*
Y111876D01*
X506133Y113188D01*
X526287Y109252D02*
Y113188D01*
X528255D01*
X528911Y112532D01*
Y111220D01*
X528255Y110564D01*
X526287D01*
X530223Y113188D02*
X532846D01*
X531534D01*
Y109252D01*
X534158Y113188D02*
Y109252D01*
Y111220D01*
X536782D01*
Y113188D01*
Y109252D01*
X561658Y112532D02*
X561002Y113188D01*
X559691D01*
X559034Y112532D01*
Y111876D01*
X559691Y111220D01*
X561002D01*
X561658Y110564D01*
Y109908D01*
X561002Y109252D01*
X559691D01*
X559034Y109908D01*
X562970Y109252D02*
X564282D01*
X563626D01*
Y113188D01*
X562970D01*
X566906Y109252D02*
X568218D01*
X568874Y109908D01*
Y111220D01*
X568218Y111876D01*
X566906D01*
X566250Y111220D01*
Y109908D01*
X566906Y109252D01*
X570842Y112532D02*
Y111876D01*
X570186D01*
X571498D01*
X570842D01*
Y109908D01*
X571498Y109252D01*
X239441Y101378D02*
X240753D01*
X240097D01*
Y105314D01*
X239441Y104658D01*
X287407Y101378D02*
X284783D01*
X287407Y104002D01*
Y104658D01*
X286751Y105314D01*
X285439D01*
X284783Y104658D01*
X288719Y105314D02*
X291342D01*
Y104658D01*
X288719Y102034D01*
Y101378D01*
X292654D02*
Y102034D01*
X293310D01*
Y101378D01*
X292654D01*
X298558Y105314D02*
X295934D01*
Y103346D01*
X297246Y104002D01*
X297902D01*
X298558Y103346D01*
Y102034D01*
X297902Y101378D01*
X296590D01*
X295934Y102034D01*
X302494Y105314D02*
X299870D01*
Y103346D01*
X301182Y104002D01*
X301838D01*
X302494Y103346D01*
Y102034D01*
X301838Y101378D01*
X300526D01*
X299870Y102034D01*
X303805D02*
X304462Y101378D01*
X305773D01*
X306429Y102034D01*
Y104658D01*
X305773Y105314D01*
X304462D01*
X303805Y104658D01*
Y104002D01*
X304462Y103346D01*
X306429D01*
X307741Y101378D02*
Y104002D01*
X308397D01*
X309053Y103346D01*
Y101378D01*
Y103346D01*
X309709Y104002D01*
X310365Y103346D01*
Y101378D01*
X311677D02*
X312989D01*
X312333D01*
Y104002D01*
X311677D01*
X314957Y101378D02*
X316269D01*
X315613D01*
Y105314D01*
X314957D01*
X323484Y101378D02*
X322172Y102690D01*
Y104002D01*
X323484Y105314D01*
X325452Y104658D02*
X326108Y105314D01*
X327420D01*
X328076Y104658D01*
Y102034D01*
X327420Y101378D01*
X326108D01*
X325452Y102034D01*
Y104658D01*
X329388Y101378D02*
Y102034D01*
X330044D01*
Y101378D01*
X329388D01*
X332668Y105314D02*
X335291D01*
Y104658D01*
X332668Y102034D01*
Y101378D01*
X336603D02*
Y104002D01*
X337259D01*
X337915Y103346D01*
Y101378D01*
Y103346D01*
X338571Y104002D01*
X339227Y103346D01*
Y101378D01*
X340539D02*
Y104002D01*
X341195D01*
X341851Y103346D01*
Y101378D01*
Y103346D01*
X342507Y104002D01*
X343163Y103346D01*
Y101378D01*
X344475D02*
X345787Y102690D01*
Y104002D01*
X344475Y105314D01*
X372631Y102034D02*
X373287Y101378D01*
X374599D01*
X375255Y102034D01*
Y104658D01*
X374599Y105314D01*
X373287D01*
X372631Y104658D01*
Y104002D01*
X373287Y103346D01*
X375255D01*
X376567Y104658D02*
X377222Y105314D01*
X378534D01*
X379190Y104658D01*
Y102034D01*
X378534Y101378D01*
X377222D01*
X376567Y102034D01*
Y104658D01*
X380502Y101378D02*
Y102034D01*
X381158D01*
Y101378D01*
X380502D01*
X386406Y105314D02*
X383782D01*
Y103346D01*
X385094Y104002D01*
X385750D01*
X386406Y103346D01*
Y102034D01*
X385750Y101378D01*
X384438D01*
X383782Y102034D01*
X390342Y105314D02*
X387718D01*
Y103346D01*
X389030Y104002D01*
X389686D01*
X390342Y103346D01*
Y102034D01*
X389686Y101378D01*
X388374D01*
X387718Y102034D01*
X391653Y101378D02*
X392965D01*
X392309D01*
Y105314D01*
X391653Y104658D01*
X394933Y101378D02*
Y104002D01*
X395589D01*
X396245Y103346D01*
Y101378D01*
Y103346D01*
X396901Y104002D01*
X397557Y103346D01*
Y101378D01*
X398869D02*
X400181D01*
X399525D01*
Y104002D01*
X398869D01*
X402149Y101378D02*
X403461D01*
X402805D01*
Y105314D01*
X402149D01*
X410676Y101378D02*
X409364Y102690D01*
Y104002D01*
X410676Y105314D01*
X415268Y101378D02*
X412644D01*
X415268Y104002D01*
Y104658D01*
X414612Y105314D01*
X413300D01*
X412644Y104658D01*
X416580Y101378D02*
Y102034D01*
X417236D01*
Y101378D01*
X416580D01*
X419860Y104658D02*
X420516Y105314D01*
X421828D01*
X422483Y104658D01*
Y104002D01*
X421828Y103346D01*
X421172D01*
X421828D01*
X422483Y102690D01*
Y102034D01*
X421828Y101378D01*
X420516D01*
X419860Y102034D01*
X423795Y101378D02*
Y104002D01*
X424451D01*
X425107Y103346D01*
Y101378D01*
Y103346D01*
X425763Y104002D01*
X426419Y103346D01*
Y101378D01*
X427731D02*
Y104002D01*
X428387D01*
X429043Y103346D01*
Y101378D01*
Y103346D01*
X429699Y104002D01*
X430355Y103346D01*
Y101378D01*
X431667D02*
X432979Y102690D01*
Y104002D01*
X431667Y105314D01*
X449721D02*
X448409Y104658D01*
X447097Y103346D01*
Y102034D01*
X447753Y101378D01*
X449065D01*
X449721Y102034D01*
Y102690D01*
X449065Y103346D01*
X447097D01*
X453657Y101378D02*
X451033D01*
X453657Y104002D01*
Y104658D01*
X453001Y105314D01*
X451689D01*
X451033Y104658D01*
X454969Y101378D02*
Y102034D01*
X455625D01*
Y101378D01*
X454969D01*
X458249Y102034D02*
X458905Y101378D01*
X460217D01*
X460872Y102034D01*
Y104658D01*
X460217Y105314D01*
X458905D01*
X458249Y104658D01*
Y104002D01*
X458905Y103346D01*
X460872D01*
X462184Y102034D02*
X462840Y101378D01*
X464152D01*
X464808Y102034D01*
Y104658D01*
X464152Y105314D01*
X462840D01*
X462184Y104658D01*
Y104002D01*
X462840Y103346D01*
X464808D01*
X468744Y101378D02*
X466120D01*
X468744Y104002D01*
Y104658D01*
X468088Y105314D01*
X466776D01*
X466120Y104658D01*
X470056Y101378D02*
Y104002D01*
X470712D01*
X471368Y103346D01*
Y101378D01*
Y103346D01*
X472024Y104002D01*
X472680Y103346D01*
Y101378D01*
X473992D02*
X475304D01*
X474648D01*
Y104002D01*
X473992D01*
X477271Y101378D02*
X478583D01*
X477927D01*
Y105314D01*
X477271D01*
X485799Y101378D02*
X484487Y102690D01*
Y104002D01*
X485799Y105314D01*
X487767Y101378D02*
X489079D01*
X488423D01*
Y105314D01*
X487767Y104658D01*
X491046Y101378D02*
Y102034D01*
X491702D01*
Y101378D01*
X491046D01*
X496950Y105314D02*
X495638Y104658D01*
X494326Y103346D01*
Y102034D01*
X494982Y101378D01*
X496294D01*
X496950Y102034D01*
Y102690D01*
X496294Y103346D01*
X494326D01*
X498262Y101378D02*
Y104002D01*
X498918D01*
X499574Y103346D01*
Y101378D01*
Y103346D01*
X500230Y104002D01*
X500886Y103346D01*
Y101378D01*
X502198D02*
Y104002D01*
X502854D01*
X503510Y103346D01*
Y101378D01*
Y103346D01*
X504166Y104002D01*
X504821Y103346D01*
Y101378D01*
X506133D02*
X507445Y102690D01*
Y104002D01*
X506133Y105314D01*
X526287Y101378D02*
Y105314D01*
X528255D01*
X528911Y104658D01*
Y103346D01*
X528255Y102690D01*
X526287D01*
X530223Y105314D02*
X532846D01*
X531534D01*
Y101378D01*
X534158Y105314D02*
Y101378D01*
Y103346D01*
X536782D01*
Y105314D01*
Y101378D01*
X561658Y104658D02*
X561002Y105314D01*
X559691D01*
X559034Y104658D01*
Y104002D01*
X559691Y103346D01*
X561002D01*
X561658Y102690D01*
Y102034D01*
X561002Y101378D01*
X559691D01*
X559034Y102034D01*
X562970Y101378D02*
X564282D01*
X563626D01*
Y105314D01*
X562970D01*
X566906Y101378D02*
X568218D01*
X568874Y102034D01*
Y103346D01*
X568218Y104002D01*
X566906D01*
X566250Y103346D01*
Y102034D01*
X566906Y101378D01*
X570842Y104658D02*
Y104002D01*
X570186D01*
X571498D01*
X570842D01*
Y102034D01*
X571498Y101378D01*
X242064Y93504D02*
X239441D01*
X242064Y96128D01*
Y96784D01*
X241408Y97440D01*
X240097D01*
X239441Y96784D01*
X284783D02*
X285439Y97440D01*
X286751D01*
X287407Y96784D01*
Y96128D01*
X286751Y95472D01*
X286095D01*
X286751D01*
X287407Y94816D01*
Y94160D01*
X286751Y93504D01*
X285439D01*
X284783Y94160D01*
X288719D02*
X289374Y93504D01*
X290686D01*
X291342Y94160D01*
Y96784D01*
X290686Y97440D01*
X289374D01*
X288719Y96784D01*
Y96128D01*
X289374Y95472D01*
X291342D01*
X292654Y93504D02*
Y94160D01*
X293310D01*
Y93504D01*
X292654D01*
X295934Y96784D02*
X296590Y97440D01*
X297902D01*
X298558Y96784D01*
Y96128D01*
X297902Y95472D01*
X297246D01*
X297902D01*
X298558Y94816D01*
Y94160D01*
X297902Y93504D01*
X296590D01*
X295934Y94160D01*
X299870Y97440D02*
X302494D01*
Y96784D01*
X299870Y94160D01*
Y93504D01*
X303805D02*
Y96128D01*
X304462D01*
X305117Y95472D01*
Y93504D01*
Y95472D01*
X305773Y96128D01*
X306429Y95472D01*
Y93504D01*
X307741D02*
X309053D01*
X308397D01*
Y96128D01*
X307741D01*
X311021Y93504D02*
X312333D01*
X311677D01*
Y97440D01*
X311021D01*
X319548Y93504D02*
X318236Y94816D01*
Y96128D01*
X319548Y97440D01*
X321516Y93504D02*
X322828D01*
X322172D01*
Y97440D01*
X321516Y96784D01*
X324796Y93504D02*
Y96128D01*
X325452D01*
X326108Y95472D01*
Y93504D01*
Y95472D01*
X326764Y96128D01*
X327420Y95472D01*
Y93504D01*
X328732D02*
Y96128D01*
X329388D01*
X330044Y95472D01*
Y93504D01*
Y95472D01*
X330700Y96128D01*
X331356Y95472D01*
Y93504D01*
X332668D02*
X333980Y94816D01*
Y96128D01*
X332668Y97440D01*
X372631Y93504D02*
X373943D01*
X373287D01*
Y97440D01*
X372631Y96784D01*
X375911Y93504D02*
X377222D01*
X376567D01*
Y97440D01*
X375911Y96784D01*
X379190D02*
X379846Y97440D01*
X381158D01*
X381814Y96784D01*
Y94160D01*
X381158Y93504D01*
X379846D01*
X379190Y94160D01*
Y96784D01*
X383126Y93504D02*
Y94160D01*
X383782D01*
Y93504D01*
X383126D01*
X389030D02*
X386406D01*
X389030Y96128D01*
Y96784D01*
X388374Y97440D01*
X387062D01*
X386406Y96784D01*
X390342D02*
X390998Y97440D01*
X392309D01*
X392965Y96784D01*
Y96128D01*
X392309Y95472D01*
X391653D01*
X392309D01*
X392965Y94816D01*
Y94160D01*
X392309Y93504D01*
X390998D01*
X390342Y94160D01*
X396901Y97440D02*
X395589Y96784D01*
X394277Y95472D01*
Y94160D01*
X394933Y93504D01*
X396245D01*
X396901Y94160D01*
Y94816D01*
X396245Y95472D01*
X394277D01*
X398213Y93504D02*
Y96128D01*
X398869D01*
X399525Y95472D01*
Y93504D01*
Y95472D01*
X400181Y96128D01*
X400837Y95472D01*
Y93504D01*
X402149D02*
X403461D01*
X402805D01*
Y96128D01*
X402149D01*
X405429Y93504D02*
X406741D01*
X406085D01*
Y97440D01*
X405429D01*
X413956Y93504D02*
X412644Y94816D01*
Y96128D01*
X413956Y97440D01*
X418548Y93504D02*
X415924D01*
X418548Y96128D01*
Y96784D01*
X417892Y97440D01*
X416580D01*
X415924Y96784D01*
X419860Y93504D02*
Y94160D01*
X420516D01*
Y93504D01*
X419860D01*
X423139Y96784D02*
X423795Y97440D01*
X425107D01*
X425763Y96784D01*
Y96128D01*
X425107Y95472D01*
X425763Y94816D01*
Y94160D01*
X425107Y93504D01*
X423795D01*
X423139Y94160D01*
Y94816D01*
X423795Y95472D01*
X423139Y96128D01*
Y96784D01*
X423795Y95472D02*
X425107D01*
X427075Y93504D02*
Y96128D01*
X427731D01*
X428387Y95472D01*
Y93504D01*
Y95472D01*
X429043Y96128D01*
X429699Y95472D01*
Y93504D01*
X431011D02*
Y96128D01*
X431667D01*
X432323Y95472D01*
Y93504D01*
Y95472D01*
X432979Y96128D01*
X433635Y95472D01*
Y93504D01*
X434947D02*
X436259Y94816D01*
Y96128D01*
X434947Y97440D01*
X447097D02*
X449721D01*
Y96784D01*
X447097Y94160D01*
Y93504D01*
X451033Y96784D02*
X451689Y97440D01*
X453001D01*
X453657Y96784D01*
Y94160D01*
X453001Y93504D01*
X451689D01*
X451033Y94160D01*
Y96784D01*
X454969Y93504D02*
Y94160D01*
X455625D01*
Y93504D01*
X454969D01*
X458249Y96784D02*
X458905Y97440D01*
X460217D01*
X460872Y96784D01*
Y96128D01*
X460217Y95472D01*
X460872Y94816D01*
Y94160D01*
X460217Y93504D01*
X458905D01*
X458249Y94160D01*
Y94816D01*
X458905Y95472D01*
X458249Y96128D01*
Y96784D01*
X458905Y95472D02*
X460217D01*
X464808Y97440D02*
X463496Y96784D01*
X462184Y95472D01*
Y94160D01*
X462840Y93504D01*
X464152D01*
X464808Y94160D01*
Y94816D01*
X464152Y95472D01*
X462184D01*
X468744Y97440D02*
X467432Y96784D01*
X466120Y95472D01*
Y94160D01*
X466776Y93504D01*
X468088D01*
X468744Y94160D01*
Y94816D01*
X468088Y95472D01*
X466120D01*
X470056Y93504D02*
Y96128D01*
X470712D01*
X471368Y95472D01*
Y93504D01*
Y95472D01*
X472024Y96128D01*
X472680Y95472D01*
Y93504D01*
X473992D02*
X475304D01*
X474648D01*
Y96128D01*
X473992D01*
X477271Y93504D02*
X478583D01*
X477927D01*
Y97440D01*
X477271D01*
X485799Y93504D02*
X484487Y94816D01*
Y96128D01*
X485799Y97440D01*
X487767Y93504D02*
X489079D01*
X488423D01*
Y97440D01*
X487767Y96784D01*
X491046Y93504D02*
Y94160D01*
X491702D01*
Y93504D01*
X491046D01*
X494326Y96784D02*
X494982Y97440D01*
X496294D01*
X496950Y96784D01*
Y96128D01*
X496294Y95472D01*
X496950Y94816D01*
Y94160D01*
X496294Y93504D01*
X494982D01*
X494326Y94160D01*
Y94816D01*
X494982Y95472D01*
X494326Y96128D01*
Y96784D01*
X494982Y95472D02*
X496294D01*
X498262Y93504D02*
Y96128D01*
X498918D01*
X499574Y95472D01*
Y93504D01*
Y95472D01*
X500230Y96128D01*
X500886Y95472D01*
Y93504D01*
X502198D02*
Y96128D01*
X502854D01*
X503510Y95472D01*
Y93504D01*
Y95472D01*
X504166Y96128D01*
X504821Y95472D01*
Y93504D01*
X506133D02*
X507445Y94816D01*
Y96128D01*
X506133Y97440D01*
X526287Y93504D02*
Y97440D01*
X528255D01*
X528911Y96784D01*
Y95472D01*
X528255Y94816D01*
X526287D01*
X530223Y97440D02*
X532846D01*
X531534D01*
Y93504D01*
X534158Y97440D02*
Y93504D01*
Y95472D01*
X536782D01*
Y97440D01*
Y93504D01*
X561658Y96784D02*
X561002Y97440D01*
X559691D01*
X559034Y96784D01*
Y96128D01*
X559691Y95472D01*
X561002D01*
X561658Y94816D01*
Y94160D01*
X561002Y93504D01*
X559691D01*
X559034Y94160D01*
X562970Y93504D02*
X564282D01*
X563626D01*
Y97440D01*
X562970D01*
X566906Y93504D02*
X568218D01*
X568874Y94160D01*
Y95472D01*
X568218Y96128D01*
X566906D01*
X566250Y95472D01*
Y94160D01*
X566906Y93504D01*
X570842Y96784D02*
Y96128D01*
X570186D01*
X571498D01*
X570842D01*
Y94160D01*
X571498Y93504D01*
X239441Y89566D02*
X242064D01*
Y88910D01*
X239441Y86286D01*
Y85630D01*
X243376Y88910D02*
X244032Y89566D01*
X245344D01*
X246000Y88910D01*
Y86286D01*
X245344Y85630D01*
X244032D01*
X243376Y86286D01*
Y88910D01*
X252851Y89566D02*
X255474D01*
X254163D01*
Y85630D01*
X257442D02*
X258754D01*
X259410Y86286D01*
Y87598D01*
X258754Y88254D01*
X257442D01*
X256786Y87598D01*
Y86286D01*
X257442Y85630D01*
X261378Y88910D02*
Y88254D01*
X260722D01*
X262034D01*
X261378D01*
Y86286D01*
X262034Y85630D01*
X264658Y88254D02*
X265970D01*
X266626Y87598D01*
Y85630D01*
X264658D01*
X264002Y86286D01*
X264658Y86942D01*
X266626D01*
X267938Y85630D02*
X269250D01*
X268594D01*
Y89566D01*
X267938D01*
X342269Y79068D02*
X344893D01*
X342269Y80380D02*
X344893D01*
X352764Y81036D02*
X352108Y81692D01*
X350796D01*
X350140Y81036D01*
Y78412D01*
X350796Y77756D01*
X352108D01*
X352764Y78412D01*
X354732Y80380D02*
X356044D01*
X356700Y79724D01*
Y77756D01*
X354732D01*
X354076Y78412D01*
X354732Y79068D01*
X356700D01*
X358012Y77756D02*
X359324D01*
X358668D01*
Y81692D01*
X358012D01*
X363915Y80380D02*
X361947D01*
X361292Y79724D01*
Y78412D01*
X361947Y77756D01*
X363915D01*
X365227Y80380D02*
Y78412D01*
X365883Y77756D01*
X367851D01*
Y80380D01*
X369163Y77756D02*
X370475D01*
X369819D01*
Y81692D01*
X369163D01*
X373099Y80380D02*
X374411D01*
X375067Y79724D01*
Y77756D01*
X373099D01*
X372443Y78412D01*
X373099Y79068D01*
X375067D01*
X377034Y81036D02*
Y80380D01*
X376379D01*
X377691D01*
X377034D01*
Y78412D01*
X377691Y77756D01*
X381626D02*
X380314D01*
X379658Y78412D01*
Y79724D01*
X380314Y80380D01*
X381626D01*
X382282Y79724D01*
Y79068D01*
X379658D01*
X386218Y81692D02*
Y77756D01*
X384250D01*
X383594Y78412D01*
Y79724D01*
X384250Y80380D01*
X386218D01*
X392122Y77756D02*
Y81036D01*
Y79724D01*
X391466D01*
X392777D01*
X392122D01*
Y81036D01*
X392777Y81692D01*
X394745Y80380D02*
Y77756D01*
Y79068D01*
X395401Y79724D01*
X396057Y80380D01*
X396713D01*
X399337Y77756D02*
X400649D01*
X401305Y78412D01*
Y79724D01*
X400649Y80380D01*
X399337D01*
X398681Y79724D01*
Y78412D01*
X399337Y77756D01*
X402617D02*
Y80380D01*
X403273D01*
X403929Y79724D01*
Y77756D01*
Y79724D01*
X404585Y80380D01*
X405241Y79724D01*
Y77756D01*
X411144Y81036D02*
Y80380D01*
X410488D01*
X411800D01*
X411144D01*
Y78412D01*
X411800Y77756D01*
X414424D02*
X415736D01*
X416392Y78412D01*
Y79724D01*
X415736Y80380D01*
X414424D01*
X413768Y79724D01*
Y78412D01*
X414424Y77756D01*
X418360D02*
X419672D01*
X420328Y78412D01*
Y79724D01*
X419672Y80380D01*
X418360D01*
X417704Y79724D01*
Y78412D01*
X418360Y77756D01*
X421640D02*
X422952D01*
X422296D01*
Y81692D01*
X421640D01*
X428855Y77756D02*
X430823D01*
X431479Y78412D01*
X430823Y79068D01*
X429511D01*
X428855Y79724D01*
X429511Y80380D01*
X431479D01*
X433447Y81036D02*
Y80380D01*
X432791D01*
X434103D01*
X433447D01*
Y78412D01*
X434103Y77756D01*
X436727Y80380D02*
X438038D01*
X438694Y79724D01*
Y77756D01*
X436727D01*
X436071Y78412D01*
X436727Y79068D01*
X438694D01*
X440006Y80380D02*
Y77756D01*
Y79068D01*
X440662Y79724D01*
X441318Y80380D01*
X441974D01*
X444598Y81036D02*
Y80380D01*
X443942D01*
X445254D01*
X444598D01*
Y78412D01*
X445254Y77756D01*
X453781Y80380D02*
X451814D01*
X451158Y79724D01*
Y78412D01*
X451814Y77756D01*
X453781D01*
X457061D02*
X455749D01*
X455093Y78412D01*
Y79724D01*
X455749Y80380D01*
X457061D01*
X457717Y79724D01*
Y79068D01*
X455093D01*
X459029Y77756D02*
Y80380D01*
X460997D01*
X461653Y79724D01*
Y77756D01*
X463621Y81036D02*
Y80380D01*
X462965D01*
X464277D01*
X463621D01*
Y78412D01*
X464277Y77756D01*
X466245Y80380D02*
Y77756D01*
Y79068D01*
X466901Y79724D01*
X467556Y80380D01*
X468213D01*
X472148Y77756D02*
X470836D01*
X470180Y78412D01*
Y79724D01*
X470836Y80380D01*
X472148D01*
X472804Y79724D01*
Y79068D01*
X470180D01*
X478052Y76444D02*
Y80380D01*
X480020D01*
X480676Y79724D01*
Y78412D01*
X480020Y77756D01*
X478052D01*
X482644D02*
X483955D01*
X484611Y78412D01*
Y79724D01*
X483955Y80380D01*
X482644D01*
X481988Y79724D01*
Y78412D01*
X482644Y77756D01*
X485923D02*
X487891D01*
X488547Y78412D01*
X487891Y79068D01*
X486579D01*
X485923Y79724D01*
X486579Y80380D01*
X488547D01*
X489859Y77756D02*
X491171D01*
X490515D01*
Y80380D01*
X489859D01*
X493795Y81036D02*
Y80380D01*
X493139D01*
X494451D01*
X493795D01*
Y78412D01*
X494451Y77756D01*
X496419D02*
X497730D01*
X497075D01*
Y80380D01*
X496419D01*
X500354Y77756D02*
X501666D01*
X502322Y78412D01*
Y79724D01*
X501666Y80380D01*
X500354D01*
X499698Y79724D01*
Y78412D01*
X500354Y77756D01*
X503634D02*
Y80380D01*
X505602D01*
X506258Y79724D01*
Y77756D01*
X512162Y81036D02*
Y80380D01*
X511506D01*
X512817D01*
X512162D01*
Y78412D01*
X512817Y77756D01*
X515441D02*
X516753D01*
X517409Y78412D01*
Y79724D01*
X516753Y80380D01*
X515441D01*
X514785Y79724D01*
Y78412D01*
X515441Y77756D01*
X523313Y81036D02*
Y80380D01*
X522657D01*
X523969D01*
X523313D01*
Y78412D01*
X523969Y77756D01*
X526593D02*
X527905D01*
X528560Y78412D01*
Y79724D01*
X527905Y80380D01*
X526593D01*
X525937Y79724D01*
Y78412D01*
X526593Y77756D01*
X530528D02*
X531840D01*
X532496Y78412D01*
Y79724D01*
X531840Y80380D01*
X530528D01*
X529872Y79724D01*
Y78412D01*
X530528Y77756D01*
X533808D02*
X535120D01*
X534464D01*
Y81692D01*
X533808D01*
X542991Y77756D02*
X541680D01*
X541024Y78412D01*
Y79724D01*
X541680Y80380D01*
X542991D01*
X543647Y79724D01*
Y79068D01*
X541024D01*
X544959Y77756D02*
Y80380D01*
X546927D01*
X547583Y79724D01*
Y77756D01*
X551519Y81692D02*
Y77756D01*
X549551D01*
X548895Y78412D01*
Y79724D01*
X549551Y80380D01*
X551519D01*
X559390D02*
X557423D01*
X556767Y79724D01*
Y78412D01*
X557423Y77756D01*
X559390D01*
X562670D02*
X561358D01*
X560702Y78412D01*
Y79724D01*
X561358Y80380D01*
X562670D01*
X563326Y79724D01*
Y79068D01*
X560702D01*
X564638Y77756D02*
Y80380D01*
X566606D01*
X567262Y79724D01*
Y77756D01*
X569230Y81036D02*
Y80380D01*
X568574D01*
X569886D01*
X569230D01*
Y78412D01*
X569886Y77756D01*
X571854Y80380D02*
Y77756D01*
Y79068D01*
X572510Y79724D01*
X573166Y80380D01*
X573821D01*
X577757Y77756D02*
X576445D01*
X575789Y78412D01*
Y79724D01*
X576445Y80380D01*
X577757D01*
X578413Y79724D01*
Y79068D01*
X575789D01*
X583661Y76444D02*
Y80380D01*
X585629D01*
X586285Y79724D01*
Y78412D01*
X585629Y77756D01*
X583661D01*
X588252D02*
X589565D01*
X590220Y78412D01*
Y79724D01*
X589565Y80380D01*
X588252D01*
X587597Y79724D01*
Y78412D01*
X588252Y77756D01*
X591532D02*
X593500D01*
X594156Y78412D01*
X593500Y79068D01*
X592188D01*
X591532Y79724D01*
X592188Y80380D01*
X594156D01*
X595468Y77756D02*
X596780D01*
X596124D01*
Y80380D01*
X595468D01*
X599404Y81036D02*
Y80380D01*
X598748D01*
X600060D01*
X599404D01*
Y78412D01*
X600060Y77756D01*
X602028D02*
X603339D01*
X602684D01*
Y80380D01*
X602028D01*
X605963Y77756D02*
X607275D01*
X607931Y78412D01*
Y79724D01*
X607275Y80380D01*
X605963D01*
X605307Y79724D01*
Y78412D01*
X605963Y77756D01*
X609243D02*
Y80380D01*
X611211D01*
X611867Y79724D01*
Y77756D01*
X613179D02*
Y78412D01*
X613835D01*
Y77756D01*
X613179D01*
X342269Y71194D02*
X344893D01*
X342269Y72506D02*
X344893D01*
X350140Y69882D02*
Y73818D01*
X352108D01*
X352764Y73162D01*
Y71850D01*
X352108Y71194D01*
X350140D01*
X351452D02*
X352764Y69882D01*
X354732D02*
X356044D01*
X356700Y70538D01*
Y71850D01*
X356044Y72506D01*
X354732D01*
X354076Y71850D01*
Y70538D01*
X354732Y69882D01*
X358012Y72506D02*
Y70538D01*
X358668Y69882D01*
X360636D01*
Y72506D01*
X362603Y73162D02*
Y72506D01*
X361947D01*
X363260D01*
X362603D01*
Y70538D01*
X363260Y69882D01*
X369163D02*
Y73818D01*
X371131D01*
X371787Y73162D01*
Y71850D01*
X371131Y71194D01*
X369163D01*
X373755Y72506D02*
X375067D01*
X375723Y71850D01*
Y69882D01*
X373755D01*
X373099Y70538D01*
X373755Y71194D01*
X375723D01*
X377691Y73162D02*
Y72506D01*
X377034D01*
X378346D01*
X377691D01*
Y70538D01*
X378346Y69882D01*
X380314Y73818D02*
Y69882D01*
Y71850D01*
X380970Y72506D01*
X382282D01*
X382938Y71850D01*
Y69882D01*
X388186Y73818D02*
Y69882D01*
X390810D01*
X394089D02*
X392777D01*
X392122Y70538D01*
Y71850D01*
X392777Y72506D01*
X394089D01*
X394745Y71850D01*
Y71194D01*
X392122D01*
X396057Y69882D02*
Y72506D01*
X398025D01*
X398681Y71850D01*
Y69882D01*
X401305Y68570D02*
X401961D01*
X402617Y69226D01*
Y72506D01*
X400649D01*
X399993Y71850D01*
Y70538D01*
X400649Y69882D01*
X402617D01*
X404585Y73162D02*
Y72506D01*
X403929D01*
X405241D01*
X404585D01*
Y70538D01*
X405241Y69882D01*
X407208Y73818D02*
Y69882D01*
Y71850D01*
X407865Y72506D01*
X409176D01*
X409832Y71850D01*
Y69882D01*
X415080Y71850D02*
X417704D01*
X416392Y73162D02*
Y70538D01*
X422952Y73818D02*
X425575D01*
X424263D01*
Y69882D01*
X427543D02*
X428855D01*
X429511Y70538D01*
Y71850D01*
X428855Y72506D01*
X427543D01*
X426887Y71850D01*
Y70538D01*
X427543Y69882D01*
X431479D02*
X432791D01*
X433447Y70538D01*
Y71850D01*
X432791Y72506D01*
X431479D01*
X430823Y71850D01*
Y70538D01*
X431479Y69882D01*
X434759D02*
X436071D01*
X435415D01*
Y73818D01*
X434759D01*
X444598Y73162D02*
X443942Y73818D01*
X442630D01*
X441974Y73162D01*
Y72506D01*
X442630Y71850D01*
X443942D01*
X444598Y71194D01*
Y70538D01*
X443942Y69882D01*
X442630D01*
X441974Y70538D01*
X445910Y69882D02*
X447222D01*
X446566D01*
Y72506D01*
X445910D01*
X449190D02*
X451814D01*
X449190Y69882D01*
X451814D01*
X455093D02*
X453782D01*
X453125Y70538D01*
Y71850D01*
X453782Y72506D01*
X455093D01*
X455749Y71850D01*
Y71194D01*
X453125D01*
X460997D02*
X463621D01*
X460997Y72506D02*
X463621D01*
X471492Y73162D02*
X470836Y73818D01*
X469524D01*
X468868Y73162D01*
Y72506D01*
X469524Y71850D01*
X470836D01*
X471492Y71194D01*
Y70538D01*
X470836Y69882D01*
X469524D01*
X468868Y70538D01*
X472804Y69882D02*
X474116D01*
X473460D01*
Y73818D01*
X472804D01*
X476740Y69882D02*
X478052D01*
X478708Y70538D01*
Y71850D01*
X478052Y72506D01*
X476740D01*
X476084Y71850D01*
Y70538D01*
X476740Y69882D01*
X480676Y73162D02*
Y72506D01*
X480020D01*
X481332D01*
X480676D01*
Y70538D01*
X481332Y69882D01*
X487235D02*
X488547D01*
X487891D01*
Y73818D01*
X487235D01*
X492483Y69882D02*
X491171D01*
X490515Y70538D01*
Y71850D01*
X491171Y72506D01*
X492483D01*
X493139Y71850D01*
Y71194D01*
X490515D01*
X494451Y69882D02*
Y72506D01*
X496419D01*
X497075Y71850D01*
Y69882D01*
X499698Y68570D02*
X500354D01*
X501010Y69226D01*
Y72506D01*
X499043D01*
X498386Y71850D01*
Y70538D01*
X499043Y69882D01*
X501010D01*
X502978Y73162D02*
Y72506D01*
X502322D01*
X503634D01*
X502978D01*
Y70538D01*
X503634Y69882D01*
X505602Y73818D02*
Y69882D01*
Y71850D01*
X506258Y72506D01*
X507570D01*
X508226Y71850D01*
Y69882D01*
X514129Y72506D02*
X515441D01*
X516097Y71850D01*
Y69882D01*
X514129D01*
X513474Y70538D01*
X514129Y71194D01*
X516097D01*
X517409Y69882D02*
X519377D01*
X520033Y70538D01*
X519377Y71194D01*
X518065D01*
X517409Y71850D01*
X518065Y72506D01*
X520033D01*
X527905Y73818D02*
Y69882D01*
X525937D01*
X525281Y70538D01*
Y71850D01*
X525937Y72506D01*
X527905D01*
X531184Y69882D02*
X529872D01*
X529216Y70538D01*
Y71850D01*
X529872Y72506D01*
X531184D01*
X531840Y71850D01*
Y71194D01*
X529216D01*
X533808Y69882D02*
Y73162D01*
Y71850D01*
X533152D01*
X534464D01*
X533808D01*
Y73162D01*
X534464Y73818D01*
X536432Y69882D02*
X537744D01*
X537088D01*
Y72506D01*
X536432D01*
X539712Y69882D02*
Y72506D01*
X541680D01*
X542336Y71850D01*
Y69882D01*
X545615D02*
X544304D01*
X543647Y70538D01*
Y71850D01*
X544304Y72506D01*
X545615D01*
X546271Y71850D01*
Y71194D01*
X543647D01*
X550207Y73818D02*
Y69882D01*
X548239D01*
X547583Y70538D01*
Y71850D01*
X548239Y72506D01*
X550207D01*
X555455Y69882D02*
X556767D01*
X556111D01*
Y72506D01*
X555455D01*
X558735Y69882D02*
Y72506D01*
X560702D01*
X561358Y71850D01*
Y69882D01*
X567262Y73162D02*
Y72506D01*
X566606D01*
X567918D01*
X567262D01*
Y70538D01*
X567918Y69882D01*
X569886Y73818D02*
Y69882D01*
Y71850D01*
X570542Y72506D01*
X571854D01*
X572510Y71850D01*
Y69882D01*
X575789D02*
X574477D01*
X573821Y70538D01*
Y71850D01*
X574477Y72506D01*
X575789D01*
X576445Y71850D01*
Y71194D01*
X573821D01*
X581693Y69882D02*
Y73818D01*
X583661D01*
X584317Y73162D01*
Y71850D01*
X583661Y71194D01*
X581693D01*
X588252Y73162D02*
X587597Y73818D01*
X586285D01*
X585629Y73162D01*
Y70538D01*
X586285Y69882D01*
X587597D01*
X588252Y70538D01*
X589565Y73818D02*
Y69882D01*
X591532D01*
X592188Y70538D01*
Y71194D01*
X591532Y71850D01*
X589565D01*
X591532D01*
X592188Y72506D01*
Y73162D01*
X591532Y73818D01*
X589565D01*
X597436Y69882D02*
X598748D01*
X598092D01*
Y73818D01*
X597436D01*
X601372Y72506D02*
X602684D01*
X603339Y71850D01*
Y69882D01*
X601372D01*
X600716Y70538D01*
X601372Y71194D01*
X603339D01*
X604651Y72506D02*
Y70538D01*
X605307Y69882D01*
X607275D01*
Y69226D01*
X606619Y68570D01*
X605963D01*
X607275Y69882D02*
Y72506D01*
X609243Y69882D02*
X610555D01*
X611211Y70538D01*
Y71850D01*
X610555Y72506D01*
X609243D01*
X608587Y71850D01*
Y70538D01*
X609243Y69882D01*
X612523Y72506D02*
Y70538D01*
X613179Y69882D01*
X615147D01*
Y72506D01*
X617115Y73162D02*
Y72506D01*
X616459D01*
X617771D01*
X617115D01*
Y70538D01*
X617771Y69882D01*
D34*
X1157480Y-141735D02*
Y-149606D01*
X1161416D01*
X1162728Y-148294D01*
Y-143047D01*
X1161416Y-141735D01*
X1157480D01*
X1166664Y-149606D02*
X1169287D01*
X1170599Y-148294D01*
Y-145671D01*
X1169287Y-144359D01*
X1166664D01*
X1165352Y-145671D01*
Y-148294D01*
X1166664Y-149606D01*
X1178471Y-144359D02*
X1174535D01*
X1173223Y-145671D01*
Y-148294D01*
X1174535Y-149606D01*
X1178471D01*
X1181095Y-144359D02*
Y-148294D01*
X1182407Y-149606D01*
X1186342D01*
Y-144359D01*
X1188966Y-149606D02*
Y-144359D01*
X1190278D01*
X1191590Y-145671D01*
Y-149606D01*
Y-145671D01*
X1192902Y-144359D01*
X1194214Y-145671D01*
Y-149606D01*
X1200774D02*
X1198150D01*
X1196838Y-148294D01*
Y-145671D01*
X1198150Y-144359D01*
X1200774D01*
X1202085Y-145671D01*
Y-146983D01*
X1196838D01*
X1204709Y-149606D02*
Y-144359D01*
X1208645D01*
X1209957Y-145671D01*
Y-149606D01*
X1213893Y-143047D02*
Y-144359D01*
X1212581D01*
X1215205D01*
X1213893D01*
Y-148294D01*
X1215205Y-149606D01*
X1157480Y-102365D02*
Y-110236D01*
X1161416D01*
X1162728Y-108924D01*
Y-103677D01*
X1161416Y-102365D01*
X1157480D01*
X1166664Y-104989D02*
X1169287D01*
X1170599Y-106300D01*
Y-110236D01*
X1166664D01*
X1165352Y-108924D01*
X1166664Y-107612D01*
X1170599D01*
X1174535Y-103677D02*
Y-104989D01*
X1173223D01*
X1175847D01*
X1174535D01*
Y-108924D01*
X1175847Y-110236D01*
X1183719D02*
X1181095D01*
X1179783Y-108924D01*
Y-106300D01*
X1181095Y-104989D01*
X1183719D01*
X1185030Y-106300D01*
Y-107612D01*
X1179783D01*
X1157480Y-62995D02*
Y-70866D01*
X1162728D01*
X1166664Y-65618D02*
X1169287D01*
X1170599Y-66930D01*
Y-70866D01*
X1166664D01*
X1165352Y-69554D01*
X1166664Y-68242D01*
X1170599D01*
X1173223Y-65618D02*
Y-69554D01*
X1174535Y-70866D01*
X1178471D01*
Y-72178D01*
X1177159Y-73490D01*
X1175847D01*
X1178471Y-70866D02*
Y-65618D01*
X1185030Y-70866D02*
X1182407D01*
X1181095Y-69554D01*
Y-66930D01*
X1182407Y-65618D01*
X1185030D01*
X1186342Y-66930D01*
Y-68242D01*
X1181095D01*
X1188966Y-65618D02*
Y-70866D01*
Y-68242D01*
X1190278Y-66930D01*
X1191590Y-65618D01*
X1192902D01*
X1204709Y-70866D02*
Y-62995D01*
X1209957Y-70866D01*
Y-62995D01*
X1213893Y-65618D02*
X1216516D01*
X1217828Y-66930D01*
Y-70866D01*
X1213893D01*
X1212581Y-69554D01*
X1213893Y-68242D01*
X1217828D01*
X1220452Y-70866D02*
Y-65618D01*
X1221764D01*
X1223076Y-66930D01*
Y-70866D01*
Y-66930D01*
X1224388Y-65618D01*
X1225700Y-66930D01*
Y-70866D01*
X1232259D02*
X1229636D01*
X1228324Y-69554D01*
Y-66930D01*
X1229636Y-65618D01*
X1232259D01*
X1233571Y-66930D01*
Y-68242D01*
X1228324D01*
X1157480Y-23625D02*
Y-31496D01*
X1161416D01*
X1162728Y-30184D01*
Y-24937D01*
X1161416Y-23625D01*
X1157480D01*
X1166664Y-31496D02*
X1169287D01*
X1170599Y-30184D01*
Y-27560D01*
X1169287Y-26248D01*
X1166664D01*
X1165352Y-27560D01*
Y-30184D01*
X1166664Y-31496D01*
X1178471Y-26248D02*
X1174535D01*
X1173223Y-27560D01*
Y-30184D01*
X1174535Y-31496D01*
X1178471D01*
X1181095Y-26248D02*
Y-30184D01*
X1182407Y-31496D01*
X1186342D01*
Y-26248D01*
X1188966Y-31496D02*
Y-26248D01*
X1190278D01*
X1191590Y-27560D01*
Y-31496D01*
Y-27560D01*
X1192902Y-26248D01*
X1194214Y-27560D01*
Y-31496D01*
X1200774D02*
X1198150D01*
X1196838Y-30184D01*
Y-27560D01*
X1198150Y-26248D01*
X1200774D01*
X1202085Y-27560D01*
Y-28872D01*
X1196838D01*
X1204709Y-31496D02*
Y-26248D01*
X1208645D01*
X1209957Y-27560D01*
Y-31496D01*
X1213893Y-24937D02*
Y-26248D01*
X1212581D01*
X1215205D01*
X1213893D01*
Y-30184D01*
X1215205Y-31496D01*
X960630Y-141735D02*
Y-149606D01*
X964566D01*
X965878Y-148294D01*
Y-143047D01*
X964566Y-141735D01*
X960630D01*
X972437Y-149606D02*
X969813D01*
X968501Y-148294D01*
Y-145671D01*
X969813Y-144359D01*
X972437D01*
X973749Y-145671D01*
Y-146983D01*
X968501D01*
X976373Y-149606D02*
X980309D01*
X981621Y-148294D01*
X980309Y-146983D01*
X977685D01*
X976373Y-145671D01*
X977685Y-144359D01*
X981621D01*
X986868Y-152230D02*
X988180D01*
X989492Y-150918D01*
Y-144359D01*
X985556D01*
X984244Y-145671D01*
Y-148294D01*
X985556Y-149606D01*
X989492D01*
X992116D02*
X994740D01*
X993428D01*
Y-144359D01*
X992116D01*
X998675Y-149606D02*
Y-144359D01*
X1002611D01*
X1003923Y-145671D01*
Y-149606D01*
X1010483D02*
X1007859D01*
X1006547Y-148294D01*
Y-145671D01*
X1007859Y-144359D01*
X1010483D01*
X1011794Y-145671D01*
Y-146983D01*
X1006547D01*
X1014418Y-144359D02*
Y-149606D01*
Y-146983D01*
X1015730Y-145671D01*
X1017042Y-144359D01*
X1018354D01*
X1314961Y-110236D02*
Y-102365D01*
X1318896D01*
X1320208Y-103677D01*
Y-106300D01*
X1318896Y-107612D01*
X1314961D01*
X1317584D02*
X1320208Y-110236D01*
X1326768D02*
X1324144D01*
X1322832Y-108924D01*
Y-106300D01*
X1324144Y-104989D01*
X1326768D01*
X1328080Y-106300D01*
Y-107612D01*
X1322832D01*
X1330704Y-104989D02*
X1333327Y-110236D01*
X1335951Y-104989D01*
D35*
X1173881Y-37407D02*
X1163386D01*
Y-53150D01*
X1173881D01*
X1163386Y-45278D02*
X1168633D01*
X1189624Y-40031D02*
X1187000Y-37407D01*
X1181753D01*
X1179129Y-40031D01*
Y-42654D01*
X1181753Y-45278D01*
X1187000D01*
X1189624Y-47902D01*
Y-50526D01*
X1187000Y-53150D01*
X1181753D01*
X1179129Y-50526D01*
X1194872Y-53150D02*
Y-37407D01*
X1202743D01*
X1205367Y-40031D01*
Y-45278D01*
X1202743Y-47902D01*
X1194872D01*
X1210615Y-53150D02*
X1215862D01*
X1213239D01*
Y-37407D01*
X1210615Y-40031D01*
X1234229Y-53150D02*
X1223734D01*
X1234229Y-42654D01*
Y-40031D01*
X1231605Y-37407D01*
X1226358D01*
X1223734Y-40031D01*
X1239477Y-55773D02*
X1249972D01*
X1255220Y-53150D02*
Y-37407D01*
X1263091D01*
X1265715Y-40031D01*
Y-45278D01*
X1263091Y-47902D01*
X1255220D01*
X1260467D02*
X1265715Y-53150D01*
X1281458Y-40031D02*
X1278834Y-37407D01*
X1273586D01*
X1270963Y-40031D01*
Y-50526D01*
X1273586Y-53150D01*
X1278834D01*
X1281458Y-50526D01*
Y-45278D01*
X1276210D01*
X1286705Y-37407D02*
Y-53150D01*
X1294577D01*
X1297201Y-50526D01*
Y-47902D01*
X1294577Y-45278D01*
X1286705D01*
X1294577D01*
X1297201Y-42654D01*
Y-40031D01*
X1294577Y-37407D01*
X1286705D01*
X1302448D02*
Y-53150D01*
X1307696Y-47902D01*
X1312944Y-53150D01*
Y-37407D01*
X1169291Y-131890D02*
X1173883D01*
X1171587D01*
Y-118115D01*
X1169291Y-120411D01*
X1180771Y-118115D02*
X1189954D01*
Y-120411D01*
X1180771Y-129594D01*
Y-131890D01*
X1194546D02*
X1203729Y-122706D01*
X1208321Y-120411D02*
X1210617Y-118115D01*
X1215208D01*
X1217504Y-120411D01*
Y-129594D01*
X1215208Y-131890D01*
X1210617D01*
X1208321Y-129594D01*
Y-120411D01*
X1222096Y-131890D02*
X1226688D01*
X1224392D01*
Y-118115D01*
X1222096Y-120411D01*
X1233575Y-131890D02*
X1242758Y-122706D01*
X1256534Y-131890D02*
X1247350D01*
X1256534Y-122706D01*
Y-120411D01*
X1254238Y-118115D01*
X1249646D01*
X1247350Y-120411D01*
X1261125D02*
X1263421Y-118115D01*
X1268013D01*
X1270309Y-120411D01*
Y-129594D01*
X1268013Y-131890D01*
X1263421D01*
X1261125Y-129594D01*
Y-120411D01*
X1274900Y-131890D02*
X1279492D01*
X1277196D01*
Y-118115D01*
X1274900Y-120411D01*
X1295563Y-118115D02*
X1290971Y-120411D01*
X1286380Y-125002D01*
Y-129594D01*
X1288675Y-131890D01*
X1293267D01*
X1295563Y-129594D01*
Y-127298D01*
X1293267Y-125002D01*
X1286380D01*
X1332677Y-118771D02*
X1335301Y-116147D01*
X1340549D01*
X1343172Y-118771D01*
Y-129266D01*
X1340549Y-131890D01*
X1335301D01*
X1332677Y-129266D01*
Y-118771D01*
X1348420D02*
X1351044Y-116147D01*
X1356292D01*
X1358915Y-118771D01*
Y-129266D01*
X1356292Y-131890D01*
X1351044D01*
X1348420Y-129266D01*
Y-118771D01*
X978347Y-155517D02*
Y-171260D01*
X983594Y-166012D01*
X988842Y-171260D01*
Y-155517D01*
X994089Y-171260D02*
X999337D01*
X996713D01*
Y-160765D01*
X994089D01*
X1007209Y-171260D02*
Y-160765D01*
X1009832D01*
X1012456Y-163388D01*
Y-171260D01*
Y-163388D01*
X1015080Y-160765D01*
X1017704Y-163388D01*
Y-171260D01*
X1022952Y-155517D02*
Y-166012D01*
X1028199Y-171260D01*
X1033447Y-166012D01*
Y-155517D01*
X1049190Y-158141D02*
X1046566Y-155517D01*
X1041318D01*
X1038694Y-158141D01*
Y-168636D01*
X1041318Y-171260D01*
X1046566D01*
X1049190Y-168636D01*
Y-163388D01*
X1043942D01*
D36*
X0Y7874D02*
G03*
X7874Y0I7874J0D01*
G01*
Y181102D02*
G03*
X0Y173228I0J-7874D01*
G01*
X141732D02*
G03*
X133858Y181102I-7874J-0D01*
G01*
Y0D02*
G03*
X141732Y7874I-0J7874D01*
G01*
X38583Y0D02*
G03*
X42520Y3937I-0J3937D01*
G01*
X83465D02*
G03*
X87402Y0I3937J0D01*
G01*
X83464Y38583D02*
G03*
X81496Y40551I-1969J0D01*
G01*
X44488D02*
G03*
X42520Y38583I0J-1969D01*
G01*
X141732Y7874D02*
Y173228D01*
X7874Y181102D02*
X133858D01*
X0Y7874D02*
Y173228D01*
X7874Y0D02*
X38583D01*
X87402D02*
X133858D01*
X42520Y3937D02*
Y38583D01*
X44488Y40551D02*
X81496D01*
X83465Y3937D02*
Y38583D01*
X-224410Y-177165D02*
X1429134D01*
X-224410D02*
Y992126D01*
X1429134Y-177165D02*
Y992126D01*
X-224410D02*
X1429134D01*
X1153543Y-177165D02*
Y-19685D01*
X956693Y-177165D02*
Y-19685D01*
X1429134D01*
X956693Y-137795D02*
X1429134D01*
X1153543Y-98425D02*
X1429134D01*
X1153543Y-59055D02*
X1429134D01*
X1311024Y-137795D02*
Y-98425D01*
X1167322Y-163388D02*
X1163386D01*
Y-169291D01*
X1167322D01*
X1163386Y-166340D02*
X1165354D01*
X1173225Y-164372D02*
X1172241Y-163388D01*
X1170273D01*
X1169289Y-164372D01*
Y-165356D01*
X1170273Y-166340D01*
X1172241D01*
X1173225Y-167324D01*
Y-168307D01*
X1172241Y-169291D01*
X1170273D01*
X1169289Y-168307D01*
X1175193Y-169291D02*
Y-163388D01*
X1178145D01*
X1179129Y-164372D01*
Y-166340D01*
X1178145Y-167324D01*
X1175193D01*
X1181097Y-169291D02*
X1183064D01*
X1182081D01*
Y-163388D01*
X1181097Y-164372D01*
X1189952Y-169291D02*
X1186016D01*
X1189952Y-165356D01*
Y-164372D01*
X1188968Y-163388D01*
X1187000D01*
X1186016Y-164372D01*
X1191920Y-170275D02*
X1195856D01*
X1197824Y-169291D02*
Y-163388D01*
X1200775D01*
X1201759Y-164372D01*
Y-166340D01*
X1200775Y-167324D01*
X1197824D01*
X1199791D02*
X1201759Y-169291D01*
X1207663Y-164372D02*
X1206679Y-163388D01*
X1204711D01*
X1203727Y-164372D01*
Y-168307D01*
X1204711Y-169291D01*
X1206679D01*
X1207663Y-168307D01*
Y-166340D01*
X1205695D01*
X1209631Y-163388D02*
Y-169291D01*
X1212582D01*
X1213566Y-168307D01*
Y-167324D01*
X1212582Y-166340D01*
X1209631D01*
X1212582D01*
X1213566Y-165356D01*
Y-164372D01*
X1212582Y-163388D01*
X1209631D01*
X1215534D02*
Y-169291D01*
X1217502Y-167324D01*
X1219470Y-169291D01*
Y-163388D01*
X1221438Y-170275D02*
X1225374D01*
X1227341Y-164372D02*
X1228325Y-163388D01*
X1230293D01*
X1231277Y-164372D01*
Y-168307D01*
X1230293Y-169291D01*
X1228325D01*
X1227341Y-168307D01*
Y-164372D01*
X1233245D02*
X1234229Y-163388D01*
X1236197D01*
X1237181Y-164372D01*
Y-168307D01*
X1236197Y-169291D01*
X1234229D01*
X1233245Y-168307D01*
Y-164372D01*
X1239149Y-169291D02*
Y-168307D01*
X1240133D01*
Y-169291D01*
X1239149D01*
X1244068D02*
Y-163388D01*
X1247020D01*
X1248004Y-164372D01*
Y-166340D01*
X1247020Y-167324D01*
X1244068D01*
X1253908Y-165356D02*
X1250956D01*
X1249972Y-166340D01*
Y-168307D01*
X1250956Y-169291D01*
X1253908D01*
X1255876Y-163388D02*
Y-169291D01*
X1258827D01*
X1259811Y-168307D01*
Y-167324D01*
Y-166340D01*
X1258827Y-165356D01*
X1255876D01*
X1261779Y-163388D02*
Y-169291D01*
X1264731D01*
X1265715Y-168307D01*
Y-164372D01*
X1264731Y-163388D01*
X1261779D01*
X1268667Y-169291D02*
X1270635D01*
X1271618Y-168307D01*
Y-166340D01*
X1270635Y-165356D01*
X1268667D01*
X1267683Y-166340D01*
Y-168307D01*
X1268667Y-169291D01*
X1277522Y-165356D02*
X1274570D01*
X1273586Y-166340D01*
Y-168307D01*
X1274570Y-169291D01*
X1277522D01*
D56*
X19685Y-31496D02*
Y-2165D01*
X0Y-31496D02*
Y3937D01*
X-10000Y-27559D02*
X0D01*
X19685D02*
X29685D01*
X-6000Y-25559D02*
X0Y-27559D01*
X-6000Y-29559D02*
X0Y-27559D01*
X19685D02*
X25685Y-29559D01*
X19685Y-27559D02*
X25685Y-25559D01*
X-23622Y11811D02*
X5709D01*
X-23622Y0D02*
X34646D01*
X-19685Y-10000D02*
Y0D01*
Y11811D02*
Y21811D01*
X-21685Y-6000D02*
X-19685Y0D01*
X-17685Y-6000D01*
X-19685Y11811D02*
X-17685Y17811D01*
X-21685D02*
X-19685Y11811D01*
D57*
X3857Y-35693D02*
X1233D01*
Y-37661D01*
X2545Y-37005D01*
X3201D01*
X3857Y-37661D01*
Y-38973D01*
X3201Y-39629D01*
X1889D01*
X1233Y-38973D01*
X5825Y-40285D02*
X6481Y-39629D01*
Y-38973D01*
X5825D01*
Y-39629D01*
X6481D01*
X5825Y-40285D01*
X5169Y-40941D01*
X9105Y-36349D02*
X9761Y-35693D01*
X11073D01*
X11729Y-36349D01*
Y-38973D01*
X11073Y-39629D01*
X9761D01*
X9105Y-38973D01*
Y-36349D01*
X13040D02*
X13697Y-35693D01*
X15008D01*
X15664Y-36349D01*
Y-38973D01*
X15008Y-39629D01*
X13697D01*
X13040Y-38973D01*
Y-36349D01*
X-29000Y-2704D02*
X-29656Y-2048D01*
Y-736D01*
X-29000Y-80D01*
X-28344D01*
X-27688Y-736D01*
Y-1392D01*
Y-736D01*
X-27032Y-80D01*
X-26376D01*
X-25720Y-736D01*
Y-2048D01*
X-26376Y-2704D01*
X-25064Y1888D02*
X-25720Y2544D01*
X-26376D01*
Y1888D01*
X-25720D01*
Y2544D01*
X-25064Y1888D01*
X-24408Y1232D01*
X-29000Y5168D02*
X-29656Y5824D01*
Y7136D01*
X-29000Y7792D01*
X-26376D01*
X-25720Y7136D01*
Y5824D01*
X-26376Y5168D01*
X-29000D01*
Y9104D02*
X-29656Y9759D01*
Y11071D01*
X-29000Y11727D01*
X-26376D01*
X-25720Y11071D01*
Y9759D01*
X-26376Y9104D01*
X-29000D01*
D93*
X134633Y114357D02*
Y115957D01*
X136233D01*
Y114357D01*
X134633D01*
Y100577D02*
Y102177D01*
X136233D01*
Y100577D01*
X134633D01*
Y86798D02*
Y88398D01*
X136233D01*
Y86798D01*
X134633D01*
Y73018D02*
Y74618D01*
X136233D01*
Y73018D01*
X134633D01*
Y59239D02*
Y60839D01*
X136233D01*
Y59239D01*
X134633D01*
Y45460D02*
Y47060D01*
X136233D01*
Y45460D01*
X134633D01*
Y31680D02*
Y33280D01*
X136233D01*
Y31680D01*
X134633D01*
Y17901D02*
Y19501D01*
X136233D01*
Y17901D01*
X134633D01*
X65539Y46838D02*
Y48438D01*
X67139D01*
Y46838D01*
X65539D01*
X38189Y35814D02*
X37389Y37414D01*
X38989D01*
X38189Y35814D01*
X87795Y36602D02*
X88195Y37002D01*
X88595D01*
X88195Y37402D01*
X88595Y37802D01*
X88195D01*
X87795Y38202D01*
X87395Y37802D01*
X86995D01*
X87395Y37402D01*
X86995Y37002D01*
X87395D01*
X87795Y36602D01*
X105499Y11011D02*
X105899Y11811D01*
X105499Y12611D01*
X106299Y12211D01*
X107099Y12611D01*
X106699Y11811D01*
X107099Y11011D01*
X106299Y11411D01*
X105499Y11011D01*
X18885D02*
X19285Y11811D01*
X18885Y12611D01*
X19685Y12211D01*
X20485Y12611D01*
X20085Y11811D01*
X20485Y11011D01*
X19685Y11411D01*
X18885Y11011D01*
X105499Y170460D02*
X105899Y171260D01*
X105499Y172060D01*
X106299Y171660D01*
X107099Y172060D01*
X106699Y171260D01*
X107099Y170460D01*
X106299Y170860D01*
X105499Y170460D01*
X136214Y131391D02*
Y130991D01*
X137014D01*
Y131391D01*
X137414D01*
Y132191D01*
X137014D01*
Y132591D01*
X136214D01*
Y132191D01*
X135814D01*
Y131391D01*
X136214D01*
Y141391D02*
Y140991D01*
X137014D01*
Y141391D01*
X137414D01*
Y142191D01*
X137014D01*
Y142591D01*
X136214D01*
Y142191D01*
X135814D01*
Y141391D01*
X136214D01*
Y151391D02*
Y150991D01*
X137014D01*
Y151391D01*
X137414D01*
Y152191D01*
X137014D01*
Y152591D01*
X136214D01*
Y152191D01*
X135814D01*
Y151391D01*
X136214D01*
Y161391D02*
Y160991D01*
X137014D01*
Y161391D01*
X137414D01*
Y162191D01*
X137014D01*
Y162591D01*
X136214D01*
Y162191D01*
X135814D01*
Y161391D01*
X136214D01*
Y171391D02*
Y170991D01*
X137014D01*
Y171391D01*
X137414D01*
Y172191D01*
X137014D01*
Y172591D01*
X136214D01*
Y172191D01*
X135814D01*
Y171391D01*
X136214D01*
X103432Y112881D02*
X103832D01*
X104232Y113281D01*
X104632Y112881D01*
X105032D01*
Y113281D01*
X104632Y113681D01*
X105032Y114081D01*
Y114481D01*
X104632D01*
X104232Y114081D01*
X103832Y114481D01*
X103432D01*
Y114081D01*
X103832Y113681D01*
X103432Y113281D01*
Y112881D01*
X48413Y51838D02*
X48813D01*
X49213Y52238D01*
X49613Y51838D01*
X50013D01*
Y52238D01*
X49613Y52638D01*
X50013Y53038D01*
Y53438D01*
X49613D01*
X49213Y53038D01*
X48813Y53438D01*
X48413D01*
Y53038D01*
X48813Y52638D01*
X48413Y52238D01*
Y51838D01*
X75972D02*
X76372D01*
X76772Y52238D01*
X77172Y51838D01*
X77572D01*
Y52238D01*
X77172Y52638D01*
X77572Y53038D01*
Y53438D01*
X77172D01*
X76772Y53038D01*
X76372Y53438D01*
X75972D01*
Y53038D01*
X76372Y52638D01*
X75972Y52238D01*
Y51838D01*
X5105Y11011D02*
X5505D01*
X5906Y11411D01*
X6306Y11011D01*
X6706D01*
Y11411D01*
X6306Y11811D01*
X6706Y12211D01*
Y12611D01*
X6306D01*
X5906Y12211D01*
X5505Y12611D01*
X5105D01*
Y12211D01*
X5505Y11811D01*
X5105Y11411D01*
Y11011D01*
X30696Y20854D02*
X31096D01*
X31496Y21253D01*
X31896Y20854D01*
X32296D01*
Y21253D01*
X31896Y21654D01*
X32296Y22053D01*
Y22454D01*
X31896D01*
X31496Y22053D01*
X31096Y22454D01*
X30696D01*
Y22053D01*
X31096Y21654D01*
X30696Y21253D01*
Y20854D01*
X25972Y33058D02*
X26372D01*
X26772Y33458D01*
X27172Y33058D01*
X27572D01*
Y33458D01*
X27172Y33858D01*
X27572Y34258D01*
Y34658D01*
X27172D01*
X26772Y34258D01*
X26372Y34658D01*
X25972D01*
Y34258D01*
X26372Y33858D01*
X25972Y33458D01*
Y33058D01*
X88039Y18885D02*
X88439D01*
X88839Y19285D01*
X89239Y18885D01*
X89639D01*
Y19285D01*
X89239Y19685D01*
X89639Y20085D01*
Y20485D01*
X89239D01*
X88839Y20085D01*
X88439Y20485D01*
X88039D01*
Y20085D01*
X88439Y19685D01*
X88039Y19285D01*
Y18885D01*
X131090Y3137D02*
X131490D01*
X131890Y3537D01*
X132290Y3137D01*
X132690D01*
Y3537D01*
X132290Y3937D01*
X132690Y4337D01*
Y4737D01*
X132290D01*
X131890Y4337D01*
X131490Y4737D01*
X131090D01*
Y4337D01*
X131490Y3937D01*
X131090Y3537D01*
Y3137D01*
X123216Y11011D02*
X123616D01*
X124016Y11411D01*
X124416Y11011D01*
X124816D01*
Y11411D01*
X124416Y11811D01*
X124816Y12211D01*
Y12611D01*
X124416D01*
X124016Y12211D01*
X123616Y12611D01*
X123216D01*
Y12211D01*
X123616Y11811D01*
X123216Y11411D01*
Y11011D01*
X106680Y39358D02*
X107080D01*
X107480Y39757D01*
X107880Y39358D01*
X108280D01*
Y39757D01*
X107880Y40157D01*
X108280Y40558D01*
Y40957D01*
X107880D01*
X107480Y40558D01*
X107080Y40957D01*
X106680D01*
Y40558D01*
X107080Y40157D01*
X106680Y39757D01*
Y39358D01*
X110224D02*
X110624D01*
X111024Y39757D01*
X111424Y39358D01*
X111824D01*
Y39757D01*
X111424Y40157D01*
X111824Y40558D01*
Y40957D01*
X111424D01*
X111024Y40558D01*
X110624Y40957D01*
X110224D01*
Y40558D01*
X110624Y40157D01*
X110224Y39757D01*
Y39358D01*
X113570Y92999D02*
X113970D01*
X114370Y93399D01*
X114770Y92999D01*
X115170D01*
Y93399D01*
X114770Y93799D01*
X115170Y94199D01*
Y94599D01*
X114770D01*
X114370Y94199D01*
X113970Y94599D01*
X113570D01*
Y94199D01*
X113970Y93799D01*
X113570Y93399D01*
Y92999D01*
X107074Y95263D02*
X107474D01*
X107874Y95663D01*
X108274Y95263D01*
X108674D01*
Y95663D01*
X108274Y96063D01*
X108674Y96463D01*
Y96863D01*
X108274D01*
X107874Y96463D01*
X107474Y96863D01*
X107074D01*
Y96463D01*
X107474Y96063D01*
X107074Y95663D01*
Y95263D01*
X100381Y110224D02*
X100781D01*
X101181Y110624D01*
X101581Y110224D01*
X101981D01*
Y110624D01*
X101581Y111024D01*
X101981Y111424D01*
Y111824D01*
X101581D01*
X101181Y111424D01*
X100781Y111824D01*
X100381D01*
Y111424D01*
X100781Y111024D01*
X100381Y110624D01*
Y110224D01*
X57074Y145263D02*
X57474D01*
X57874Y145663D01*
X58274Y145263D01*
X58674D01*
Y145663D01*
X58274Y146063D01*
X58674Y146463D01*
Y146863D01*
X58274D01*
X57874Y146463D01*
X57474Y146863D01*
X57074D01*
Y146463D01*
X57474Y146063D01*
X57074Y145663D01*
Y145263D01*
X61405Y148019D02*
X61805D01*
X62205Y148419D01*
X62605Y148019D01*
X63005D01*
Y148419D01*
X62605Y148819D01*
X63005Y149219D01*
Y149619D01*
X62605D01*
X62205Y149219D01*
X61805Y149619D01*
X61405D01*
Y149219D01*
X61805Y148819D01*
X61405Y148419D01*
Y148019D01*
X64554Y153531D02*
X64954D01*
X65354Y153931D01*
X65754Y153531D01*
X66154D01*
Y153931D01*
X65754Y154331D01*
X66154Y154731D01*
Y155131D01*
X65754D01*
X65354Y154731D01*
X64954Y155131D01*
X64554D01*
Y154731D01*
X64954Y154331D01*
X64554Y153931D01*
Y153531D01*
X59830D02*
X60230D01*
X60630Y153931D01*
X61030Y153531D01*
X61430D01*
Y153931D01*
X61030Y154331D01*
X61430Y154731D01*
Y155131D01*
X61030D01*
X60630Y154731D01*
X60230Y155131D01*
X59830D01*
Y154731D01*
X60230Y154331D01*
X59830Y153931D01*
Y153531D01*
X49594Y142507D02*
X49994D01*
X50394Y142907D01*
X50794Y142507D01*
X51194D01*
Y142907D01*
X50794Y143307D01*
X51194Y143707D01*
Y144107D01*
X50794D01*
X50394Y143707D01*
X49994Y144107D01*
X49594D01*
Y143707D01*
X49994Y143307D01*
X49594Y142907D01*
Y142507D01*
X49594Y157074D02*
X49994D01*
X50394Y157474D01*
X50794Y157074D01*
X51194D01*
Y157474D01*
X50794Y157874D01*
X51194Y158274D01*
Y158674D01*
X50794D01*
X50394Y158274D01*
X49994Y158674D01*
X49594D01*
Y158274D01*
X49994Y157874D01*
X49594Y157474D01*
Y157074D01*
X66129Y72035D02*
X66529D01*
X66929Y72435D01*
X67329Y72035D01*
X67729D01*
Y72435D01*
X67329Y72835D01*
X67729Y73235D01*
Y73635D01*
X67329D01*
X66929Y73235D01*
X66529Y73635D01*
X66129D01*
Y73235D01*
X66529Y72835D01*
X66129Y72435D01*
Y72035D01*
X66129Y68491D02*
X66529D01*
X66929Y68891D01*
X67329Y68491D01*
X67729D01*
Y68891D01*
X67329Y69291D01*
X67729Y69691D01*
Y70091D01*
X67329D01*
X66929Y69691D01*
X66529Y70091D01*
X66129D01*
Y69691D01*
X66529Y69291D01*
X66129Y68891D01*
Y68491D01*
Y64554D02*
X66529D01*
X66929Y64954D01*
X67329Y64554D01*
X67729D01*
Y64954D01*
X67329Y65354D01*
X67729Y65754D01*
Y66154D01*
X67329D01*
X66929Y65754D01*
X66529Y66154D01*
X66129D01*
Y65754D01*
X66529Y65354D01*
X66129Y64954D01*
Y64554D01*
X103137Y145263D02*
X103537D01*
X103937Y145663D01*
X104337Y145263D01*
X104737D01*
Y145663D01*
X104337Y146063D01*
X104737Y146463D01*
Y146863D01*
X104337D01*
X103937Y146463D01*
X103537Y146863D01*
X103137D01*
Y146463D01*
X103537Y146063D01*
X103137Y145663D01*
Y145263D01*
Y153531D02*
X103537D01*
X103937Y153931D01*
X104337Y153531D01*
X104737D01*
Y153931D01*
X104337Y154331D01*
X104737Y154731D01*
Y155131D01*
X104337D01*
X103937Y154731D01*
X103537Y155131D01*
X103137D01*
Y154731D01*
X103537Y154331D01*
X103137Y153931D01*
Y153531D01*
X92901Y157074D02*
X93301D01*
X93701Y157474D01*
X94101Y157074D01*
X94501D01*
Y157474D01*
X94101Y157874D01*
X94501Y158274D01*
Y158674D01*
X94101D01*
X93701Y158274D01*
X93301Y158674D01*
X92901D01*
Y158274D01*
X93301Y157874D01*
X92901Y157474D01*
Y157074D01*
X107861Y148019D02*
X108261D01*
X108661Y148419D01*
X109061Y148019D01*
X109461D01*
Y148419D01*
X109061Y148819D01*
X109461Y149219D01*
Y149619D01*
X109061D01*
X108661Y149219D01*
X108261Y149619D01*
X107861D01*
Y149219D01*
X108261Y148819D01*
X107861Y148419D01*
Y148019D01*
Y153531D02*
X108261D01*
X108661Y153931D01*
X109061Y153531D01*
X109461D01*
Y153931D01*
X109061Y154331D01*
X109461Y154731D01*
Y155131D01*
X109061D01*
X108661Y154731D01*
X108261Y155131D01*
X107861D01*
Y154731D01*
X108261Y154331D01*
X107861Y153931D01*
Y153531D01*
X94476Y127153D02*
X94876D01*
X95276Y127553D01*
X95676Y127153D01*
X96076D01*
Y127553D01*
X95676Y127953D01*
X96076Y128353D01*
Y128753D01*
X95676D01*
X95276Y128353D01*
X94876Y128753D01*
X94476D01*
Y128353D01*
X94876Y127953D01*
X94476Y127553D01*
Y127153D01*
X119672Y51956D02*
X120072D01*
X120472Y52356D01*
X120872Y51956D01*
X121272D01*
Y52356D01*
X120872Y52756D01*
X121272Y53156D01*
Y53556D01*
X120872D01*
X120472Y53156D01*
X120072Y53556D01*
X119672D01*
Y53156D01*
X120072Y52756D01*
X119672Y52356D01*
Y51956D01*
X103137Y76759D02*
X103537D01*
X103937Y77159D01*
X104337Y76759D01*
X104737D01*
Y77159D01*
X104337Y77559D01*
X104737Y77959D01*
Y78359D01*
X104337D01*
X103937Y77959D01*
X103537Y78359D01*
X103137D01*
Y77959D01*
X103537Y77559D01*
X103137Y77159D01*
Y76759D01*
X99397Y80893D02*
X99797D01*
X100197Y81293D01*
X100597Y80893D01*
X100997D01*
Y81293D01*
X100597Y81693D01*
X100997Y82093D01*
Y82493D01*
X100597D01*
X100197Y82093D01*
X99797Y82493D01*
X99397D01*
Y82093D01*
X99797Y81693D01*
X99397Y81293D01*
Y80893D01*
X75578Y76365D02*
X75978D01*
X76378Y76765D01*
X76778Y76365D01*
X77178D01*
Y76765D01*
X76778Y77165D01*
X77178Y77565D01*
Y77965D01*
X76778D01*
X76378Y77565D01*
X75978Y77965D01*
X75578D01*
Y77565D01*
X75978Y77165D01*
X75578Y76765D01*
Y76365D01*
X83058Y81877D02*
X83458D01*
X83858Y82277D01*
X84258Y81877D01*
X84658D01*
Y82277D01*
X84258Y82677D01*
X84658Y83077D01*
Y83477D01*
X84258D01*
X83858Y83077D01*
X83458Y83477D01*
X83058D01*
Y83077D01*
X83458Y82677D01*
X83058Y82277D01*
Y81877D01*
X86995D02*
X87395D01*
X87795Y82277D01*
X88195Y81877D01*
X88595D01*
Y82277D01*
X88195Y82677D01*
X88595Y83077D01*
Y83477D01*
X88195D01*
X87795Y83077D01*
X87395Y83477D01*
X86995D01*
Y83077D01*
X87395Y82677D01*
X86995Y82277D01*
Y81877D01*
X79515Y93688D02*
X79915D01*
X80315Y94088D01*
X80715Y93688D01*
X81115D01*
Y94088D01*
X80715Y94488D01*
X81115Y94888D01*
Y95288D01*
X80715D01*
X80315Y94888D01*
X79915Y95288D01*
X79515D01*
Y94888D01*
X79915Y94488D01*
X79515Y94088D01*
Y93688D01*
X31877Y50381D02*
X32277D01*
X32677Y50781D01*
X33077Y50381D01*
X33477D01*
Y50781D01*
X33077Y51181D01*
X33477Y51581D01*
Y51981D01*
X33077D01*
X32677Y51581D01*
X32277Y51981D01*
X31877D01*
Y51581D01*
X32277Y51181D01*
X31877Y50781D01*
Y50381D01*
X23216Y78728D02*
X23616D01*
X24016Y79128D01*
X24416Y78728D01*
X24816D01*
Y79128D01*
X24416Y79528D01*
X24816Y79928D01*
Y80328D01*
X24416D01*
X24016Y79928D01*
X23616Y80328D01*
X23216D01*
Y79928D01*
X23616Y79528D01*
X23216Y79128D01*
Y78728D01*
X24397Y72822D02*
X24797D01*
X25197Y73222D01*
X25597Y72822D01*
X25997D01*
Y73222D01*
X25597Y73622D01*
X25997Y74022D01*
Y74422D01*
X25597D01*
X25197Y74022D01*
X24797Y74422D01*
X24397D01*
Y74022D01*
X24797Y73622D01*
X24397Y73222D01*
Y72822D01*
X29121Y78334D02*
X29521D01*
X29921Y78734D01*
X30321Y78334D01*
X30721D01*
Y78734D01*
X30321Y79134D01*
X30721Y79534D01*
Y79934D01*
X30321D01*
X29921Y79534D01*
X29521Y79934D01*
X29121D01*
Y79534D01*
X29521Y79134D01*
X29121Y78734D01*
Y78334D01*
X86602Y96444D02*
X87002D01*
X87402Y96844D01*
X87802Y96444D01*
X88202D01*
Y96844D01*
X87802Y97244D01*
X88202Y97644D01*
Y98044D01*
X87802D01*
X87402Y97644D01*
X87002Y98044D01*
X86602D01*
Y97644D01*
X87002Y97244D01*
X86602Y96844D01*
Y96444D01*
X106680Y87783D02*
X107080D01*
X107480Y88183D01*
X107880Y87783D01*
X108280D01*
Y88183D01*
X107880Y88583D01*
X108280Y88983D01*
Y89383D01*
X107880D01*
X107480Y88983D01*
X107080Y89383D01*
X106680D01*
Y88983D01*
X107080Y88583D01*
X106680Y88183D01*
Y87783D01*
X99987Y93688D02*
X100387D01*
X100787Y94088D01*
X101187Y93688D01*
X101587D01*
Y94088D01*
X101187Y94488D01*
X101587Y94888D01*
Y95288D01*
X101187D01*
X100787Y94888D01*
X100387Y95288D01*
X99987D01*
Y94888D01*
X100387Y94488D01*
X99987Y94088D01*
Y93688D01*
X92901Y93778D02*
X93301D01*
X93701Y94178D01*
X94101Y93778D01*
X94501D01*
Y94178D01*
X94101Y94578D01*
X94501Y94978D01*
Y95378D01*
X94101D01*
X93701Y94978D01*
X93301Y95378D01*
X92901D01*
Y94978D01*
X93301Y94578D01*
X92901Y94178D01*
Y93778D01*
Y98413D02*
X93301D01*
X93701Y98813D01*
X94101Y98413D01*
X94501D01*
Y98813D01*
X94101Y99213D01*
X94501Y99613D01*
Y100013D01*
X94101D01*
X93701Y99613D01*
X93301Y100013D01*
X92901D01*
Y99613D01*
X93301Y99213D01*
X92901Y98813D01*
Y98413D01*
Y110224D02*
X93301D01*
X93701Y110624D01*
X94101Y110224D01*
X94501D01*
Y110624D01*
X94101Y111024D01*
X94501Y111424D01*
Y111824D01*
X94101D01*
X93701Y111424D01*
X93301Y111824D01*
X92901D01*
Y111424D01*
X93301Y111024D01*
X92901Y110624D01*
Y110224D01*
X94476Y86995D02*
X94876D01*
X95276Y87395D01*
X95676Y86995D01*
X96076D01*
Y87395D01*
X95676Y87795D01*
X96076Y88195D01*
Y88595D01*
X95676D01*
X95276Y88195D01*
X94876Y88595D01*
X94476D01*
Y88195D01*
X94876Y87795D01*
X94476Y87395D01*
Y86995D01*
X126857Y151169D02*
X127258D01*
X127657Y151568D01*
X128058Y151169D01*
X128457D01*
Y151568D01*
X128058Y151969D01*
X128457Y152368D01*
Y152769D01*
X128058D01*
X127657Y152368D01*
X127258Y152769D01*
X126857D01*
Y152368D01*
X127258Y151969D01*
X126857Y151568D01*
Y151169D01*
X125381Y157566D02*
X125781D01*
X126181Y157966D01*
X126581Y157566D01*
X126981D01*
Y157966D01*
X126581Y158366D01*
X126981Y158766D01*
Y159166D01*
X126581D01*
X126181Y158766D01*
X125781Y159166D01*
X125381D01*
Y158766D01*
X125781Y158366D01*
X125381Y157966D01*
Y157566D01*
X206693Y141317D02*
X207393D01*
X208093Y142017D01*
X208793Y141317D01*
X209493D01*
Y142017D01*
X208793Y142717D01*
X209493Y143417D01*
Y144117D01*
X208793D01*
X208093Y143417D01*
X207393Y144117D01*
X206693D01*
Y143417D01*
X207393Y142717D01*
X206693Y142017D01*
Y141317D01*
X207393Y134143D02*
Y133443D01*
X208793D01*
Y134143D01*
X209493D01*
Y135543D01*
X208793D01*
Y136243D01*
X207393D01*
Y135543D01*
X206693D01*
Y134143D01*
X207393D01*
X206693Y125568D02*
Y128368D01*
X209493D01*
Y125568D01*
X206693D01*
Y117694D02*
X207393Y119095D01*
X206693Y120494D01*
X208093Y119794D01*
X209493Y120494D01*
X208793Y119095D01*
X209493Y117694D01*
X208093Y118394D01*
X206693Y117694D01*
X208093Y109820D02*
X208793Y110521D01*
X209493D01*
X208793Y111221D01*
X209493Y111920D01*
X208793D01*
X208093Y112620D01*
X207393Y111920D01*
X206693D01*
X207393Y111221D01*
X206693Y110521D01*
X207393D01*
X208093Y109820D01*
Y101946D02*
X206693Y104746D01*
X209493D01*
X208093Y101946D01*
D94*
X38713Y10433D02*
G03*
X38713Y10433I-800J0D01*
G01*
X88910Y9449D02*
G03*
X88910Y9449I-800J0D01*
G01*
D95*
X209841Y154133D02*
X209054Y154920D01*
X207480D01*
X206693Y154133D01*
Y153346D01*
X207480Y152558D01*
X209054D01*
X209841Y151771D01*
Y150984D01*
X209054Y150197D01*
X207480D01*
X206693Y150984D01*
X211416Y153346D02*
Y150984D01*
X212203Y150197D01*
X214564D01*
Y149410D01*
X213777Y148623D01*
X212990D01*
X214564Y150197D02*
Y153346D01*
X216139Y150197D02*
Y153346D01*
X216926D01*
X217713Y152558D01*
Y150197D01*
Y152558D01*
X218500Y153346D01*
X219287Y152558D01*
Y150197D01*
X220862Y154920D02*
Y150197D01*
X223223D01*
X224010Y150984D01*
Y151771D01*
Y152558D01*
X223223Y153346D01*
X220862D01*
X226372Y150197D02*
X227946D01*
X228733Y150984D01*
Y152558D01*
X227946Y153346D01*
X226372D01*
X225584Y152558D01*
Y150984D01*
X226372Y150197D01*
X230307D02*
X231882D01*
X231095D01*
Y154920D01*
X230307D01*
X239441D02*
Y150197D01*
Y152558D01*
X242589D01*
Y154920D01*
Y150197D01*
X244163D02*
X245738D01*
X244951D01*
Y153346D01*
X244163D01*
X248886Y154133D02*
Y153346D01*
X248099D01*
X249674D01*
X248886D01*
Y150984D01*
X249674Y150197D01*
X259907Y154133D02*
X259119Y154920D01*
X257545D01*
X256758Y154133D01*
Y150984D01*
X257545Y150197D01*
X259119D01*
X259907Y150984D01*
X262268Y150197D02*
X263842D01*
X264629Y150984D01*
Y152558D01*
X263842Y153346D01*
X262268D01*
X261481Y152558D01*
Y150984D01*
X262268Y150197D01*
X266204Y153346D02*
Y150984D01*
X266991Y150197D01*
X269352D01*
Y153346D01*
X270926Y150197D02*
Y153346D01*
X273288D01*
X274075Y152558D01*
Y150197D01*
X276437Y154133D02*
Y153346D01*
X275649D01*
X277224D01*
X276437D01*
Y150984D01*
X277224Y150197D01*
X287931Y154920D02*
X284783D01*
Y152558D01*
X286357D01*
X284783D01*
Y150197D01*
X289506D02*
X291080D01*
X290293D01*
Y153346D01*
X289506D01*
X293441Y150197D02*
Y153346D01*
X295803D01*
X296590Y152558D01*
Y150197D01*
X298164D02*
X299739D01*
X298951D01*
Y153346D01*
X298164D01*
X302100Y150197D02*
X304461D01*
X305249Y150984D01*
X304461Y151771D01*
X302887D01*
X302100Y152558D01*
X302887Y153346D01*
X305249D01*
X306823Y154920D02*
Y150197D01*
Y152558D01*
X307610Y153346D01*
X309184D01*
X309971Y152558D01*
Y150197D01*
X313907D02*
X312333D01*
X311546Y150984D01*
Y152558D01*
X312333Y153346D01*
X313907D01*
X314694Y152558D01*
Y151771D01*
X311546D01*
X319417Y154920D02*
Y150197D01*
X317056D01*
X316269Y150984D01*
Y152558D01*
X317056Y153346D01*
X319417D01*
X325714Y154920D02*
Y150197D01*
Y152558D01*
X328863D01*
Y154920D01*
Y150197D01*
X331224D02*
X332799D01*
X333586Y150984D01*
Y152558D01*
X332799Y153346D01*
X331224D01*
X330437Y152558D01*
Y150984D01*
X331224Y150197D01*
X335160D02*
X336734D01*
X335947D01*
Y154920D01*
X335160D01*
X341457Y150197D02*
X339883D01*
X339096Y150984D01*
Y152558D01*
X339883Y153346D01*
X341457D01*
X342245Y152558D01*
Y151771D01*
X339096D01*
X351690Y154133D02*
X350903Y154920D01*
X349329D01*
X348542Y154133D01*
Y153346D01*
X349329Y152558D01*
X350903D01*
X351690Y151771D01*
Y150984D01*
X350903Y150197D01*
X349329D01*
X348542Y150984D01*
X353264Y150197D02*
X354839D01*
X354052D01*
Y153346D01*
X353264D01*
X357200D02*
X360349D01*
X357200Y150197D01*
X360349D01*
X364285D02*
X362710D01*
X361923Y150984D01*
Y152558D01*
X362710Y153346D01*
X364285D01*
X365072Y152558D01*
Y151771D01*
X361923D01*
X372631Y150197D02*
Y154920D01*
X374992D01*
X375779Y154133D01*
Y152558D01*
X374992Y151771D01*
X372631D01*
X377354Y154920D02*
Y150197D01*
Y152558D01*
X378141Y153346D01*
X379715D01*
X380502Y152558D01*
Y150197D01*
X382077Y153346D02*
Y150984D01*
X382864Y150197D01*
X385225D01*
Y149410D01*
X384438Y148623D01*
X383651D01*
X385225Y150197D02*
Y153346D01*
X386799Y150197D02*
X389161D01*
X389948Y150984D01*
X389161Y151771D01*
X387587D01*
X386799Y152558D01*
X387587Y153346D01*
X389948D01*
X391522Y150197D02*
X393097D01*
X392309D01*
Y153346D01*
X391522D01*
X398607D02*
X396245D01*
X395458Y152558D01*
Y150984D01*
X396245Y150197D01*
X398607D01*
X400968Y153346D02*
X402542D01*
X403330Y152558D01*
Y150197D01*
X400968D01*
X400181Y150984D01*
X400968Y151771D01*
X403330D01*
X404904Y150197D02*
X406478D01*
X405691D01*
Y154920D01*
X404904D01*
X413562D02*
Y150197D01*
X416711D01*
X420647D02*
X419072D01*
X418285Y150984D01*
Y152558D01*
X419072Y153346D01*
X420647D01*
X421434Y152558D01*
Y151771D01*
X418285D01*
X423008Y150197D02*
Y153346D01*
X425370D01*
X426157Y152558D01*
Y150197D01*
X429305Y148623D02*
X430092D01*
X430880Y149410D01*
Y153346D01*
X428518D01*
X427731Y152558D01*
Y150984D01*
X428518Y150197D01*
X430880D01*
X433241Y154133D02*
Y153346D01*
X432454D01*
X434028D01*
X433241D01*
Y150984D01*
X434028Y150197D01*
X436390Y154920D02*
Y150197D01*
Y152558D01*
X437177Y153346D01*
X438751D01*
X439538Y152558D01*
Y150197D01*
X447097D02*
Y154920D01*
X449459D01*
X450246Y154133D01*
Y152558D01*
X449459Y151771D01*
X447097D01*
X448672D02*
X450246Y150197D01*
X452607D02*
X454182D01*
X454969Y150984D01*
Y152558D01*
X454182Y153346D01*
X452607D01*
X451820Y152558D01*
Y150984D01*
X452607Y150197D01*
X456543Y153346D02*
Y150984D01*
X457330Y150197D01*
X459692D01*
Y153346D01*
X462053Y154133D02*
Y153346D01*
X461266D01*
X462840D01*
X462053D01*
Y150984D01*
X462840Y150197D01*
X469925D02*
Y154920D01*
X472286D01*
X473073Y154133D01*
Y152558D01*
X472286Y151771D01*
X469925D01*
X475435Y153346D02*
X477009D01*
X477796Y152558D01*
Y150197D01*
X475435D01*
X474648Y150984D01*
X475435Y151771D01*
X477796D01*
X480158Y154133D02*
Y153346D01*
X479370D01*
X480945D01*
X480158D01*
Y150984D01*
X480945Y150197D01*
X483306Y154920D02*
Y150197D01*
Y152558D01*
X484093Y153346D01*
X485668D01*
X486455Y152558D01*
Y150197D01*
X492752Y154920D02*
Y150197D01*
X495900D01*
X499836D02*
X498262D01*
X497475Y150984D01*
Y152558D01*
X498262Y153346D01*
X499836D01*
X500623Y152558D01*
Y151771D01*
X497475D01*
X502198Y150197D02*
Y153346D01*
X504559D01*
X505346Y152558D01*
Y150197D01*
X508495Y148623D02*
X509282D01*
X510069Y149410D01*
Y153346D01*
X507708D01*
X506920Y152558D01*
Y150984D01*
X507708Y150197D01*
X510069D01*
X512430Y154133D02*
Y153346D01*
X511643D01*
X513218D01*
X512430D01*
Y150984D01*
X513218Y150197D01*
X515579Y154920D02*
Y150197D01*
Y152558D01*
X516366Y153346D01*
X517941D01*
X518728Y152558D01*
Y150197D01*
X526287D02*
Y154920D01*
X528648D01*
X529435Y154133D01*
Y152558D01*
X528648Y151771D01*
X526287D01*
X531010Y150197D02*
X532584D01*
X531797D01*
Y154920D01*
X531010D01*
X535733Y153346D02*
X537307D01*
X538094Y152558D01*
Y150197D01*
X535733D01*
X534945Y150984D01*
X535733Y151771D01*
X538094D01*
X540455Y154133D02*
Y153346D01*
X539668D01*
X541243D01*
X540455D01*
Y150984D01*
X541243Y150197D01*
X545965D02*
X544391D01*
X543604Y150984D01*
Y152558D01*
X544391Y153346D01*
X545965D01*
X546753Y152558D01*
Y151771D01*
X543604D01*
X551475Y154920D02*
Y150197D01*
X549114D01*
X548327Y150984D01*
Y152558D01*
X549114Y153346D01*
X551475D01*
X559034Y154920D02*
Y150197D01*
Y152558D01*
X562183D01*
Y154920D01*
Y150197D01*
X564544D02*
X566119D01*
X566906Y150984D01*
Y152558D01*
X566119Y153346D01*
X564544D01*
X563757Y152558D01*
Y150984D01*
X564544Y150197D01*
X568480D02*
X570055D01*
X569267D01*
Y154920D01*
X568480D01*
X574778Y150197D02*
X573203D01*
X572416Y150984D01*
Y152558D01*
X573203Y153346D01*
X574778D01*
X575565Y152558D01*
Y151771D01*
X572416D01*
X581862Y154920D02*
X585010D01*
X583436D01*
Y150197D01*
X586585Y153346D02*
Y150984D01*
X587372Y150197D01*
X589733D01*
Y149410D01*
X588946Y148623D01*
X588159D01*
X589733Y150197D02*
Y153346D01*
X591307Y148623D02*
Y153346D01*
X593669D01*
X594456Y152558D01*
Y150984D01*
X593669Y150197D01*
X591307D01*
X598392D02*
X596818D01*
X596030Y150984D01*
Y152558D01*
X596818Y153346D01*
X598392D01*
X599179Y152558D01*
Y151771D01*
X596030D01*
X201024Y157283D02*
X606738D01*
X201024Y146654D02*
X606738D01*
X201024Y157283D02*
Y83661D01*
X606738Y157283D02*
Y83661D01*
X236606Y157283D02*
Y83661D01*
X281948Y157283D02*
Y83661D01*
X369796Y157283D02*
Y83661D01*
X444263Y157283D02*
Y83661D01*
X523452Y157283D02*
Y83661D01*
X556200Y157283D02*
Y83661D01*
X201024Y91536D02*
X606738D01*
X201024Y83661D02*
X606738D01*
D96*
X209493Y95473D02*
G03*
X209493Y95473I-1400J0D01*
G01*
D97*
X209317Y81036D02*
X208661Y81692D01*
X207349D01*
X206693Y81036D01*
Y80380D01*
X207349Y79724D01*
X208661D01*
X209317Y79068D01*
Y78412D01*
X208661Y77756D01*
X207349D01*
X206693Y78412D01*
X210629Y77756D02*
X211941D01*
X211285D01*
Y81692D01*
X210629D01*
X214564Y77756D02*
X215876D01*
X216532Y78412D01*
Y79724D01*
X215876Y80380D01*
X214564D01*
X213908Y79724D01*
Y78412D01*
X214564Y77756D01*
X218500Y81036D02*
Y80380D01*
X217844D01*
X219156D01*
X218500D01*
Y78412D01*
X219156Y77756D01*
X227683Y81692D02*
Y77756D01*
X225716D01*
X225060Y78412D01*
Y79724D01*
X225716Y80380D01*
X227683D01*
X230963Y77756D02*
X229651D01*
X228995Y78412D01*
Y79724D01*
X229651Y80380D01*
X230963D01*
X231619Y79724D01*
Y79068D01*
X228995D01*
X233587Y77756D02*
Y81036D01*
Y79724D01*
X232931D01*
X234243D01*
X233587D01*
Y81036D01*
X234243Y81692D01*
X236211Y77756D02*
X237523D01*
X236867D01*
Y80380D01*
X236211D01*
X239491Y77756D02*
Y80380D01*
X241459D01*
X242115Y79724D01*
Y77756D01*
X243426D02*
X244738D01*
X244082D01*
Y80380D01*
X243426D01*
X247362Y81036D02*
Y80380D01*
X246706D01*
X248018D01*
X247362D01*
Y78412D01*
X248018Y77756D01*
X249986D02*
X251298D01*
X250642D01*
Y80380D01*
X249986D01*
X253922Y77756D02*
X255234D01*
X255890Y78412D01*
Y79724D01*
X255234Y80380D01*
X253922D01*
X253266Y79724D01*
Y78412D01*
X253922Y77756D01*
X257202D02*
Y80380D01*
X259169D01*
X259825Y79724D01*
Y77756D01*
X261137D02*
X263105D01*
X263761Y78412D01*
X263105Y79068D01*
X261793D01*
X261137Y79724D01*
X261793Y80380D01*
X263761D01*
X269009D02*
X269665D01*
Y79724D01*
X269009D01*
Y80380D01*
Y78412D02*
X269665D01*
Y77756D01*
X269009D01*
Y78412D01*
X276988Y77756D02*
Y81692D01*
X278955D01*
X279611Y81036D01*
Y79724D01*
X278955Y79068D01*
X276988D01*
X278299D02*
X279611Y77756D01*
X281579D02*
X282891D01*
X283547Y78412D01*
Y79724D01*
X282891Y80380D01*
X281579D01*
X280923Y79724D01*
Y78412D01*
X281579Y77756D01*
X284859Y80380D02*
Y78412D01*
X285515Y77756D01*
X287483D01*
Y80380D01*
X289451Y81036D02*
Y80380D01*
X288795D01*
X290107D01*
X289451D01*
Y78412D01*
X290107Y77756D01*
X296010D02*
Y81692D01*
X297978D01*
X298634Y81036D01*
Y79724D01*
X297978Y79068D01*
X296010D01*
X300602Y80380D02*
X301914D01*
X302570Y79724D01*
Y77756D01*
X300602D01*
X299946Y78412D01*
X300602Y79068D01*
X302570D01*
X304538Y81036D02*
Y80380D01*
X303882D01*
X305194D01*
X304538D01*
Y78412D01*
X305194Y77756D01*
X307161Y81692D02*
Y77756D01*
Y79724D01*
X307818Y80380D01*
X309129D01*
X309785Y79724D01*
Y77756D01*
X315033Y81692D02*
Y77756D01*
X317657D01*
X320937D02*
X319625D01*
X318969Y78412D01*
Y79724D01*
X319625Y80380D01*
X320937D01*
X321593Y79724D01*
Y79068D01*
X318969D01*
X322904Y77756D02*
Y80380D01*
X324872D01*
X325528Y79724D01*
Y77756D01*
X328152Y76444D02*
X328808D01*
X329464Y77100D01*
Y80380D01*
X327496D01*
X326840Y79724D01*
Y78412D01*
X327496Y77756D01*
X329464D01*
X331432Y81036D02*
Y80380D01*
X330776D01*
X332088D01*
X331432D01*
Y78412D01*
X332088Y77756D01*
X334056Y81692D02*
Y77756D01*
Y79724D01*
X334712Y80380D01*
X336024D01*
X336680Y79724D01*
Y77756D01*
X276988Y69882D02*
Y73818D01*
X278955D01*
X279611Y73162D01*
Y71850D01*
X278955Y71194D01*
X276988D01*
X280923Y73818D02*
Y69882D01*
Y71850D01*
X281579Y72506D01*
X282891D01*
X283547Y71850D01*
Y69882D01*
X284859Y72506D02*
Y70538D01*
X285515Y69882D01*
X287483D01*
Y69226D01*
X286827Y68570D01*
X286171D01*
X287483Y69882D02*
Y72506D01*
X288795Y69882D02*
X290763D01*
X291419Y70538D01*
X290763Y71194D01*
X289451D01*
X288795Y71850D01*
X289451Y72506D01*
X291419D01*
X292730Y69882D02*
X294042D01*
X293387D01*
Y72506D01*
X292730D01*
X298634D02*
X296666D01*
X296010Y71850D01*
Y70538D01*
X296666Y69882D01*
X298634D01*
X300602Y72506D02*
X301914D01*
X302570Y71850D01*
Y69882D01*
X300602D01*
X299946Y70538D01*
X300602Y71194D01*
X302570D01*
X303882Y69882D02*
X305194D01*
X304538D01*
Y73818D01*
X303882D01*
X311097D02*
Y69882D01*
X313721D01*
X317001D02*
X315689D01*
X315033Y70538D01*
Y71850D01*
X315689Y72506D01*
X317001D01*
X317657Y71850D01*
Y71194D01*
X315033D01*
X318969Y69882D02*
Y72506D01*
X320937D01*
X321593Y71850D01*
Y69882D01*
X324216Y68570D02*
X324872D01*
X325528Y69226D01*
Y72506D01*
X323561D01*
X322904Y71850D01*
Y70538D01*
X323561Y69882D01*
X325528D01*
X327496Y73162D02*
Y72506D01*
X326840D01*
X328152D01*
X327496D01*
Y70538D01*
X328152Y69882D01*
X330120Y73818D02*
Y69882D01*
Y71850D01*
X330776Y72506D01*
X332088D01*
X332744Y71850D01*
Y69882D01*
M02*
