G04 Layer_Physical_Order=1*
G04 Layer_Color=48896*
%FSLAX25Y25*%
%MOIN*%
G70*
G01*
G75*
%ADD10C,0.03937*%
%ADD11C,0.01969*%
%ADD12C,0.00591*%
%ADD13R,0.04331X0.03937*%
%ADD14R,0.03937X0.04331*%
%ADD15R,0.01181X0.02362*%
%ADD16R,0.03543X0.05906*%
%ADD17R,0.08858X0.03937*%
%ADD18R,0.03937X0.08858*%
%ADD19R,0.19685X0.07087*%
%ADD20R,0.03307X0.09449*%
%ADD21R,0.01969X0.00984*%
%ADD22R,0.02362X0.04528*%
%ADD23R,0.05512X0.02362*%
%ADD24R,0.07087X0.02362*%
G04:AMPARAMS|DCode=25|XSize=74.8mil|YSize=125.98mil|CornerRadius=0mil|HoleSize=0mil|Usage=FLASHONLY|Rotation=90.000|XOffset=0mil|YOffset=0mil|HoleType=Round|Shape=Octagon|*
%AMOCTAGOND25*
4,1,8,-0.06299,-0.01870,-0.06299,0.01870,-0.04429,0.03740,0.04429,0.03740,0.06299,0.01870,0.06299,-0.01870,0.04429,-0.03740,-0.04429,-0.03740,-0.06299,-0.01870,0.0*
%
%ADD25OCTAGOND25*%

%ADD26R,0.05906X0.02756*%
%ADD27R,0.01181X0.03150*%
%ADD28R,0.05315X0.01575*%
%ADD29R,0.05906X0.03543*%
%ADD30R,0.07087X0.06299*%
%ADD31R,0.06299X0.07087*%
%ADD32R,0.04134X0.04528*%
G04:AMPARAMS|DCode=33|XSize=90.55mil|YSize=59.06mil|CornerRadius=14.76mil|HoleSize=0mil|Usage=FLASHONLY|Rotation=180.000|XOffset=0mil|YOffset=0mil|HoleType=Round|Shape=RoundedRectangle|*
%AMROUNDEDRECTD33*
21,1,0.09055,0.02953,0,0,180.0*
21,1,0.06102,0.05906,0,0,180.0*
1,1,0.02953,-0.03051,0.01476*
1,1,0.02953,0.03051,0.01476*
1,1,0.02953,0.03051,-0.01476*
1,1,0.02953,-0.03051,-0.01476*
%
%ADD33ROUNDEDRECTD33*%
%ADD34C,0.00984*%
%ADD35C,0.01575*%
%ADD36C,0.00787*%
%ADD37C,0.02756*%
%ADD38R,0.03150X0.22441*%
%ADD39R,0.11811X0.06693*%
%ADD40R,0.11811X0.04724*%
%ADD41C,0.07480*%
%ADD42R,0.07480X0.07480*%
%ADD43O,0.07874X0.14961*%
%ADD44C,0.09449*%
%ADD45O,0.06693X0.12992*%
%ADD46O,0.06693X0.11417*%
%ADD47C,0.10236*%
%ADD48R,0.05906X0.05906*%
%ADD49C,0.05118*%
%ADD50C,0.05906*%
%ADD51C,0.02756*%
G36*
X2410Y97109D02*
X2523Y96924D01*
X2664Y96759D01*
X4622Y94801D01*
Y65551D01*
X3346D01*
Y59645D01*
X9645D01*
Y59645D01*
X10039D01*
Y59645D01*
X15249D01*
X15445Y59449D01*
X15038Y58465D01*
X14961Y58465D01*
X14370D01*
Y55709D01*
X15945D01*
Y57480D01*
X15945Y58464D01*
X16929Y58465D01*
X18110D01*
Y50787D01*
X23622D01*
Y52952D01*
X29724D01*
Y52952D01*
X30118D01*
Y52952D01*
X36417D01*
Y53347D01*
X36417Y54331D01*
X58071D01*
Y61488D01*
X60456Y63873D01*
X63189D01*
X63247Y63878D01*
X64488D01*
Y63779D01*
X65945D01*
Y69291D01*
Y74803D01*
X64488D01*
Y74508D01*
X64173D01*
Y73228D01*
X62205D01*
Y74508D01*
X61417D01*
Y74508D01*
X60536Y74756D01*
Y77953D01*
X60518Y78184D01*
X60464Y78410D01*
X60375Y78625D01*
X60253Y78823D01*
X60102Y79000D01*
X59044Y80058D01*
X58998Y80151D01*
X59392Y81102D01*
X60735D01*
Y80875D01*
X66640D01*
Y88838D01*
X67550Y89214D01*
X67654Y89110D01*
X67830Y88959D01*
X68028Y88838D01*
X68243Y88749D01*
X68469Y88695D01*
X68701Y88677D01*
X89281D01*
X89512Y88695D01*
X89738Y88749D01*
X89953Y88838D01*
X90151Y88959D01*
X90328Y89110D01*
X93445Y92227D01*
X93701Y92210D01*
X94010Y92231D01*
X94196Y92268D01*
X95324Y91139D01*
X95315Y90952D01*
X95013Y90250D01*
X94935Y90136D01*
X94663Y90082D01*
X94370Y89982D01*
X94092Y89845D01*
X93835Y89673D01*
X93602Y89469D01*
X93397Y89236D01*
X93226Y88979D01*
X93089Y88701D01*
X92989Y88408D01*
X92929Y88104D01*
X92908Y87795D01*
X92929Y87486D01*
X92989Y87183D01*
X93089Y86889D01*
X93226Y86612D01*
X93397Y86354D01*
X93602Y86121D01*
X93795Y85952D01*
Y76378D01*
X93813Y76146D01*
X93867Y75920D01*
X93956Y75706D01*
X94077Y75507D01*
X94228Y75331D01*
X98519Y71040D01*
Y54134D01*
X97047D01*
Y45854D01*
X96078Y45593D01*
X95935Y45807D01*
X95765Y46001D01*
X92734Y49033D01*
X92540Y49203D01*
X92325Y49346D01*
X92093Y49460D01*
X91849Y49543D01*
X91596Y49594D01*
X91339Y49610D01*
X87800D01*
Y63976D01*
X90354D01*
Y72244D01*
X81299D01*
Y70280D01*
X80027D01*
X79331Y70976D01*
Y71063D01*
X79134Y71965D01*
Y73622D01*
X76378D01*
X73622D01*
Y71965D01*
X73426Y71063D01*
X73410Y71058D01*
X72441Y71542D01*
Y72244D01*
X70669D01*
Y73228D01*
X69685D01*
Y74508D01*
X69370D01*
Y74803D01*
X67913D01*
Y69291D01*
Y63779D01*
X69370D01*
Y64075D01*
X69685D01*
Y65354D01*
X71654D01*
Y64075D01*
X72441D01*
Y65842D01*
X73426D01*
Y64763D01*
X79331D01*
Y66334D01*
X81299D01*
Y63976D01*
X83854D01*
Y49610D01*
X71696D01*
X71617Y49824D01*
X71429Y50231D01*
X71210Y50623D01*
X70960Y50996D01*
X70683Y51348D01*
X70378Y51678D01*
X70049Y51982D01*
X69697Y52260D01*
X69324Y52509D01*
X68932Y52728D01*
X68525Y52916D01*
X68104Y53071D01*
X67672Y53193D01*
X67232Y53281D01*
X66787Y53333D01*
X66339Y53351D01*
X65890Y53333D01*
X65445Y53281D01*
X65005Y53193D01*
X64573Y53071D01*
X64152Y52916D01*
X63745Y52728D01*
X63354Y52509D01*
X62981Y52260D01*
X62628Y51982D01*
X62299Y51678D01*
X61994Y51348D01*
X61717Y50996D01*
X61467Y50623D01*
X61248Y50231D01*
X61060Y49824D01*
X60982Y49610D01*
X33071D01*
X32813Y49594D01*
X32560Y49543D01*
X32316Y49460D01*
X32085Y49346D01*
X31870Y49203D01*
X31676Y49033D01*
X25377Y42733D01*
X25207Y42540D01*
X25063Y42325D01*
X24949Y42094D01*
X24866Y41849D01*
X24816Y41596D01*
X24799Y41339D01*
Y35158D01*
X24722Y35042D01*
X24585Y34764D01*
X24485Y34471D01*
X24425Y34167D01*
X24404Y33858D01*
X24425Y33549D01*
X24485Y33246D01*
X24585Y32952D01*
X24722Y32675D01*
X24894Y32417D01*
X25098Y32184D01*
X25330Y31980D01*
X25588Y31808D01*
X25866Y31671D01*
X26159Y31572D01*
X26463Y31511D01*
X26772Y31491D01*
X27081Y31511D01*
X27384Y31572D01*
X27678Y31671D01*
X27955Y31808D01*
X28213Y31980D01*
X28446Y32184D01*
X28650Y32417D01*
X28822Y32675D01*
X28959Y32952D01*
X29058Y33246D01*
X29119Y33549D01*
X29139Y33858D01*
X29119Y34167D01*
X29058Y34471D01*
X28959Y34764D01*
X28822Y35042D01*
X28744Y35158D01*
Y40521D01*
X33888Y45665D01*
X60982D01*
X61060Y45452D01*
X61248Y45044D01*
X61467Y44653D01*
X61717Y44280D01*
X61994Y43927D01*
X62299Y43598D01*
X62628Y43294D01*
X62981Y43016D01*
X63127Y42918D01*
X62902Y42016D01*
X62853Y41933D01*
X44488D01*
X44481Y41933D01*
X44160Y41917D01*
X43834Y41869D01*
X43516Y41789D01*
X43206Y41678D01*
X42978Y41570D01*
X42866Y41545D01*
X42176Y41659D01*
X42074Y41692D01*
X41743Y41886D01*
X41723Y41909D01*
X41630Y42063D01*
X41388Y42389D01*
X41116Y42690D01*
X40815Y42963D01*
X40488Y43205D01*
X40140Y43414D01*
X39773Y43588D01*
X39390Y43724D01*
X39173Y43779D01*
Y36614D01*
Y29449D01*
X39390Y29504D01*
X39773Y29641D01*
X40140Y29814D01*
X40153Y29822D01*
X41003Y29434D01*
X41137Y29279D01*
Y18925D01*
X40787Y18611D01*
X40153Y18359D01*
X39995Y18441D01*
X39598Y18605D01*
X39188Y18734D01*
X38769Y18827D01*
X38343Y18884D01*
X37913Y18902D01*
X37484Y18884D01*
X37058Y18827D01*
X36639Y18734D01*
X36229Y18605D01*
X35832Y18441D01*
X35450Y18242D01*
X35088Y18011D01*
X34747Y17750D01*
X34430Y17459D01*
X34140Y17143D01*
X33878Y16802D01*
X33647Y16439D01*
X33449Y16058D01*
X33285Y15661D01*
X33155Y15251D01*
X33062Y14832D01*
X33006Y14406D01*
X32987Y13976D01*
Y6890D01*
X33006Y6460D01*
X33062Y6034D01*
X33155Y5615D01*
X33285Y5205D01*
X33449Y4808D01*
X33647Y4427D01*
X33878Y4064D01*
X34140Y3723D01*
X34430Y3407D01*
X34747Y3116D01*
X35088Y2855D01*
X35450Y2624D01*
X35832Y2425D01*
X35974Y2366D01*
X35778Y1382D01*
X30517D01*
Y10925D01*
X30498Y11118D01*
X30494Y11129D01*
X30497Y11157D01*
X30517Y11811D01*
X30497Y12465D01*
X30438Y13117D01*
X30339Y13763D01*
X30202Y14403D01*
X30026Y15033D01*
X29813Y15652D01*
X29563Y16256D01*
X29276Y16845D01*
X28955Y17415D01*
X28599Y17964D01*
X28212Y18491D01*
X27793Y18994D01*
X27344Y19470D01*
X26868Y19919D01*
X26365Y20338D01*
X25838Y20725D01*
X25289Y21081D01*
X24719Y21402D01*
X24130Y21689D01*
X23526Y21939D01*
X22907Y22152D01*
X22277Y22328D01*
X21637Y22465D01*
X20991Y22564D01*
X20339Y22623D01*
X19685Y22643D01*
X19031Y22623D01*
X18379Y22564D01*
X17733Y22465D01*
X17093Y22328D01*
X16463Y22152D01*
X15844Y21939D01*
X15240Y21689D01*
X14651Y21402D01*
X14081Y21081D01*
X13532Y20725D01*
X13005Y20338D01*
X12502Y19919D01*
X12026Y19470D01*
X11577Y18994D01*
X11158Y18491D01*
X10771Y17964D01*
X10415Y17415D01*
X10094Y16845D01*
X9808Y16256D01*
X9557Y15652D01*
X9344Y15033D01*
X9168Y14403D01*
X9031Y13763D01*
X8932Y13117D01*
X8873Y12465D01*
X8853Y11811D01*
X8873Y11157D01*
X8876Y11129D01*
X8873Y11118D01*
X8854Y10925D01*
Y1382D01*
X7874D01*
X7839Y1379D01*
X7364Y1398D01*
X6858Y1458D01*
X6358Y1558D01*
X5867Y1696D01*
X5388Y1873D01*
X4925Y2086D01*
X4480Y2335D01*
X4056Y2619D01*
X3655Y2935D01*
X3281Y3281D01*
X2935Y3655D01*
X2619Y4056D01*
X2335Y4480D01*
X2086Y4925D01*
X1873Y5388D01*
X1696Y5867D01*
X1558Y6358D01*
X1458Y6858D01*
X1398Y7364D01*
X1379Y7839D01*
X1382Y7874D01*
Y97063D01*
X2327Y97309D01*
X2410Y97109D01*
D02*
G37*
G36*
X109346Y88103D02*
Y86614D01*
X109362Y86413D01*
X109409Y86218D01*
X109486Y86032D01*
X109592Y85860D01*
X109722Y85707D01*
X110904Y84526D01*
X111057Y84395D01*
X111228Y84289D01*
X111414Y84212D01*
X111610Y84165D01*
X111811Y84150D01*
X111811Y84150D01*
X114561D01*
X115050Y83165D01*
X114978Y83071D01*
X112402D01*
Y81004D01*
X114370D01*
Y80020D01*
X115354D01*
Y76968D01*
X115945D01*
Y76772D01*
X124016D01*
Y77504D01*
X128987Y82475D01*
X138189D01*
X138343Y82495D01*
X138487Y82555D01*
X138610Y82650D01*
X139366Y83405D01*
X140350Y82998D01*
Y78026D01*
X139366Y77618D01*
X138216Y78768D01*
X138093Y78862D01*
X137949Y78922D01*
X137795Y78942D01*
X129921D01*
X129767Y78922D01*
X129623Y78862D01*
X129500Y78768D01*
X125344Y74611D01*
X124016D01*
Y74803D01*
X112205D01*
Y72839D01*
X106142D01*
X102858Y76122D01*
Y78602D01*
X105041Y80785D01*
X105172Y80939D01*
X105277Y81110D01*
X105354Y81296D01*
X105402Y81492D01*
X105417Y81693D01*
X105417Y81693D01*
Y83465D01*
X105709D01*
Y88583D01*
X105709Y88583D01*
X105278Y89362D01*
X105265Y89383D01*
X105265Y89383D01*
X105264Y89384D01*
X105172Y89534D01*
X105041Y89687D01*
X105041Y89687D01*
X104795Y89933D01*
X105172Y90842D01*
X106607D01*
X109346Y88103D01*
D02*
G37*
G36*
X131102Y105905D02*
X137795D01*
X139370Y104331D01*
Y97244D01*
X138583Y96457D01*
X127559D01*
X126378Y95276D01*
X116929D01*
Y109449D01*
X127559D01*
X131102Y105905D01*
D02*
G37*
G36*
X112205Y103740D02*
X116333D01*
Y100984D01*
X115945D01*
Y100787D01*
X115354D01*
Y97736D01*
Y94685D01*
X115945D01*
Y94488D01*
X124016D01*
Y94680D01*
X126378D01*
X126532Y94700D01*
X126676Y94760D01*
X126799Y94854D01*
X127806Y95861D01*
X138583D01*
X138737Y95881D01*
X138881Y95941D01*
X139004Y96035D01*
X139366Y96398D01*
X140350Y95990D01*
Y92199D01*
X139366Y91791D01*
X139004Y92154D01*
X138881Y92248D01*
X138737Y92308D01*
X138583Y92328D01*
X124016D01*
Y92520D01*
X112205D01*
Y92471D01*
X111295Y92094D01*
X109175Y94215D01*
X109022Y94345D01*
X108850Y94451D01*
X108664Y94528D01*
X108468Y94575D01*
X108268Y94591D01*
X106043D01*
X105879Y94755D01*
X105709Y95669D01*
X105709D01*
Y100787D01*
X105417D01*
Y102559D01*
X105402Y102760D01*
X105354Y102956D01*
X105277Y103142D01*
X105172Y103314D01*
X105041Y103467D01*
X103614Y104894D01*
X103991Y105803D01*
X112205D01*
Y103740D01*
D02*
G37*
G36*
X139764Y76378D02*
Y71260D01*
X135433Y66929D01*
X131102D01*
X124016Y59842D01*
X116535D01*
Y74016D01*
X125591D01*
X129921Y78347D01*
X137795D01*
X139764Y76378D01*
D02*
G37*
G36*
X106573Y66022D02*
X106726Y65891D01*
X106898Y65786D01*
X107084Y65709D01*
X107280Y65662D01*
X107480Y65646D01*
X111538D01*
X112402Y65354D01*
Y63287D01*
X114370D01*
Y62303D01*
X115354D01*
Y59252D01*
X115945D01*
Y59055D01*
X124016D01*
Y59247D01*
X124170Y59267D01*
X124314Y59327D01*
X124437Y59421D01*
X131349Y66334D01*
X135433D01*
X135587Y66354D01*
X135731Y66413D01*
X135854Y66508D01*
X135854Y66508D01*
X139366Y70020D01*
X140350Y69612D01*
Y62946D01*
X139366Y62659D01*
X139307Y62752D01*
X139056Y63079D01*
X138777Y63383D01*
X138473Y63662D01*
X138145Y63913D01*
X137797Y64135D01*
X137432Y64325D01*
X137050Y64483D01*
X136657Y64607D01*
X136254Y64696D01*
X135845Y64750D01*
X135433Y64768D01*
X135021Y64750D01*
X134612Y64696D01*
X134209Y64607D01*
X133816Y64483D01*
X133434Y64325D01*
X133069Y64135D01*
X132721Y63913D01*
X132393Y63662D01*
X132089Y63383D01*
X131810Y63079D01*
X131559Y62752D01*
X131338Y62404D01*
X131147Y62038D01*
X130989Y61657D01*
X130865Y61263D01*
X130776Y60861D01*
X130722Y60452D01*
X130704Y60039D01*
X130722Y59627D01*
X130736Y59524D01*
X128790Y57579D01*
X128790Y57579D01*
X128291Y57051D01*
X128135Y56867D01*
X127822Y56496D01*
X127385Y55915D01*
X126981Y55311D01*
X126612Y54685D01*
X126278Y54039D01*
X125981Y53376D01*
X125722Y52697D01*
X125501Y52004D01*
X125320Y51300D01*
X125178Y50587D01*
X125076Y49868D01*
X125036Y49384D01*
X125015Y49143D01*
X124995Y48417D01*
X124995D01*
Y38700D01*
X124803Y37795D01*
X124011Y37795D01*
X123032D01*
Y34842D01*
X122048D01*
Y33858D01*
X119292D01*
Y32202D01*
X119095Y31299D01*
X119095Y31106D01*
X118806Y30122D01*
X117530D01*
X117153Y31031D01*
X118110Y31988D01*
Y33268D01*
X111024D01*
Y34252D01*
X110039D01*
Y38780D01*
X106201D01*
X105240Y37819D01*
X104331Y38195D01*
Y40354D01*
X104134D01*
Y42323D01*
X102465D01*
Y45079D01*
X105315D01*
Y54134D01*
X101481D01*
Y69827D01*
X102390Y70204D01*
X106573Y66022D01*
D02*
G37*
G36*
X139370Y90945D02*
Y84252D01*
X138189Y83071D01*
X128740D01*
X123228Y77559D01*
X116929D01*
Y91732D01*
X138583D01*
X139370Y90945D01*
D02*
G37*
G36*
X14764Y91531D02*
X21335D01*
Y80875D01*
X27240D01*
Y81102D01*
X29135D01*
Y80875D01*
X34475D01*
X34883Y79891D01*
X34386Y79394D01*
X34235Y79217D01*
X34113Y79019D01*
X34025Y78804D01*
X33970Y78578D01*
X33952Y78347D01*
Y77559D01*
X30906D01*
Y73622D01*
X28937D01*
Y77559D01*
X25787D01*
X25591Y77559D01*
X24803D01*
X24606Y77559D01*
X21457D01*
Y73622D01*
X19488D01*
Y77559D01*
X16570Y77559D01*
X15748Y77952D01*
X15320Y77952D01*
X13977D01*
Y75000D01*
X12008D01*
Y77952D01*
X10634D01*
Y90915D01*
X11254Y91536D01*
X14706D01*
X14764Y91531D01*
D02*
G37*
G36*
X116333Y118701D02*
X115945D01*
Y118504D01*
X115354D01*
Y115453D01*
Y112402D01*
X115945D01*
Y112205D01*
X124016D01*
Y112397D01*
X129281D01*
X131862Y109815D01*
X131986Y109720D01*
X132129Y109661D01*
X132283Y109641D01*
X138189D01*
X138343Y109661D01*
X138487Y109720D01*
X138610Y109815D01*
X139441Y110646D01*
X140350Y110269D01*
Y105585D01*
X139366Y105177D01*
X138216Y106327D01*
X138093Y106421D01*
X137949Y106481D01*
X137795Y106501D01*
X131349D01*
X127980Y109870D01*
X127857Y109965D01*
X127713Y110024D01*
X127559Y110045D01*
X124016D01*
Y110236D01*
X112205D01*
Y108370D01*
X100197D01*
Y114370D01*
X100197D01*
Y114764D01*
X100197D01*
Y116925D01*
X102362D01*
Y115551D01*
X110236D01*
Y120370D01*
X112598D01*
X112799Y120386D01*
X112995Y120433D01*
X113181Y120510D01*
X113353Y120615D01*
X113506Y120746D01*
X114217Y121457D01*
X116333D01*
Y118701D01*
D02*
G37*
G36*
X88779Y31024D02*
X88997Y31079D01*
X89379Y31216D01*
X89746Y31389D01*
X90095Y31598D01*
X90421Y31840D01*
X90722Y32113D01*
X90995Y32414D01*
X91237Y32740D01*
X91413Y33034D01*
X91522Y33065D01*
X92397Y32799D01*
Y32008D01*
X92414Y31750D01*
X92465Y31497D01*
X92548Y31253D01*
X92662Y31021D01*
X92805Y30807D01*
X92975Y30613D01*
X94471Y29117D01*
X94665Y28947D01*
X94880Y28803D01*
X95111Y28689D01*
X95356Y28606D01*
X95609Y28556D01*
X95866Y28539D01*
X96457D01*
Y28150D01*
X96653D01*
Y26181D01*
X102096D01*
X102166Y26177D01*
X119095D01*
Y25000D01*
X125000D01*
X125412Y24186D01*
X125425Y24150D01*
X125611Y23747D01*
X125828Y23361D01*
X126074Y22992D01*
X126348Y22644D01*
X126637Y22331D01*
X126649Y22318D01*
X130709Y18259D01*
Y13976D01*
X140157D01*
X140350Y13072D01*
Y7874D01*
X140353Y7839D01*
X140334Y7364D01*
X140274Y6858D01*
X140175Y6358D01*
X140036Y5867D01*
X139860Y5388D01*
X139646Y4925D01*
X139397Y4480D01*
X139114Y4056D01*
X138798Y3655D01*
X138452Y3281D01*
X138077Y2935D01*
X137677Y2619D01*
X137252Y2335D01*
X136807Y2086D01*
X136344Y1873D01*
X135866Y1696D01*
X135375Y1558D01*
X134874Y1458D01*
X134368Y1398D01*
X133894Y1379D01*
X133858Y1382D01*
X117131D01*
Y10925D01*
X117112Y11118D01*
X117109Y11129D01*
X117111Y11157D01*
X117131Y11811D01*
X117111Y12465D01*
X117052Y13117D01*
X116954Y13763D01*
X116816Y14403D01*
X116640Y15033D01*
X116427Y15652D01*
X116177Y16256D01*
X115890Y16845D01*
X115569Y17415D01*
X115214Y17964D01*
X114826Y18491D01*
X114407Y18994D01*
X113958Y19470D01*
X113482Y19919D01*
X112979Y20338D01*
X112452Y20725D01*
X111903Y21081D01*
X111333Y21402D01*
X110745Y21689D01*
X110140Y21939D01*
X109522Y22152D01*
X108891Y22328D01*
X108252Y22465D01*
X107605Y22564D01*
X106953Y22623D01*
X106299Y22643D01*
X105645Y22623D01*
X104994Y22564D01*
X104347Y22465D01*
X103707Y22328D01*
X103077Y22152D01*
X102458Y21939D01*
X101854Y21689D01*
X101266Y21402D01*
X100696Y21081D01*
X100146Y20725D01*
X99619Y20338D01*
X99116Y19919D01*
X98640Y19470D01*
X98192Y18994D01*
X97773Y18491D01*
X97385Y17964D01*
X97030Y17415D01*
X96708Y16845D01*
X96422Y16256D01*
X96171Y15652D01*
X95958Y15033D01*
X95782Y14403D01*
X95645Y13763D01*
X95547Y13117D01*
X95487Y12465D01*
X95468Y11811D01*
X95487Y11157D01*
X95490Y11129D01*
X95487Y11118D01*
X95468Y10925D01*
Y1382D01*
X91894D01*
X91862Y1421D01*
X91532Y2366D01*
X91593Y2422D01*
X91884Y2739D01*
X92145Y3080D01*
X92376Y3443D01*
X92575Y3824D01*
X92739Y4221D01*
X92868Y4631D01*
X92961Y5050D01*
X93017Y5476D01*
X93036Y5906D01*
Y12992D01*
X93017Y13421D01*
X92961Y13848D01*
X92868Y14267D01*
X92739Y14677D01*
X92575Y15074D01*
X92376Y15455D01*
X92145Y15818D01*
X91884Y16159D01*
X91593Y16475D01*
X91277Y16766D01*
X90936Y17027D01*
X90573Y17258D01*
X90192Y17457D01*
X89795Y17621D01*
X89385Y17750D01*
X88966Y17843D01*
X88539Y17899D01*
X88110Y17918D01*
X87681Y17899D01*
X87255Y17843D01*
X86835Y17750D01*
X86426Y17621D01*
X86028Y17457D01*
X85831Y17354D01*
X85283Y17557D01*
X84847Y17915D01*
Y30854D01*
X84981Y31008D01*
X85831Y31397D01*
X85844Y31389D01*
X86211Y31216D01*
X86594Y31079D01*
X86811Y31024D01*
Y37402D01*
X88779D01*
Y31024D01*
D02*
G37*
G36*
X127953Y127165D02*
X130709Y124409D01*
X135039Y124409D01*
X140157Y119291D01*
X140157Y112205D01*
X138189Y110236D01*
X132283D01*
X129528Y112992D01*
X116929D01*
Y127165D01*
X127953Y127165D01*
D02*
G37*
G36*
X132893Y157866D02*
X133169Y157851D01*
X136597D01*
X136614Y157850D01*
X136632Y157851D01*
X139272D01*
X139366Y157856D01*
X139776Y157668D01*
X140182Y157317D01*
X140350Y157041D01*
Y154355D01*
X139366Y154029D01*
X139357Y154042D01*
X139123Y154300D01*
X138865Y154534D01*
X138585Y154741D01*
X138286Y154920D01*
X137972Y155069D01*
X137644Y155186D01*
X137306Y155271D01*
X136962Y155322D01*
X136614Y155339D01*
X136267Y155322D01*
X135922Y155271D01*
X135584Y155186D01*
X135257Y155069D01*
X134942Y154920D01*
X134643Y154741D01*
X134364Y154534D01*
X134106Y154300D01*
X133872Y154042D01*
X133665Y153762D01*
X133485Y153464D01*
X133337Y153149D01*
X133219Y152821D01*
X133135Y152483D01*
X133084Y152139D01*
X133067Y151791D01*
X133084Y151444D01*
X133135Y151099D01*
X133219Y150761D01*
X133337Y150434D01*
X133485Y150119D01*
X133665Y149820D01*
X133872Y149541D01*
X134106Y149283D01*
X134364Y149049D01*
X134643Y148842D01*
X134942Y148663D01*
X135257Y148514D01*
X135584Y148397D01*
X135922Y148312D01*
X136267Y148261D01*
X136614Y148244D01*
X136962Y148261D01*
X137306Y148312D01*
X137644Y148397D01*
X137972Y148514D01*
X138286Y148663D01*
X138585Y148842D01*
X138865Y149049D01*
X139123Y149283D01*
X139357Y149541D01*
X139366Y149553D01*
X140350Y149228D01*
Y144354D01*
X139366Y144029D01*
X139357Y144042D01*
X139123Y144300D01*
X138865Y144534D01*
X138585Y144741D01*
X138286Y144920D01*
X137972Y145069D01*
X137644Y145186D01*
X137306Y145271D01*
X136962Y145322D01*
X136614Y145339D01*
X136267Y145322D01*
X135922Y145271D01*
X135584Y145186D01*
X135257Y145069D01*
X134942Y144920D01*
X134643Y144741D01*
X134364Y144534D01*
X134106Y144300D01*
X133872Y144042D01*
X133665Y143762D01*
X133485Y143464D01*
X133337Y143149D01*
X133219Y142821D01*
X133135Y142483D01*
X133084Y142139D01*
X133067Y141791D01*
X133084Y141444D01*
X133135Y141099D01*
X133219Y140761D01*
X133337Y140434D01*
X133485Y140119D01*
X133665Y139820D01*
X133872Y139541D01*
X134106Y139283D01*
X134364Y139049D01*
X134643Y138842D01*
X134942Y138663D01*
X135257Y138514D01*
X135584Y138397D01*
X135922Y138312D01*
X136267Y138261D01*
X136614Y138244D01*
X136962Y138261D01*
X137306Y138312D01*
X137644Y138397D01*
X137972Y138514D01*
X138286Y138663D01*
X138585Y138842D01*
X138865Y139049D01*
X139123Y139283D01*
X139357Y139541D01*
X139366Y139553D01*
X140350Y139228D01*
Y135531D01*
X139346D01*
X139272Y135536D01*
X137205D01*
Y131791D01*
X135236D01*
Y135536D01*
X133169D01*
X133095Y135531D01*
X132874D01*
Y135517D01*
X132873Y135517D01*
X132582Y135459D01*
X132301Y135364D01*
X132035Y135232D01*
X131788Y135067D01*
X131565Y134872D01*
X131496Y134793D01*
X130966Y134878D01*
X130512Y135137D01*
Y136614D01*
X128642D01*
Y133563D01*
X126673D01*
Y136614D01*
X125000D01*
Y136811D01*
X123232D01*
Y143504D01*
X125000D01*
Y143701D01*
X126673D01*
Y146752D01*
Y149803D01*
X125000D01*
Y150000D01*
X118898D01*
Y143504D01*
X120665D01*
Y136811D01*
X118898D01*
Y132327D01*
X116634Y130063D01*
X115650Y130119D01*
Y134941D01*
Y138484D01*
X115453D01*
Y138485D01*
X112008D01*
Y139272D01*
X111024D01*
Y140847D01*
X109703D01*
X109295Y141831D01*
X120709Y153244D01*
X127559D01*
X127760Y153260D01*
X127956Y153307D01*
X128142Y153384D01*
X128314Y153489D01*
X128467Y153620D01*
X132739Y157892D01*
X132893Y157866D01*
D02*
G37*
%LPC*%
G36*
X15945Y53740D02*
X14370D01*
Y50984D01*
X15945D01*
Y53740D01*
D02*
G37*
G36*
X12402D02*
X10827D01*
Y50984D01*
X12402D01*
Y53740D01*
D02*
G37*
G36*
X37205Y35630D02*
X34050D01*
Y33465D01*
X34070Y33059D01*
X34130Y32657D01*
X34228Y32263D01*
X34365Y31881D01*
X34539Y31514D01*
X34748Y31165D01*
X34990Y30839D01*
X35262Y30538D01*
X35563Y30265D01*
X35890Y30023D01*
X36238Y29814D01*
X36605Y29641D01*
X36988Y29504D01*
X37205Y29449D01*
Y35630D01*
D02*
G37*
G36*
X113386Y61319D02*
X112402D01*
Y59252D01*
X113386D01*
Y61319D01*
D02*
G37*
G36*
X12402Y58465D02*
X10827D01*
Y55709D01*
X12402D01*
Y58465D01*
D02*
G37*
G36*
X116142Y53937D02*
X113189D01*
Y50591D01*
X116142D01*
Y53937D01*
D02*
G37*
G36*
X37205Y43779D02*
X36988Y43724D01*
X36605Y43588D01*
X36238Y43414D01*
X35890Y43205D01*
X35563Y42963D01*
X35262Y42690D01*
X34990Y42389D01*
X34748Y42063D01*
X34539Y41715D01*
X34365Y41348D01*
X34228Y40965D01*
X34130Y40571D01*
X34070Y40170D01*
X34050Y39764D01*
Y37598D01*
X37205D01*
Y43779D01*
D02*
G37*
G36*
X116142Y48622D02*
X113189D01*
Y45276D01*
X116142D01*
Y48622D01*
D02*
G37*
G36*
X111221D02*
X108268D01*
Y45276D01*
X111221D01*
Y48622D01*
D02*
G37*
G36*
X115847Y38780D02*
X112008D01*
Y35236D01*
X118110D01*
Y36516D01*
X115847Y38780D01*
D02*
G37*
G36*
X121063Y37795D02*
X119292D01*
Y35827D01*
X121063D01*
Y37795D01*
D02*
G37*
G36*
X111221Y53937D02*
X108268D01*
Y50591D01*
X111221D01*
Y53937D01*
D02*
G37*
G36*
X113386Y114469D02*
X112402D01*
Y113559D01*
X113386Y113386D01*
X112402Y112402D01*
Y112402D01*
X113386D01*
Y114469D01*
D02*
G37*
G36*
Y100787D02*
X112402D01*
Y98721D01*
X113386D01*
Y100787D01*
D02*
G37*
G36*
Y96752D02*
X112402D01*
Y94685D01*
X113386D01*
Y96752D01*
D02*
G37*
G36*
Y118504D02*
X112402D01*
Y116437D01*
X113386D01*
Y118504D01*
D02*
G37*
G36*
X130512Y149803D02*
X128642D01*
Y147736D01*
X130512D01*
Y149803D01*
D02*
G37*
G36*
Y145768D02*
X128642D01*
Y143701D01*
X130512D01*
Y145768D01*
D02*
G37*
G36*
X115453Y140847D02*
X112992D01*
Y140256D01*
X115453D01*
Y140847D01*
D02*
G37*
G36*
X90158Y83071D02*
X86811D01*
Y80118D01*
X90158D01*
Y83071D01*
D02*
G37*
G36*
Y78150D02*
X86811D01*
Y75197D01*
X90158D01*
Y78150D01*
D02*
G37*
G36*
X84843D02*
X81496D01*
Y75197D01*
X84843D01*
Y78150D01*
D02*
G37*
G36*
X72441Y74508D02*
X71654D01*
Y74213D01*
X72441D01*
Y74508D01*
D02*
G37*
G36*
X75394Y77559D02*
X73622D01*
Y75590D01*
X75394D01*
Y77559D01*
D02*
G37*
G36*
X84843Y83071D02*
X81496D01*
Y80118D01*
X84843D01*
Y83071D01*
D02*
G37*
G36*
X113386Y79035D02*
X112402D01*
Y76968D01*
X113386D01*
Y79035D01*
D02*
G37*
G36*
X79134Y77559D02*
X77363D01*
Y75590D01*
X79134D01*
Y77559D01*
D02*
G37*
%LPD*%
G36*
X1093521Y-64032D02*
Y-64318D01*
Y-64605D01*
Y-64891D01*
Y-65177D01*
Y-65464D01*
Y-65750D01*
Y-66036D01*
Y-66322D01*
Y-66609D01*
Y-66895D01*
Y-67181D01*
Y-67468D01*
Y-67754D01*
Y-68040D01*
Y-68327D01*
Y-68613D01*
Y-68899D01*
Y-69186D01*
Y-69472D01*
Y-69758D01*
X1093234D01*
Y-70044D01*
Y-70331D01*
Y-70617D01*
Y-70903D01*
Y-71190D01*
X1092948D01*
Y-71476D01*
Y-71762D01*
Y-72049D01*
Y-72335D01*
X1092662D01*
Y-72621D01*
Y-72908D01*
Y-73194D01*
Y-73480D01*
X1092375D01*
Y-73767D01*
Y-74053D01*
Y-74339D01*
X1092089D01*
Y-74625D01*
Y-74912D01*
Y-75198D01*
X1091803D01*
Y-75485D01*
Y-75771D01*
Y-76057D01*
X1091516D01*
Y-76343D01*
Y-76630D01*
Y-76916D01*
X1091230D01*
Y-77202D01*
Y-77489D01*
X1090944D01*
Y-77775D01*
Y-78061D01*
X1090657D01*
Y-78348D01*
Y-78634D01*
Y-78920D01*
X1090371D01*
Y-79207D01*
Y-79493D01*
X1090085D01*
Y-79779D01*
Y-80066D01*
Y-80352D01*
X1089799D01*
Y-80638D01*
Y-80924D01*
X1089512D01*
Y-81211D01*
Y-81497D01*
Y-81783D01*
X1089226D01*
Y-82070D01*
Y-82356D01*
X1088939D01*
Y-82642D01*
Y-82929D01*
Y-83215D01*
X1088653D01*
Y-83501D01*
Y-83788D01*
X1088367D01*
Y-84074D01*
Y-84360D01*
Y-84646D01*
X1088081D01*
Y-84933D01*
Y-85219D01*
X1087794D01*
Y-85505D01*
Y-85792D01*
Y-86078D01*
X1087508D01*
Y-86364D01*
Y-86651D01*
X1087222D01*
Y-86937D01*
Y-87223D01*
Y-87510D01*
X1086935D01*
Y-87796D01*
Y-88082D01*
X1086649D01*
Y-88369D01*
Y-88655D01*
Y-88941D01*
X1086363D01*
Y-89227D01*
Y-89514D01*
X1086076D01*
Y-89800D01*
Y-90086D01*
Y-90373D01*
X1085790D01*
Y-90659D01*
Y-90945D01*
X1085504D01*
Y-91232D01*
Y-91518D01*
Y-91804D01*
X1085217D01*
Y-92091D01*
Y-92377D01*
X1084931D01*
Y-92663D01*
Y-92950D01*
Y-93236D01*
X1084645D01*
Y-93522D01*
Y-93809D01*
X1084359D01*
Y-94095D01*
Y-94381D01*
Y-94667D01*
X1084072D01*
Y-94954D01*
Y-95240D01*
X1083786D01*
Y-95526D01*
Y-95813D01*
Y-96099D01*
X1083500D01*
Y-96385D01*
Y-96672D01*
X1083213D01*
Y-96958D01*
Y-97244D01*
Y-97531D01*
X1082927D01*
Y-97817D01*
Y-98103D01*
X1082641D01*
Y-98390D01*
Y-98676D01*
Y-98962D01*
X1082354D01*
Y-99248D01*
Y-99535D01*
X1082068D01*
Y-99821D01*
Y-100107D01*
Y-100394D01*
X1081782D01*
Y-100680D01*
Y-100966D01*
X1081495D01*
Y-101253D01*
Y-101539D01*
X1081209D01*
Y-101825D01*
Y-102112D01*
X1080923D01*
Y-102398D01*
Y-102684D01*
Y-102971D01*
X1080637D01*
Y-103257D01*
X1080350D01*
Y-103543D01*
Y-103829D01*
Y-104116D01*
X1080064D01*
Y-104402D01*
X1079778D01*
Y-104688D01*
Y-104975D01*
X1079491D01*
Y-105261D01*
Y-105547D01*
X1079205D01*
Y-105834D01*
Y-106120D01*
X1078919D01*
Y-106406D01*
Y-106693D01*
X1078632D01*
Y-106979D01*
X1078346D01*
Y-107265D01*
Y-107552D01*
X1078060D01*
Y-107838D01*
Y-108124D01*
X1077773D01*
Y-108410D01*
X1077487D01*
Y-108697D01*
X1077201D01*
Y-108983D01*
Y-109269D01*
X1076914D01*
Y-109556D01*
X1076628D01*
Y-109842D01*
Y-110128D01*
X1076342D01*
Y-110415D01*
X1076056D01*
Y-110701D01*
X1075769D01*
Y-110987D01*
Y-111274D01*
X1075483D01*
Y-111560D01*
X1075196D01*
Y-111846D01*
X1074910D01*
Y-112133D01*
X1074624D01*
Y-112419D01*
X1074338D01*
Y-112705D01*
Y-112991D01*
X1074051D01*
Y-113278D01*
X1073765D01*
Y-113564D01*
X1073479D01*
Y-113850D01*
X1073192D01*
Y-114137D01*
X1072906D01*
Y-114423D01*
X1072620D01*
Y-114709D01*
X1072333D01*
Y-114996D01*
X1071761D01*
Y-115282D01*
X1071474D01*
Y-115568D01*
X1071188D01*
Y-115855D01*
X1070902D01*
Y-116141D01*
X1070615D01*
Y-116427D01*
X1070043D01*
Y-116714D01*
X1069757D01*
Y-117000D01*
X1069184D01*
Y-117286D01*
X1068898D01*
Y-117572D01*
X1068325D01*
Y-117859D01*
X1068039D01*
Y-118145D01*
X1067466D01*
Y-118431D01*
X1066893D01*
Y-118718D01*
X1066321D01*
Y-119004D01*
X1065748D01*
Y-119290D01*
X1065176D01*
Y-119577D01*
X1064317D01*
Y-119863D01*
X1063744D01*
Y-120149D01*
X1062885D01*
Y-120436D01*
X1061740D01*
Y-120722D01*
X1060595D01*
Y-121008D01*
X1058877D01*
Y-121294D01*
X1056872D01*
Y-121581D01*
X1056586D01*
Y-121294D01*
Y-121008D01*
Y-120722D01*
Y-120436D01*
Y-120149D01*
Y-119863D01*
Y-119577D01*
Y-119290D01*
Y-119004D01*
Y-118718D01*
Y-118431D01*
Y-118145D01*
Y-117859D01*
Y-117572D01*
Y-117286D01*
Y-117000D01*
Y-116714D01*
Y-116427D01*
Y-116141D01*
Y-115855D01*
Y-115568D01*
Y-115282D01*
Y-114996D01*
Y-114709D01*
Y-114423D01*
Y-114137D01*
Y-113850D01*
Y-113564D01*
Y-113278D01*
Y-112991D01*
Y-112705D01*
Y-112419D01*
Y-112133D01*
X1057159D01*
Y-111846D01*
X1057731D01*
Y-111560D01*
X1058304D01*
Y-111274D01*
X1058877D01*
Y-110987D01*
X1059449D01*
Y-110701D01*
X1060022D01*
Y-110415D01*
X1060308D01*
Y-110128D01*
X1060881D01*
Y-109842D01*
X1061167D01*
Y-109556D01*
X1061740D01*
Y-109269D01*
X1062026D01*
Y-108983D01*
X1062312D01*
Y-108697D01*
X1062885D01*
Y-108410D01*
X1063171D01*
Y-108124D01*
X1063458D01*
Y-107838D01*
X1063744D01*
Y-107552D01*
X1064030D01*
Y-107265D01*
X1064317D01*
Y-106979D01*
X1064603D01*
Y-106693D01*
X1064889D01*
Y-106406D01*
X1065176D01*
Y-106120D01*
X1065462D01*
Y-105834D01*
X1065748D01*
Y-105547D01*
X1066035D01*
Y-105261D01*
Y-104975D01*
X1066321D01*
Y-104688D01*
X1066607D01*
Y-104402D01*
X1066893D01*
Y-104116D01*
Y-103829D01*
X1067180D01*
Y-103543D01*
X1067466D01*
Y-103257D01*
Y-102971D01*
X1067752D01*
Y-102684D01*
Y-102398D01*
X1068039D01*
Y-102112D01*
X1068325D01*
Y-101825D01*
Y-101539D01*
X1068611D01*
Y-101253D01*
Y-100966D01*
X1068898D01*
Y-100680D01*
Y-100394D01*
X1067180D01*
Y-100107D01*
X1065176D01*
Y-99821D01*
X1064030D01*
Y-99535D01*
X1063458D01*
Y-99248D01*
X1062599D01*
Y-98962D01*
X1062026D01*
Y-98676D01*
X1061740D01*
Y-98390D01*
X1061167D01*
Y-98103D01*
X1060881D01*
Y-97817D01*
X1060595D01*
Y-97531D01*
X1060308D01*
Y-97244D01*
X1060022D01*
Y-96958D01*
X1059736D01*
Y-96672D01*
Y-96385D01*
X1059449D01*
Y-96099D01*
X1059163D01*
Y-95813D01*
Y-95526D01*
X1058877D01*
Y-95240D01*
Y-94954D01*
X1058590D01*
Y-94667D01*
Y-94381D01*
X1058304D01*
Y-94095D01*
Y-93809D01*
Y-93522D01*
X1058018D01*
Y-93236D01*
Y-92950D01*
Y-92663D01*
Y-92377D01*
X1057731D01*
Y-92091D01*
Y-91804D01*
Y-91518D01*
Y-91232D01*
Y-90945D01*
Y-90659D01*
Y-90373D01*
X1057445D01*
Y-90086D01*
Y-89800D01*
Y-89514D01*
Y-89227D01*
Y-88941D01*
Y-88655D01*
Y-88369D01*
Y-88082D01*
Y-87796D01*
Y-87510D01*
Y-87223D01*
Y-86937D01*
Y-86651D01*
Y-86364D01*
Y-86078D01*
X1057159D01*
Y-85792D01*
Y-85505D01*
Y-85219D01*
Y-84933D01*
Y-84646D01*
Y-84360D01*
Y-84074D01*
Y-83788D01*
Y-83501D01*
Y-83215D01*
Y-82929D01*
Y-82642D01*
Y-82356D01*
Y-82070D01*
Y-81783D01*
X1056872D01*
Y-81497D01*
Y-81211D01*
Y-80924D01*
Y-80638D01*
Y-80352D01*
Y-80066D01*
Y-79779D01*
Y-79493D01*
Y-79207D01*
Y-78920D01*
Y-78634D01*
Y-78348D01*
Y-78061D01*
Y-77775D01*
Y-77489D01*
Y-77202D01*
X1056586D01*
Y-76916D01*
Y-76630D01*
Y-76343D01*
Y-76057D01*
Y-75771D01*
Y-75485D01*
Y-75198D01*
Y-74912D01*
Y-74625D01*
Y-74339D01*
Y-74053D01*
Y-73767D01*
Y-73480D01*
Y-73194D01*
Y-72908D01*
Y-72621D01*
X1056300D01*
Y-72335D01*
Y-72049D01*
Y-71762D01*
Y-71476D01*
Y-71190D01*
Y-70903D01*
Y-70617D01*
Y-70331D01*
Y-70044D01*
Y-69758D01*
Y-69472D01*
Y-69186D01*
Y-68899D01*
Y-68613D01*
X1056014D01*
Y-68327D01*
Y-68040D01*
Y-67754D01*
Y-67468D01*
Y-67181D01*
Y-66895D01*
Y-66609D01*
Y-66322D01*
Y-66036D01*
Y-65750D01*
Y-65464D01*
Y-65177D01*
Y-64891D01*
Y-64605D01*
Y-64318D01*
Y-64032D01*
X1055727D01*
Y-63746D01*
X1069470D01*
Y-64032D01*
Y-64318D01*
Y-64605D01*
Y-64891D01*
Y-65177D01*
Y-65464D01*
Y-65750D01*
Y-66036D01*
Y-66322D01*
Y-66609D01*
Y-66895D01*
Y-67181D01*
Y-67468D01*
Y-67754D01*
X1069757D01*
Y-68040D01*
Y-68327D01*
Y-68613D01*
Y-68899D01*
Y-69186D01*
Y-69472D01*
Y-69758D01*
Y-70044D01*
Y-70331D01*
Y-70617D01*
Y-70903D01*
Y-71190D01*
Y-71476D01*
Y-71762D01*
Y-72049D01*
Y-72335D01*
Y-72621D01*
Y-72908D01*
Y-73194D01*
Y-73480D01*
Y-73767D01*
Y-74053D01*
Y-74339D01*
Y-74625D01*
Y-74912D01*
Y-75198D01*
Y-75485D01*
Y-75771D01*
Y-76057D01*
Y-76343D01*
Y-76630D01*
Y-76916D01*
Y-77202D01*
Y-77489D01*
Y-77775D01*
Y-78061D01*
Y-78348D01*
Y-78634D01*
Y-78920D01*
Y-79207D01*
Y-79493D01*
X1070043D01*
Y-79779D01*
X1069757D01*
Y-80066D01*
Y-80352D01*
X1070043D01*
Y-80638D01*
Y-80924D01*
Y-81211D01*
Y-81497D01*
Y-81783D01*
Y-82070D01*
Y-82356D01*
Y-82642D01*
Y-82929D01*
Y-83215D01*
Y-83501D01*
Y-83788D01*
Y-84074D01*
Y-84360D01*
Y-84646D01*
Y-84933D01*
Y-85219D01*
Y-85505D01*
Y-85792D01*
Y-86078D01*
Y-86364D01*
Y-86651D01*
Y-86937D01*
Y-87223D01*
Y-87510D01*
Y-87796D01*
X1070329D01*
Y-88082D01*
Y-88369D01*
Y-88655D01*
X1070615D01*
Y-88941D01*
X1070902D01*
Y-89227D01*
X1071188D01*
Y-89514D01*
X1072047D01*
Y-89800D01*
X1072906D01*
Y-89514D01*
X1073192D01*
Y-89227D01*
Y-88941D01*
Y-88655D01*
X1073479D01*
Y-88369D01*
Y-88082D01*
X1073765D01*
Y-87796D01*
Y-87510D01*
Y-87223D01*
X1074051D01*
Y-86937D01*
Y-86651D01*
Y-86364D01*
X1074338D01*
Y-86078D01*
Y-85792D01*
Y-85505D01*
X1074624D01*
Y-85219D01*
Y-84933D01*
Y-84646D01*
X1074910D01*
Y-84360D01*
Y-84074D01*
X1075196D01*
Y-83788D01*
Y-83501D01*
Y-83215D01*
X1075483D01*
Y-82929D01*
Y-82642D01*
Y-82356D01*
X1075769D01*
Y-82070D01*
Y-81783D01*
Y-81497D01*
X1076056D01*
Y-81211D01*
Y-80924D01*
X1076342D01*
Y-80638D01*
Y-80352D01*
Y-80066D01*
X1076628D01*
Y-79779D01*
Y-79493D01*
Y-79207D01*
X1076914D01*
Y-78920D01*
Y-78634D01*
Y-78348D01*
X1077201D01*
Y-78061D01*
Y-77775D01*
X1077487D01*
Y-77489D01*
Y-77202D01*
Y-76916D01*
X1077773D01*
Y-76630D01*
Y-76343D01*
Y-76057D01*
X1078060D01*
Y-75771D01*
Y-75485D01*
Y-75198D01*
X1078346D01*
Y-74912D01*
Y-74625D01*
X1078632D01*
Y-74339D01*
Y-74053D01*
Y-73767D01*
X1078919D01*
Y-73480D01*
Y-73194D01*
Y-72908D01*
X1079205D01*
Y-72621D01*
Y-72335D01*
Y-72049D01*
X1079491D01*
Y-71762D01*
Y-71476D01*
Y-71190D01*
Y-70903D01*
X1079778D01*
Y-70617D01*
Y-70331D01*
Y-70044D01*
Y-69758D01*
X1080064D01*
Y-69472D01*
Y-69186D01*
Y-68899D01*
Y-68613D01*
Y-68327D01*
X1080350D01*
Y-68040D01*
Y-67754D01*
Y-67468D01*
Y-67181D01*
Y-66895D01*
Y-66609D01*
X1080637D01*
Y-66322D01*
Y-66036D01*
Y-65750D01*
Y-65464D01*
Y-65177D01*
Y-64891D01*
Y-64605D01*
Y-64318D01*
Y-64032D01*
Y-63746D01*
X1093521D01*
Y-64032D01*
D02*
G37*
G36*
X1035685Y-46567D02*
Y-46853D01*
X1035399D01*
Y-47139D01*
Y-47426D01*
Y-47712D01*
Y-47998D01*
Y-48285D01*
Y-48571D01*
X1035113D01*
Y-48857D01*
Y-49144D01*
Y-49430D01*
Y-49716D01*
Y-50003D01*
Y-50289D01*
X1034826D01*
Y-50575D01*
Y-50862D01*
Y-51148D01*
Y-51434D01*
Y-51720D01*
Y-52007D01*
Y-52293D01*
X1034540D01*
Y-52579D01*
Y-52866D01*
Y-53152D01*
Y-53438D01*
Y-53725D01*
Y-54011D01*
X1034254D01*
Y-54297D01*
Y-54584D01*
Y-54870D01*
Y-55156D01*
Y-55443D01*
Y-55729D01*
X1033967D01*
Y-56015D01*
Y-56301D01*
Y-56588D01*
Y-56874D01*
Y-57161D01*
Y-57447D01*
Y-57733D01*
X1033681D01*
Y-58019D01*
Y-58306D01*
Y-58592D01*
Y-58878D01*
Y-59165D01*
Y-59451D01*
X1033395D01*
Y-59737D01*
Y-60024D01*
Y-60310D01*
Y-60596D01*
Y-60883D01*
Y-61169D01*
X1033109D01*
Y-61455D01*
Y-61742D01*
Y-62028D01*
Y-62314D01*
Y-62600D01*
Y-62887D01*
X1032822D01*
Y-63173D01*
Y-63459D01*
Y-63746D01*
Y-64032D01*
Y-64318D01*
Y-64605D01*
Y-64891D01*
X1032536D01*
Y-65177D01*
Y-65464D01*
Y-65750D01*
Y-66036D01*
Y-66322D01*
Y-66609D01*
X1032250D01*
Y-66895D01*
Y-67181D01*
X1032822D01*
Y-66895D01*
X1033109D01*
Y-66609D01*
X1033395D01*
Y-66322D01*
X1033967D01*
Y-66036D01*
X1034254D01*
Y-65750D01*
X1034540D01*
Y-65464D01*
X1035113D01*
Y-65177D01*
X1035685D01*
Y-64891D01*
X1035972D01*
Y-64605D01*
X1036544D01*
Y-64318D01*
X1037403D01*
Y-64032D01*
X1037976D01*
Y-63746D01*
X1038835D01*
Y-63459D01*
X1040266D01*
Y-63173D01*
X1046565D01*
Y-63459D01*
X1047711D01*
Y-63746D01*
X1048569D01*
Y-64032D01*
X1049142D01*
Y-64318D01*
X1049428D01*
Y-64605D01*
X1050001D01*
Y-64891D01*
X1050287D01*
Y-65177D01*
X1050574D01*
Y-65464D01*
X1050860D01*
Y-65750D01*
X1051146D01*
Y-66036D01*
Y-66322D01*
X1051433D01*
Y-66609D01*
Y-66895D01*
X1051719D01*
Y-67181D01*
Y-67468D01*
Y-67754D01*
X1052005D01*
Y-68040D01*
Y-68327D01*
Y-68613D01*
Y-68899D01*
X1052291D01*
Y-69186D01*
Y-69472D01*
Y-69758D01*
Y-70044D01*
Y-70331D01*
Y-70617D01*
Y-70903D01*
Y-71190D01*
Y-71476D01*
Y-71762D01*
Y-72049D01*
Y-72335D01*
Y-72621D01*
Y-72908D01*
Y-73194D01*
Y-73480D01*
Y-73767D01*
Y-74053D01*
X1052005D01*
Y-74339D01*
Y-74625D01*
Y-74912D01*
Y-75198D01*
Y-75485D01*
Y-75771D01*
Y-76057D01*
X1051719D01*
Y-76343D01*
Y-76630D01*
Y-76916D01*
Y-77202D01*
Y-77489D01*
Y-77775D01*
Y-78061D01*
X1051433D01*
Y-78348D01*
Y-78634D01*
Y-78920D01*
Y-79207D01*
Y-79493D01*
Y-79779D01*
X1051146D01*
Y-80066D01*
Y-80352D01*
Y-80638D01*
Y-80924D01*
Y-81211D01*
Y-81497D01*
X1050860D01*
Y-81783D01*
Y-82070D01*
Y-82356D01*
Y-82642D01*
Y-82929D01*
Y-83215D01*
X1050574D01*
Y-83501D01*
Y-83788D01*
Y-84074D01*
Y-84360D01*
Y-84646D01*
Y-84933D01*
Y-85219D01*
X1050287D01*
Y-85505D01*
Y-85792D01*
Y-86078D01*
Y-86364D01*
Y-86651D01*
Y-86937D01*
X1050001D01*
Y-87223D01*
Y-87510D01*
Y-87796D01*
Y-88082D01*
Y-88369D01*
Y-88655D01*
X1049715D01*
Y-88941D01*
Y-89227D01*
Y-89514D01*
Y-89800D01*
Y-90086D01*
Y-90373D01*
Y-90659D01*
X1049428D01*
Y-90945D01*
Y-91232D01*
Y-91518D01*
Y-91804D01*
Y-92091D01*
Y-92377D01*
X1049142D01*
Y-92663D01*
Y-92950D01*
Y-93236D01*
Y-93522D01*
Y-93809D01*
Y-94095D01*
X1048856D01*
Y-94381D01*
Y-94667D01*
Y-94954D01*
Y-95240D01*
Y-95526D01*
Y-95813D01*
X1048569D01*
Y-96099D01*
Y-96385D01*
Y-96672D01*
Y-96958D01*
Y-97244D01*
Y-97531D01*
Y-97817D01*
X1048283D01*
Y-98103D01*
Y-98390D01*
Y-98676D01*
Y-98962D01*
Y-99248D01*
Y-99535D01*
X1047997D01*
Y-99821D01*
Y-100107D01*
X1034826D01*
Y-99821D01*
Y-99535D01*
X1035113D01*
Y-99248D01*
Y-98962D01*
Y-98676D01*
Y-98390D01*
Y-98103D01*
Y-97817D01*
X1035399D01*
Y-97531D01*
Y-97244D01*
Y-96958D01*
Y-96672D01*
Y-96385D01*
Y-96099D01*
Y-95813D01*
X1035685D01*
Y-95526D01*
Y-95240D01*
Y-94954D01*
Y-94667D01*
Y-94381D01*
Y-94095D01*
X1035972D01*
Y-93809D01*
Y-93522D01*
Y-93236D01*
Y-92950D01*
Y-92663D01*
Y-92377D01*
X1036258D01*
Y-92091D01*
Y-91804D01*
Y-91518D01*
Y-91232D01*
Y-90945D01*
Y-90659D01*
Y-90373D01*
X1036544D01*
Y-90086D01*
Y-89800D01*
Y-89514D01*
Y-89227D01*
Y-88941D01*
Y-88655D01*
X1036831D01*
Y-88369D01*
Y-88082D01*
Y-87796D01*
Y-87510D01*
Y-87223D01*
Y-86937D01*
Y-86651D01*
X1037117D01*
Y-86364D01*
Y-86078D01*
Y-85792D01*
Y-85505D01*
Y-85219D01*
Y-84933D01*
X1037403D01*
Y-84646D01*
Y-84360D01*
Y-84074D01*
Y-83788D01*
Y-83501D01*
Y-83215D01*
X1037689D01*
Y-82929D01*
Y-82642D01*
Y-82356D01*
Y-82070D01*
Y-81783D01*
Y-81497D01*
X1037976D01*
Y-81211D01*
Y-80924D01*
Y-80638D01*
Y-80352D01*
Y-80066D01*
Y-79779D01*
Y-79493D01*
X1038262D01*
Y-79207D01*
Y-78920D01*
Y-78634D01*
Y-78348D01*
Y-78061D01*
Y-77775D01*
X1038548D01*
Y-77489D01*
Y-77202D01*
Y-76916D01*
Y-76630D01*
Y-76343D01*
Y-76057D01*
Y-75771D01*
X1038835D01*
Y-75485D01*
Y-75198D01*
Y-74912D01*
Y-74625D01*
Y-74339D01*
Y-74053D01*
X1038548D01*
Y-73767D01*
Y-73480D01*
X1038262D01*
Y-73194D01*
X1037976D01*
Y-72908D01*
X1037403D01*
Y-72621D01*
X1035685D01*
Y-72908D01*
X1034254D01*
Y-73194D01*
X1033395D01*
Y-73480D01*
X1032822D01*
Y-73767D01*
X1032536D01*
Y-74053D01*
X1031963D01*
Y-74339D01*
X1031677D01*
Y-74625D01*
X1031391D01*
Y-74912D01*
Y-75198D01*
X1031104D01*
Y-75485D01*
Y-75771D01*
Y-76057D01*
X1030818D01*
Y-76343D01*
Y-76630D01*
Y-76916D01*
Y-77202D01*
Y-77489D01*
Y-77775D01*
X1030532D01*
Y-78061D01*
Y-78348D01*
Y-78634D01*
Y-78920D01*
Y-79207D01*
Y-79493D01*
Y-79779D01*
X1030245D01*
Y-80066D01*
Y-80352D01*
Y-80638D01*
Y-80924D01*
Y-81211D01*
Y-81497D01*
X1029959D01*
Y-81783D01*
Y-82070D01*
Y-82356D01*
Y-82642D01*
Y-82929D01*
Y-83215D01*
X1029673D01*
Y-83501D01*
Y-83788D01*
Y-84074D01*
Y-84360D01*
Y-84646D01*
Y-84933D01*
X1029387D01*
Y-85219D01*
Y-85505D01*
Y-85792D01*
Y-86078D01*
Y-86364D01*
Y-86651D01*
Y-86937D01*
X1029100D01*
Y-87223D01*
Y-87510D01*
Y-87796D01*
Y-88082D01*
Y-88369D01*
Y-88655D01*
X1028814D01*
Y-88941D01*
Y-89227D01*
Y-89514D01*
Y-89800D01*
Y-90086D01*
Y-90373D01*
X1028528D01*
Y-90659D01*
Y-90945D01*
Y-91232D01*
Y-91518D01*
Y-91804D01*
Y-92091D01*
Y-92377D01*
X1028241D01*
Y-92663D01*
Y-92950D01*
Y-93236D01*
Y-93522D01*
Y-93809D01*
Y-94095D01*
X1027955D01*
Y-94381D01*
Y-94667D01*
Y-94954D01*
Y-95240D01*
Y-95526D01*
Y-95813D01*
X1027669D01*
Y-96099D01*
Y-96385D01*
Y-96672D01*
Y-96958D01*
Y-97244D01*
Y-97531D01*
X1027382D01*
Y-97817D01*
Y-98103D01*
Y-98390D01*
Y-98676D01*
Y-98962D01*
Y-99248D01*
Y-99535D01*
X1027096D01*
Y-99821D01*
Y-100107D01*
X1013926D01*
Y-99821D01*
Y-99535D01*
X1014212D01*
Y-99248D01*
Y-98962D01*
Y-98676D01*
Y-98390D01*
Y-98103D01*
Y-97817D01*
Y-97531D01*
X1014498D01*
Y-97244D01*
Y-96958D01*
Y-96672D01*
Y-96385D01*
Y-96099D01*
Y-95813D01*
X1014785D01*
Y-95526D01*
Y-95240D01*
Y-94954D01*
Y-94667D01*
Y-94381D01*
Y-94095D01*
X1015071D01*
Y-93809D01*
Y-93522D01*
Y-93236D01*
Y-92950D01*
Y-92663D01*
Y-92377D01*
Y-92091D01*
X1015357D01*
Y-91804D01*
Y-91518D01*
Y-91232D01*
Y-90945D01*
Y-90659D01*
Y-90373D01*
X1015643D01*
Y-90086D01*
Y-89800D01*
Y-89514D01*
Y-89227D01*
Y-88941D01*
Y-88655D01*
X1015930D01*
Y-88369D01*
Y-88082D01*
Y-87796D01*
Y-87510D01*
Y-87223D01*
Y-86937D01*
X1016216D01*
Y-86651D01*
Y-86364D01*
Y-86078D01*
Y-85792D01*
Y-85505D01*
Y-85219D01*
Y-84933D01*
X1016502D01*
Y-84646D01*
Y-84360D01*
Y-84074D01*
Y-83788D01*
Y-83501D01*
Y-83215D01*
X1016789D01*
Y-82929D01*
Y-82642D01*
Y-82356D01*
Y-82070D01*
Y-81783D01*
Y-81497D01*
X1017075D01*
Y-81211D01*
Y-80924D01*
Y-80638D01*
Y-80352D01*
Y-80066D01*
Y-79779D01*
Y-79493D01*
X1017361D01*
Y-79207D01*
Y-78920D01*
Y-78634D01*
Y-78348D01*
Y-78061D01*
Y-77775D01*
X1017648D01*
Y-77489D01*
Y-77202D01*
Y-76916D01*
Y-76630D01*
Y-76343D01*
Y-76057D01*
X1017934D01*
Y-75771D01*
Y-75485D01*
Y-75198D01*
Y-74912D01*
Y-74625D01*
Y-74339D01*
X1018220D01*
Y-74053D01*
Y-73767D01*
Y-73480D01*
Y-73194D01*
Y-72908D01*
Y-72621D01*
Y-72335D01*
X1018507D01*
Y-72049D01*
Y-71762D01*
Y-71476D01*
Y-71190D01*
Y-70903D01*
Y-70617D01*
X1018793D01*
Y-70331D01*
Y-70044D01*
Y-69758D01*
Y-69472D01*
Y-69186D01*
Y-68899D01*
X1019079D01*
Y-68613D01*
Y-68327D01*
Y-68040D01*
Y-67754D01*
Y-67468D01*
Y-67181D01*
X1019366D01*
Y-66895D01*
Y-66609D01*
Y-66322D01*
Y-66036D01*
Y-65750D01*
Y-65464D01*
Y-65177D01*
X1019652D01*
Y-64891D01*
Y-64605D01*
Y-64318D01*
Y-64032D01*
Y-63746D01*
Y-63459D01*
X1019938D01*
Y-63173D01*
Y-62887D01*
Y-62600D01*
Y-62314D01*
Y-62028D01*
Y-61742D01*
X1020224D01*
Y-61455D01*
Y-61169D01*
Y-60883D01*
Y-60596D01*
Y-60310D01*
Y-60024D01*
Y-59737D01*
X1020511D01*
Y-59451D01*
Y-59165D01*
Y-58878D01*
Y-58592D01*
Y-58306D01*
Y-58019D01*
X1020797D01*
Y-57733D01*
Y-57447D01*
Y-57161D01*
Y-56874D01*
Y-56588D01*
Y-56301D01*
X1021083D01*
Y-56015D01*
Y-55729D01*
Y-55443D01*
Y-55156D01*
Y-54870D01*
Y-54584D01*
X1021370D01*
Y-54297D01*
Y-54011D01*
Y-53725D01*
Y-53438D01*
Y-53152D01*
Y-52866D01*
Y-52579D01*
X1021656D01*
Y-52293D01*
Y-52007D01*
Y-51720D01*
Y-51434D01*
Y-51148D01*
Y-50862D01*
X1021942D01*
Y-50575D01*
Y-50289D01*
Y-50003D01*
Y-49716D01*
Y-49430D01*
Y-49144D01*
X1022229D01*
Y-48857D01*
Y-48571D01*
Y-48285D01*
Y-47998D01*
Y-47712D01*
Y-47426D01*
Y-47139D01*
X1022515D01*
Y-46853D01*
Y-46567D01*
Y-46281D01*
X1035685D01*
Y-46567D01*
D02*
G37*
G36*
X1004477Y-50003D02*
X1006195D01*
Y-50289D01*
X1007054D01*
Y-50575D01*
X1007913D01*
Y-50862D01*
X1008772D01*
Y-51148D01*
X1009345D01*
Y-51434D01*
X1009631D01*
Y-51720D01*
X1010203D01*
Y-52007D01*
X1010490D01*
Y-52293D01*
X1011062D01*
Y-52579D01*
X1011349D01*
Y-52866D01*
X1011635D01*
Y-53152D01*
X1011921D01*
Y-53438D01*
X1012208D01*
Y-53725D01*
X1012494D01*
Y-54011D01*
X1012780D01*
Y-54297D01*
Y-54584D01*
X1013067D01*
Y-54870D01*
X1013353D01*
Y-55156D01*
Y-55443D01*
X1013639D01*
Y-55729D01*
X1013926D01*
Y-56015D01*
Y-56301D01*
X1014212D01*
Y-56588D01*
Y-56874D01*
Y-57161D01*
X1014498D01*
Y-57447D01*
Y-57733D01*
Y-58019D01*
X1014785D01*
Y-58306D01*
Y-58592D01*
Y-58878D01*
Y-59165D01*
X1015071D01*
Y-59451D01*
Y-59737D01*
Y-60024D01*
Y-60310D01*
Y-60596D01*
X1015357D01*
Y-60883D01*
Y-61169D01*
Y-61455D01*
Y-61742D01*
Y-62028D01*
Y-62314D01*
Y-62600D01*
Y-62887D01*
Y-63173D01*
Y-63459D01*
Y-63746D01*
Y-64032D01*
Y-64318D01*
Y-64605D01*
Y-64891D01*
Y-65177D01*
Y-65464D01*
Y-65750D01*
Y-66036D01*
Y-66322D01*
X1015071D01*
Y-66609D01*
Y-66895D01*
Y-67181D01*
Y-67468D01*
Y-67754D01*
Y-68040D01*
Y-68327D01*
X1014785D01*
Y-68613D01*
Y-68899D01*
Y-69186D01*
Y-69472D01*
Y-69758D01*
X1014498D01*
Y-70044D01*
Y-70331D01*
Y-70617D01*
Y-70903D01*
Y-71190D01*
X1014212D01*
Y-71476D01*
Y-71762D01*
Y-72049D01*
X1013926D01*
Y-72335D01*
Y-72621D01*
Y-72908D01*
Y-73194D01*
X1013639D01*
Y-73480D01*
Y-73767D01*
Y-74053D01*
X1013353D01*
Y-74339D01*
Y-74625D01*
X1013067D01*
Y-74912D01*
Y-75198D01*
Y-75485D01*
X1012780D01*
Y-75771D01*
Y-76057D01*
X1012494D01*
Y-76343D01*
Y-76630D01*
X1012208D01*
Y-76916D01*
Y-77202D01*
X1011921D01*
Y-77489D01*
X1011635D01*
Y-77775D01*
Y-78061D01*
X1011349D01*
Y-78348D01*
X1011062D01*
Y-78634D01*
X1010776D01*
Y-78920D01*
Y-79207D01*
X1010490D01*
Y-79493D01*
X1010203D01*
Y-79779D01*
X1009917D01*
Y-80066D01*
X1009631D01*
Y-80352D01*
X1009345D01*
Y-80638D01*
X1008772D01*
Y-80924D01*
X1008486D01*
Y-81211D01*
X1007913D01*
Y-81497D01*
X1007627D01*
Y-81783D01*
X1007054D01*
Y-82070D01*
X1006195D01*
Y-82356D01*
X1005336D01*
Y-82642D01*
X1004477D01*
Y-82929D01*
X1002759D01*
Y-83215D01*
X997606D01*
Y-82929D01*
X995029D01*
Y-82642D01*
X993025D01*
Y-82356D01*
X991593D01*
Y-82070D01*
X990162D01*
Y-81783D01*
X988730D01*
Y-82070D01*
Y-82356D01*
Y-82642D01*
Y-82929D01*
Y-83215D01*
Y-83501D01*
Y-83788D01*
X988444D01*
Y-84074D01*
Y-84360D01*
Y-84646D01*
Y-84933D01*
Y-85219D01*
Y-85505D01*
X988157D01*
Y-85792D01*
Y-86078D01*
Y-86364D01*
Y-86651D01*
Y-86937D01*
Y-87223D01*
X987871D01*
Y-87510D01*
Y-87796D01*
Y-88082D01*
Y-88369D01*
Y-88655D01*
Y-88941D01*
Y-89227D01*
X987585D01*
Y-89514D01*
Y-89800D01*
Y-90086D01*
Y-90373D01*
Y-90659D01*
Y-90945D01*
X987298D01*
Y-91232D01*
Y-91518D01*
Y-91804D01*
Y-92091D01*
Y-92377D01*
Y-92663D01*
X987012D01*
Y-92950D01*
Y-93236D01*
Y-93522D01*
Y-93809D01*
Y-94095D01*
Y-94381D01*
Y-94667D01*
X986726D01*
Y-94954D01*
Y-95240D01*
Y-95526D01*
Y-95813D01*
Y-96099D01*
Y-96385D01*
X986440D01*
Y-96672D01*
Y-96958D01*
Y-97244D01*
Y-97531D01*
Y-97817D01*
Y-98103D01*
X986153D01*
Y-98390D01*
Y-98676D01*
Y-98962D01*
Y-99248D01*
Y-99535D01*
Y-99821D01*
Y-100107D01*
X972696D01*
Y-99821D01*
X972983D01*
Y-99535D01*
Y-99248D01*
Y-98962D01*
Y-98676D01*
Y-98390D01*
X973269D01*
Y-98103D01*
Y-97817D01*
Y-97531D01*
Y-97244D01*
Y-96958D01*
Y-96672D01*
Y-96385D01*
X973555D01*
Y-96099D01*
Y-95813D01*
Y-95526D01*
Y-95240D01*
Y-94954D01*
Y-94667D01*
X973842D01*
Y-94381D01*
Y-94095D01*
Y-93809D01*
Y-93522D01*
Y-93236D01*
Y-92950D01*
X974128D01*
Y-92663D01*
Y-92377D01*
Y-92091D01*
Y-91804D01*
Y-91518D01*
Y-91232D01*
Y-90945D01*
X974414D01*
Y-90659D01*
Y-90373D01*
Y-90086D01*
Y-89800D01*
Y-89514D01*
Y-89227D01*
X974701D01*
Y-88941D01*
Y-88655D01*
Y-88369D01*
Y-88082D01*
Y-87796D01*
Y-87510D01*
X974987D01*
Y-87223D01*
Y-86937D01*
Y-86651D01*
Y-86364D01*
Y-86078D01*
Y-85792D01*
X975273D01*
Y-85505D01*
Y-85219D01*
Y-84933D01*
Y-84646D01*
Y-84360D01*
Y-84074D01*
Y-83788D01*
X975560D01*
Y-83501D01*
Y-83215D01*
Y-82929D01*
Y-82642D01*
Y-82356D01*
Y-82070D01*
X975846D01*
Y-81783D01*
Y-81497D01*
Y-81211D01*
Y-80924D01*
Y-80638D01*
Y-80352D01*
X976132D01*
Y-80066D01*
Y-79779D01*
Y-79493D01*
Y-79207D01*
Y-78920D01*
Y-78634D01*
X976419D01*
Y-78348D01*
Y-78061D01*
Y-77775D01*
Y-77489D01*
Y-77202D01*
Y-76916D01*
Y-76630D01*
X976705D01*
Y-76343D01*
Y-76057D01*
Y-75771D01*
Y-75485D01*
Y-75198D01*
Y-74912D01*
X976991D01*
Y-74625D01*
Y-74339D01*
Y-74053D01*
Y-73767D01*
Y-73480D01*
Y-73194D01*
X977277D01*
Y-72908D01*
Y-72621D01*
Y-72335D01*
Y-72049D01*
Y-71762D01*
Y-71476D01*
Y-71190D01*
X977564D01*
Y-70903D01*
Y-70617D01*
Y-70331D01*
Y-70044D01*
Y-69758D01*
Y-69472D01*
X977850D01*
Y-69186D01*
Y-68899D01*
Y-68613D01*
Y-68327D01*
Y-68040D01*
Y-67754D01*
X978137D01*
Y-67468D01*
Y-67181D01*
Y-66895D01*
Y-66609D01*
Y-66322D01*
Y-66036D01*
X978423D01*
Y-65750D01*
Y-65464D01*
Y-65177D01*
Y-64891D01*
Y-64605D01*
Y-64318D01*
Y-64032D01*
X978709D01*
Y-63746D01*
Y-63459D01*
Y-63173D01*
Y-62887D01*
Y-62600D01*
Y-62314D01*
X978995D01*
Y-62028D01*
Y-61742D01*
Y-61455D01*
Y-61169D01*
Y-60883D01*
Y-60596D01*
X979282D01*
Y-60310D01*
Y-60024D01*
Y-59737D01*
Y-59451D01*
Y-59165D01*
Y-58878D01*
Y-58592D01*
X979568D01*
Y-58306D01*
Y-58019D01*
Y-57733D01*
Y-57447D01*
Y-57161D01*
Y-56874D01*
X979854D01*
Y-56588D01*
Y-56301D01*
Y-56015D01*
Y-55729D01*
Y-55443D01*
Y-55156D01*
X980141D01*
Y-54870D01*
Y-54584D01*
Y-54297D01*
Y-54011D01*
Y-53725D01*
Y-53438D01*
Y-53152D01*
X980427D01*
Y-52866D01*
Y-52579D01*
Y-52293D01*
Y-52007D01*
Y-51720D01*
Y-51434D01*
X980713D01*
Y-51148D01*
Y-50862D01*
Y-50575D01*
Y-50289D01*
Y-50003D01*
Y-49716D01*
X1004477D01*
Y-50003D01*
D02*
G37*
G36*
X1137613Y-64032D02*
X1137326D01*
Y-64318D01*
X1137040D01*
Y-64605D01*
Y-64891D01*
X1136754D01*
Y-65177D01*
X1136467D01*
Y-65464D01*
X1136181D01*
Y-65750D01*
Y-66036D01*
X1135895D01*
Y-66322D01*
X1135608D01*
Y-66609D01*
X1135322D01*
Y-66895D01*
X1135036D01*
Y-67181D01*
Y-67468D01*
X1134750D01*
Y-67754D01*
X1134463D01*
Y-68040D01*
X1134177D01*
Y-68327D01*
Y-68613D01*
X1133891D01*
Y-68899D01*
X1133604D01*
Y-69186D01*
X1133318D01*
Y-69472D01*
X1133032D01*
Y-69758D01*
Y-70044D01*
X1132745D01*
Y-70331D01*
X1132459D01*
Y-70617D01*
X1132173D01*
Y-70903D01*
Y-71190D01*
X1131886D01*
Y-71476D01*
X1131600D01*
Y-71762D01*
X1131314D01*
Y-72049D01*
Y-72335D01*
X1131028D01*
Y-72621D01*
X1130741D01*
Y-72908D01*
X1130455D01*
Y-73194D01*
X1130169D01*
Y-73480D01*
Y-73767D01*
X1129882D01*
Y-74053D01*
X1129596D01*
Y-74339D01*
X1129310D01*
Y-74625D01*
Y-74912D01*
X1129023D01*
Y-75198D01*
X1128737D01*
Y-75485D01*
X1128451D01*
Y-75771D01*
Y-76057D01*
X1128164D01*
Y-76343D01*
X1127878D01*
Y-76630D01*
X1127592D01*
Y-76916D01*
X1127306D01*
Y-77202D01*
Y-77489D01*
X1127019D01*
Y-77775D01*
X1126733D01*
Y-78061D01*
X1126447D01*
Y-78348D01*
Y-78634D01*
X1126160D01*
Y-78920D01*
X1125874D01*
Y-79207D01*
X1125588D01*
Y-79493D01*
Y-79779D01*
X1125301D01*
Y-80066D01*
X1125015D01*
Y-80352D01*
X1124729D01*
Y-80638D01*
X1124442D01*
Y-80924D01*
Y-81211D01*
X1124156D01*
Y-81497D01*
X1123870D01*
Y-81783D01*
X1123583D01*
Y-82070D01*
Y-82356D01*
X1123297D01*
Y-82642D01*
X1123011D01*
Y-82929D01*
X1122725D01*
Y-83215D01*
X1122438D01*
Y-83501D01*
Y-83788D01*
X1122725D01*
Y-84074D01*
Y-84360D01*
X1123011D01*
Y-84646D01*
Y-84933D01*
X1123297D01*
Y-85219D01*
X1123583D01*
Y-85505D01*
Y-85792D01*
X1123870D01*
Y-86078D01*
Y-86364D01*
X1124156D01*
Y-86651D01*
Y-86937D01*
X1124442D01*
Y-87223D01*
Y-87510D01*
X1124729D01*
Y-87796D01*
Y-88082D01*
X1125015D01*
Y-88369D01*
Y-88655D01*
X1125301D01*
Y-88941D01*
Y-89227D01*
X1125588D01*
Y-89514D01*
Y-89800D01*
X1125874D01*
Y-90086D01*
X1126160D01*
Y-90373D01*
Y-90659D01*
X1126447D01*
Y-90945D01*
Y-91232D01*
X1126733D01*
Y-91518D01*
Y-91804D01*
X1127019D01*
Y-92091D01*
Y-92377D01*
X1127306D01*
Y-92663D01*
Y-92950D01*
X1127592D01*
Y-93236D01*
Y-93522D01*
X1127878D01*
Y-93809D01*
Y-94095D01*
X1128164D01*
Y-94381D01*
X1128451D01*
Y-94667D01*
Y-94954D01*
X1128737D01*
Y-95240D01*
Y-95526D01*
X1129023D01*
Y-95813D01*
Y-96099D01*
X1129310D01*
Y-96385D01*
Y-96672D01*
X1129596D01*
Y-96958D01*
Y-97244D01*
X1129882D01*
Y-97531D01*
Y-97817D01*
X1130169D01*
Y-98103D01*
Y-98390D01*
X1130455D01*
Y-98676D01*
X1130741D01*
Y-98962D01*
Y-99248D01*
X1131028D01*
Y-99535D01*
Y-99821D01*
X1131314D01*
Y-100107D01*
X1116139D01*
Y-99821D01*
X1115853D01*
Y-99535D01*
Y-99248D01*
Y-98962D01*
X1115567D01*
Y-98676D01*
Y-98390D01*
Y-98103D01*
X1115280D01*
Y-97817D01*
Y-97531D01*
X1114994D01*
Y-97244D01*
Y-96958D01*
Y-96672D01*
X1114708D01*
Y-96385D01*
Y-96099D01*
Y-95813D01*
X1114421D01*
Y-95526D01*
Y-95240D01*
X1114135D01*
Y-94954D01*
Y-94667D01*
Y-94381D01*
X1113849D01*
Y-94095D01*
Y-93809D01*
Y-93522D01*
X1113562D01*
Y-93236D01*
Y-92950D01*
Y-92663D01*
X1113276D01*
Y-92377D01*
X1112704D01*
Y-92663D01*
Y-92950D01*
X1112417D01*
Y-93236D01*
X1112131D01*
Y-93522D01*
Y-93809D01*
X1111845D01*
Y-94095D01*
X1111558D01*
Y-94381D01*
Y-94667D01*
X1111272D01*
Y-94954D01*
X1110986D01*
Y-95240D01*
Y-95526D01*
X1110699D01*
Y-95813D01*
X1110413D01*
Y-96099D01*
X1110127D01*
Y-96385D01*
Y-96672D01*
X1109840D01*
Y-96958D01*
X1109554D01*
Y-97244D01*
Y-97531D01*
X1109268D01*
Y-97817D01*
X1108981D01*
Y-98103D01*
Y-98390D01*
X1108695D01*
Y-98676D01*
X1108409D01*
Y-98962D01*
Y-99248D01*
X1108123D01*
Y-99535D01*
X1107836D01*
Y-99821D01*
Y-100107D01*
X1091803D01*
Y-99821D01*
X1092089D01*
Y-99535D01*
X1092375D01*
Y-99248D01*
X1092662D01*
Y-98962D01*
X1092948D01*
Y-98676D01*
Y-98390D01*
X1093234D01*
Y-98103D01*
X1093521D01*
Y-97817D01*
X1093807D01*
Y-97531D01*
X1094093D01*
Y-97244D01*
Y-96958D01*
X1094380D01*
Y-96672D01*
X1094666D01*
Y-96385D01*
X1094952D01*
Y-96099D01*
Y-95813D01*
X1095238D01*
Y-95526D01*
X1095525D01*
Y-95240D01*
X1095811D01*
Y-94954D01*
X1096097D01*
Y-94667D01*
Y-94381D01*
X1096384D01*
Y-94095D01*
X1096670D01*
Y-93809D01*
X1096956D01*
Y-93522D01*
X1097243D01*
Y-93236D01*
Y-92950D01*
X1097529D01*
Y-92663D01*
X1097815D01*
Y-92377D01*
X1098102D01*
Y-92091D01*
Y-91804D01*
X1098388D01*
Y-91518D01*
X1098674D01*
Y-91232D01*
X1098960D01*
Y-90945D01*
X1099247D01*
Y-90659D01*
Y-90373D01*
X1099533D01*
Y-90086D01*
X1099819D01*
Y-89800D01*
X1100106D01*
Y-89514D01*
Y-89227D01*
X1100392D01*
Y-88941D01*
X1100678D01*
Y-88655D01*
X1100965D01*
Y-88369D01*
X1101251D01*
Y-88082D01*
Y-87796D01*
X1101537D01*
Y-87510D01*
X1101824D01*
Y-87223D01*
X1102110D01*
Y-86937D01*
Y-86651D01*
X1102396D01*
Y-86364D01*
X1102683D01*
Y-86078D01*
X1102969D01*
Y-85792D01*
X1103255D01*
Y-85505D01*
Y-85219D01*
X1103541D01*
Y-84933D01*
X1103828D01*
Y-84646D01*
X1104114D01*
Y-84360D01*
X1104400D01*
Y-84074D01*
Y-83788D01*
X1104687D01*
Y-83501D01*
X1104973D01*
Y-83215D01*
X1105259D01*
Y-82929D01*
Y-82642D01*
X1105546D01*
Y-82356D01*
X1105832D01*
Y-82070D01*
X1106118D01*
Y-81783D01*
X1106405D01*
Y-81497D01*
Y-81211D01*
X1106691D01*
Y-80924D01*
Y-80638D01*
Y-80352D01*
X1106405D01*
Y-80066D01*
X1106118D01*
Y-79779D01*
Y-79493D01*
X1105832D01*
Y-79207D01*
Y-78920D01*
X1105546D01*
Y-78634D01*
Y-78348D01*
X1105259D01*
Y-78061D01*
Y-77775D01*
X1104973D01*
Y-77489D01*
Y-77202D01*
X1104687D01*
Y-76916D01*
Y-76630D01*
X1104400D01*
Y-76343D01*
X1104114D01*
Y-76057D01*
Y-75771D01*
X1103828D01*
Y-75485D01*
Y-75198D01*
X1103541D01*
Y-74912D01*
Y-74625D01*
X1103255D01*
Y-74339D01*
Y-74053D01*
X1102969D01*
Y-73767D01*
Y-73480D01*
X1102683D01*
Y-73194D01*
Y-72908D01*
X1102396D01*
Y-72621D01*
X1102110D01*
Y-72335D01*
Y-72049D01*
X1101824D01*
Y-71762D01*
Y-71476D01*
X1101537D01*
Y-71190D01*
Y-70903D01*
X1101251D01*
Y-70617D01*
Y-70331D01*
X1100965D01*
Y-70044D01*
Y-69758D01*
X1100678D01*
Y-69472D01*
Y-69186D01*
X1100392D01*
Y-68899D01*
Y-68613D01*
X1100106D01*
Y-68327D01*
X1099819D01*
Y-68040D01*
Y-67754D01*
X1099533D01*
Y-67468D01*
Y-67181D01*
X1099247D01*
Y-66895D01*
Y-66609D01*
X1098960D01*
Y-66322D01*
Y-66036D01*
X1098674D01*
Y-65750D01*
Y-65464D01*
X1098388D01*
Y-65177D01*
Y-64891D01*
X1098102D01*
Y-64605D01*
X1097815D01*
Y-64318D01*
Y-64032D01*
X1097529D01*
Y-63746D01*
X1113276D01*
Y-64032D01*
X1113562D01*
Y-64318D01*
Y-64605D01*
Y-64891D01*
X1113849D01*
Y-65177D01*
Y-65464D01*
Y-65750D01*
X1114135D01*
Y-66036D01*
Y-66322D01*
Y-66609D01*
X1114421D01*
Y-66895D01*
Y-67181D01*
Y-67468D01*
X1114708D01*
Y-67754D01*
Y-68040D01*
Y-68327D01*
X1114994D01*
Y-68613D01*
Y-68899D01*
Y-69186D01*
X1115280D01*
Y-69472D01*
Y-69758D01*
Y-70044D01*
X1115567D01*
Y-70331D01*
Y-70617D01*
Y-70903D01*
X1115853D01*
Y-71190D01*
Y-71476D01*
Y-71762D01*
Y-72049D01*
X1116426D01*
Y-71762D01*
X1116712D01*
Y-71476D01*
X1116998D01*
Y-71190D01*
Y-70903D01*
X1117284D01*
Y-70617D01*
X1117571D01*
Y-70331D01*
Y-70044D01*
X1117857D01*
Y-69758D01*
X1118143D01*
Y-69472D01*
Y-69186D01*
X1118430D01*
Y-68899D01*
X1118716D01*
Y-68613D01*
Y-68327D01*
X1119002D01*
Y-68040D01*
X1119289D01*
Y-67754D01*
Y-67468D01*
X1119575D01*
Y-67181D01*
X1119861D01*
Y-66895D01*
Y-66609D01*
X1120148D01*
Y-66322D01*
X1120434D01*
Y-66036D01*
Y-65750D01*
X1120720D01*
Y-65464D01*
X1121007D01*
Y-65177D01*
Y-64891D01*
X1121293D01*
Y-64605D01*
X1121579D01*
Y-64318D01*
Y-64032D01*
X1121865D01*
Y-63746D01*
X1137613D01*
Y-64032D01*
D02*
G37*
%LPC*%
G36*
X1000183Y-60883D02*
X992166D01*
Y-61169D01*
Y-61455D01*
Y-61742D01*
Y-62028D01*
Y-62314D01*
X991879D01*
Y-62600D01*
Y-62887D01*
Y-63173D01*
Y-63459D01*
Y-63746D01*
Y-64032D01*
X991593D01*
Y-64318D01*
Y-64605D01*
Y-64891D01*
Y-65177D01*
Y-65464D01*
Y-65750D01*
X991307D01*
Y-66036D01*
Y-66322D01*
Y-66609D01*
Y-66895D01*
Y-67181D01*
Y-67468D01*
X991020D01*
Y-67754D01*
Y-68040D01*
Y-68327D01*
Y-68613D01*
Y-68899D01*
Y-69186D01*
Y-69472D01*
X990734D01*
Y-69758D01*
Y-70044D01*
Y-70331D01*
Y-70617D01*
Y-70903D01*
Y-71190D01*
X990448D01*
Y-71476D01*
Y-71762D01*
Y-72049D01*
X997606D01*
Y-71762D01*
X998751D01*
Y-71476D01*
X999324D01*
Y-71190D01*
X999610D01*
Y-70903D01*
X999896D01*
Y-70617D01*
X1000183D01*
Y-70331D01*
X1000469D01*
Y-70044D01*
Y-69758D01*
X1000755D01*
Y-69472D01*
Y-69186D01*
X1001042D01*
Y-68899D01*
Y-68613D01*
X1001328D01*
Y-68327D01*
Y-68040D01*
Y-67754D01*
Y-67468D01*
X1001614D01*
Y-67181D01*
Y-66895D01*
Y-66609D01*
Y-66322D01*
Y-66036D01*
X1001900D01*
Y-65750D01*
Y-65464D01*
Y-65177D01*
Y-64891D01*
Y-64605D01*
Y-64318D01*
Y-64032D01*
Y-63746D01*
Y-63459D01*
Y-63173D01*
Y-62887D01*
X1001614D01*
Y-62600D01*
Y-62314D01*
X1001328D01*
Y-62028D01*
Y-61742D01*
X1001042D01*
Y-61455D01*
X1000755D01*
Y-61169D01*
X1000183D01*
Y-60883D01*
D02*
G37*
%LPD*%
D10*
X130882Y55488D02*
G03*
X127953Y48417I7071J-7071D01*
G01*
X133753Y19396D02*
G03*
X135433Y18701I1680J1680D01*
G01*
X127953Y26310D02*
G03*
X128740Y24409I2688J0D01*
G01*
X130882Y55488D02*
X135433Y60039D01*
X128740Y24409D02*
X133753Y19396D01*
X127953Y28346D02*
Y48417D01*
Y26310D02*
Y28149D01*
D11*
Y28346D02*
G03*
X127478Y28543I-475J-475D01*
G01*
X101656Y34449D02*
G03*
X101181Y34252I0J-672D01*
G01*
X112598Y113681D02*
X114370Y115453D01*
X104232Y113681D02*
X112598D01*
X26772Y33858D02*
Y41339D01*
X107480Y34449D02*
Y40157D01*
Y34449D02*
X107480Y34449D01*
X111024Y111024D02*
X114370Y114370D01*
X101181Y111024D02*
X111024D01*
X114370Y114370D02*
Y115453D01*
X43504Y58858D02*
X44488D01*
X111221Y34449D02*
X112402Y35630D01*
X77165Y68307D02*
X85827D01*
X100394Y29921D02*
Y30512D01*
Y28346D02*
Y29921D01*
Y28346D02*
X101969D01*
X73327Y94488D02*
X80315D01*
X44685Y61417D02*
X47244Y58858D01*
X35827Y61417D02*
X38976D01*
X44685D01*
X34843Y62402D02*
X35827Y61417D01*
X11614Y68701D02*
X12992D01*
X8661Y71653D02*
X11614Y68701D01*
X8661Y71653D02*
Y91732D01*
X11417Y94488D01*
X13287D01*
X20472Y73819D02*
X21260Y74606D01*
X32874Y56693D02*
X45079D01*
X33071Y47638D02*
X66339D01*
X26772Y41339D02*
X33071Y47638D01*
X66339D02*
X85827D01*
Y67913D01*
Y47638D02*
X91339D01*
X94370Y44606D01*
Y32008D02*
Y44606D01*
Y32008D02*
X95866Y30512D01*
X100394D01*
Y29921D02*
X101969Y28346D01*
X76378Y74213D02*
Y77165D01*
X83858Y79331D02*
X87795D01*
Y82677D01*
X83858Y79331D02*
Y82677D01*
X107480Y34252D02*
X111024D01*
X111221Y34449D02*
X122441D01*
X101656D02*
X107480D01*
X111221D01*
X107480Y34252D02*
Y34449D01*
X12992Y62402D02*
Y68701D01*
Y62402D02*
X34843D01*
X20472Y74606D02*
Y79134D01*
X20866Y79528D01*
X24016D01*
X20472Y74606D02*
X21260D01*
X12992D02*
X20472D01*
X102166Y28149D02*
X127953D01*
X101969Y28346D02*
X102166Y28149D01*
D12*
X100197Y95914D02*
G03*
X100787Y94488I2016J0D01*
G01*
X84449Y156595D02*
X88386Y152657D01*
X58563Y156595D02*
X84449D01*
X105315Y124803D02*
X106299Y125787D01*
X105315Y124803D02*
X106693D01*
X114370Y123425D02*
Y124705D01*
X112598Y121653D02*
X114370Y123425D01*
X80315Y121653D02*
X112598D01*
X75984Y125984D02*
X80315Y121653D01*
X97933Y84941D02*
X98228Y85236D01*
X97933Y76476D02*
X107480Y66929D01*
X97933Y76476D02*
Y84941D01*
X112303Y89272D02*
X114370D01*
X54331Y152362D02*
X58563Y156595D01*
X38189Y139370D02*
X50394D01*
X54331Y143307D01*
Y152362D01*
X13287Y149606D02*
X27953D01*
X38189Y139370D01*
X66142Y122441D02*
X70472Y118110D01*
X73327D01*
X66142Y122441D02*
Y127953D01*
X73327Y125984D02*
X75984D01*
X73327Y133858D02*
X73327Y133858D01*
X118110Y80020D02*
Y89272D01*
X105610Y71555D02*
X114370D01*
X101575Y75591D02*
X105610Y71555D01*
X101575Y75591D02*
Y79134D01*
X104134Y81693D01*
Y86024D01*
X98228Y85236D02*
Y86024D01*
X102756Y90158D02*
X104134Y88779D01*
Y86024D02*
Y88779D01*
X102165Y86024D02*
Y87992D01*
X107480Y66929D02*
X118110D01*
X84646Y136811D02*
X85630Y137795D01*
Y138189D01*
X22047Y55905D02*
X26575D01*
X20866Y54724D02*
X22047Y55905D01*
X104134Y98228D02*
Y102559D01*
X13287Y102362D02*
X55118D01*
X108268Y93307D02*
X112303Y89272D01*
X105512Y93307D02*
X108268D01*
X104134Y94685D02*
X105512Y93307D01*
X104134Y94685D02*
Y98228D01*
X101181Y88976D02*
X102165Y87992D01*
X99302Y88976D02*
X101181D01*
X99905Y90158D02*
X102756D01*
X100197Y95914D02*
Y98228D01*
X96457Y93605D02*
Y95023D01*
X94630Y96850D02*
X96457Y95023D01*
X89764Y94882D02*
X91732Y96850D01*
X94630D01*
X93701Y99213D02*
X96457Y101969D01*
X101181D01*
X102165Y100984D01*
Y98228D02*
Y100984D01*
X83858Y94882D02*
X89764D01*
X55118Y102362D02*
X59449Y98032D01*
X80709D01*
X83858Y94882D01*
X101181Y105512D02*
X104134Y102559D01*
X55905Y118110D02*
X66929Y107087D01*
X114272D01*
X114370Y106988D01*
X13287Y118110D02*
X55905D01*
X13287Y110236D02*
X55512D01*
X60236Y105512D01*
X101181D01*
X95079Y139272D02*
X96752D01*
X66142Y127953D02*
X67323Y129134D01*
X102756Y123622D02*
X103937Y124803D01*
X105315D01*
X91929Y125197D02*
X98425D01*
X85630Y131496D02*
X91929Y125197D01*
X84842Y130709D02*
X85630Y131496D01*
X96457Y93605D02*
X99905Y90158D01*
X93701Y94578D02*
X99302Y88976D01*
X98228Y93846D02*
Y98228D01*
Y93846D02*
X99948Y92126D01*
X107139D01*
X110630Y88635D01*
Y86614D02*
Y88635D01*
Y86614D02*
X111811Y85433D01*
X118110D01*
X104134Y125787D02*
X106299D01*
X85630Y138189D02*
Y139173D01*
X85728Y139272D01*
X95079D01*
X73327Y133858D02*
X81102D01*
X84055Y136811D01*
X84646D01*
X67323Y129134D02*
X79921D01*
X85433Y123622D01*
X102756D01*
X104134Y125787D02*
X104921Y126575D01*
Y132776D01*
X98425Y125197D02*
X102953Y129724D01*
Y132776D01*
X96752Y139272D02*
X98032Y140551D01*
X104331D01*
X104921Y139961D01*
Y138091D02*
Y139961D01*
X3937Y142126D02*
Y142323D01*
Y142126D02*
X7874Y138189D01*
X18504D01*
X20472Y136221D01*
Y130512D02*
Y136221D01*
X15945Y125984D02*
X20472Y130512D01*
X13287Y125984D02*
X15945D01*
X106299Y125787D02*
X107283D01*
X110236Y128740D01*
X117126D01*
X121949Y133563D01*
Y146752D01*
X130709Y159449D02*
Y167717D01*
X134823Y161791D02*
X136221D01*
X130709Y167717D02*
X134882Y171890D01*
X136614D01*
X127559Y154528D02*
X134823Y161791D01*
X127165Y155905D02*
X130709Y159449D01*
X73327Y141732D02*
X107382D01*
X120177Y154528D01*
X127559D01*
X88780Y152559D02*
X93898D01*
X116732Y157874D02*
X121949Y163091D01*
X93898Y152559D02*
X99213Y157874D01*
X116732D01*
X82284Y143307D02*
X106693D01*
X119291Y155905D01*
X73327Y149606D02*
X75984D01*
X119291Y155905D02*
X127165D01*
X75984Y149606D02*
X82284Y143307D01*
D13*
X33267Y55905D02*
D03*
X26575D02*
D03*
X82284Y101575D02*
D03*
X88977D02*
D03*
X13189Y62598D02*
D03*
X6496D02*
D03*
X82087Y152559D02*
D03*
X88780D02*
D03*
X88976Y111417D02*
D03*
X82283D02*
D03*
X88976Y118110D02*
D03*
X82283D02*
D03*
D14*
X97244Y111221D02*
D03*
Y117914D02*
D03*
X85630Y131496D02*
D03*
Y138189D02*
D03*
X3937Y149015D02*
D03*
Y142323D02*
D03*
X122048Y28149D02*
D03*
Y34842D02*
D03*
X76378Y67913D02*
D03*
Y74606D02*
D03*
X12992Y68307D02*
D03*
Y75000D02*
D03*
D15*
X104921Y132776D02*
D03*
X100984D02*
D03*
Y138091D02*
D03*
X102953D02*
D03*
X104921D02*
D03*
X102953Y132776D02*
D03*
D16*
X20866Y54724D02*
D03*
X13386D02*
D03*
D17*
X73327Y94488D02*
D03*
Y102362D02*
D03*
Y110236D02*
D03*
Y118110D02*
D03*
Y125984D02*
D03*
Y133858D02*
D03*
Y141732D02*
D03*
Y149606D02*
D03*
X13287D02*
D03*
Y141732D02*
D03*
Y133858D02*
D03*
Y125984D02*
D03*
Y118110D02*
D03*
Y110236D02*
D03*
Y102362D02*
D03*
Y94488D02*
D03*
D18*
X24287Y86288D02*
D03*
X32087D02*
D03*
X39887D02*
D03*
X47887D02*
D03*
X55687D02*
D03*
X63687D02*
D03*
D19*
X47244Y73425D02*
D03*
Y58858D02*
D03*
D20*
X66929Y69291D02*
D03*
D21*
X63189Y67323D02*
D03*
Y65354D02*
D03*
Y69291D02*
D03*
Y71260D02*
D03*
Y73228D02*
D03*
X70669D02*
D03*
Y71260D02*
D03*
Y69291D02*
D03*
Y65354D02*
D03*
Y67323D02*
D03*
D22*
X118110Y115453D02*
D03*
X121850Y124705D02*
D03*
X118110D02*
D03*
X114370D02*
D03*
Y115453D02*
D03*
X121850D02*
D03*
X118110Y97736D02*
D03*
X121850Y106988D02*
D03*
X118110D02*
D03*
X114370D02*
D03*
Y97736D02*
D03*
X121850D02*
D03*
X118110Y80020D02*
D03*
X121850Y89272D02*
D03*
X118110D02*
D03*
X114370D02*
D03*
Y80020D02*
D03*
X121850D02*
D03*
X118110Y62303D02*
D03*
X121850Y71555D02*
D03*
X118110D02*
D03*
X114370D02*
D03*
Y62303D02*
D03*
X121850D02*
D03*
D23*
X100394Y40157D02*
D03*
Y28346D02*
D03*
D24*
X101181Y34252D02*
D03*
D25*
X111024D02*
D03*
D26*
X100394Y30512D02*
D03*
Y37992D02*
D03*
D27*
X100197Y98228D02*
D03*
X104134D02*
D03*
Y86024D02*
D03*
X98228D02*
D03*
X100197D02*
D03*
X102165D02*
D03*
Y98228D02*
D03*
X98228D02*
D03*
D28*
X112008Y139272D02*
D03*
Y136713D02*
D03*
Y134153D02*
D03*
Y131595D02*
D03*
X95079D02*
D03*
Y134153D02*
D03*
Y136713D02*
D03*
Y139272D02*
D03*
D29*
X106299Y118307D02*
D03*
Y125787D02*
D03*
D30*
X20472Y62598D02*
D03*
Y73622D02*
D03*
X29921Y62598D02*
D03*
Y73622D02*
D03*
X85827Y68110D02*
D03*
Y79134D02*
D03*
D31*
X101181Y49606D02*
D03*
X112205D02*
D03*
D32*
X121949Y133563D02*
D03*
X127657D02*
D03*
X121949Y146752D02*
D03*
X127657D02*
D03*
X121949Y163091D02*
D03*
X127657D02*
D03*
X121949Y176279D02*
D03*
X127657D02*
D03*
D33*
X136221Y161791D02*
D03*
Y171791D02*
D03*
Y131791D02*
D03*
D34*
X65847Y93012D02*
X68701Y90158D01*
X14764Y93012D02*
X65847D01*
X13287Y94488D02*
X14764Y93012D01*
X38976Y61417D02*
Y64567D01*
X35433Y68110D02*
X38976Y64567D01*
X100000Y52756D02*
Y71653D01*
X63189Y71260D02*
X70669D01*
X66929Y65354D02*
X70669D01*
X35433Y68110D02*
Y78347D01*
X44488Y58858D02*
X47244D01*
X60236Y69291D02*
X63189D01*
X59055Y70473D02*
X60236Y69291D01*
X59055Y70473D02*
Y77953D01*
X57480Y79528D02*
X59055Y77953D01*
X36614Y79528D02*
X57480D01*
X35433Y78347D02*
X36614Y79528D01*
X100000Y52756D02*
X100984Y51772D01*
Y38583D02*
Y51772D01*
X100394Y37992D02*
X100984Y38583D01*
X59449Y67323D02*
X63189D01*
X53347Y73425D02*
X59449Y67323D01*
X47244Y73425D02*
X53347D01*
X59842Y65354D02*
X63189D01*
X53347Y58858D02*
X59842Y65354D01*
X47244Y58858D02*
X53347D01*
X76181Y67323D02*
X77165Y68307D01*
X70669Y67323D02*
X76181D01*
Y69291D02*
X77165Y68307D01*
X70669Y69291D02*
X76181D01*
X121850Y89272D02*
X122146Y89567D01*
X118110Y115453D02*
Y124705D01*
Y115453D02*
X121850D01*
Y124705D01*
X118110Y97736D02*
Y106988D01*
Y97736D02*
X121850D01*
Y106988D01*
X118110Y89272D02*
X121850D01*
Y80020D02*
Y89272D01*
Y62303D02*
Y71555D01*
X118110D02*
X121850D01*
X103937Y146063D02*
Y154331D01*
X108661Y148819D02*
Y154331D01*
X38976Y61024D02*
Y61417D01*
X95079Y131595D02*
X95276Y131398D01*
Y127953D02*
Y131398D01*
X118110Y62303D02*
Y66929D01*
Y71555D01*
X63189Y73228D02*
X70669D01*
X66929Y65354D02*
Y69291D01*
X114370Y79331D02*
Y80020D01*
X100197Y81693D02*
Y86024D01*
X30315Y48819D02*
X32677Y51181D01*
X13386Y48819D02*
X30315D01*
X13386D02*
Y54528D01*
X14370Y55512D01*
X87402Y100394D02*
X88583Y101575D01*
X87402Y97244D02*
Y100394D01*
X95276Y76378D02*
X100000Y71653D01*
X65748Y130709D02*
X84842D01*
X85236Y114764D02*
X88582Y118110D01*
X63779Y114764D02*
X85236D01*
X88583Y111417D01*
X68701Y90158D02*
X89281D01*
X93701Y94578D01*
X100984Y135236D02*
X101575Y135827D01*
X106102D01*
X109547Y139272D01*
X112008D01*
X95079Y131595D02*
X100492D01*
X100984Y132087D01*
Y135236D01*
X95276Y76378D02*
Y87795D01*
X56791Y121752D02*
X63779Y114764D01*
X127657Y133563D02*
Y146752D01*
Y131890D02*
Y133563D01*
Y131890D02*
X136614D01*
X116929Y147638D02*
X121260Y151969D01*
X127657D01*
Y146752D02*
Y151969D01*
Y162500D02*
Y163091D01*
X127215Y162057D02*
X127657Y162500D01*
X126181Y158366D02*
Y163091D01*
X127657D02*
Y176279D01*
X126181Y163091D02*
X127215Y162057D01*
X112008Y139272D02*
X116437D01*
X116929Y139764D01*
Y147638D01*
X1157480Y-141735D02*
Y-149606D01*
X1161416D01*
X1162728Y-148294D01*
Y-143047D01*
X1161416Y-141735D01*
X1157480D01*
X1166664Y-149606D02*
X1169287D01*
X1170599Y-148294D01*
Y-145671D01*
X1169287Y-144359D01*
X1166664D01*
X1165352Y-145671D01*
Y-148294D01*
X1166664Y-149606D01*
X1178471Y-144359D02*
X1174535D01*
X1173223Y-145671D01*
Y-148294D01*
X1174535Y-149606D01*
X1178471D01*
X1181095Y-144359D02*
Y-148294D01*
X1182407Y-149606D01*
X1186342D01*
Y-144359D01*
X1188966Y-149606D02*
Y-144359D01*
X1190278D01*
X1191590Y-145671D01*
Y-149606D01*
Y-145671D01*
X1192902Y-144359D01*
X1194214Y-145671D01*
Y-149606D01*
X1200774D02*
X1198150D01*
X1196838Y-148294D01*
Y-145671D01*
X1198150Y-144359D01*
X1200774D01*
X1202085Y-145671D01*
Y-146983D01*
X1196838D01*
X1204709Y-149606D02*
Y-144359D01*
X1208645D01*
X1209957Y-145671D01*
Y-149606D01*
X1213893Y-143047D02*
Y-144359D01*
X1212581D01*
X1215205D01*
X1213893D01*
Y-148294D01*
X1215205Y-149606D01*
X1157480Y-102365D02*
Y-110236D01*
X1161416D01*
X1162728Y-108924D01*
Y-103677D01*
X1161416Y-102365D01*
X1157480D01*
X1166664Y-104989D02*
X1169287D01*
X1170599Y-106300D01*
Y-110236D01*
X1166664D01*
X1165352Y-108924D01*
X1166664Y-107612D01*
X1170599D01*
X1174535Y-103677D02*
Y-104989D01*
X1173223D01*
X1175847D01*
X1174535D01*
Y-108924D01*
X1175847Y-110236D01*
X1183719D02*
X1181095D01*
X1179783Y-108924D01*
Y-106300D01*
X1181095Y-104989D01*
X1183719D01*
X1185030Y-106300D01*
Y-107612D01*
X1179783D01*
X1157480Y-62995D02*
Y-70866D01*
X1162728D01*
X1166664Y-65618D02*
X1169287D01*
X1170599Y-66930D01*
Y-70866D01*
X1166664D01*
X1165352Y-69554D01*
X1166664Y-68242D01*
X1170599D01*
X1173223Y-65618D02*
Y-69554D01*
X1174535Y-70866D01*
X1178471D01*
Y-72178D01*
X1177159Y-73490D01*
X1175847D01*
X1178471Y-70866D02*
Y-65618D01*
X1185030Y-70866D02*
X1182407D01*
X1181095Y-69554D01*
Y-66930D01*
X1182407Y-65618D01*
X1185030D01*
X1186342Y-66930D01*
Y-68242D01*
X1181095D01*
X1188966Y-65618D02*
Y-70866D01*
Y-68242D01*
X1190278Y-66930D01*
X1191590Y-65618D01*
X1192902D01*
X1204709Y-70866D02*
Y-62995D01*
X1209957Y-70866D01*
Y-62995D01*
X1213893Y-65618D02*
X1216516D01*
X1217828Y-66930D01*
Y-70866D01*
X1213893D01*
X1212581Y-69554D01*
X1213893Y-68242D01*
X1217828D01*
X1220452Y-70866D02*
Y-65618D01*
X1221764D01*
X1223076Y-66930D01*
Y-70866D01*
Y-66930D01*
X1224388Y-65618D01*
X1225700Y-66930D01*
Y-70866D01*
X1232259D02*
X1229636D01*
X1228324Y-69554D01*
Y-66930D01*
X1229636Y-65618D01*
X1232259D01*
X1233571Y-66930D01*
Y-68242D01*
X1228324D01*
X1157480Y-23625D02*
Y-31496D01*
X1161416D01*
X1162728Y-30184D01*
Y-24937D01*
X1161416Y-23625D01*
X1157480D01*
X1166664Y-31496D02*
X1169287D01*
X1170599Y-30184D01*
Y-27560D01*
X1169287Y-26248D01*
X1166664D01*
X1165352Y-27560D01*
Y-30184D01*
X1166664Y-31496D01*
X1178471Y-26248D02*
X1174535D01*
X1173223Y-27560D01*
Y-30184D01*
X1174535Y-31496D01*
X1178471D01*
X1181095Y-26248D02*
Y-30184D01*
X1182407Y-31496D01*
X1186342D01*
Y-26248D01*
X1188966Y-31496D02*
Y-26248D01*
X1190278D01*
X1191590Y-27560D01*
Y-31496D01*
Y-27560D01*
X1192902Y-26248D01*
X1194214Y-27560D01*
Y-31496D01*
X1200774D02*
X1198150D01*
X1196838Y-30184D01*
Y-27560D01*
X1198150Y-26248D01*
X1200774D01*
X1202085Y-27560D01*
Y-28872D01*
X1196838D01*
X1204709Y-31496D02*
Y-26248D01*
X1208645D01*
X1209957Y-27560D01*
Y-31496D01*
X1213893Y-24937D02*
Y-26248D01*
X1212581D01*
X1215205D01*
X1213893D01*
Y-30184D01*
X1215205Y-31496D01*
X960630Y-141735D02*
Y-149606D01*
X964566D01*
X965878Y-148294D01*
Y-143047D01*
X964566Y-141735D01*
X960630D01*
X972437Y-149606D02*
X969813D01*
X968501Y-148294D01*
Y-145671D01*
X969813Y-144359D01*
X972437D01*
X973749Y-145671D01*
Y-146983D01*
X968501D01*
X976373Y-149606D02*
X980309D01*
X981621Y-148294D01*
X980309Y-146983D01*
X977685D01*
X976373Y-145671D01*
X977685Y-144359D01*
X981621D01*
X986868Y-152230D02*
X988180D01*
X989492Y-150918D01*
Y-144359D01*
X985556D01*
X984244Y-145671D01*
Y-148294D01*
X985556Y-149606D01*
X989492D01*
X992116D02*
X994740D01*
X993428D01*
Y-144359D01*
X992116D01*
X998675Y-149606D02*
Y-144359D01*
X1002611D01*
X1003923Y-145671D01*
Y-149606D01*
X1010483D02*
X1007859D01*
X1006547Y-148294D01*
Y-145671D01*
X1007859Y-144359D01*
X1010483D01*
X1011794Y-145671D01*
Y-146983D01*
X1006547D01*
X1014418Y-144359D02*
Y-149606D01*
Y-146983D01*
X1015730Y-145671D01*
X1017042Y-144359D01*
X1018354D01*
X1314961Y-110236D02*
Y-102365D01*
X1318896D01*
X1320208Y-103677D01*
Y-106300D01*
X1318896Y-107612D01*
X1314961D01*
X1317584D02*
X1320208Y-110236D01*
X1326768D02*
X1324144D01*
X1322832Y-108924D01*
Y-106300D01*
X1324144Y-104989D01*
X1326768D01*
X1328080Y-106300D01*
Y-107612D01*
X1322832D01*
X1330704Y-104989D02*
X1333327Y-110236D01*
X1335951Y-104989D01*
D35*
X68917Y153543D02*
X80512D01*
X65748Y150374D02*
X68917Y153543D01*
X80512D02*
X82480Y151575D01*
X6299Y98425D02*
X10236Y94488D01*
X11417D01*
X56791Y121752D02*
X65748Y130709D01*
X88976Y111417D02*
X89369Y111024D01*
X97047D01*
X97244Y111221D01*
X65748Y130709D02*
Y150374D01*
X6299Y98425D02*
Y120472D01*
X7579Y121752D01*
X56791D01*
X1175197Y-76776D02*
X1184380D01*
X1179789D01*
Y-90551D01*
X1191268D02*
X1195860D01*
X1198155Y-88255D01*
Y-83664D01*
X1195860Y-81368D01*
X1191268D01*
X1188972Y-83664D01*
Y-88255D01*
X1191268Y-90551D01*
X1202747Y-95143D02*
Y-81368D01*
X1209635D01*
X1211930Y-83664D01*
Y-88255D01*
X1209635Y-90551D01*
X1202747D01*
X1230297Y-76776D02*
Y-90551D01*
X1239481D01*
X1246368Y-81368D02*
X1250960D01*
X1253256Y-83664D01*
Y-90551D01*
X1246368D01*
X1244072Y-88255D01*
X1246368Y-85960D01*
X1253256D01*
X1257847Y-81368D02*
Y-88255D01*
X1260143Y-90551D01*
X1267031D01*
Y-92847D01*
X1264735Y-95143D01*
X1262439D01*
X1267031Y-90551D02*
Y-81368D01*
X1278510Y-90551D02*
X1273918D01*
X1271622Y-88255D01*
Y-83664D01*
X1273918Y-81368D01*
X1278510D01*
X1280806Y-83664D01*
Y-85960D01*
X1271622D01*
X1285398Y-81368D02*
Y-90551D01*
Y-85960D01*
X1287693Y-83664D01*
X1289989Y-81368D01*
X1292285D01*
X1173881Y-37407D02*
X1163386D01*
Y-53150D01*
X1173881D01*
X1163386Y-45278D02*
X1168633D01*
X1189624Y-40031D02*
X1187000Y-37407D01*
X1181753D01*
X1179129Y-40031D01*
Y-42654D01*
X1181753Y-45278D01*
X1187000D01*
X1189624Y-47902D01*
Y-50526D01*
X1187000Y-53150D01*
X1181753D01*
X1179129Y-50526D01*
X1194872Y-53150D02*
Y-37407D01*
X1202743D01*
X1205367Y-40031D01*
Y-45278D01*
X1202743Y-47902D01*
X1194872D01*
X1210615Y-53150D02*
X1215862D01*
X1213239D01*
Y-37407D01*
X1210615Y-40031D01*
X1234229Y-53150D02*
X1223734D01*
X1234229Y-42654D01*
Y-40031D01*
X1231605Y-37407D01*
X1226358D01*
X1223734Y-40031D01*
X1239477Y-55773D02*
X1249972D01*
X1255220Y-53150D02*
Y-37407D01*
X1263091D01*
X1265715Y-40031D01*
Y-45278D01*
X1263091Y-47902D01*
X1255220D01*
X1260467D02*
X1265715Y-53150D01*
X1281458Y-40031D02*
X1278834Y-37407D01*
X1273586D01*
X1270963Y-40031D01*
Y-50526D01*
X1273586Y-53150D01*
X1278834D01*
X1281458Y-50526D01*
Y-45278D01*
X1276210D01*
X1286705Y-37407D02*
Y-53150D01*
X1294577D01*
X1297201Y-50526D01*
Y-47902D01*
X1294577Y-45278D01*
X1286705D01*
X1294577D01*
X1297201Y-42654D01*
Y-40031D01*
X1294577Y-37407D01*
X1286705D01*
X1302448D02*
Y-53150D01*
X1307696Y-47902D01*
X1312944Y-53150D01*
Y-37407D01*
X1169291Y-131890D02*
X1173883D01*
X1171587D01*
Y-118115D01*
X1169291Y-120411D01*
X1180771Y-118115D02*
X1189954D01*
Y-120411D01*
X1180771Y-129594D01*
Y-131890D01*
X1194546D02*
X1203729Y-122706D01*
X1208321Y-120411D02*
X1210617Y-118115D01*
X1215208D01*
X1217504Y-120411D01*
Y-129594D01*
X1215208Y-131890D01*
X1210617D01*
X1208321Y-129594D01*
Y-120411D01*
X1222096Y-131890D02*
X1226688D01*
X1224392D01*
Y-118115D01*
X1222096Y-120411D01*
X1233575Y-131890D02*
X1242758Y-122706D01*
X1256534Y-131890D02*
X1247350D01*
X1256534Y-122706D01*
Y-120411D01*
X1254238Y-118115D01*
X1249646D01*
X1247350Y-120411D01*
X1261125D02*
X1263421Y-118115D01*
X1268013D01*
X1270309Y-120411D01*
Y-129594D01*
X1268013Y-131890D01*
X1263421D01*
X1261125Y-129594D01*
Y-120411D01*
X1274900Y-131890D02*
X1279492D01*
X1277196D01*
Y-118115D01*
X1274900Y-120411D01*
X1295563Y-118115D02*
X1290971Y-120411D01*
X1286380Y-125002D01*
Y-129594D01*
X1288675Y-131890D01*
X1293267D01*
X1295563Y-129594D01*
Y-127298D01*
X1293267Y-125002D01*
X1286380D01*
X1332677Y-118771D02*
X1335301Y-116147D01*
X1340549D01*
X1343172Y-118771D01*
Y-129266D01*
X1340549Y-131890D01*
X1335301D01*
X1332677Y-129266D01*
Y-118771D01*
X1348420D02*
X1351044Y-116147D01*
X1356292D01*
X1358915Y-118771D01*
Y-129266D01*
X1356292Y-131890D01*
X1351044D01*
X1348420Y-129266D01*
Y-118771D01*
X978347Y-155517D02*
Y-171260D01*
X983594Y-166012D01*
X988842Y-171260D01*
Y-155517D01*
X994089Y-171260D02*
X999337D01*
X996713D01*
Y-160765D01*
X994089D01*
X1007209Y-171260D02*
Y-160765D01*
X1009832D01*
X1012456Y-163388D01*
Y-171260D01*
Y-163388D01*
X1015080Y-160765D01*
X1017704Y-163388D01*
Y-171260D01*
X1022952Y-155517D02*
Y-166012D01*
X1028199Y-171260D01*
X1033447Y-166012D01*
Y-155517D01*
X1049190Y-158141D02*
X1046566Y-155517D01*
X1041318D01*
X1038694Y-158141D01*
Y-168636D01*
X1041318Y-171260D01*
X1046566D01*
X1049190Y-168636D01*
Y-163388D01*
X1043942D01*
D36*
X7185Y63779D02*
X7677D01*
X6004Y63877D02*
Y95374D01*
X57874Y146063D02*
Y151575D01*
X60630Y154331D01*
X62205Y148819D02*
Y151181D01*
X65354Y154331D01*
X50394Y157874D02*
X93701D01*
X50394Y143307D02*
Y157874D01*
X73327Y118110D02*
X82677D01*
X82677Y118110D01*
X73327Y110236D02*
X82677D01*
X82677Y110236D01*
X73327Y102362D02*
X82677D01*
X82677Y102362D01*
X3642Y97736D02*
X6004Y95374D01*
X3642Y97736D02*
Y130905D01*
X6594Y133858D01*
X13287D01*
X6004Y63877D02*
X7283Y62598D01*
X88582Y118110D02*
X88976D01*
X97637Y118307D02*
X106299D01*
X97244Y117914D02*
X97637Y118307D01*
X102953Y135827D02*
Y138091D01*
X88583Y111417D02*
X88976D01*
X3937Y149015D02*
X4528Y149606D01*
X13287D01*
X121949Y163091D02*
Y176279D01*
X0Y7874D02*
G03*
X7874Y0I7874J0D01*
G01*
Y181102D02*
G03*
X0Y173228I0J-7874D01*
G01*
X141732D02*
G03*
X133858Y181102I-7874J-0D01*
G01*
Y0D02*
G03*
X141732Y7874I-0J7874D01*
G01*
X38583Y0D02*
G03*
X42520Y3937I-0J3937D01*
G01*
X83465D02*
G03*
X87402Y0I3937J0D01*
G01*
X83464Y38583D02*
G03*
X81496Y40551I-1969J0D01*
G01*
X44488D02*
G03*
X42520Y38583I0J-1969D01*
G01*
X141732Y7874D02*
Y173228D01*
X7874Y181102D02*
X133858D01*
X0Y7874D02*
Y173228D01*
X7874Y0D02*
X38583D01*
X87402D02*
X133858D01*
X42520Y3937D02*
Y38583D01*
X44488Y40551D02*
X81496D01*
X83465Y3937D02*
Y38583D01*
X-224410Y-177165D02*
X1429134D01*
X-224410D02*
Y992126D01*
X1429134Y-177165D02*
Y992126D01*
X-224410D02*
X1429134D01*
X1153543Y-177165D02*
Y-19685D01*
X956693Y-177165D02*
Y-19685D01*
X1429134D01*
X956693Y-137795D02*
X1429134D01*
X1153543Y-98425D02*
X1429134D01*
X1153543Y-59055D02*
X1429134D01*
X1311024Y-137795D02*
Y-98425D01*
X1167322Y-163388D02*
X1163386D01*
Y-169291D01*
X1167322D01*
X1163386Y-166340D02*
X1165354D01*
X1173225Y-164372D02*
X1172241Y-163388D01*
X1170273D01*
X1169289Y-164372D01*
Y-165356D01*
X1170273Y-166340D01*
X1172241D01*
X1173225Y-167324D01*
Y-168307D01*
X1172241Y-169291D01*
X1170273D01*
X1169289Y-168307D01*
X1175193Y-169291D02*
Y-163388D01*
X1178145D01*
X1179129Y-164372D01*
Y-166340D01*
X1178145Y-167324D01*
X1175193D01*
X1181097Y-169291D02*
X1183064D01*
X1182081D01*
Y-163388D01*
X1181097Y-164372D01*
X1189952Y-169291D02*
X1186016D01*
X1189952Y-165356D01*
Y-164372D01*
X1188968Y-163388D01*
X1187000D01*
X1186016Y-164372D01*
X1191920Y-170275D02*
X1195856D01*
X1197824Y-169291D02*
Y-163388D01*
X1200775D01*
X1201759Y-164372D01*
Y-166340D01*
X1200775Y-167324D01*
X1197824D01*
X1199791D02*
X1201759Y-169291D01*
X1207663Y-164372D02*
X1206679Y-163388D01*
X1204711D01*
X1203727Y-164372D01*
Y-168307D01*
X1204711Y-169291D01*
X1206679D01*
X1207663Y-168307D01*
Y-166340D01*
X1205695D01*
X1209631Y-163388D02*
Y-169291D01*
X1212582D01*
X1213566Y-168307D01*
Y-167324D01*
X1212582Y-166340D01*
X1209631D01*
X1212582D01*
X1213566Y-165356D01*
Y-164372D01*
X1212582Y-163388D01*
X1209631D01*
X1215534D02*
Y-169291D01*
X1217502Y-167324D01*
X1219470Y-169291D01*
Y-163388D01*
X1221438Y-170275D02*
X1225374D01*
X1227341Y-164372D02*
X1228325Y-163388D01*
X1230293D01*
X1231277Y-164372D01*
Y-168307D01*
X1230293Y-169291D01*
X1228325D01*
X1227341Y-168307D01*
Y-164372D01*
X1233245D02*
X1234229Y-163388D01*
X1236197D01*
X1237181Y-164372D01*
Y-168307D01*
X1236197Y-169291D01*
X1234229D01*
X1233245Y-168307D01*
Y-164372D01*
X1239149Y-169291D02*
Y-168307D01*
X1240133D01*
Y-169291D01*
X1239149D01*
X1244068D02*
Y-163388D01*
X1247020D01*
X1248004Y-164372D01*
Y-166340D01*
X1247020Y-167324D01*
X1244068D01*
X1253908Y-165356D02*
X1250956D01*
X1249972Y-166340D01*
Y-168307D01*
X1250956Y-169291D01*
X1253908D01*
X1255876Y-163388D02*
Y-169291D01*
X1258827D01*
X1259811Y-168307D01*
Y-167324D01*
Y-166340D01*
X1258827Y-165356D01*
X1255876D01*
X1261779Y-163388D02*
Y-169291D01*
X1264731D01*
X1265715Y-168307D01*
Y-164372D01*
X1264731Y-163388D01*
X1261779D01*
X1268667Y-169291D02*
X1270635D01*
X1271618Y-168307D01*
Y-166340D01*
X1270635Y-165356D01*
X1268667D01*
X1267683Y-166340D01*
Y-168307D01*
X1268667Y-169291D01*
X1277522Y-165356D02*
X1274570D01*
X1273586Y-166340D01*
Y-168307D01*
X1274570Y-169291D01*
X1277522D01*
D37*
X20669Y73622D02*
X25197D01*
X29921D01*
X20472Y73819D02*
X20669Y73622D01*
X29921D02*
Y79134D01*
D38*
X66929Y68307D02*
D03*
D39*
Y60433D02*
D03*
D40*
Y77165D02*
D03*
D41*
X135433Y115157D02*
D03*
Y101377D02*
D03*
Y87598D02*
D03*
Y73818D02*
D03*
Y60039D02*
D03*
Y46260D02*
D03*
Y32480D02*
D03*
D42*
Y18701D02*
D03*
D43*
X37913Y10433D02*
D03*
X88110Y9449D02*
D03*
D44*
X66339Y47638D02*
D03*
D45*
X38189Y36614D02*
D03*
D46*
X87795Y37402D02*
D03*
D47*
X106299Y11811D02*
D03*
X19685D02*
D03*
X106299Y171260D02*
D03*
D48*
X136614Y131791D02*
D03*
D49*
Y141791D02*
D03*
Y151791D02*
D03*
D50*
Y161791D02*
D03*
Y171791D02*
D03*
D51*
X104232Y113681D02*
D03*
X49213Y52638D02*
D03*
X76772D02*
D03*
X5906Y11811D02*
D03*
X31496Y21654D02*
D03*
X26772Y33858D02*
D03*
X88839Y19685D02*
D03*
X131890Y3937D02*
D03*
X124016Y11811D02*
D03*
X107480Y40157D02*
D03*
X111024D02*
D03*
X114370Y93799D02*
D03*
X107874Y96063D02*
D03*
X101181Y111024D02*
D03*
X57874Y146063D02*
D03*
X62205Y148819D02*
D03*
X65354Y154331D02*
D03*
X60630D02*
D03*
X50394Y143307D02*
D03*
X50394Y157874D02*
D03*
X66929Y72835D02*
D03*
X66929Y69291D02*
D03*
Y65354D02*
D03*
X103937Y146063D02*
D03*
Y154331D02*
D03*
X93701Y157874D02*
D03*
X108661Y148819D02*
D03*
Y154331D02*
D03*
X95276Y127953D02*
D03*
X120472Y52756D02*
D03*
X103937Y77559D02*
D03*
X100197Y81693D02*
D03*
X76378Y77165D02*
D03*
X83858Y82677D02*
D03*
X87795D02*
D03*
X80315Y94488D02*
D03*
X32677Y51181D02*
D03*
X24016Y79528D02*
D03*
X25197Y73622D02*
D03*
X29921Y79134D02*
D03*
X87402Y97244D02*
D03*
X107480Y88583D02*
D03*
X100787Y94488D02*
D03*
X93701Y94578D02*
D03*
Y99213D02*
D03*
Y111024D02*
D03*
X95276Y87795D02*
D03*
X127657Y151969D02*
D03*
X126181Y158366D02*
D03*
M02*
