G04 Layer_Color=8388736*
%FSLAX25Y25*%
%MOIN*%
G70*
G01*
G75*
%ADD12C,0.00591*%
%ADD34C,0.00984*%
%ADD35C,0.01575*%
%ADD36C,0.00787*%
%ADD56C,0.01000*%
%ADD57C,0.00394*%
G36*
X1093521Y-64032D02*
Y-64318D01*
Y-64605D01*
Y-64891D01*
Y-65177D01*
Y-65464D01*
Y-65750D01*
Y-66036D01*
Y-66322D01*
Y-66609D01*
Y-66895D01*
Y-67181D01*
Y-67468D01*
Y-67754D01*
Y-68040D01*
Y-68327D01*
Y-68613D01*
Y-68899D01*
Y-69186D01*
Y-69472D01*
Y-69758D01*
X1093234D01*
Y-70044D01*
Y-70331D01*
Y-70617D01*
Y-70903D01*
Y-71190D01*
X1092948D01*
Y-71476D01*
Y-71762D01*
Y-72049D01*
Y-72335D01*
X1092662D01*
Y-72621D01*
Y-72908D01*
Y-73194D01*
Y-73480D01*
X1092375D01*
Y-73767D01*
Y-74053D01*
Y-74339D01*
X1092089D01*
Y-74625D01*
Y-74912D01*
Y-75198D01*
X1091803D01*
Y-75485D01*
Y-75771D01*
Y-76057D01*
X1091516D01*
Y-76343D01*
Y-76630D01*
Y-76916D01*
X1091230D01*
Y-77202D01*
Y-77489D01*
X1090944D01*
Y-77775D01*
Y-78061D01*
X1090657D01*
Y-78348D01*
Y-78634D01*
Y-78920D01*
X1090371D01*
Y-79207D01*
Y-79493D01*
X1090085D01*
Y-79779D01*
Y-80066D01*
Y-80352D01*
X1089799D01*
Y-80638D01*
Y-80924D01*
X1089512D01*
Y-81211D01*
Y-81497D01*
Y-81783D01*
X1089226D01*
Y-82070D01*
Y-82356D01*
X1088939D01*
Y-82642D01*
Y-82929D01*
Y-83215D01*
X1088653D01*
Y-83501D01*
Y-83788D01*
X1088367D01*
Y-84074D01*
Y-84360D01*
Y-84646D01*
X1088081D01*
Y-84933D01*
Y-85219D01*
X1087794D01*
Y-85505D01*
Y-85792D01*
Y-86078D01*
X1087508D01*
Y-86364D01*
Y-86651D01*
X1087222D01*
Y-86937D01*
Y-87223D01*
Y-87510D01*
X1086935D01*
Y-87796D01*
Y-88082D01*
X1086649D01*
Y-88369D01*
Y-88655D01*
Y-88941D01*
X1086363D01*
Y-89227D01*
Y-89514D01*
X1086076D01*
Y-89800D01*
Y-90086D01*
Y-90373D01*
X1085790D01*
Y-90659D01*
Y-90945D01*
X1085504D01*
Y-91232D01*
Y-91518D01*
Y-91804D01*
X1085217D01*
Y-92091D01*
Y-92377D01*
X1084931D01*
Y-92663D01*
Y-92950D01*
Y-93236D01*
X1084645D01*
Y-93522D01*
Y-93809D01*
X1084359D01*
Y-94095D01*
Y-94381D01*
Y-94667D01*
X1084072D01*
Y-94954D01*
Y-95240D01*
X1083786D01*
Y-95526D01*
Y-95813D01*
Y-96099D01*
X1083500D01*
Y-96385D01*
Y-96672D01*
X1083213D01*
Y-96958D01*
Y-97244D01*
Y-97531D01*
X1082927D01*
Y-97817D01*
Y-98103D01*
X1082641D01*
Y-98390D01*
Y-98676D01*
Y-98962D01*
X1082354D01*
Y-99248D01*
Y-99535D01*
X1082068D01*
Y-99821D01*
Y-100107D01*
Y-100394D01*
X1081782D01*
Y-100680D01*
Y-100966D01*
X1081495D01*
Y-101253D01*
Y-101539D01*
X1081209D01*
Y-101825D01*
Y-102112D01*
X1080923D01*
Y-102398D01*
Y-102684D01*
Y-102971D01*
X1080637D01*
Y-103257D01*
X1080350D01*
Y-103543D01*
Y-103829D01*
Y-104116D01*
X1080064D01*
Y-104402D01*
X1079778D01*
Y-104688D01*
Y-104975D01*
X1079491D01*
Y-105261D01*
Y-105547D01*
X1079205D01*
Y-105834D01*
Y-106120D01*
X1078919D01*
Y-106406D01*
Y-106693D01*
X1078632D01*
Y-106979D01*
X1078346D01*
Y-107265D01*
Y-107552D01*
X1078060D01*
Y-107838D01*
Y-108124D01*
X1077773D01*
Y-108410D01*
X1077487D01*
Y-108697D01*
X1077201D01*
Y-108983D01*
Y-109269D01*
X1076914D01*
Y-109556D01*
X1076628D01*
Y-109842D01*
Y-110128D01*
X1076342D01*
Y-110415D01*
X1076056D01*
Y-110701D01*
X1075769D01*
Y-110987D01*
Y-111274D01*
X1075483D01*
Y-111560D01*
X1075196D01*
Y-111846D01*
X1074910D01*
Y-112133D01*
X1074624D01*
Y-112419D01*
X1074338D01*
Y-112705D01*
Y-112991D01*
X1074051D01*
Y-113278D01*
X1073765D01*
Y-113564D01*
X1073479D01*
Y-113850D01*
X1073192D01*
Y-114137D01*
X1072906D01*
Y-114423D01*
X1072620D01*
Y-114709D01*
X1072333D01*
Y-114996D01*
X1071761D01*
Y-115282D01*
X1071474D01*
Y-115568D01*
X1071188D01*
Y-115855D01*
X1070902D01*
Y-116141D01*
X1070615D01*
Y-116427D01*
X1070043D01*
Y-116714D01*
X1069757D01*
Y-117000D01*
X1069184D01*
Y-117286D01*
X1068898D01*
Y-117572D01*
X1068325D01*
Y-117859D01*
X1068039D01*
Y-118145D01*
X1067466D01*
Y-118431D01*
X1066893D01*
Y-118718D01*
X1066321D01*
Y-119004D01*
X1065748D01*
Y-119290D01*
X1065176D01*
Y-119577D01*
X1064317D01*
Y-119863D01*
X1063744D01*
Y-120149D01*
X1062885D01*
Y-120436D01*
X1061740D01*
Y-120722D01*
X1060595D01*
Y-121008D01*
X1058877D01*
Y-121294D01*
X1056872D01*
Y-121581D01*
X1056586D01*
Y-121294D01*
Y-121008D01*
Y-120722D01*
Y-120436D01*
Y-120149D01*
Y-119863D01*
Y-119577D01*
Y-119290D01*
Y-119004D01*
Y-118718D01*
Y-118431D01*
Y-118145D01*
Y-117859D01*
Y-117572D01*
Y-117286D01*
Y-117000D01*
Y-116714D01*
Y-116427D01*
Y-116141D01*
Y-115855D01*
Y-115568D01*
Y-115282D01*
Y-114996D01*
Y-114709D01*
Y-114423D01*
Y-114137D01*
Y-113850D01*
Y-113564D01*
Y-113278D01*
Y-112991D01*
Y-112705D01*
Y-112419D01*
Y-112133D01*
X1057159D01*
Y-111846D01*
X1057731D01*
Y-111560D01*
X1058304D01*
Y-111274D01*
X1058877D01*
Y-110987D01*
X1059449D01*
Y-110701D01*
X1060022D01*
Y-110415D01*
X1060308D01*
Y-110128D01*
X1060881D01*
Y-109842D01*
X1061167D01*
Y-109556D01*
X1061740D01*
Y-109269D01*
X1062026D01*
Y-108983D01*
X1062312D01*
Y-108697D01*
X1062885D01*
Y-108410D01*
X1063171D01*
Y-108124D01*
X1063458D01*
Y-107838D01*
X1063744D01*
Y-107552D01*
X1064030D01*
Y-107265D01*
X1064317D01*
Y-106979D01*
X1064603D01*
Y-106693D01*
X1064889D01*
Y-106406D01*
X1065176D01*
Y-106120D01*
X1065462D01*
Y-105834D01*
X1065748D01*
Y-105547D01*
X1066035D01*
Y-105261D01*
Y-104975D01*
X1066321D01*
Y-104688D01*
X1066607D01*
Y-104402D01*
X1066893D01*
Y-104116D01*
Y-103829D01*
X1067180D01*
Y-103543D01*
X1067466D01*
Y-103257D01*
Y-102971D01*
X1067752D01*
Y-102684D01*
Y-102398D01*
X1068039D01*
Y-102112D01*
X1068325D01*
Y-101825D01*
Y-101539D01*
X1068611D01*
Y-101253D01*
Y-100966D01*
X1068898D01*
Y-100680D01*
Y-100394D01*
X1067180D01*
Y-100107D01*
X1065176D01*
Y-99821D01*
X1064030D01*
Y-99535D01*
X1063458D01*
Y-99248D01*
X1062599D01*
Y-98962D01*
X1062026D01*
Y-98676D01*
X1061740D01*
Y-98390D01*
X1061167D01*
Y-98103D01*
X1060881D01*
Y-97817D01*
X1060595D01*
Y-97531D01*
X1060308D01*
Y-97244D01*
X1060022D01*
Y-96958D01*
X1059736D01*
Y-96672D01*
Y-96385D01*
X1059449D01*
Y-96099D01*
X1059163D01*
Y-95813D01*
Y-95526D01*
X1058877D01*
Y-95240D01*
Y-94954D01*
X1058590D01*
Y-94667D01*
Y-94381D01*
X1058304D01*
Y-94095D01*
Y-93809D01*
Y-93522D01*
X1058018D01*
Y-93236D01*
Y-92950D01*
Y-92663D01*
Y-92377D01*
X1057731D01*
Y-92091D01*
Y-91804D01*
Y-91518D01*
Y-91232D01*
Y-90945D01*
Y-90659D01*
Y-90373D01*
X1057445D01*
Y-90086D01*
Y-89800D01*
Y-89514D01*
Y-89227D01*
Y-88941D01*
Y-88655D01*
Y-88369D01*
Y-88082D01*
Y-87796D01*
Y-87510D01*
Y-87223D01*
Y-86937D01*
Y-86651D01*
Y-86364D01*
Y-86078D01*
X1057159D01*
Y-85792D01*
Y-85505D01*
Y-85219D01*
Y-84933D01*
Y-84646D01*
Y-84360D01*
Y-84074D01*
Y-83788D01*
Y-83501D01*
Y-83215D01*
Y-82929D01*
Y-82642D01*
Y-82356D01*
Y-82070D01*
Y-81783D01*
X1056872D01*
Y-81497D01*
Y-81211D01*
Y-80924D01*
Y-80638D01*
Y-80352D01*
Y-80066D01*
Y-79779D01*
Y-79493D01*
Y-79207D01*
Y-78920D01*
Y-78634D01*
Y-78348D01*
Y-78061D01*
Y-77775D01*
Y-77489D01*
Y-77202D01*
X1056586D01*
Y-76916D01*
Y-76630D01*
Y-76343D01*
Y-76057D01*
Y-75771D01*
Y-75485D01*
Y-75198D01*
Y-74912D01*
Y-74625D01*
Y-74339D01*
Y-74053D01*
Y-73767D01*
Y-73480D01*
Y-73194D01*
Y-72908D01*
Y-72621D01*
X1056300D01*
Y-72335D01*
Y-72049D01*
Y-71762D01*
Y-71476D01*
Y-71190D01*
Y-70903D01*
Y-70617D01*
Y-70331D01*
Y-70044D01*
Y-69758D01*
Y-69472D01*
Y-69186D01*
Y-68899D01*
Y-68613D01*
X1056014D01*
Y-68327D01*
Y-68040D01*
Y-67754D01*
Y-67468D01*
Y-67181D01*
Y-66895D01*
Y-66609D01*
Y-66322D01*
Y-66036D01*
Y-65750D01*
Y-65464D01*
Y-65177D01*
Y-64891D01*
Y-64605D01*
Y-64318D01*
Y-64032D01*
X1055727D01*
Y-63746D01*
X1069470D01*
Y-64032D01*
Y-64318D01*
Y-64605D01*
Y-64891D01*
Y-65177D01*
Y-65464D01*
Y-65750D01*
Y-66036D01*
Y-66322D01*
Y-66609D01*
Y-66895D01*
Y-67181D01*
Y-67468D01*
Y-67754D01*
X1069757D01*
Y-68040D01*
Y-68327D01*
Y-68613D01*
Y-68899D01*
Y-69186D01*
Y-69472D01*
Y-69758D01*
Y-70044D01*
Y-70331D01*
Y-70617D01*
Y-70903D01*
Y-71190D01*
Y-71476D01*
Y-71762D01*
Y-72049D01*
Y-72335D01*
Y-72621D01*
Y-72908D01*
Y-73194D01*
Y-73480D01*
Y-73767D01*
Y-74053D01*
Y-74339D01*
Y-74625D01*
Y-74912D01*
Y-75198D01*
Y-75485D01*
Y-75771D01*
Y-76057D01*
Y-76343D01*
Y-76630D01*
Y-76916D01*
Y-77202D01*
Y-77489D01*
Y-77775D01*
Y-78061D01*
Y-78348D01*
Y-78634D01*
Y-78920D01*
Y-79207D01*
Y-79493D01*
X1070043D01*
Y-79779D01*
X1069757D01*
Y-80066D01*
Y-80352D01*
X1070043D01*
Y-80638D01*
Y-80924D01*
Y-81211D01*
Y-81497D01*
Y-81783D01*
Y-82070D01*
Y-82356D01*
Y-82642D01*
Y-82929D01*
Y-83215D01*
Y-83501D01*
Y-83788D01*
Y-84074D01*
Y-84360D01*
Y-84646D01*
Y-84933D01*
Y-85219D01*
Y-85505D01*
Y-85792D01*
Y-86078D01*
Y-86364D01*
Y-86651D01*
Y-86937D01*
Y-87223D01*
Y-87510D01*
Y-87796D01*
X1070329D01*
Y-88082D01*
Y-88369D01*
Y-88655D01*
X1070615D01*
Y-88941D01*
X1070902D01*
Y-89227D01*
X1071188D01*
Y-89514D01*
X1072047D01*
Y-89800D01*
X1072906D01*
Y-89514D01*
X1073192D01*
Y-89227D01*
Y-88941D01*
Y-88655D01*
X1073479D01*
Y-88369D01*
Y-88082D01*
X1073765D01*
Y-87796D01*
Y-87510D01*
Y-87223D01*
X1074051D01*
Y-86937D01*
Y-86651D01*
Y-86364D01*
X1074338D01*
Y-86078D01*
Y-85792D01*
Y-85505D01*
X1074624D01*
Y-85219D01*
Y-84933D01*
Y-84646D01*
X1074910D01*
Y-84360D01*
Y-84074D01*
X1075196D01*
Y-83788D01*
Y-83501D01*
Y-83215D01*
X1075483D01*
Y-82929D01*
Y-82642D01*
Y-82356D01*
X1075769D01*
Y-82070D01*
Y-81783D01*
Y-81497D01*
X1076056D01*
Y-81211D01*
Y-80924D01*
X1076342D01*
Y-80638D01*
Y-80352D01*
Y-80066D01*
X1076628D01*
Y-79779D01*
Y-79493D01*
Y-79207D01*
X1076914D01*
Y-78920D01*
Y-78634D01*
Y-78348D01*
X1077201D01*
Y-78061D01*
Y-77775D01*
X1077487D01*
Y-77489D01*
Y-77202D01*
Y-76916D01*
X1077773D01*
Y-76630D01*
Y-76343D01*
Y-76057D01*
X1078060D01*
Y-75771D01*
Y-75485D01*
Y-75198D01*
X1078346D01*
Y-74912D01*
Y-74625D01*
X1078632D01*
Y-74339D01*
Y-74053D01*
Y-73767D01*
X1078919D01*
Y-73480D01*
Y-73194D01*
Y-72908D01*
X1079205D01*
Y-72621D01*
Y-72335D01*
Y-72049D01*
X1079491D01*
Y-71762D01*
Y-71476D01*
Y-71190D01*
Y-70903D01*
X1079778D01*
Y-70617D01*
Y-70331D01*
Y-70044D01*
Y-69758D01*
X1080064D01*
Y-69472D01*
Y-69186D01*
Y-68899D01*
Y-68613D01*
Y-68327D01*
X1080350D01*
Y-68040D01*
Y-67754D01*
Y-67468D01*
Y-67181D01*
Y-66895D01*
Y-66609D01*
X1080637D01*
Y-66322D01*
Y-66036D01*
Y-65750D01*
Y-65464D01*
Y-65177D01*
Y-64891D01*
Y-64605D01*
Y-64318D01*
Y-64032D01*
Y-63746D01*
X1093521D01*
Y-64032D01*
D02*
G37*
G36*
X1035685Y-46567D02*
Y-46853D01*
X1035399D01*
Y-47139D01*
Y-47426D01*
Y-47712D01*
Y-47998D01*
Y-48285D01*
Y-48571D01*
X1035113D01*
Y-48857D01*
Y-49144D01*
Y-49430D01*
Y-49716D01*
Y-50003D01*
Y-50289D01*
X1034826D01*
Y-50575D01*
Y-50862D01*
Y-51148D01*
Y-51434D01*
Y-51720D01*
Y-52007D01*
Y-52293D01*
X1034540D01*
Y-52579D01*
Y-52866D01*
Y-53152D01*
Y-53438D01*
Y-53725D01*
Y-54011D01*
X1034254D01*
Y-54297D01*
Y-54584D01*
Y-54870D01*
Y-55156D01*
Y-55443D01*
Y-55729D01*
X1033967D01*
Y-56015D01*
Y-56301D01*
Y-56588D01*
Y-56874D01*
Y-57161D01*
Y-57447D01*
Y-57733D01*
X1033681D01*
Y-58019D01*
Y-58306D01*
Y-58592D01*
Y-58878D01*
Y-59165D01*
Y-59451D01*
X1033395D01*
Y-59737D01*
Y-60024D01*
Y-60310D01*
Y-60596D01*
Y-60883D01*
Y-61169D01*
X1033109D01*
Y-61455D01*
Y-61742D01*
Y-62028D01*
Y-62314D01*
Y-62600D01*
Y-62887D01*
X1032822D01*
Y-63173D01*
Y-63459D01*
Y-63746D01*
Y-64032D01*
Y-64318D01*
Y-64605D01*
Y-64891D01*
X1032536D01*
Y-65177D01*
Y-65464D01*
Y-65750D01*
Y-66036D01*
Y-66322D01*
Y-66609D01*
X1032250D01*
Y-66895D01*
Y-67181D01*
X1032822D01*
Y-66895D01*
X1033109D01*
Y-66609D01*
X1033395D01*
Y-66322D01*
X1033967D01*
Y-66036D01*
X1034254D01*
Y-65750D01*
X1034540D01*
Y-65464D01*
X1035113D01*
Y-65177D01*
X1035685D01*
Y-64891D01*
X1035972D01*
Y-64605D01*
X1036544D01*
Y-64318D01*
X1037403D01*
Y-64032D01*
X1037976D01*
Y-63746D01*
X1038835D01*
Y-63459D01*
X1040266D01*
Y-63173D01*
X1046565D01*
Y-63459D01*
X1047711D01*
Y-63746D01*
X1048569D01*
Y-64032D01*
X1049142D01*
Y-64318D01*
X1049428D01*
Y-64605D01*
X1050001D01*
Y-64891D01*
X1050287D01*
Y-65177D01*
X1050574D01*
Y-65464D01*
X1050860D01*
Y-65750D01*
X1051146D01*
Y-66036D01*
Y-66322D01*
X1051433D01*
Y-66609D01*
Y-66895D01*
X1051719D01*
Y-67181D01*
Y-67468D01*
Y-67754D01*
X1052005D01*
Y-68040D01*
Y-68327D01*
Y-68613D01*
Y-68899D01*
X1052291D01*
Y-69186D01*
Y-69472D01*
Y-69758D01*
Y-70044D01*
Y-70331D01*
Y-70617D01*
Y-70903D01*
Y-71190D01*
Y-71476D01*
Y-71762D01*
Y-72049D01*
Y-72335D01*
Y-72621D01*
Y-72908D01*
Y-73194D01*
Y-73480D01*
Y-73767D01*
Y-74053D01*
X1052005D01*
Y-74339D01*
Y-74625D01*
Y-74912D01*
Y-75198D01*
Y-75485D01*
Y-75771D01*
Y-76057D01*
X1051719D01*
Y-76343D01*
Y-76630D01*
Y-76916D01*
Y-77202D01*
Y-77489D01*
Y-77775D01*
Y-78061D01*
X1051433D01*
Y-78348D01*
Y-78634D01*
Y-78920D01*
Y-79207D01*
Y-79493D01*
Y-79779D01*
X1051146D01*
Y-80066D01*
Y-80352D01*
Y-80638D01*
Y-80924D01*
Y-81211D01*
Y-81497D01*
X1050860D01*
Y-81783D01*
Y-82070D01*
Y-82356D01*
Y-82642D01*
Y-82929D01*
Y-83215D01*
X1050574D01*
Y-83501D01*
Y-83788D01*
Y-84074D01*
Y-84360D01*
Y-84646D01*
Y-84933D01*
Y-85219D01*
X1050287D01*
Y-85505D01*
Y-85792D01*
Y-86078D01*
Y-86364D01*
Y-86651D01*
Y-86937D01*
X1050001D01*
Y-87223D01*
Y-87510D01*
Y-87796D01*
Y-88082D01*
Y-88369D01*
Y-88655D01*
X1049715D01*
Y-88941D01*
Y-89227D01*
Y-89514D01*
Y-89800D01*
Y-90086D01*
Y-90373D01*
Y-90659D01*
X1049428D01*
Y-90945D01*
Y-91232D01*
Y-91518D01*
Y-91804D01*
Y-92091D01*
Y-92377D01*
X1049142D01*
Y-92663D01*
Y-92950D01*
Y-93236D01*
Y-93522D01*
Y-93809D01*
Y-94095D01*
X1048856D01*
Y-94381D01*
Y-94667D01*
Y-94954D01*
Y-95240D01*
Y-95526D01*
Y-95813D01*
X1048569D01*
Y-96099D01*
Y-96385D01*
Y-96672D01*
Y-96958D01*
Y-97244D01*
Y-97531D01*
Y-97817D01*
X1048283D01*
Y-98103D01*
Y-98390D01*
Y-98676D01*
Y-98962D01*
Y-99248D01*
Y-99535D01*
X1047997D01*
Y-99821D01*
Y-100107D01*
X1034826D01*
Y-99821D01*
Y-99535D01*
X1035113D01*
Y-99248D01*
Y-98962D01*
Y-98676D01*
Y-98390D01*
Y-98103D01*
Y-97817D01*
X1035399D01*
Y-97531D01*
Y-97244D01*
Y-96958D01*
Y-96672D01*
Y-96385D01*
Y-96099D01*
Y-95813D01*
X1035685D01*
Y-95526D01*
Y-95240D01*
Y-94954D01*
Y-94667D01*
Y-94381D01*
Y-94095D01*
X1035972D01*
Y-93809D01*
Y-93522D01*
Y-93236D01*
Y-92950D01*
Y-92663D01*
Y-92377D01*
X1036258D01*
Y-92091D01*
Y-91804D01*
Y-91518D01*
Y-91232D01*
Y-90945D01*
Y-90659D01*
Y-90373D01*
X1036544D01*
Y-90086D01*
Y-89800D01*
Y-89514D01*
Y-89227D01*
Y-88941D01*
Y-88655D01*
X1036831D01*
Y-88369D01*
Y-88082D01*
Y-87796D01*
Y-87510D01*
Y-87223D01*
Y-86937D01*
Y-86651D01*
X1037117D01*
Y-86364D01*
Y-86078D01*
Y-85792D01*
Y-85505D01*
Y-85219D01*
Y-84933D01*
X1037403D01*
Y-84646D01*
Y-84360D01*
Y-84074D01*
Y-83788D01*
Y-83501D01*
Y-83215D01*
X1037689D01*
Y-82929D01*
Y-82642D01*
Y-82356D01*
Y-82070D01*
Y-81783D01*
Y-81497D01*
X1037976D01*
Y-81211D01*
Y-80924D01*
Y-80638D01*
Y-80352D01*
Y-80066D01*
Y-79779D01*
Y-79493D01*
X1038262D01*
Y-79207D01*
Y-78920D01*
Y-78634D01*
Y-78348D01*
Y-78061D01*
Y-77775D01*
X1038548D01*
Y-77489D01*
Y-77202D01*
Y-76916D01*
Y-76630D01*
Y-76343D01*
Y-76057D01*
Y-75771D01*
X1038835D01*
Y-75485D01*
Y-75198D01*
Y-74912D01*
Y-74625D01*
Y-74339D01*
Y-74053D01*
X1038548D01*
Y-73767D01*
Y-73480D01*
X1038262D01*
Y-73194D01*
X1037976D01*
Y-72908D01*
X1037403D01*
Y-72621D01*
X1035685D01*
Y-72908D01*
X1034254D01*
Y-73194D01*
X1033395D01*
Y-73480D01*
X1032822D01*
Y-73767D01*
X1032536D01*
Y-74053D01*
X1031963D01*
Y-74339D01*
X1031677D01*
Y-74625D01*
X1031391D01*
Y-74912D01*
Y-75198D01*
X1031104D01*
Y-75485D01*
Y-75771D01*
Y-76057D01*
X1030818D01*
Y-76343D01*
Y-76630D01*
Y-76916D01*
Y-77202D01*
Y-77489D01*
Y-77775D01*
X1030532D01*
Y-78061D01*
Y-78348D01*
Y-78634D01*
Y-78920D01*
Y-79207D01*
Y-79493D01*
Y-79779D01*
X1030245D01*
Y-80066D01*
Y-80352D01*
Y-80638D01*
Y-80924D01*
Y-81211D01*
Y-81497D01*
X1029959D01*
Y-81783D01*
Y-82070D01*
Y-82356D01*
Y-82642D01*
Y-82929D01*
Y-83215D01*
X1029673D01*
Y-83501D01*
Y-83788D01*
Y-84074D01*
Y-84360D01*
Y-84646D01*
Y-84933D01*
X1029387D01*
Y-85219D01*
Y-85505D01*
Y-85792D01*
Y-86078D01*
Y-86364D01*
Y-86651D01*
Y-86937D01*
X1029100D01*
Y-87223D01*
Y-87510D01*
Y-87796D01*
Y-88082D01*
Y-88369D01*
Y-88655D01*
X1028814D01*
Y-88941D01*
Y-89227D01*
Y-89514D01*
Y-89800D01*
Y-90086D01*
Y-90373D01*
X1028528D01*
Y-90659D01*
Y-90945D01*
Y-91232D01*
Y-91518D01*
Y-91804D01*
Y-92091D01*
Y-92377D01*
X1028241D01*
Y-92663D01*
Y-92950D01*
Y-93236D01*
Y-93522D01*
Y-93809D01*
Y-94095D01*
X1027955D01*
Y-94381D01*
Y-94667D01*
Y-94954D01*
Y-95240D01*
Y-95526D01*
Y-95813D01*
X1027669D01*
Y-96099D01*
Y-96385D01*
Y-96672D01*
Y-96958D01*
Y-97244D01*
Y-97531D01*
X1027382D01*
Y-97817D01*
Y-98103D01*
Y-98390D01*
Y-98676D01*
Y-98962D01*
Y-99248D01*
Y-99535D01*
X1027096D01*
Y-99821D01*
Y-100107D01*
X1013926D01*
Y-99821D01*
Y-99535D01*
X1014212D01*
Y-99248D01*
Y-98962D01*
Y-98676D01*
Y-98390D01*
Y-98103D01*
Y-97817D01*
Y-97531D01*
X1014498D01*
Y-97244D01*
Y-96958D01*
Y-96672D01*
Y-96385D01*
Y-96099D01*
Y-95813D01*
X1014785D01*
Y-95526D01*
Y-95240D01*
Y-94954D01*
Y-94667D01*
Y-94381D01*
Y-94095D01*
X1015071D01*
Y-93809D01*
Y-93522D01*
Y-93236D01*
Y-92950D01*
Y-92663D01*
Y-92377D01*
Y-92091D01*
X1015357D01*
Y-91804D01*
Y-91518D01*
Y-91232D01*
Y-90945D01*
Y-90659D01*
Y-90373D01*
X1015643D01*
Y-90086D01*
Y-89800D01*
Y-89514D01*
Y-89227D01*
Y-88941D01*
Y-88655D01*
X1015930D01*
Y-88369D01*
Y-88082D01*
Y-87796D01*
Y-87510D01*
Y-87223D01*
Y-86937D01*
X1016216D01*
Y-86651D01*
Y-86364D01*
Y-86078D01*
Y-85792D01*
Y-85505D01*
Y-85219D01*
Y-84933D01*
X1016502D01*
Y-84646D01*
Y-84360D01*
Y-84074D01*
Y-83788D01*
Y-83501D01*
Y-83215D01*
X1016789D01*
Y-82929D01*
Y-82642D01*
Y-82356D01*
Y-82070D01*
Y-81783D01*
Y-81497D01*
X1017075D01*
Y-81211D01*
Y-80924D01*
Y-80638D01*
Y-80352D01*
Y-80066D01*
Y-79779D01*
Y-79493D01*
X1017361D01*
Y-79207D01*
Y-78920D01*
Y-78634D01*
Y-78348D01*
Y-78061D01*
Y-77775D01*
X1017648D01*
Y-77489D01*
Y-77202D01*
Y-76916D01*
Y-76630D01*
Y-76343D01*
Y-76057D01*
X1017934D01*
Y-75771D01*
Y-75485D01*
Y-75198D01*
Y-74912D01*
Y-74625D01*
Y-74339D01*
X1018220D01*
Y-74053D01*
Y-73767D01*
Y-73480D01*
Y-73194D01*
Y-72908D01*
Y-72621D01*
Y-72335D01*
X1018507D01*
Y-72049D01*
Y-71762D01*
Y-71476D01*
Y-71190D01*
Y-70903D01*
Y-70617D01*
X1018793D01*
Y-70331D01*
Y-70044D01*
Y-69758D01*
Y-69472D01*
Y-69186D01*
Y-68899D01*
X1019079D01*
Y-68613D01*
Y-68327D01*
Y-68040D01*
Y-67754D01*
Y-67468D01*
Y-67181D01*
X1019366D01*
Y-66895D01*
Y-66609D01*
Y-66322D01*
Y-66036D01*
Y-65750D01*
Y-65464D01*
Y-65177D01*
X1019652D01*
Y-64891D01*
Y-64605D01*
Y-64318D01*
Y-64032D01*
Y-63746D01*
Y-63459D01*
X1019938D01*
Y-63173D01*
Y-62887D01*
Y-62600D01*
Y-62314D01*
Y-62028D01*
Y-61742D01*
X1020224D01*
Y-61455D01*
Y-61169D01*
Y-60883D01*
Y-60596D01*
Y-60310D01*
Y-60024D01*
Y-59737D01*
X1020511D01*
Y-59451D01*
Y-59165D01*
Y-58878D01*
Y-58592D01*
Y-58306D01*
Y-58019D01*
X1020797D01*
Y-57733D01*
Y-57447D01*
Y-57161D01*
Y-56874D01*
Y-56588D01*
Y-56301D01*
X1021083D01*
Y-56015D01*
Y-55729D01*
Y-55443D01*
Y-55156D01*
Y-54870D01*
Y-54584D01*
X1021370D01*
Y-54297D01*
Y-54011D01*
Y-53725D01*
Y-53438D01*
Y-53152D01*
Y-52866D01*
Y-52579D01*
X1021656D01*
Y-52293D01*
Y-52007D01*
Y-51720D01*
Y-51434D01*
Y-51148D01*
Y-50862D01*
X1021942D01*
Y-50575D01*
Y-50289D01*
Y-50003D01*
Y-49716D01*
Y-49430D01*
Y-49144D01*
X1022229D01*
Y-48857D01*
Y-48571D01*
Y-48285D01*
Y-47998D01*
Y-47712D01*
Y-47426D01*
Y-47139D01*
X1022515D01*
Y-46853D01*
Y-46567D01*
Y-46281D01*
X1035685D01*
Y-46567D01*
D02*
G37*
G36*
X1004477Y-50003D02*
X1006195D01*
Y-50289D01*
X1007054D01*
Y-50575D01*
X1007913D01*
Y-50862D01*
X1008772D01*
Y-51148D01*
X1009345D01*
Y-51434D01*
X1009631D01*
Y-51720D01*
X1010203D01*
Y-52007D01*
X1010490D01*
Y-52293D01*
X1011062D01*
Y-52579D01*
X1011349D01*
Y-52866D01*
X1011635D01*
Y-53152D01*
X1011921D01*
Y-53438D01*
X1012208D01*
Y-53725D01*
X1012494D01*
Y-54011D01*
X1012780D01*
Y-54297D01*
Y-54584D01*
X1013067D01*
Y-54870D01*
X1013353D01*
Y-55156D01*
Y-55443D01*
X1013639D01*
Y-55729D01*
X1013926D01*
Y-56015D01*
Y-56301D01*
X1014212D01*
Y-56588D01*
Y-56874D01*
Y-57161D01*
X1014498D01*
Y-57447D01*
Y-57733D01*
Y-58019D01*
X1014785D01*
Y-58306D01*
Y-58592D01*
Y-58878D01*
Y-59165D01*
X1015071D01*
Y-59451D01*
Y-59737D01*
Y-60024D01*
Y-60310D01*
Y-60596D01*
X1015357D01*
Y-60883D01*
Y-61169D01*
Y-61455D01*
Y-61742D01*
Y-62028D01*
Y-62314D01*
Y-62600D01*
Y-62887D01*
Y-63173D01*
Y-63459D01*
Y-63746D01*
Y-64032D01*
Y-64318D01*
Y-64605D01*
Y-64891D01*
Y-65177D01*
Y-65464D01*
Y-65750D01*
Y-66036D01*
Y-66322D01*
X1015071D01*
Y-66609D01*
Y-66895D01*
Y-67181D01*
Y-67468D01*
Y-67754D01*
Y-68040D01*
Y-68327D01*
X1014785D01*
Y-68613D01*
Y-68899D01*
Y-69186D01*
Y-69472D01*
Y-69758D01*
X1014498D01*
Y-70044D01*
Y-70331D01*
Y-70617D01*
Y-70903D01*
Y-71190D01*
X1014212D01*
Y-71476D01*
Y-71762D01*
Y-72049D01*
X1013926D01*
Y-72335D01*
Y-72621D01*
Y-72908D01*
Y-73194D01*
X1013639D01*
Y-73480D01*
Y-73767D01*
Y-74053D01*
X1013353D01*
Y-74339D01*
Y-74625D01*
X1013067D01*
Y-74912D01*
Y-75198D01*
Y-75485D01*
X1012780D01*
Y-75771D01*
Y-76057D01*
X1012494D01*
Y-76343D01*
Y-76630D01*
X1012208D01*
Y-76916D01*
Y-77202D01*
X1011921D01*
Y-77489D01*
X1011635D01*
Y-77775D01*
Y-78061D01*
X1011349D01*
Y-78348D01*
X1011062D01*
Y-78634D01*
X1010776D01*
Y-78920D01*
Y-79207D01*
X1010490D01*
Y-79493D01*
X1010203D01*
Y-79779D01*
X1009917D01*
Y-80066D01*
X1009631D01*
Y-80352D01*
X1009345D01*
Y-80638D01*
X1008772D01*
Y-80924D01*
X1008486D01*
Y-81211D01*
X1007913D01*
Y-81497D01*
X1007627D01*
Y-81783D01*
X1007054D01*
Y-82070D01*
X1006195D01*
Y-82356D01*
X1005336D01*
Y-82642D01*
X1004477D01*
Y-82929D01*
X1002759D01*
Y-83215D01*
X997606D01*
Y-82929D01*
X995029D01*
Y-82642D01*
X993025D01*
Y-82356D01*
X991593D01*
Y-82070D01*
X990162D01*
Y-81783D01*
X988730D01*
Y-82070D01*
Y-82356D01*
Y-82642D01*
Y-82929D01*
Y-83215D01*
Y-83501D01*
Y-83788D01*
X988444D01*
Y-84074D01*
Y-84360D01*
Y-84646D01*
Y-84933D01*
Y-85219D01*
Y-85505D01*
X988157D01*
Y-85792D01*
Y-86078D01*
Y-86364D01*
Y-86651D01*
Y-86937D01*
Y-87223D01*
X987871D01*
Y-87510D01*
Y-87796D01*
Y-88082D01*
Y-88369D01*
Y-88655D01*
Y-88941D01*
Y-89227D01*
X987585D01*
Y-89514D01*
Y-89800D01*
Y-90086D01*
Y-90373D01*
Y-90659D01*
Y-90945D01*
X987298D01*
Y-91232D01*
Y-91518D01*
Y-91804D01*
Y-92091D01*
Y-92377D01*
Y-92663D01*
X987012D01*
Y-92950D01*
Y-93236D01*
Y-93522D01*
Y-93809D01*
Y-94095D01*
Y-94381D01*
Y-94667D01*
X986726D01*
Y-94954D01*
Y-95240D01*
Y-95526D01*
Y-95813D01*
Y-96099D01*
Y-96385D01*
X986440D01*
Y-96672D01*
Y-96958D01*
Y-97244D01*
Y-97531D01*
Y-97817D01*
Y-98103D01*
X986153D01*
Y-98390D01*
Y-98676D01*
Y-98962D01*
Y-99248D01*
Y-99535D01*
Y-99821D01*
Y-100107D01*
X972696D01*
Y-99821D01*
X972983D01*
Y-99535D01*
Y-99248D01*
Y-98962D01*
Y-98676D01*
Y-98390D01*
X973269D01*
Y-98103D01*
Y-97817D01*
Y-97531D01*
Y-97244D01*
Y-96958D01*
Y-96672D01*
Y-96385D01*
X973555D01*
Y-96099D01*
Y-95813D01*
Y-95526D01*
Y-95240D01*
Y-94954D01*
Y-94667D01*
X973842D01*
Y-94381D01*
Y-94095D01*
Y-93809D01*
Y-93522D01*
Y-93236D01*
Y-92950D01*
X974128D01*
Y-92663D01*
Y-92377D01*
Y-92091D01*
Y-91804D01*
Y-91518D01*
Y-91232D01*
Y-90945D01*
X974414D01*
Y-90659D01*
Y-90373D01*
Y-90086D01*
Y-89800D01*
Y-89514D01*
Y-89227D01*
X974701D01*
Y-88941D01*
Y-88655D01*
Y-88369D01*
Y-88082D01*
Y-87796D01*
Y-87510D01*
X974987D01*
Y-87223D01*
Y-86937D01*
Y-86651D01*
Y-86364D01*
Y-86078D01*
Y-85792D01*
X975273D01*
Y-85505D01*
Y-85219D01*
Y-84933D01*
Y-84646D01*
Y-84360D01*
Y-84074D01*
Y-83788D01*
X975560D01*
Y-83501D01*
Y-83215D01*
Y-82929D01*
Y-82642D01*
Y-82356D01*
Y-82070D01*
X975846D01*
Y-81783D01*
Y-81497D01*
Y-81211D01*
Y-80924D01*
Y-80638D01*
Y-80352D01*
X976132D01*
Y-80066D01*
Y-79779D01*
Y-79493D01*
Y-79207D01*
Y-78920D01*
Y-78634D01*
X976419D01*
Y-78348D01*
Y-78061D01*
Y-77775D01*
Y-77489D01*
Y-77202D01*
Y-76916D01*
Y-76630D01*
X976705D01*
Y-76343D01*
Y-76057D01*
Y-75771D01*
Y-75485D01*
Y-75198D01*
Y-74912D01*
X976991D01*
Y-74625D01*
Y-74339D01*
Y-74053D01*
Y-73767D01*
Y-73480D01*
Y-73194D01*
X977277D01*
Y-72908D01*
Y-72621D01*
Y-72335D01*
Y-72049D01*
Y-71762D01*
Y-71476D01*
Y-71190D01*
X977564D01*
Y-70903D01*
Y-70617D01*
Y-70331D01*
Y-70044D01*
Y-69758D01*
Y-69472D01*
X977850D01*
Y-69186D01*
Y-68899D01*
Y-68613D01*
Y-68327D01*
Y-68040D01*
Y-67754D01*
X978137D01*
Y-67468D01*
Y-67181D01*
Y-66895D01*
Y-66609D01*
Y-66322D01*
Y-66036D01*
X978423D01*
Y-65750D01*
Y-65464D01*
Y-65177D01*
Y-64891D01*
Y-64605D01*
Y-64318D01*
Y-64032D01*
X978709D01*
Y-63746D01*
Y-63459D01*
Y-63173D01*
Y-62887D01*
Y-62600D01*
Y-62314D01*
X978995D01*
Y-62028D01*
Y-61742D01*
Y-61455D01*
Y-61169D01*
Y-60883D01*
Y-60596D01*
X979282D01*
Y-60310D01*
Y-60024D01*
Y-59737D01*
Y-59451D01*
Y-59165D01*
Y-58878D01*
Y-58592D01*
X979568D01*
Y-58306D01*
Y-58019D01*
Y-57733D01*
Y-57447D01*
Y-57161D01*
Y-56874D01*
X979854D01*
Y-56588D01*
Y-56301D01*
Y-56015D01*
Y-55729D01*
Y-55443D01*
Y-55156D01*
X980141D01*
Y-54870D01*
Y-54584D01*
Y-54297D01*
Y-54011D01*
Y-53725D01*
Y-53438D01*
Y-53152D01*
X980427D01*
Y-52866D01*
Y-52579D01*
Y-52293D01*
Y-52007D01*
Y-51720D01*
Y-51434D01*
X980713D01*
Y-51148D01*
Y-50862D01*
Y-50575D01*
Y-50289D01*
Y-50003D01*
Y-49716D01*
X1004477D01*
Y-50003D01*
D02*
G37*
G36*
X1137613Y-64032D02*
X1137326D01*
Y-64318D01*
X1137040D01*
Y-64605D01*
Y-64891D01*
X1136754D01*
Y-65177D01*
X1136467D01*
Y-65464D01*
X1136181D01*
Y-65750D01*
Y-66036D01*
X1135895D01*
Y-66322D01*
X1135608D01*
Y-66609D01*
X1135322D01*
Y-66895D01*
X1135036D01*
Y-67181D01*
Y-67468D01*
X1134750D01*
Y-67754D01*
X1134463D01*
Y-68040D01*
X1134177D01*
Y-68327D01*
Y-68613D01*
X1133891D01*
Y-68899D01*
X1133604D01*
Y-69186D01*
X1133318D01*
Y-69472D01*
X1133032D01*
Y-69758D01*
Y-70044D01*
X1132745D01*
Y-70331D01*
X1132459D01*
Y-70617D01*
X1132173D01*
Y-70903D01*
Y-71190D01*
X1131886D01*
Y-71476D01*
X1131600D01*
Y-71762D01*
X1131314D01*
Y-72049D01*
Y-72335D01*
X1131028D01*
Y-72621D01*
X1130741D01*
Y-72908D01*
X1130455D01*
Y-73194D01*
X1130169D01*
Y-73480D01*
Y-73767D01*
X1129882D01*
Y-74053D01*
X1129596D01*
Y-74339D01*
X1129310D01*
Y-74625D01*
Y-74912D01*
X1129023D01*
Y-75198D01*
X1128737D01*
Y-75485D01*
X1128451D01*
Y-75771D01*
Y-76057D01*
X1128164D01*
Y-76343D01*
X1127878D01*
Y-76630D01*
X1127592D01*
Y-76916D01*
X1127306D01*
Y-77202D01*
Y-77489D01*
X1127019D01*
Y-77775D01*
X1126733D01*
Y-78061D01*
X1126447D01*
Y-78348D01*
Y-78634D01*
X1126160D01*
Y-78920D01*
X1125874D01*
Y-79207D01*
X1125588D01*
Y-79493D01*
Y-79779D01*
X1125301D01*
Y-80066D01*
X1125015D01*
Y-80352D01*
X1124729D01*
Y-80638D01*
X1124442D01*
Y-80924D01*
Y-81211D01*
X1124156D01*
Y-81497D01*
X1123870D01*
Y-81783D01*
X1123583D01*
Y-82070D01*
Y-82356D01*
X1123297D01*
Y-82642D01*
X1123011D01*
Y-82929D01*
X1122725D01*
Y-83215D01*
X1122438D01*
Y-83501D01*
Y-83788D01*
X1122725D01*
Y-84074D01*
Y-84360D01*
X1123011D01*
Y-84646D01*
Y-84933D01*
X1123297D01*
Y-85219D01*
X1123583D01*
Y-85505D01*
Y-85792D01*
X1123870D01*
Y-86078D01*
Y-86364D01*
X1124156D01*
Y-86651D01*
Y-86937D01*
X1124442D01*
Y-87223D01*
Y-87510D01*
X1124729D01*
Y-87796D01*
Y-88082D01*
X1125015D01*
Y-88369D01*
Y-88655D01*
X1125301D01*
Y-88941D01*
Y-89227D01*
X1125588D01*
Y-89514D01*
Y-89800D01*
X1125874D01*
Y-90086D01*
X1126160D01*
Y-90373D01*
Y-90659D01*
X1126447D01*
Y-90945D01*
Y-91232D01*
X1126733D01*
Y-91518D01*
Y-91804D01*
X1127019D01*
Y-92091D01*
Y-92377D01*
X1127306D01*
Y-92663D01*
Y-92950D01*
X1127592D01*
Y-93236D01*
Y-93522D01*
X1127878D01*
Y-93809D01*
Y-94095D01*
X1128164D01*
Y-94381D01*
X1128451D01*
Y-94667D01*
Y-94954D01*
X1128737D01*
Y-95240D01*
Y-95526D01*
X1129023D01*
Y-95813D01*
Y-96099D01*
X1129310D01*
Y-96385D01*
Y-96672D01*
X1129596D01*
Y-96958D01*
Y-97244D01*
X1129882D01*
Y-97531D01*
Y-97817D01*
X1130169D01*
Y-98103D01*
Y-98390D01*
X1130455D01*
Y-98676D01*
X1130741D01*
Y-98962D01*
Y-99248D01*
X1131028D01*
Y-99535D01*
Y-99821D01*
X1131314D01*
Y-100107D01*
X1116139D01*
Y-99821D01*
X1115853D01*
Y-99535D01*
Y-99248D01*
Y-98962D01*
X1115567D01*
Y-98676D01*
Y-98390D01*
Y-98103D01*
X1115280D01*
Y-97817D01*
Y-97531D01*
X1114994D01*
Y-97244D01*
Y-96958D01*
Y-96672D01*
X1114708D01*
Y-96385D01*
Y-96099D01*
Y-95813D01*
X1114421D01*
Y-95526D01*
Y-95240D01*
X1114135D01*
Y-94954D01*
Y-94667D01*
Y-94381D01*
X1113849D01*
Y-94095D01*
Y-93809D01*
Y-93522D01*
X1113562D01*
Y-93236D01*
Y-92950D01*
Y-92663D01*
X1113276D01*
Y-92377D01*
X1112704D01*
Y-92663D01*
Y-92950D01*
X1112417D01*
Y-93236D01*
X1112131D01*
Y-93522D01*
Y-93809D01*
X1111845D01*
Y-94095D01*
X1111558D01*
Y-94381D01*
Y-94667D01*
X1111272D01*
Y-94954D01*
X1110986D01*
Y-95240D01*
Y-95526D01*
X1110699D01*
Y-95813D01*
X1110413D01*
Y-96099D01*
X1110127D01*
Y-96385D01*
Y-96672D01*
X1109840D01*
Y-96958D01*
X1109554D01*
Y-97244D01*
Y-97531D01*
X1109268D01*
Y-97817D01*
X1108981D01*
Y-98103D01*
Y-98390D01*
X1108695D01*
Y-98676D01*
X1108409D01*
Y-98962D01*
Y-99248D01*
X1108123D01*
Y-99535D01*
X1107836D01*
Y-99821D01*
Y-100107D01*
X1091803D01*
Y-99821D01*
X1092089D01*
Y-99535D01*
X1092375D01*
Y-99248D01*
X1092662D01*
Y-98962D01*
X1092948D01*
Y-98676D01*
Y-98390D01*
X1093234D01*
Y-98103D01*
X1093521D01*
Y-97817D01*
X1093807D01*
Y-97531D01*
X1094093D01*
Y-97244D01*
Y-96958D01*
X1094380D01*
Y-96672D01*
X1094666D01*
Y-96385D01*
X1094952D01*
Y-96099D01*
Y-95813D01*
X1095238D01*
Y-95526D01*
X1095525D01*
Y-95240D01*
X1095811D01*
Y-94954D01*
X1096097D01*
Y-94667D01*
Y-94381D01*
X1096384D01*
Y-94095D01*
X1096670D01*
Y-93809D01*
X1096956D01*
Y-93522D01*
X1097243D01*
Y-93236D01*
Y-92950D01*
X1097529D01*
Y-92663D01*
X1097815D01*
Y-92377D01*
X1098102D01*
Y-92091D01*
Y-91804D01*
X1098388D01*
Y-91518D01*
X1098674D01*
Y-91232D01*
X1098960D01*
Y-90945D01*
X1099247D01*
Y-90659D01*
Y-90373D01*
X1099533D01*
Y-90086D01*
X1099819D01*
Y-89800D01*
X1100106D01*
Y-89514D01*
Y-89227D01*
X1100392D01*
Y-88941D01*
X1100678D01*
Y-88655D01*
X1100965D01*
Y-88369D01*
X1101251D01*
Y-88082D01*
Y-87796D01*
X1101537D01*
Y-87510D01*
X1101824D01*
Y-87223D01*
X1102110D01*
Y-86937D01*
Y-86651D01*
X1102396D01*
Y-86364D01*
X1102683D01*
Y-86078D01*
X1102969D01*
Y-85792D01*
X1103255D01*
Y-85505D01*
Y-85219D01*
X1103541D01*
Y-84933D01*
X1103828D01*
Y-84646D01*
X1104114D01*
Y-84360D01*
X1104400D01*
Y-84074D01*
Y-83788D01*
X1104687D01*
Y-83501D01*
X1104973D01*
Y-83215D01*
X1105259D01*
Y-82929D01*
Y-82642D01*
X1105546D01*
Y-82356D01*
X1105832D01*
Y-82070D01*
X1106118D01*
Y-81783D01*
X1106405D01*
Y-81497D01*
Y-81211D01*
X1106691D01*
Y-80924D01*
Y-80638D01*
Y-80352D01*
X1106405D01*
Y-80066D01*
X1106118D01*
Y-79779D01*
Y-79493D01*
X1105832D01*
Y-79207D01*
Y-78920D01*
X1105546D01*
Y-78634D01*
Y-78348D01*
X1105259D01*
Y-78061D01*
Y-77775D01*
X1104973D01*
Y-77489D01*
Y-77202D01*
X1104687D01*
Y-76916D01*
Y-76630D01*
X1104400D01*
Y-76343D01*
X1104114D01*
Y-76057D01*
Y-75771D01*
X1103828D01*
Y-75485D01*
Y-75198D01*
X1103541D01*
Y-74912D01*
Y-74625D01*
X1103255D01*
Y-74339D01*
Y-74053D01*
X1102969D01*
Y-73767D01*
Y-73480D01*
X1102683D01*
Y-73194D01*
Y-72908D01*
X1102396D01*
Y-72621D01*
X1102110D01*
Y-72335D01*
Y-72049D01*
X1101824D01*
Y-71762D01*
Y-71476D01*
X1101537D01*
Y-71190D01*
Y-70903D01*
X1101251D01*
Y-70617D01*
Y-70331D01*
X1100965D01*
Y-70044D01*
Y-69758D01*
X1100678D01*
Y-69472D01*
Y-69186D01*
X1100392D01*
Y-68899D01*
Y-68613D01*
X1100106D01*
Y-68327D01*
X1099819D01*
Y-68040D01*
Y-67754D01*
X1099533D01*
Y-67468D01*
Y-67181D01*
X1099247D01*
Y-66895D01*
Y-66609D01*
X1098960D01*
Y-66322D01*
Y-66036D01*
X1098674D01*
Y-65750D01*
Y-65464D01*
X1098388D01*
Y-65177D01*
Y-64891D01*
X1098102D01*
Y-64605D01*
X1097815D01*
Y-64318D01*
Y-64032D01*
X1097529D01*
Y-63746D01*
X1113276D01*
Y-64032D01*
X1113562D01*
Y-64318D01*
Y-64605D01*
Y-64891D01*
X1113849D01*
Y-65177D01*
Y-65464D01*
Y-65750D01*
X1114135D01*
Y-66036D01*
Y-66322D01*
Y-66609D01*
X1114421D01*
Y-66895D01*
Y-67181D01*
Y-67468D01*
X1114708D01*
Y-67754D01*
Y-68040D01*
Y-68327D01*
X1114994D01*
Y-68613D01*
Y-68899D01*
Y-69186D01*
X1115280D01*
Y-69472D01*
Y-69758D01*
Y-70044D01*
X1115567D01*
Y-70331D01*
Y-70617D01*
Y-70903D01*
X1115853D01*
Y-71190D01*
Y-71476D01*
Y-71762D01*
Y-72049D01*
X1116426D01*
Y-71762D01*
X1116712D01*
Y-71476D01*
X1116998D01*
Y-71190D01*
Y-70903D01*
X1117284D01*
Y-70617D01*
X1117571D01*
Y-70331D01*
Y-70044D01*
X1117857D01*
Y-69758D01*
X1118143D01*
Y-69472D01*
Y-69186D01*
X1118430D01*
Y-68899D01*
X1118716D01*
Y-68613D01*
Y-68327D01*
X1119002D01*
Y-68040D01*
X1119289D01*
Y-67754D01*
Y-67468D01*
X1119575D01*
Y-67181D01*
X1119861D01*
Y-66895D01*
Y-66609D01*
X1120148D01*
Y-66322D01*
X1120434D01*
Y-66036D01*
Y-65750D01*
X1120720D01*
Y-65464D01*
X1121007D01*
Y-65177D01*
Y-64891D01*
X1121293D01*
Y-64605D01*
X1121579D01*
Y-64318D01*
Y-64032D01*
X1121865D01*
Y-63746D01*
X1137613D01*
Y-64032D01*
D02*
G37*
%LPC*%
G36*
X1000183Y-60883D02*
X992166D01*
Y-61169D01*
Y-61455D01*
Y-61742D01*
Y-62028D01*
Y-62314D01*
X991879D01*
Y-62600D01*
Y-62887D01*
Y-63173D01*
Y-63459D01*
Y-63746D01*
Y-64032D01*
X991593D01*
Y-64318D01*
Y-64605D01*
Y-64891D01*
Y-65177D01*
Y-65464D01*
Y-65750D01*
X991307D01*
Y-66036D01*
Y-66322D01*
Y-66609D01*
Y-66895D01*
Y-67181D01*
Y-67468D01*
X991020D01*
Y-67754D01*
Y-68040D01*
Y-68327D01*
Y-68613D01*
Y-68899D01*
Y-69186D01*
Y-69472D01*
X990734D01*
Y-69758D01*
Y-70044D01*
Y-70331D01*
Y-70617D01*
Y-70903D01*
Y-71190D01*
X990448D01*
Y-71476D01*
Y-71762D01*
Y-72049D01*
X997606D01*
Y-71762D01*
X998751D01*
Y-71476D01*
X999324D01*
Y-71190D01*
X999610D01*
Y-70903D01*
X999896D01*
Y-70617D01*
X1000183D01*
Y-70331D01*
X1000469D01*
Y-70044D01*
Y-69758D01*
X1000755D01*
Y-69472D01*
Y-69186D01*
X1001042D01*
Y-68899D01*
Y-68613D01*
X1001328D01*
Y-68327D01*
Y-68040D01*
Y-67754D01*
Y-67468D01*
X1001614D01*
Y-67181D01*
Y-66895D01*
Y-66609D01*
Y-66322D01*
Y-66036D01*
X1001900D01*
Y-65750D01*
Y-65464D01*
Y-65177D01*
Y-64891D01*
Y-64605D01*
Y-64318D01*
Y-64032D01*
Y-63746D01*
Y-63459D01*
Y-63173D01*
Y-62887D01*
X1001614D01*
Y-62600D01*
Y-62314D01*
X1001328D01*
Y-62028D01*
Y-61742D01*
X1001042D01*
Y-61455D01*
X1000755D01*
Y-61169D01*
X1000183D01*
Y-60883D01*
D02*
G37*
%LPD*%
D12*
X19685Y-62992D02*
Y-60368D01*
X20997Y-59056D01*
X22309Y-60368D01*
Y-62992D01*
Y-61024D01*
X19685D01*
X23621Y-62992D02*
X24933D01*
X24277D01*
Y-59056D01*
X23621D01*
X26901Y-62992D02*
X28212D01*
X27556D01*
Y-59056D01*
X26901D01*
X34116D02*
Y-62992D01*
X36084D01*
X36740Y-62336D01*
Y-59712D01*
X36084Y-59056D01*
X34116D01*
X38052Y-62992D02*
X39364D01*
X38708D01*
Y-60368D01*
X38052D01*
X41332Y-62992D02*
Y-60368D01*
X41987D01*
X42643Y-61024D01*
Y-62992D01*
Y-61024D01*
X43299Y-60368D01*
X43955Y-61024D01*
Y-62992D01*
X47235D02*
X45923D01*
X45267Y-62336D01*
Y-61024D01*
X45923Y-60368D01*
X47235D01*
X47891Y-61024D01*
Y-61680D01*
X45267D01*
X49203Y-62992D02*
Y-60368D01*
X51171D01*
X51827Y-61024D01*
Y-62992D01*
X53139D02*
X55107D01*
X55763Y-62336D01*
X55107Y-61680D01*
X53795D01*
X53139Y-61024D01*
X53795Y-60368D01*
X55763D01*
X57074Y-62992D02*
X58386D01*
X57731D01*
Y-60368D01*
X57074D01*
X61010Y-62992D02*
X62322D01*
X62978Y-62336D01*
Y-61024D01*
X62322Y-60368D01*
X61010D01*
X60354Y-61024D01*
Y-62336D01*
X61010Y-62992D01*
X64290D02*
Y-60368D01*
X66258D01*
X66914Y-61024D01*
Y-62992D01*
X68226D02*
X70194D01*
X70850Y-62336D01*
X70194Y-61680D01*
X68882D01*
X68226Y-61024D01*
X68882Y-60368D01*
X70850D01*
X76753D02*
X78065D01*
X78721Y-61024D01*
Y-62992D01*
X76753D01*
X76097Y-62336D01*
X76753Y-61680D01*
X78721D01*
X80033Y-60368D02*
Y-62992D01*
Y-61680D01*
X80689Y-61024D01*
X81345Y-60368D01*
X82001D01*
X85937Y-62992D02*
X84625D01*
X83969Y-62336D01*
Y-61024D01*
X84625Y-60368D01*
X85937D01*
X86593Y-61024D01*
Y-61680D01*
X83969D01*
X91840Y-62992D02*
X93152D01*
X92496D01*
Y-60368D01*
X91840D01*
X95120Y-62992D02*
Y-60368D01*
X97088D01*
X97744Y-61024D01*
Y-62992D01*
X102991D02*
Y-60368D01*
X103647D01*
X104303Y-61024D01*
Y-62992D01*
Y-61024D01*
X104959Y-60368D01*
X105615Y-61024D01*
Y-62992D01*
X106927D02*
Y-60368D01*
X107583D01*
X108239Y-61024D01*
Y-62992D01*
Y-61024D01*
X108895Y-60368D01*
X109551Y-61024D01*
Y-62992D01*
D34*
X1157480Y-141735D02*
Y-149606D01*
X1161416D01*
X1162728Y-148294D01*
Y-143047D01*
X1161416Y-141735D01*
X1157480D01*
X1166664Y-149606D02*
X1169287D01*
X1170599Y-148294D01*
Y-145671D01*
X1169287Y-144359D01*
X1166664D01*
X1165352Y-145671D01*
Y-148294D01*
X1166664Y-149606D01*
X1178471Y-144359D02*
X1174535D01*
X1173223Y-145671D01*
Y-148294D01*
X1174535Y-149606D01*
X1178471D01*
X1181095Y-144359D02*
Y-148294D01*
X1182407Y-149606D01*
X1186342D01*
Y-144359D01*
X1188966Y-149606D02*
Y-144359D01*
X1190278D01*
X1191590Y-145671D01*
Y-149606D01*
Y-145671D01*
X1192902Y-144359D01*
X1194214Y-145671D01*
Y-149606D01*
X1200774D02*
X1198150D01*
X1196838Y-148294D01*
Y-145671D01*
X1198150Y-144359D01*
X1200774D01*
X1202085Y-145671D01*
Y-146983D01*
X1196838D01*
X1204709Y-149606D02*
Y-144359D01*
X1208645D01*
X1209957Y-145671D01*
Y-149606D01*
X1213893Y-143047D02*
Y-144359D01*
X1212581D01*
X1215205D01*
X1213893D01*
Y-148294D01*
X1215205Y-149606D01*
X1157480Y-102365D02*
Y-110236D01*
X1161416D01*
X1162728Y-108924D01*
Y-103677D01*
X1161416Y-102365D01*
X1157480D01*
X1166664Y-104989D02*
X1169287D01*
X1170599Y-106300D01*
Y-110236D01*
X1166664D01*
X1165352Y-108924D01*
X1166664Y-107612D01*
X1170599D01*
X1174535Y-103677D02*
Y-104989D01*
X1173223D01*
X1175847D01*
X1174535D01*
Y-108924D01*
X1175847Y-110236D01*
X1183719D02*
X1181095D01*
X1179783Y-108924D01*
Y-106300D01*
X1181095Y-104989D01*
X1183719D01*
X1185030Y-106300D01*
Y-107612D01*
X1179783D01*
X1157480Y-62995D02*
Y-70866D01*
X1162728D01*
X1166664Y-65618D02*
X1169287D01*
X1170599Y-66930D01*
Y-70866D01*
X1166664D01*
X1165352Y-69554D01*
X1166664Y-68242D01*
X1170599D01*
X1173223Y-65618D02*
Y-69554D01*
X1174535Y-70866D01*
X1178471D01*
Y-72178D01*
X1177159Y-73490D01*
X1175847D01*
X1178471Y-70866D02*
Y-65618D01*
X1185030Y-70866D02*
X1182407D01*
X1181095Y-69554D01*
Y-66930D01*
X1182407Y-65618D01*
X1185030D01*
X1186342Y-66930D01*
Y-68242D01*
X1181095D01*
X1188966Y-65618D02*
Y-70866D01*
Y-68242D01*
X1190278Y-66930D01*
X1191590Y-65618D01*
X1192902D01*
X1204709Y-70866D02*
Y-62995D01*
X1209957Y-70866D01*
Y-62995D01*
X1213893Y-65618D02*
X1216516D01*
X1217828Y-66930D01*
Y-70866D01*
X1213893D01*
X1212581Y-69554D01*
X1213893Y-68242D01*
X1217828D01*
X1220452Y-70866D02*
Y-65618D01*
X1221764D01*
X1223076Y-66930D01*
Y-70866D01*
Y-66930D01*
X1224388Y-65618D01*
X1225700Y-66930D01*
Y-70866D01*
X1232259D02*
X1229636D01*
X1228324Y-69554D01*
Y-66930D01*
X1229636Y-65618D01*
X1232259D01*
X1233571Y-66930D01*
Y-68242D01*
X1228324D01*
X1157480Y-23625D02*
Y-31496D01*
X1161416D01*
X1162728Y-30184D01*
Y-24937D01*
X1161416Y-23625D01*
X1157480D01*
X1166664Y-31496D02*
X1169287D01*
X1170599Y-30184D01*
Y-27560D01*
X1169287Y-26248D01*
X1166664D01*
X1165352Y-27560D01*
Y-30184D01*
X1166664Y-31496D01*
X1178471Y-26248D02*
X1174535D01*
X1173223Y-27560D01*
Y-30184D01*
X1174535Y-31496D01*
X1178471D01*
X1181095Y-26248D02*
Y-30184D01*
X1182407Y-31496D01*
X1186342D01*
Y-26248D01*
X1188966Y-31496D02*
Y-26248D01*
X1190278D01*
X1191590Y-27560D01*
Y-31496D01*
Y-27560D01*
X1192902Y-26248D01*
X1194214Y-27560D01*
Y-31496D01*
X1200774D02*
X1198150D01*
X1196838Y-30184D01*
Y-27560D01*
X1198150Y-26248D01*
X1200774D01*
X1202085Y-27560D01*
Y-28872D01*
X1196838D01*
X1204709Y-31496D02*
Y-26248D01*
X1208645D01*
X1209957Y-27560D01*
Y-31496D01*
X1213893Y-24937D02*
Y-26248D01*
X1212581D01*
X1215205D01*
X1213893D01*
Y-30184D01*
X1215205Y-31496D01*
X960630Y-141735D02*
Y-149606D01*
X964566D01*
X965878Y-148294D01*
Y-143047D01*
X964566Y-141735D01*
X960630D01*
X972437Y-149606D02*
X969813D01*
X968501Y-148294D01*
Y-145671D01*
X969813Y-144359D01*
X972437D01*
X973749Y-145671D01*
Y-146983D01*
X968501D01*
X976373Y-149606D02*
X980309D01*
X981621Y-148294D01*
X980309Y-146983D01*
X977685D01*
X976373Y-145671D01*
X977685Y-144359D01*
X981621D01*
X986868Y-152230D02*
X988180D01*
X989492Y-150918D01*
Y-144359D01*
X985556D01*
X984244Y-145671D01*
Y-148294D01*
X985556Y-149606D01*
X989492D01*
X992116D02*
X994740D01*
X993428D01*
Y-144359D01*
X992116D01*
X998675Y-149606D02*
Y-144359D01*
X1002611D01*
X1003923Y-145671D01*
Y-149606D01*
X1010483D02*
X1007859D01*
X1006547Y-148294D01*
Y-145671D01*
X1007859Y-144359D01*
X1010483D01*
X1011794Y-145671D01*
Y-146983D01*
X1006547D01*
X1014418Y-144359D02*
Y-149606D01*
Y-146983D01*
X1015730Y-145671D01*
X1017042Y-144359D01*
X1018354D01*
X1314961Y-110236D02*
Y-102365D01*
X1318896D01*
X1320208Y-103677D01*
Y-106300D01*
X1318896Y-107612D01*
X1314961D01*
X1317584D02*
X1320208Y-110236D01*
X1326768D02*
X1324144D01*
X1322832Y-108924D01*
Y-106300D01*
X1324144Y-104989D01*
X1326768D01*
X1328080Y-106300D01*
Y-107612D01*
X1322832D01*
X1330704Y-104989D02*
X1333327Y-110236D01*
X1335951Y-104989D01*
D35*
X1184380Y-76776D02*
X1175197D01*
Y-83664D01*
X1179789D01*
X1175197D01*
Y-90551D01*
X1191268Y-81368D02*
X1195860D01*
X1198155Y-83664D01*
Y-90551D01*
X1191268D01*
X1188972Y-88255D01*
X1191268Y-85960D01*
X1198155D01*
X1202747Y-76776D02*
Y-90551D01*
X1209635D01*
X1211930Y-88255D01*
Y-85960D01*
Y-83664D01*
X1209635Y-81368D01*
X1202747D01*
X1216522D02*
Y-90551D01*
Y-85960D01*
X1218818Y-83664D01*
X1221114Y-81368D01*
X1223410D01*
X1230297Y-90551D02*
X1234889D01*
X1232593D01*
Y-81368D01*
X1230297D01*
X1250960D02*
X1244072D01*
X1241776Y-83664D01*
Y-88255D01*
X1244072Y-90551D01*
X1250960D01*
X1257847Y-81368D02*
X1262439D01*
X1264735Y-83664D01*
Y-90551D01*
X1257847D01*
X1255552Y-88255D01*
X1257847Y-85960D01*
X1264735D01*
X1271622Y-79072D02*
Y-81368D01*
X1269327D01*
X1273918D01*
X1271622D01*
Y-88255D01*
X1273918Y-90551D01*
X1280806D02*
X1285398D01*
X1283102D01*
Y-81368D01*
X1280806D01*
X1294581Y-90551D02*
X1299173D01*
X1301468Y-88255D01*
Y-83664D01*
X1299173Y-81368D01*
X1294581D01*
X1292285Y-83664D01*
Y-88255D01*
X1294581Y-90551D01*
X1306060D02*
Y-81368D01*
X1312948D01*
X1315244Y-83664D01*
Y-90551D01*
X1173881Y-37407D02*
X1163386D01*
Y-53150D01*
X1173881D01*
X1163386Y-45278D02*
X1168633D01*
X1189624Y-40031D02*
X1187000Y-37407D01*
X1181753D01*
X1179129Y-40031D01*
Y-42654D01*
X1181753Y-45278D01*
X1187000D01*
X1189624Y-47902D01*
Y-50526D01*
X1187000Y-53150D01*
X1181753D01*
X1179129Y-50526D01*
X1194872Y-53150D02*
Y-37407D01*
X1202743D01*
X1205367Y-40031D01*
Y-45278D01*
X1202743Y-47902D01*
X1194872D01*
X1210615Y-53150D02*
X1215862D01*
X1213239D01*
Y-37407D01*
X1210615Y-40031D01*
X1234229Y-53150D02*
X1223734D01*
X1234229Y-42654D01*
Y-40031D01*
X1231605Y-37407D01*
X1226358D01*
X1223734Y-40031D01*
X1239477Y-55773D02*
X1249972D01*
X1255220Y-53150D02*
Y-37407D01*
X1263091D01*
X1265715Y-40031D01*
Y-45278D01*
X1263091Y-47902D01*
X1255220D01*
X1260467D02*
X1265715Y-53150D01*
X1281458Y-40031D02*
X1278834Y-37407D01*
X1273586D01*
X1270963Y-40031D01*
Y-50526D01*
X1273586Y-53150D01*
X1278834D01*
X1281458Y-50526D01*
Y-45278D01*
X1276210D01*
X1286705Y-37407D02*
Y-53150D01*
X1294577D01*
X1297201Y-50526D01*
Y-47902D01*
X1294577Y-45278D01*
X1286705D01*
X1294577D01*
X1297201Y-42654D01*
Y-40031D01*
X1294577Y-37407D01*
X1286705D01*
X1302448D02*
Y-53150D01*
X1307696Y-47902D01*
X1312944Y-53150D01*
Y-37407D01*
X1169291Y-131890D02*
X1173883D01*
X1171587D01*
Y-118115D01*
X1169291Y-120411D01*
X1180771Y-118115D02*
X1189954D01*
Y-120411D01*
X1180771Y-129594D01*
Y-131890D01*
X1194546D02*
X1203729Y-122706D01*
X1208321Y-120411D02*
X1210617Y-118115D01*
X1215208D01*
X1217504Y-120411D01*
Y-129594D01*
X1215208Y-131890D01*
X1210617D01*
X1208321Y-129594D01*
Y-120411D01*
X1222096Y-131890D02*
X1226688D01*
X1224392D01*
Y-118115D01*
X1222096Y-120411D01*
X1233575Y-131890D02*
X1242758Y-122706D01*
X1256534Y-131890D02*
X1247350D01*
X1256534Y-122706D01*
Y-120411D01*
X1254238Y-118115D01*
X1249646D01*
X1247350Y-120411D01*
X1261125D02*
X1263421Y-118115D01*
X1268013D01*
X1270309Y-120411D01*
Y-129594D01*
X1268013Y-131890D01*
X1263421D01*
X1261125Y-129594D01*
Y-120411D01*
X1274900Y-131890D02*
X1279492D01*
X1277196D01*
Y-118115D01*
X1274900Y-120411D01*
X1295563Y-118115D02*
X1290971Y-120411D01*
X1286380Y-125002D01*
Y-129594D01*
X1288675Y-131890D01*
X1293267D01*
X1295563Y-129594D01*
Y-127298D01*
X1293267Y-125002D01*
X1286380D01*
X1332677Y-118771D02*
X1335301Y-116147D01*
X1340549D01*
X1343172Y-118771D01*
Y-129266D01*
X1340549Y-131890D01*
X1335301D01*
X1332677Y-129266D01*
Y-118771D01*
X1348420D02*
X1351044Y-116147D01*
X1356292D01*
X1358915Y-118771D01*
Y-129266D01*
X1356292Y-131890D01*
X1351044D01*
X1348420Y-129266D01*
Y-118771D01*
X978347Y-155517D02*
Y-171260D01*
X983594Y-166012D01*
X988842Y-171260D01*
Y-155517D01*
X994089Y-171260D02*
X999337D01*
X996713D01*
Y-160765D01*
X994089D01*
X1007209Y-171260D02*
Y-160765D01*
X1009832D01*
X1012456Y-163388D01*
Y-171260D01*
Y-163388D01*
X1015080Y-160765D01*
X1017704Y-163388D01*
Y-171260D01*
X1022952Y-155517D02*
Y-166012D01*
X1028199Y-171260D01*
X1033447Y-166012D01*
Y-155517D01*
X1049190Y-158141D02*
X1046566Y-155517D01*
X1041318D01*
X1038694Y-158141D01*
Y-168636D01*
X1041318Y-171260D01*
X1046566D01*
X1049190Y-168636D01*
Y-163388D01*
X1043942D01*
D36*
X0Y7874D02*
G03*
X7874Y0I7874J0D01*
G01*
Y181102D02*
G03*
X0Y173228I0J-7874D01*
G01*
X141732D02*
G03*
X133858Y181102I-7874J-0D01*
G01*
Y0D02*
G03*
X141732Y7874I-0J7874D01*
G01*
X38583Y0D02*
G03*
X42520Y3937I-0J3937D01*
G01*
X83465D02*
G03*
X87402Y0I3937J0D01*
G01*
X83464Y38583D02*
G03*
X81496Y40551I-1969J0D01*
G01*
X44488D02*
G03*
X42520Y38583I0J-1969D01*
G01*
X141732Y7874D02*
Y173228D01*
X7874Y181102D02*
X133858D01*
X0Y7874D02*
Y173228D01*
X7874Y0D02*
X38583D01*
X87402D02*
X133858D01*
X42520Y3937D02*
Y38583D01*
X44488Y40551D02*
X81496D01*
X83465Y3937D02*
Y38583D01*
X-224410Y-177165D02*
X1429134D01*
X-224410D02*
Y992126D01*
X1429134Y-177165D02*
Y992126D01*
X-224410D02*
X1429134D01*
X1153543Y-177165D02*
Y-19685D01*
X956693Y-177165D02*
Y-19685D01*
X1429134D01*
X956693Y-137795D02*
X1429134D01*
X1153543Y-98425D02*
X1429134D01*
X1153543Y-59055D02*
X1429134D01*
X1311024Y-137795D02*
Y-98425D01*
X1167322Y-163388D02*
X1163386D01*
Y-169291D01*
X1167322D01*
X1163386Y-166340D02*
X1165354D01*
X1173225Y-164372D02*
X1172241Y-163388D01*
X1170273D01*
X1169289Y-164372D01*
Y-165356D01*
X1170273Y-166340D01*
X1172241D01*
X1173225Y-167324D01*
Y-168307D01*
X1172241Y-169291D01*
X1170273D01*
X1169289Y-168307D01*
X1175193Y-169291D02*
Y-163388D01*
X1178145D01*
X1179129Y-164372D01*
Y-166340D01*
X1178145Y-167324D01*
X1175193D01*
X1181097Y-169291D02*
X1183064D01*
X1182081D01*
Y-163388D01*
X1181097Y-164372D01*
X1189952Y-169291D02*
X1186016D01*
X1189952Y-165356D01*
Y-164372D01*
X1188968Y-163388D01*
X1187000D01*
X1186016Y-164372D01*
X1191920Y-170275D02*
X1195856D01*
X1197824Y-169291D02*
Y-163388D01*
X1200775D01*
X1201759Y-164372D01*
Y-166340D01*
X1200775Y-167324D01*
X1197824D01*
X1199791D02*
X1201759Y-169291D01*
X1207663Y-164372D02*
X1206679Y-163388D01*
X1204711D01*
X1203727Y-164372D01*
Y-168307D01*
X1204711Y-169291D01*
X1206679D01*
X1207663Y-168307D01*
Y-166340D01*
X1205695D01*
X1209631Y-163388D02*
Y-169291D01*
X1212582D01*
X1213566Y-168307D01*
Y-167324D01*
X1212582Y-166340D01*
X1209631D01*
X1212582D01*
X1213566Y-165356D01*
Y-164372D01*
X1212582Y-163388D01*
X1209631D01*
X1215534D02*
Y-169291D01*
X1217502Y-167324D01*
X1219470Y-169291D01*
Y-163388D01*
X1221438Y-170275D02*
X1225374D01*
X1227341Y-164372D02*
X1228325Y-163388D01*
X1230293D01*
X1231277Y-164372D01*
Y-168307D01*
X1230293Y-169291D01*
X1228325D01*
X1227341Y-168307D01*
Y-164372D01*
X1233245D02*
X1234229Y-163388D01*
X1236197D01*
X1237181Y-164372D01*
Y-168307D01*
X1236197Y-169291D01*
X1234229D01*
X1233245Y-168307D01*
Y-164372D01*
X1239149Y-169291D02*
Y-168307D01*
X1240133D01*
Y-169291D01*
X1239149D01*
X1244068D02*
Y-163388D01*
X1247020D01*
X1248004Y-164372D01*
Y-166340D01*
X1247020Y-167324D01*
X1244068D01*
X1253908Y-165356D02*
X1250956D01*
X1249972Y-166340D01*
Y-168307D01*
X1250956Y-169291D01*
X1253908D01*
X1255876Y-163388D02*
Y-169291D01*
X1258827D01*
X1259811Y-168307D01*
Y-167324D01*
Y-166340D01*
X1258827Y-165356D01*
X1255876D01*
X1261779Y-163388D02*
Y-169291D01*
X1264731D01*
X1265715Y-168307D01*
Y-164372D01*
X1264731Y-163388D01*
X1261779D01*
X1268667Y-169291D02*
X1270635D01*
X1271618Y-168307D01*
Y-166340D01*
X1270635Y-165356D01*
X1268667D01*
X1267683Y-166340D01*
Y-168307D01*
X1268667Y-169291D01*
X1277522Y-165356D02*
X1274570D01*
X1273586Y-166340D01*
Y-168307D01*
X1274570Y-169291D01*
X1277522D01*
D56*
X137795Y181102D02*
X171260D01*
X91339Y0D02*
X171260D01*
X167323Y99735D02*
Y181102D01*
Y0D02*
Y78580D01*
X165323Y175102D02*
X167323Y181102D01*
X169323Y175102D01*
X167323Y0D02*
X169323Y6000D01*
X165323D02*
X167323Y0D01*
X83465Y-31496D02*
Y34646D01*
X141732Y-31496D02*
Y169291D01*
X83465Y-27559D02*
X100956D01*
X121454D02*
X141732D01*
X83465D02*
X89465Y-29559D01*
X83465Y-27559D02*
X89465Y-25559D01*
X135732D02*
X141732Y-27559D01*
X135732Y-29559D02*
X141732Y-27559D01*
X42520Y-31496D02*
Y0D01*
X83465Y-31496D02*
Y0D01*
X42520Y-27559D02*
X51349D01*
X71847D02*
X83465D01*
X42520D02*
X48520Y-29559D01*
X42520Y-27559D02*
X48520Y-25559D01*
X77465D02*
X83465Y-27559D01*
X77465Y-29559D02*
X83465Y-27559D01*
X0Y-31496D02*
Y3937D01*
X42520Y-31496D02*
Y0D01*
X0Y-27559D02*
X9617D01*
X30115D02*
X42520D01*
X0D02*
X6000Y-29559D01*
X0Y-27559D02*
X6000Y-25559D01*
X36520D02*
X42520Y-27559D01*
X36520Y-29559D02*
X42520Y-27559D01*
X0Y177165D02*
Y206693D01*
X141732Y177165D02*
Y206693D01*
X0Y202756D02*
X58895D01*
X80050D02*
X141732D01*
X0D02*
X6000Y200756D01*
X0Y202756D02*
X6000Y204756D01*
X135732D02*
X141732Y202756D01*
X135732Y200756D02*
X141732Y202756D01*
X29772Y12747D02*
X39418Y3102D01*
X41367Y1153D01*
X38538Y6810D02*
X41367Y1153D01*
X35710Y3982D02*
X41367Y1153D01*
X-19907Y-11909D02*
X-11909D01*
X2306Y2306D01*
X-3351Y-522D02*
X2306Y2306D01*
X-522Y-3351D02*
X2306Y2306D01*
X26730Y49939D02*
X33132D01*
X43096Y39975D01*
X40268Y45632D02*
X43096Y39975D01*
X37439Y42803D02*
X43096Y39975D01*
D57*
X170340Y81942D02*
X166405D01*
X168372Y79974D01*
Y82598D01*
X166405Y86534D02*
X167061Y85222D01*
X168372Y83910D01*
X169684D01*
X170340Y84566D01*
Y85878D01*
X169684Y86534D01*
X169028D01*
X168372Y85878D01*
Y83910D01*
X170996Y88502D02*
X170340Y89157D01*
X169684D01*
Y88502D01*
X170340D01*
Y89157D01*
X170996Y88502D01*
X171652Y87846D01*
X167061Y91781D02*
X166405Y92437D01*
Y93749D01*
X167061Y94405D01*
X169684D01*
X170340Y93749D01*
Y92437D01*
X169684Y91781D01*
X167061D01*
Y95717D02*
X166405Y96373D01*
Y97685D01*
X167061Y98341D01*
X169684D01*
X170340Y97685D01*
Y96373D01*
X169684Y95717D01*
X167061D01*
X102349Y-30577D02*
X103661D01*
X103005D01*
Y-26641D01*
X102349Y-27297D01*
X107597Y-30577D02*
Y-26641D01*
X105629Y-28609D01*
X108253D01*
X110221Y-31233D02*
X110877Y-30577D01*
Y-29921D01*
X110221D01*
Y-30577D01*
X110877D01*
X110221Y-31233D01*
X109565Y-31888D01*
X113501Y-27297D02*
X114156Y-26641D01*
X115468D01*
X116124Y-27297D01*
Y-27953D01*
X115468Y-28609D01*
X116124Y-29265D01*
Y-29921D01*
X115468Y-30577D01*
X114156D01*
X113501Y-29921D01*
Y-29265D01*
X114156Y-28609D01*
X113501Y-27953D01*
Y-27297D01*
X114156Y-28609D02*
X115468D01*
X117436Y-27297D02*
X118092Y-26641D01*
X119404D01*
X120060Y-27297D01*
Y-29921D01*
X119404Y-30577D01*
X118092D01*
X117436Y-29921D01*
Y-27297D01*
X52743Y-30577D02*
X54055D01*
X53399D01*
Y-26641D01*
X52743Y-27297D01*
X56023D02*
X56679Y-26641D01*
X57991D01*
X58647Y-27297D01*
Y-29921D01*
X57991Y-30577D01*
X56679D01*
X56023Y-29921D01*
Y-27297D01*
X60615Y-31233D02*
X61270Y-30577D01*
Y-29921D01*
X60615D01*
Y-30577D01*
X61270D01*
X60615Y-31233D01*
X59958Y-31888D01*
X65862Y-30577D02*
Y-26641D01*
X63894Y-28609D01*
X66518D01*
X67830Y-27297D02*
X68486Y-26641D01*
X69798D01*
X70454Y-27297D01*
Y-29921D01*
X69798Y-30577D01*
X68486D01*
X67830Y-29921D01*
Y-27297D01*
X11011Y-30577D02*
X12323D01*
X11667D01*
Y-26641D01*
X11011Y-27297D01*
X14290D02*
X14946Y-26641D01*
X16258D01*
X16914Y-27297D01*
Y-29921D01*
X16258Y-30577D01*
X14946D01*
X14290Y-29921D01*
Y-27297D01*
X18882Y-31233D02*
X19538Y-30577D01*
Y-29921D01*
X18882D01*
Y-30577D01*
X19538D01*
X18882Y-31233D01*
X18226Y-31888D01*
X22162Y-27297D02*
X22818Y-26641D01*
X24130D01*
X24786Y-27297D01*
Y-27953D01*
X24130Y-28609D01*
X24786Y-29265D01*
Y-29921D01*
X24130Y-30577D01*
X22818D01*
X22162Y-29921D01*
Y-29265D01*
X22818Y-28609D01*
X22162Y-27953D01*
Y-27297D01*
X22818Y-28609D02*
X24130D01*
X26098Y-27297D02*
X26754Y-26641D01*
X28066D01*
X28722Y-27297D01*
Y-29921D01*
X28066Y-30577D01*
X26754D01*
X26098Y-29921D01*
Y-27297D01*
X60289Y203018D02*
X60945Y203674D01*
X62257D01*
X62913Y203018D01*
Y202362D01*
X62257Y201706D01*
X61601D01*
X62257D01*
X62913Y201050D01*
Y200394D01*
X62257Y199738D01*
X60945D01*
X60289Y200394D01*
X66849Y203674D02*
X65537Y203018D01*
X64225Y201706D01*
Y200394D01*
X64881Y199738D01*
X66193D01*
X66849Y200394D01*
Y201050D01*
X66193Y201706D01*
X64225D01*
X68817Y199082D02*
X69472Y199738D01*
Y200394D01*
X68817D01*
Y199738D01*
X69472D01*
X68817Y199082D01*
X68160Y198426D01*
X72096Y203018D02*
X72752Y203674D01*
X74064D01*
X74720Y203018D01*
Y200394D01*
X74064Y199738D01*
X72752D01*
X72096Y200394D01*
Y203018D01*
X76032D02*
X76688Y203674D01*
X78000D01*
X78656Y203018D01*
Y200394D01*
X78000Y199738D01*
X76688D01*
X76032Y200394D01*
Y203018D01*
X6339Y9730D02*
Y13666D01*
X8306D01*
X8962Y13010D01*
Y11698D01*
X8306Y11042D01*
X6339D01*
X7650D02*
X8962Y9730D01*
X14210D02*
X15522D01*
X14866D01*
Y13666D01*
X14210Y13010D01*
X18146Y9074D02*
X18802Y9730D01*
Y10386D01*
X18146D01*
Y9730D01*
X18802D01*
X18146Y9074D01*
X17490Y8418D01*
X21426Y13010D02*
X22082Y13666D01*
X23393D01*
X24049Y13010D01*
Y10386D01*
X23393Y9730D01*
X22082D01*
X21426Y10386D01*
Y13010D01*
X25361D02*
X26017Y13666D01*
X27329D01*
X27985Y13010D01*
Y10386D01*
X27329Y9730D01*
X26017D01*
X25361Y10386D01*
Y13010D01*
X-43997Y-14927D02*
Y-10991D01*
X-42029D01*
X-41373Y-11647D01*
Y-12959D01*
X-42029Y-13615D01*
X-43997D01*
X-42685D02*
X-41373Y-14927D01*
X-33501D02*
X-36125D01*
X-33501Y-12303D01*
Y-11647D01*
X-34157Y-10991D01*
X-35469D01*
X-36125Y-11647D01*
X-31534Y-15583D02*
X-30878Y-14927D01*
Y-14271D01*
X-31534D01*
Y-14927D01*
X-30878D01*
X-31534Y-15583D01*
X-32190Y-16239D01*
X-28254Y-11647D02*
X-27598Y-10991D01*
X-26286D01*
X-25630Y-11647D01*
Y-14271D01*
X-26286Y-14927D01*
X-27598D01*
X-28254Y-14271D01*
Y-11647D01*
X-24318D02*
X-23662Y-10991D01*
X-22350D01*
X-21694Y-11647D01*
Y-14271D01*
X-22350Y-14927D01*
X-23662D01*
X-24318Y-14271D01*
Y-11647D01*
X2640Y46921D02*
Y50857D01*
X4608D01*
X5264Y50201D01*
Y48889D01*
X4608Y48233D01*
X2640D01*
X3952D02*
X5264Y46921D01*
X10512Y50201D02*
X11168Y50857D01*
X12480D01*
X13136Y50201D01*
Y47577D01*
X12480Y46921D01*
X11168D01*
X10512Y47577D01*
Y50201D01*
X15104Y46265D02*
X15759Y46921D01*
Y47577D01*
X15104D01*
Y46921D01*
X15759D01*
X15104Y46265D01*
X14448Y45609D01*
X21007Y50857D02*
X18383D01*
Y48889D01*
X19695Y49545D01*
X20351D01*
X21007Y48889D01*
Y47577D01*
X20351Y46921D01*
X19039D01*
X18383Y47577D01*
X22319Y50201D02*
X22975Y50857D01*
X24287D01*
X24943Y50201D01*
Y47577D01*
X24287Y46921D01*
X22975D01*
X22319Y47577D01*
Y50201D01*
M02*
