G04 Layer_Physical_Order=1*
G04 Layer_Color=48896*
%FSLAX25Y25*%
%MOIN*%
G70*
G01*
G75*
%ADD10C,0.00591*%
%ADD11C,0.00787*%
%ADD12C,0.00984*%
%ADD13C,0.01969*%
%ADD14C,0.02756*%
%ADD15C,0.02362*%
%ADD16R,0.04331X0.03937*%
%ADD17R,0.03937X0.04331*%
G04:AMPARAMS|DCode=18|XSize=78.74mil|YSize=43.31mil|CornerRadius=0mil|HoleSize=0mil|Usage=FLASHONLY|Rotation=135.000|XOffset=0mil|YOffset=0mil|HoleType=Round|Shape=Rectangle|*
%AMROTATEDRECTD18*
4,1,4,0.04315,-0.01253,0.01253,-0.04315,-0.04315,0.01253,-0.01253,0.04315,0.04315,-0.01253,0.0*
%
%ADD18ROTATEDRECTD18*%

G04:AMPARAMS|DCode=19|XSize=43.31mil|YSize=78.74mil|CornerRadius=0mil|HoleSize=0mil|Usage=FLASHONLY|Rotation=135.000|XOffset=0mil|YOffset=0mil|HoleType=Round|Shape=Rectangle|*
%AMROTATEDRECTD19*
4,1,4,0.04315,0.01253,-0.01253,-0.04315,-0.04315,-0.01253,0.01253,0.04315,0.04315,0.01253,0.0*
%
%ADD19ROTATEDRECTD19*%

%ADD20R,0.03937X0.03347*%
%ADD21R,0.03937X0.03347*%
%ADD22R,0.03347X0.03937*%
%ADD23R,0.03347X0.03937*%
%ADD24R,0.03937X0.02362*%
%ADD25R,0.06299X0.07087*%
%ADD26R,0.02362X0.06102*%
%ADD27R,0.04724X0.07874*%
%ADD28R,0.02362X0.01181*%
%ADD29R,0.01575X0.05315*%
%ADD30R,0.05906X0.03543*%
%ADD31R,0.03937X0.08858*%
%ADD32R,0.08858X0.03937*%
G04:AMPARAMS|DCode=33|XSize=74.8mil|YSize=125.98mil|CornerRadius=0mil|HoleSize=0mil|Usage=FLASHONLY|Rotation=90.000|XOffset=0mil|YOffset=0mil|HoleType=Round|Shape=Octagon|*
%AMOCTAGOND33*
4,1,8,-0.06299,-0.01870,-0.06299,0.01870,-0.04429,0.03740,0.04429,0.03740,0.06299,0.01870,0.06299,-0.01870,0.04429,-0.03740,-0.04429,-0.03740,-0.06299,-0.01870,0.0*
%
%ADD33OCTAGOND33*%

%ADD34R,0.05512X0.02362*%
%ADD35R,0.07087X0.02362*%
%ADD36R,0.01181X0.03150*%
%ADD37R,0.05906X0.02756*%
%ADD38R,0.03543X0.03937*%
%ADD39R,0.05118X0.05906*%
%ADD40C,0.01575*%
%ADD41C,0.01181*%
%ADD42C,0.05512*%
G04:AMPARAMS|DCode=43|XSize=55.12mil|YSize=55.12mil|CornerRadius=13.78mil|HoleSize=0mil|Usage=FLASHONLY|Rotation=90.000|XOffset=0mil|YOffset=0mil|HoleType=Round|Shape=RoundedRectangle|*
%AMROUNDEDRECTD43*
21,1,0.05512,0.02756,0,0,90.0*
21,1,0.02756,0.05512,0,0,90.0*
1,1,0.02756,0.01378,0.01378*
1,1,0.02756,0.01378,-0.01378*
1,1,0.02756,-0.01378,-0.01378*
1,1,0.02756,-0.01378,0.01378*
%
%ADD43ROUNDEDRECTD43*%
%ADD44R,0.05906X0.05906*%
%ADD45C,0.05906*%
G04:AMPARAMS|DCode=46|XSize=66.93mil|YSize=55.12mil|CornerRadius=13.78mil|HoleSize=0mil|Usage=FLASHONLY|Rotation=90.000|XOffset=0mil|YOffset=0mil|HoleType=Round|Shape=RoundedRectangle|*
%AMROUNDEDRECTD46*
21,1,0.06693,0.02756,0,0,90.0*
21,1,0.03937,0.05512,0,0,90.0*
1,1,0.02756,0.01378,0.01969*
1,1,0.02756,0.01378,-0.01969*
1,1,0.02756,-0.01378,-0.01969*
1,1,0.02756,-0.01378,0.01969*
%
%ADD46ROUNDEDRECTD46*%
%ADD47C,0.05118*%
%ADD48C,0.10236*%
%ADD49C,0.02756*%
G36*
X9055Y63386D02*
X11609D01*
Y62008D01*
X10433D01*
Y54134D01*
X11609D01*
Y48946D01*
X11612Y48906D01*
X11596Y48541D01*
X11543Y48138D01*
X11455Y47742D01*
X11333Y47355D01*
X11177Y46979D01*
X10990Y46619D01*
X10772Y46277D01*
X10568Y46012D01*
X10495Y45951D01*
X9361Y45827D01*
X9335Y45853D01*
X2376Y38893D01*
X6830Y34439D01*
X13789Y41399D01*
X13236Y41952D01*
X13595Y42311D01*
X13596Y42311D01*
X14015Y42759D01*
X14404Y43233D01*
X14762Y43733D01*
X15086Y44254D01*
X15376Y44796D01*
X15629Y45355D01*
X15846Y45930D01*
X16024Y46518D01*
X16163Y47116D01*
X16263Y47722D01*
X16323Y48333D01*
X16343Y48945D01*
X16344Y48946D01*
Y49700D01*
X31890D01*
Y48229D01*
X31890D01*
Y48229D01*
X31890D01*
Y42323D01*
X35134D01*
Y40354D01*
X33465D01*
Y38189D01*
X32972D01*
Y37697D01*
X30020D01*
Y36583D01*
X29714Y36547D01*
X29265Y36458D01*
X28825Y36334D01*
X28396Y36175D01*
X27980Y35984D01*
X27581Y35760D01*
X27200Y35506D01*
X26841Y35223D01*
X26510Y34916D01*
X26505Y34912D01*
X23391Y31798D01*
X22698Y32490D01*
X15738Y25530D01*
X17798Y23471D01*
X17771Y23056D01*
X17468Y22409D01*
X17093Y22328D01*
X16463Y22152D01*
X15844Y21939D01*
X15240Y21689D01*
X14651Y21402D01*
X14081Y21081D01*
X13532Y20725D01*
X13005Y20338D01*
X12502Y19919D01*
X12026Y19470D01*
X11577Y18994D01*
X11158Y18491D01*
X10771Y17964D01*
X10415Y17415D01*
X10094Y16845D01*
X9808Y16256D01*
X9557Y15652D01*
X9344Y15033D01*
X9168Y14403D01*
X9031Y13763D01*
X8932Y13117D01*
X8873Y12465D01*
X8853Y11811D01*
X8873Y11157D01*
X8876Y11129D01*
X8873Y11118D01*
X8854Y10925D01*
Y1382D01*
X7874D01*
X7839Y1379D01*
X7364Y1398D01*
X6858Y1458D01*
X6358Y1558D01*
X5867Y1696D01*
X5388Y1873D01*
X4925Y2086D01*
X4480Y2335D01*
X4056Y2619D01*
X3655Y2935D01*
X3281Y3281D01*
X2935Y3655D01*
X2619Y4056D01*
X2335Y4480D01*
X2086Y4925D01*
X1873Y5388D01*
X1696Y5867D01*
X1558Y6358D01*
X1458Y6858D01*
X1398Y7364D01*
X1379Y7839D01*
X1382Y7874D01*
Y64613D01*
X1968Y65355D01*
X7874D01*
Y67221D01*
X9055D01*
Y63386D01*
D02*
G37*
G36*
X91929Y36856D02*
X91911Y36835D01*
X91901Y36826D01*
X89946Y34871D01*
X89946Y34872D01*
X89704Y34606D01*
X89491Y34317D01*
X89490Y34317D01*
X89306Y34009D01*
X89152Y33684D01*
X89031Y33346D01*
X88944Y32998D01*
X88944Y32997D01*
X88891Y32642D01*
X88873Y32283D01*
X88550Y31433D01*
X88513Y31389D01*
X88500Y31378D01*
X88499Y31377D01*
X88498Y31376D01*
X87282Y30160D01*
X87281Y30160D01*
X86370Y29248D01*
X86154Y29350D01*
X85790Y29481D01*
X85415Y29575D01*
X85032Y29632D01*
X84646Y29650D01*
X84259Y29632D01*
X83877Y29575D01*
X83501Y29481D01*
X83137Y29350D01*
X82788Y29185D01*
X82456Y28986D01*
X82145Y28756D01*
X81858Y28496D01*
X81599Y28209D01*
X81368Y27899D01*
X81169Y27567D01*
X81004Y27217D01*
X80874Y26853D01*
X80780Y26478D01*
X80723Y26095D01*
X80704Y25709D01*
X80723Y25322D01*
X80780Y24940D01*
X80874Y24564D01*
X81004Y24200D01*
X81169Y23851D01*
X81368Y23519D01*
X81599Y23208D01*
X81858Y22921D01*
X82145Y22662D01*
X82456Y22431D01*
X82788Y22232D01*
X83137Y22067D01*
X83501Y21937D01*
X83877Y21843D01*
X84259Y21786D01*
X84646Y21767D01*
X85032Y21786D01*
X85415Y21843D01*
X85790Y21937D01*
X86154Y22067D01*
X86504Y22232D01*
X86836Y22431D01*
X87146Y22662D01*
X87433Y22921D01*
X87693Y23208D01*
X87923Y23519D01*
X88122Y23851D01*
X88287Y24200D01*
X88418Y24564D01*
X88512Y24940D01*
X88568Y25322D01*
X88587Y25709D01*
X88568Y26095D01*
X88512Y26478D01*
X88418Y26853D01*
X88287Y27217D01*
X88185Y27433D01*
X89096Y28344D01*
X89097Y28344D01*
X90313Y29561D01*
X90314Y29561D01*
X90568Y29841D01*
X90647Y29948D01*
X90667Y29972D01*
X90672Y29977D01*
X90679Y29986D01*
X90684Y29991D01*
X90707Y30028D01*
X90792Y30144D01*
X90793Y30144D01*
X90987Y30468D01*
X91149Y30810D01*
X91276Y31166D01*
X91368Y31532D01*
X91368Y31532D01*
X91416Y31858D01*
X91559Y31958D01*
X92421Y32184D01*
X92653Y31980D01*
X92911Y31808D01*
X93189Y31671D01*
X93482Y31572D01*
X93786Y31511D01*
X94095Y31491D01*
X94403Y31511D01*
X94707Y31572D01*
X95000Y31671D01*
X95173Y31756D01*
X95589Y31619D01*
X96085Y31318D01*
X96157Y31231D01*
Y27953D01*
X95866D01*
Y25394D01*
Y22835D01*
X98253D01*
X98660Y21850D01*
X94288Y17478D01*
X94288Y17478D01*
X94286Y17476D01*
X94277Y17465D01*
X94030Y17196D01*
X93798Y16894D01*
X93593Y16572D01*
X93417Y16234D01*
X93271Y15882D01*
X93157Y15518D01*
X93120Y15355D01*
X90551D01*
Y9055D01*
X90551D01*
Y8662D01*
X90551D01*
Y6004D01*
X93504D01*
Y5020D01*
X90551D01*
Y2362D01*
X90551D01*
X90541Y1382D01*
X89406D01*
X88583Y1772D01*
X88583Y2366D01*
Y5217D01*
X84646D01*
X80709D01*
Y2366D01*
X80709Y1772D01*
X79886Y1382D01*
X64090D01*
X63782Y2366D01*
X63934Y2472D01*
X64350Y2808D01*
X64742Y3172D01*
X65106Y3563D01*
X65441Y3979D01*
X65746Y4418D01*
X66018Y4877D01*
X66258Y5355D01*
X66435Y5783D01*
X66438Y5790D01*
X66440Y5796D01*
X66462Y5849D01*
X66631Y6356D01*
X66763Y6874D01*
X66858Y7399D01*
X66915Y7931D01*
X66934Y8465D01*
X66933D01*
Y27237D01*
X66951Y27241D01*
X67244Y27340D01*
X67522Y27477D01*
X67780Y27650D01*
X68012Y27854D01*
X68217Y28087D01*
X68352Y28289D01*
X68504Y28344D01*
X69292D01*
X69443Y28289D01*
X69579Y28087D01*
X69783Y27854D01*
X70016Y27650D01*
X70273Y27477D01*
X70551Y27340D01*
X70844Y27241D01*
X71148Y27180D01*
X71457Y27160D01*
X72342D01*
Y31496D01*
X72835D01*
Y31988D01*
X76580D01*
Y33465D01*
X76560Y33774D01*
X76499Y34077D01*
X76400Y34370D01*
X76263Y34648D01*
X76091Y34906D01*
X75886Y35138D01*
X75780Y35232D01*
X75841Y35694D01*
X76118Y36216D01*
X78658D01*
X78697Y36219D01*
X79168Y36200D01*
X79675Y36140D01*
X80175Y36041D01*
X80666Y35902D01*
X80713Y35885D01*
X80704Y35709D01*
X80723Y35322D01*
X80780Y34940D01*
X80874Y34564D01*
X81004Y34200D01*
X81169Y33850D01*
X81368Y33519D01*
X81599Y33208D01*
X81858Y32921D01*
X82145Y32662D01*
X82456Y32431D01*
X82788Y32232D01*
X83137Y32067D01*
X83501Y31937D01*
X83877Y31843D01*
X84259Y31786D01*
X84646Y31767D01*
X85032Y31786D01*
X85415Y31843D01*
X85790Y31937D01*
X86154Y32067D01*
X86504Y32232D01*
X86836Y32431D01*
X87146Y32662D01*
X87433Y32921D01*
X87693Y33208D01*
X87923Y33519D01*
X88122Y33850D01*
X88287Y34200D01*
X88418Y34564D01*
X88512Y34940D01*
X88568Y35322D01*
X88587Y35709D01*
X88568Y36095D01*
X88512Y36478D01*
X88418Y36853D01*
X88287Y37217D01*
X88122Y37567D01*
X87923Y37899D01*
X87693Y38209D01*
X87433Y38496D01*
X87233Y38677D01*
X87259Y38993D01*
X87577Y39661D01*
X91929D01*
Y36856D01*
D02*
G37*
G36*
X90551Y97638D02*
Y92323D01*
X90551Y91732D01*
X90551Y90748D01*
Y88878D01*
X96063D01*
Y90748D01*
X96063Y91339D01*
X96063Y92580D01*
X96457Y93401D01*
X96900Y93420D01*
X97339Y93478D01*
X97340Y93478D01*
X97403Y93492D01*
X97773Y93574D01*
X98196Y93707D01*
X98606Y93877D01*
X98999Y94082D01*
X99318Y94285D01*
X99373Y94320D01*
X99374Y94321D01*
X99725Y94590D01*
X100052Y94890D01*
X100052Y94890D01*
X100348Y95210D01*
X100617Y95553D01*
X100860Y95915D01*
X101073Y96295D01*
X101255Y96691D01*
X101406Y97100D01*
X101473Y97337D01*
X102457Y97201D01*
Y93945D01*
X102457Y93945D01*
X102473Y93621D01*
X102520Y93301D01*
X102520Y93301D01*
X102599Y92987D01*
X102708Y92682D01*
X102847Y92390D01*
X103013Y92112D01*
X103206Y91852D01*
X103423Y91612D01*
X103422Y91611D01*
X103711Y91350D01*
X104024Y91118D01*
X104025Y91118D01*
X104167Y91032D01*
X104167Y91032D01*
X104168Y91031D01*
X104359Y90917D01*
X104711Y90750D01*
X105078Y90619D01*
X105295Y90565D01*
X105457Y90524D01*
X105457Y90524D01*
X105842Y90467D01*
X106232Y90448D01*
X106693Y89655D01*
Y88878D01*
X109449D01*
Y87894D01*
X106693D01*
Y87079D01*
X106568Y86918D01*
X105709Y86484D01*
X105658Y86509D01*
X105219Y86691D01*
X104768Y86841D01*
X104308Y86958D01*
X103840Y87043D01*
X103367Y87094D01*
X102892Y87111D01*
X102756Y87111D01*
X102258Y87093D01*
X101762Y87040D01*
X101271Y86951D01*
X100788Y86828D01*
X100314Y86670D01*
X99853Y86479D01*
X99407Y86256D01*
X98978Y86001D01*
X98569Y85717D01*
X98180Y85404D01*
X97912Y85154D01*
X97818Y85066D01*
X97815Y85064D01*
X97816Y85064D01*
X97816Y85064D01*
X94937Y82185D01*
X90748D01*
Y78390D01*
X89350Y76992D01*
X88368D01*
X88287Y77217D01*
X88122Y77567D01*
X87923Y77899D01*
X87693Y78209D01*
X87433Y78496D01*
X87146Y78756D01*
X86836Y78986D01*
X86504Y79185D01*
X86154Y79350D01*
X85790Y79481D01*
X85415Y79575D01*
X85032Y79631D01*
X84646Y79650D01*
X84259Y79631D01*
X83877Y79575D01*
X83501Y79481D01*
X83137Y79350D01*
X82921Y79248D01*
X81382Y80787D01*
X81790Y81772D01*
X84154D01*
Y85709D01*
Y89646D01*
X81402D01*
X80709Y89646D01*
X80417Y90509D01*
Y96687D01*
X80418Y96687D01*
X80401Y96982D01*
X80352Y97272D01*
X80352Y97272D01*
X80303Y97441D01*
X80441Y97814D01*
X80740Y98266D01*
X80951Y98426D01*
X86418D01*
Y98426D01*
X86811D01*
Y98426D01*
X90077D01*
X90551Y97638D01*
D02*
G37*
G36*
X73819Y91536D02*
X77850D01*
Y81221D01*
X77866Y81020D01*
X77913Y80824D01*
X77990Y80638D01*
X78096Y80466D01*
X78226Y80313D01*
X81106Y77433D01*
X81004Y77217D01*
X80874Y76853D01*
X80780Y76478D01*
X80732Y76158D01*
X80575Y76048D01*
X79722Y75776D01*
X71253Y84245D01*
X71252Y84246D01*
X71251Y84247D01*
X71229Y84265D01*
X70975Y84543D01*
X70727Y84866D01*
X70508Y85210D01*
X70320Y85571D01*
X70164Y85948D01*
X70042Y86336D01*
X69954Y86734D01*
X69900Y87138D01*
X69892Y87332D01*
X69886Y88314D01*
X69868Y88739D01*
X69812Y89161D01*
X69812Y89162D01*
X69791Y89258D01*
X69720Y89578D01*
X69592Y89984D01*
X69429Y90377D01*
X69339Y90551D01*
X69567Y91145D01*
X69902Y91536D01*
X72835D01*
Y94488D01*
X73819D01*
Y91536D01*
D02*
G37*
G36*
X70243Y73588D02*
X70625Y73233D01*
X70647Y73207D01*
X72148Y71706D01*
X72172Y71686D01*
X72540Y71292D01*
X72902Y70851D01*
X73235Y70388D01*
X73536Y69903D01*
X73805Y69400D01*
X74041Y68880D01*
X74242Y68346D01*
X74407Y67800D01*
X74537Y67244D01*
X74630Y66681D01*
X74686Y66113D01*
X74703Y65574D01*
X74701Y65543D01*
Y61371D01*
X74557Y61163D01*
X74005Y60769D01*
X73716Y60677D01*
X73537Y60713D01*
X73228Y60733D01*
X72919Y60713D01*
X72616Y60653D01*
X72322Y60553D01*
X72045Y60416D01*
X71787Y60244D01*
X71554Y60040D01*
X71350Y59807D01*
X71178Y59550D01*
X71041Y59272D01*
X70942Y58979D01*
X70881Y58675D01*
X70861Y58366D01*
X70881Y58057D01*
X70942Y57753D01*
X71041Y57460D01*
X71178Y57183D01*
X71350Y56925D01*
X71554Y56692D01*
X71787Y56488D01*
X71945Y56383D01*
Y54536D01*
X71944D01*
X71962Y53903D01*
X72015Y53272D01*
X72104Y52646D01*
X72227Y52025D01*
X72385Y51412D01*
X72578Y50809D01*
X72803Y50218D01*
X73062Y49640D01*
X73352Y49078D01*
X73674Y48532D01*
X74026Y48006D01*
X74406Y47500D01*
X74814Y47017D01*
X75249Y46557D01*
X75250Y46557D01*
X78841Y42966D01*
X78840Y42966D01*
X79300Y42531D01*
X79784Y42123D01*
X80290Y41742D01*
X80816Y41390D01*
X81361Y41069D01*
X81923Y40778D01*
X82073Y40712D01*
X82260Y40396D01*
X82199Y39751D01*
X82142Y39608D01*
X82061Y39587D01*
X81764Y39689D01*
X81156Y39859D01*
X80540Y39991D01*
X79916Y40086D01*
X79288Y40143D01*
X78658Y40162D01*
Y40162D01*
X74356D01*
Y40162D01*
X73720Y40144D01*
X73085Y40091D01*
X72455Y40002D01*
X71831Y39877D01*
X71214Y39718D01*
X70608Y39525D01*
X70013Y39298D01*
X69432Y39038D01*
X68866Y38746D01*
X68318Y38423D01*
X67789Y38069D01*
X67280Y37686D01*
X66794Y37275D01*
X66331Y36838D01*
X66331Y36838D01*
X65325Y35832D01*
X63583D01*
X63274Y35812D01*
X62970Y35751D01*
X62677Y35652D01*
X62399Y35515D01*
X62142Y35343D01*
X61909Y35138D01*
X61705Y34906D01*
X61569Y34703D01*
X61418Y34648D01*
X60630D01*
X60478Y34703D01*
X60343Y34906D01*
X60138Y35138D01*
X59906Y35343D01*
X59648Y35515D01*
X59370Y35652D01*
X59077Y35751D01*
X58774Y35812D01*
X58465Y35832D01*
X57579D01*
Y31496D01*
Y27160D01*
X58465D01*
X58774Y27180D01*
X59077Y27241D01*
X59370Y27340D01*
X59648Y27477D01*
X59906Y27650D01*
X60138Y27854D01*
X60343Y28087D01*
X60478Y28289D01*
X60630Y28344D01*
X61418D01*
X61569Y28289D01*
X61705Y28087D01*
X61909Y27854D01*
X62142Y27650D01*
X62399Y27477D01*
X62677Y27340D01*
X62970Y27241D01*
X62988Y27237D01*
Y8465D01*
X62990Y8435D01*
X62974Y8117D01*
X62923Y7773D01*
X62839Y7436D01*
X62766Y7232D01*
X62722Y7109D01*
X62573Y6795D01*
X62394Y6497D01*
X62187Y6217D01*
X61954Y5960D01*
X61696Y5726D01*
X61417Y5519D01*
X61119Y5340D01*
X61082Y5323D01*
X60869Y5438D01*
X60215Y6202D01*
X60364Y6516D01*
X60481Y6844D01*
X60566Y7182D01*
X60617Y7526D01*
X60634Y7874D01*
X60617Y8222D01*
X60566Y8566D01*
X60481Y8904D01*
X60364Y9232D01*
X60215Y9546D01*
X60036Y9845D01*
X59829Y10125D01*
X59595Y10383D01*
X59337Y10616D01*
X59057Y10824D01*
X58759Y11003D01*
X58444Y11152D01*
X58116Y11269D01*
X57779Y11353D01*
X57434Y11405D01*
X57087Y11422D01*
X56739Y11405D01*
X56394Y11353D01*
X56057Y11269D01*
X55729Y11152D01*
X55414Y11003D01*
X55116Y10824D01*
X54836Y10616D01*
X54578Y10383D01*
X54344Y10125D01*
X54137Y9845D01*
X53958Y9546D01*
X53809Y9232D01*
X53692Y8904D01*
X53607Y8566D01*
X53556Y8222D01*
X53539Y7874D01*
X53556Y7526D01*
X53607Y7182D01*
X53692Y6844D01*
X53809Y6516D01*
X53958Y6202D01*
X54137Y5903D01*
X53803Y5080D01*
X53649Y4925D01*
X51807D01*
X50984Y5315D01*
Y9350D01*
X46850D01*
Y9843D01*
X46358D01*
Y14370D01*
X45703D01*
X44882Y14764D01*
X44882Y15354D01*
Y17225D01*
X41733D01*
Y18209D01*
X44882D01*
Y19685D01*
X44882Y20670D01*
X44882Y21654D01*
Y26575D01*
X41835D01*
Y28543D01*
X46752D01*
Y29441D01*
X46821Y29445D01*
X47181Y29506D01*
X47531Y29607D01*
X47868Y29746D01*
X48188Y29923D01*
X48485Y30134D01*
X48757Y30377D01*
X49000Y30649D01*
X49211Y30946D01*
X49388Y31266D01*
X49527Y31603D01*
X49628Y31953D01*
X49628Y31954D01*
X49689Y32313D01*
X49710Y32677D01*
X49709D01*
Y41705D01*
X49710D01*
X49689Y42276D01*
X49628Y42845D01*
X49527Y43407D01*
X49386Y43960D01*
X49205Y44503D01*
X48987Y45031D01*
X48731Y45542D01*
X48439Y46033D01*
X48113Y46502D01*
X47755Y46947D01*
X47365Y47365D01*
X46669Y48061D01*
X44882Y49847D01*
Y53651D01*
X45487Y53946D01*
X45867Y53982D01*
X45979Y53853D01*
X46212Y53649D01*
X46470Y53477D01*
X46747Y53340D01*
X47041Y53241D01*
X47344Y53180D01*
X47653Y53160D01*
X48539D01*
Y56905D01*
Y60650D01*
X47653D01*
X47344Y60630D01*
X47041Y60570D01*
X46747Y60470D01*
X46470Y60333D01*
X46212Y60161D01*
X45979Y59957D01*
X45866Y59828D01*
X45341Y59877D01*
X45183Y59933D01*
X44882Y60158D01*
X44882Y61023D01*
Y62693D01*
X65945D01*
X65945Y62692D01*
X66297Y62712D01*
X66645Y62771D01*
X66645Y62771D01*
X66985Y62869D01*
X67311Y63004D01*
X67620Y63174D01*
X67908Y63379D01*
X68171Y63614D01*
X68406Y63877D01*
X68611Y64165D01*
X68781Y64474D01*
X68916Y64800D01*
X69014Y65140D01*
X69014Y65140D01*
X69073Y65488D01*
X69093Y65840D01*
X69092D01*
Y73137D01*
X69084Y73243D01*
X69458Y73627D01*
X69595Y73697D01*
X69960Y73817D01*
X70243Y73588D01*
D02*
G37*
G36*
X105766Y83367D02*
X105786Y83345D01*
X107265Y81865D01*
X107961Y81169D01*
X108257Y80897D01*
X108576Y80653D01*
X108576Y80652D01*
X108699Y80574D01*
X108916Y80436D01*
X109272Y80251D01*
X109644Y80097D01*
X110027Y79976D01*
X110420Y79889D01*
X110819Y79836D01*
X110827Y79836D01*
Y78150D01*
X115419D01*
X116240Y77756D01*
Y71850D01*
X121555D01*
Y73435D01*
X121675Y73440D01*
X122086Y73501D01*
X122489Y73602D01*
X122880Y73742D01*
X123256Y73920D01*
X123512Y74074D01*
X123612Y74134D01*
X123613Y74134D01*
X123618Y74138D01*
X124519Y73743D01*
X124602Y73650D01*
Y68307D01*
X123130D01*
Y65354D01*
Y62402D01*
X124602D01*
Y35542D01*
X123693Y35166D01*
X122638Y36220D01*
X118209D01*
Y31496D01*
Y26772D01*
X122638D01*
X123693Y27827D01*
X124602Y27450D01*
Y7874D01*
X124605Y7839D01*
X124586Y7364D01*
X124526Y6858D01*
X124427Y6358D01*
X124288Y5867D01*
X124112Y5388D01*
X123898Y4925D01*
X123649Y4480D01*
X123366Y4056D01*
X123050Y3655D01*
X122704Y3281D01*
X122329Y2935D01*
X121928Y2619D01*
X121504Y2335D01*
X121059Y2086D01*
X120596Y1873D01*
X120118Y1696D01*
X119627Y1558D01*
X119126Y1458D01*
X118620Y1398D01*
X118146Y1379D01*
X118110Y1382D01*
X117131D01*
Y10925D01*
X117112Y11118D01*
X117109Y11129D01*
X117111Y11157D01*
X117131Y11811D01*
X117111Y12465D01*
X117052Y13117D01*
X116954Y13763D01*
X116816Y14403D01*
X116640Y15033D01*
X116427Y15652D01*
X116177Y16256D01*
X115890Y16845D01*
X115569Y17415D01*
X115214Y17964D01*
X114826Y18491D01*
X114407Y18994D01*
X113958Y19470D01*
X113482Y19919D01*
X112979Y20338D01*
X112452Y20725D01*
X111903Y21081D01*
X111333Y21402D01*
X110745Y21689D01*
X110140Y21939D01*
X109522Y22152D01*
X108891Y22328D01*
X108365Y22441D01*
X108470Y23425D01*
X110827D01*
Y25394D01*
X111024D01*
Y27257D01*
X111933Y27634D01*
X112795Y26772D01*
X117224D01*
Y31496D01*
Y36220D01*
X112795D01*
X111933Y35358D01*
X111024Y35735D01*
Y37598D01*
X110827D01*
Y39567D01*
X109089D01*
X108712Y40476D01*
X110559Y42323D01*
X115354D01*
X115945Y42323D01*
X116929Y42323D01*
X119390D01*
Y46260D01*
X119882D01*
Y46752D01*
X123425D01*
Y50197D01*
X120866D01*
X119882Y50197D01*
X119882Y51181D01*
Y52658D01*
X116733D01*
Y53642D01*
X119882D01*
Y55118D01*
X119882Y56103D01*
X119882Y57087D01*
Y58563D01*
X116733D01*
Y59548D01*
X119882D01*
Y61458D01*
X119942Y62037D01*
X120703Y62402D01*
X122146D01*
Y64862D01*
X119980D01*
Y62952D01*
X119920Y62373D01*
X119159Y62008D01*
X118636D01*
X117815Y62402D01*
Y68307D01*
X112500D01*
X112401Y69095D01*
X112401Y70079D01*
Y72146D01*
X109449D01*
Y72638D01*
X108956D01*
Y75788D01*
X107087D01*
X106496Y75788D01*
X106102Y76609D01*
Y78445D01*
X103744D01*
Y81547D01*
X103803Y81586D01*
X104036Y81791D01*
X104240Y82024D01*
X104412Y82281D01*
X104549Y82559D01*
X104649Y82852D01*
X104677Y82995D01*
X104984Y83230D01*
X105703Y83424D01*
X105766Y83367D01*
D02*
G37*
G36*
X43007Y71850D02*
X39862D01*
Y69095D01*
X39370D01*
Y68602D01*
X35433D01*
Y66929D01*
X35433Y66339D01*
X34612Y65945D01*
X31889D01*
Y63484D01*
X35039D01*
Y62500D01*
X31889D01*
Y61023D01*
X31889Y60039D01*
X31889Y59055D01*
Y57578D01*
X35039D01*
Y56594D01*
X31889D01*
Y54133D01*
X31890D01*
Y52662D01*
X16848D01*
X16552Y53647D01*
X17040Y54134D01*
X17520D01*
X18504Y54134D01*
X20965D01*
Y58071D01*
Y62008D01*
X18504D01*
X17913Y62008D01*
X17040Y62008D01*
X16646Y62402D01*
X17054Y63386D01*
X17323D01*
Y72441D01*
X18144Y72834D01*
X19257D01*
X20079Y72441D01*
X20079Y71850D01*
Y68405D01*
X24213D01*
X28346D01*
Y71851D01*
X28346Y72014D01*
X28613Y72569D01*
X29168Y72835D01*
X35040D01*
Y72998D01*
X35433Y73819D01*
X43007D01*
Y71850D01*
D02*
G37*
G36*
X120157Y149390D02*
X120502Y149331D01*
X120839Y149234D01*
X121163Y149100D01*
X121470Y148930D01*
X121756Y148727D01*
X122017Y148494D01*
X122251Y148232D01*
X122454Y147946D01*
X122623Y147640D01*
X122757Y147316D01*
X122854Y146979D01*
X122913Y146633D01*
X122931Y146313D01*
X122929Y146283D01*
Y129359D01*
X122587Y129068D01*
X121962Y128839D01*
X121363Y129528D01*
X121344Y129858D01*
X121289Y130183D01*
X121289Y130183D01*
X121197Y130501D01*
X121071Y130806D01*
X120911Y131096D01*
X120911Y131096D01*
X120720Y131365D01*
X120500Y131612D01*
X119805Y132305D01*
X119802Y132308D01*
X119586Y132502D01*
X119345Y132672D01*
X119345Y132672D01*
X119087Y132815D01*
X119087Y132815D01*
X119040Y132834D01*
X118862Y132908D01*
X118815Y132928D01*
X118815Y132928D01*
X118532Y133009D01*
X118531Y133009D01*
X118241Y133059D01*
X117947Y133075D01*
Y133075D01*
X116535D01*
X116535Y133075D01*
X116245Y133059D01*
X115958Y133010D01*
X115957Y133010D01*
X115678Y132929D01*
X115678Y132929D01*
X115621Y132906D01*
X115465Y132841D01*
X115409Y132818D01*
X115409Y132818D01*
X115154Y132677D01*
X115154Y132677D01*
X114916Y132508D01*
X114699Y132314D01*
X114003Y131618D01*
X113189Y130804D01*
X112205Y131212D01*
Y136024D01*
X106693D01*
Y134453D01*
X103252D01*
Y137303D01*
X113287D01*
Y141339D01*
X113779D01*
Y141831D01*
X115945D01*
Y144904D01*
X115945Y145374D01*
X116647Y146054D01*
X116795Y146153D01*
X117028Y146358D01*
X117232Y146590D01*
X117404Y146848D01*
X117541Y147126D01*
X117641Y147419D01*
X117701Y147722D01*
X117722Y148031D01*
X117701Y148340D01*
X117685Y148421D01*
X118056Y149096D01*
X118274Y149333D01*
X118408Y149405D01*
X119807D01*
X119837Y149408D01*
X120157Y149390D01*
D02*
G37*
G36*
X97659Y128626D02*
X97874Y128583D01*
X98081Y128513D01*
X98277Y128416D01*
X98459Y128295D01*
X98623Y128151D01*
X98767Y127986D01*
X98889Y127804D01*
X98985Y127608D01*
X99056Y127401D01*
X99098Y127187D01*
X99111Y126985D01*
X99110Y126969D01*
Y122048D01*
X93898D01*
Y116227D01*
X93775Y116061D01*
X93403Y115817D01*
X92914Y115613D01*
X92739Y115672D01*
X92435Y115733D01*
X92126Y115753D01*
X91817Y115733D01*
X91513Y115672D01*
X91220Y115573D01*
X90942Y115436D01*
X90685Y115264D01*
X90452Y115060D01*
X90248Y114827D01*
X90076Y114569D01*
X89939Y114292D01*
X89839Y113998D01*
X89779Y113695D01*
X89759Y113386D01*
X89779Y113077D01*
X89839Y112773D01*
X89939Y112480D01*
X90076Y112202D01*
X90248Y111945D01*
X90452Y111712D01*
X90685Y111508D01*
X90942Y111336D01*
X91220Y111199D01*
X90995Y110236D01*
X86811D01*
Y110236D01*
X86417D01*
Y110236D01*
X82452D01*
X81962Y110855D01*
X82364Y111772D01*
X84153D01*
Y115217D01*
X80709D01*
Y112550D01*
X80702Y112517D01*
X80355Y111713D01*
X79788Y111618D01*
X78740D01*
Y113189D01*
X69316D01*
X69252Y113227D01*
X69050Y113447D01*
X68964Y114246D01*
X68950Y114379D01*
X69728Y115157D01*
X78740D01*
Y118793D01*
X79254Y119565D01*
X79556Y119890D01*
X79830Y120239D01*
X79830Y120239D01*
X79868Y120295D01*
X80077Y120608D01*
X80294Y120995D01*
X80480Y121398D01*
X80633Y121815D01*
X80754Y122242D01*
X80827Y122611D01*
X80840Y122677D01*
X80840Y122678D01*
X80892Y123118D01*
X80895Y123192D01*
X81891Y123474D01*
X81903Y123458D01*
X82137Y123200D01*
X82395Y122966D01*
X82675Y122759D01*
X82973Y122580D01*
X83288Y122431D01*
X83616Y122314D01*
X83954Y122229D01*
X84298Y122178D01*
X84646Y122161D01*
X84993Y122178D01*
X85338Y122229D01*
X85676Y122314D01*
X86003Y122431D01*
X86318Y122580D01*
X86617Y122759D01*
X86896Y122966D01*
X87154Y123200D01*
X87388Y123458D01*
X87595Y123738D01*
X87774Y124036D01*
X87923Y124351D01*
X88041Y124679D01*
X88125Y125017D01*
X88176Y125361D01*
X88193Y125709D01*
X88176Y126056D01*
X88125Y126401D01*
X88041Y126739D01*
X87923Y127066D01*
X87774Y127381D01*
X87595Y127680D01*
X87933Y128478D01*
X88101Y128638D01*
X90551D01*
Y127264D01*
X96063D01*
Y128638D01*
X97441D01*
X97458Y128639D01*
X97659Y128626D01*
D02*
G37*
%LPC*%
G36*
X20192Y45853D02*
X15738Y41399D01*
X22698Y34439D01*
X27152Y38893D01*
X20192Y45853D01*
D02*
G37*
G36*
X32480Y40354D02*
X30020D01*
Y38681D01*
X32480D01*
Y40354D01*
D02*
G37*
G36*
X52776Y56413D02*
X49523D01*
Y53160D01*
X50409D01*
X50718Y53180D01*
X51022Y53241D01*
X51315Y53340D01*
X51593Y53477D01*
X51850Y53649D01*
X52083Y53853D01*
X52287Y54086D01*
X52459Y54344D01*
X52596Y54621D01*
X52696Y54915D01*
X52756Y55218D01*
X52776Y55527D01*
Y56413D01*
D02*
G37*
G36*
X25000Y57579D02*
X21949D01*
Y54134D01*
X25000D01*
Y57579D01*
D02*
G37*
G36*
X123425Y45768D02*
X120374D01*
Y42323D01*
X123425D01*
Y45768D01*
D02*
G37*
G36*
X72835Y11422D02*
X72487Y11405D01*
X72143Y11353D01*
X71805Y11269D01*
X71477Y11152D01*
X71162Y11003D01*
X70864Y10824D01*
X70584Y10616D01*
X70326Y10383D01*
X70092Y10125D01*
X69885Y9845D01*
X69706Y9546D01*
X69557Y9232D01*
X69440Y8904D01*
X69355Y8566D01*
X69304Y8222D01*
X69287Y7874D01*
X69304Y7526D01*
X69355Y7182D01*
X69440Y6844D01*
X69557Y6516D01*
X69706Y6202D01*
X69885Y5903D01*
X70092Y5624D01*
X70326Y5365D01*
X70584Y5132D01*
X70864Y4924D01*
X71162Y4745D01*
X71477Y4597D01*
X71805Y4479D01*
X72143Y4395D01*
X72487Y4343D01*
X72835Y4326D01*
X73182Y4343D01*
X73527Y4395D01*
X73865Y4479D01*
X74192Y4597D01*
X74507Y4745D01*
X74806Y4924D01*
X75085Y5132D01*
X75343Y5365D01*
X75577Y5624D01*
X75784Y5903D01*
X75963Y6202D01*
X76112Y6516D01*
X76230Y6844D01*
X76314Y7182D01*
X76365Y7526D01*
X76382Y7874D01*
X76365Y8222D01*
X76314Y8566D01*
X76230Y8904D01*
X76112Y9232D01*
X75963Y9546D01*
X75784Y9845D01*
X75577Y10125D01*
X75343Y10383D01*
X75085Y10616D01*
X74806Y10824D01*
X74507Y11003D01*
X74192Y11152D01*
X73865Y11269D01*
X73527Y11353D01*
X73182Y11405D01*
X72835Y11422D01*
D02*
G37*
G36*
X56595Y31004D02*
X53341D01*
Y29528D01*
X53362Y29219D01*
X53422Y28915D01*
X53522Y28622D01*
X53658Y28344D01*
X53831Y28087D01*
X54035Y27854D01*
X54268Y27650D01*
X54525Y27477D01*
X54803Y27340D01*
X55096Y27241D01*
X55400Y27180D01*
X55709Y27160D01*
X56595D01*
Y31004D01*
D02*
G37*
G36*
X76580Y31004D02*
X73327D01*
Y27160D01*
X74213D01*
X74522Y27180D01*
X74825Y27241D01*
X75118Y27340D01*
X75396Y27477D01*
X75654Y27650D01*
X75886Y27854D01*
X76091Y28087D01*
X76263Y28344D01*
X76400Y28622D01*
X76499Y28915D01*
X76560Y29219D01*
X76580Y29528D01*
Y31004D01*
D02*
G37*
G36*
X6830Y32490D02*
X2376Y28036D01*
X9335Y21076D01*
X13789Y25530D01*
X6830Y32490D01*
D02*
G37*
G36*
X95079Y27953D02*
X91929D01*
Y24807D01*
X88738Y21616D01*
X88738Y21616D01*
X86370Y19248D01*
X86154Y19350D01*
X85790Y19481D01*
X85415Y19575D01*
X85032Y19631D01*
X84646Y19650D01*
X84259Y19631D01*
X83877Y19575D01*
X83501Y19481D01*
X83137Y19350D01*
X82788Y19185D01*
X82456Y18986D01*
X82145Y18756D01*
X81858Y18496D01*
X81599Y18209D01*
X81368Y17899D01*
X81169Y17567D01*
X81004Y17217D01*
X80874Y16853D01*
X80780Y16478D01*
X80723Y16095D01*
X80704Y15709D01*
X80723Y15322D01*
X80780Y14940D01*
X80874Y14564D01*
X81004Y14200D01*
X81169Y13850D01*
X81368Y13519D01*
X81599Y13208D01*
X81858Y12921D01*
X82145Y12662D01*
X82456Y12431D01*
X82788Y12232D01*
X83137Y12067D01*
X83501Y11937D01*
X83877Y11843D01*
X84259Y11786D01*
X84646Y11767D01*
X85032Y11786D01*
X85415Y11843D01*
X85790Y11937D01*
X86154Y12067D01*
X86504Y12232D01*
X86836Y12431D01*
X87146Y12662D01*
X87433Y12921D01*
X87693Y13208D01*
X87923Y13519D01*
X88122Y13850D01*
X88287Y14200D01*
X88418Y14564D01*
X88512Y14940D01*
X88568Y15322D01*
X88587Y15709D01*
X88568Y16095D01*
X88512Y16478D01*
X88418Y16853D01*
X88287Y17217D01*
X88185Y17433D01*
X90553Y19801D01*
X90553Y19801D01*
X93587Y22835D01*
X95079D01*
Y25394D01*
Y27953D01*
D02*
G37*
G36*
X84153Y9646D02*
X80709D01*
Y6201D01*
X84153D01*
Y9646D01*
D02*
G37*
G36*
X56595Y35832D02*
X55709D01*
X55400Y35812D01*
X55096Y35751D01*
X54803Y35652D01*
X54525Y35515D01*
X54268Y35343D01*
X54035Y35138D01*
X53831Y34906D01*
X53658Y34648D01*
X53522Y34370D01*
X53422Y34077D01*
X53362Y33774D01*
X53341Y33465D01*
Y31988D01*
X56595D01*
Y35832D01*
D02*
G37*
G36*
X50984Y14370D02*
X47343D01*
Y10335D01*
X50984D01*
Y14370D01*
D02*
G37*
G36*
X88583Y9646D02*
X85138D01*
Y6201D01*
X88583D01*
Y9646D01*
D02*
G37*
G36*
Y115217D02*
X85138D01*
Y111772D01*
X88583D01*
Y115217D01*
D02*
G37*
G36*
X84153Y119646D02*
X80709D01*
Y116201D01*
X84153D01*
Y119646D01*
D02*
G37*
G36*
X96063Y87894D02*
X93799D01*
Y85433D01*
X96063D01*
Y87894D01*
D02*
G37*
G36*
X85138Y89646D02*
Y86201D01*
X88583D01*
Y89646D01*
X85138D01*
D02*
G37*
G36*
X96063Y126279D02*
X93799D01*
Y123819D01*
X96063D01*
Y126279D01*
D02*
G37*
G36*
X115945Y140847D02*
X114272D01*
Y137303D01*
X115945D01*
Y140847D01*
D02*
G37*
G36*
X88583Y119646D02*
X85138D01*
Y116201D01*
X88583D01*
Y119646D01*
D02*
G37*
G36*
X92815Y126279D02*
X90551D01*
Y123819D01*
X92815D01*
Y126279D01*
D02*
G37*
G36*
Y87894D02*
X90551D01*
Y85433D01*
X92815D01*
Y87894D01*
D02*
G37*
G36*
X23720Y67421D02*
X20079D01*
Y63386D01*
X23720D01*
Y67421D01*
D02*
G37*
G36*
X28346D02*
X24705D01*
Y63386D01*
X28346D01*
Y67421D01*
D02*
G37*
G36*
X50409Y60650D02*
X49523D01*
Y57397D01*
X52776D01*
Y58283D01*
X52756Y58592D01*
X52696Y58896D01*
X52596Y59189D01*
X52459Y59467D01*
X52287Y59724D01*
X52083Y59957D01*
X51850Y60161D01*
X51593Y60333D01*
X51315Y60470D01*
X51022Y60570D01*
X50718Y60630D01*
X50409Y60650D01*
D02*
G37*
G36*
X21949Y62008D02*
Y58563D01*
X25000D01*
Y62008D01*
X21949D01*
D02*
G37*
G36*
X109941Y75788D02*
Y73130D01*
X112401D01*
Y75788D01*
X109941D01*
D02*
G37*
G36*
X88583Y85216D02*
X85138D01*
Y81772D01*
X88583D01*
Y85216D01*
D02*
G37*
G36*
X122146Y68307D02*
X119980D01*
Y65847D01*
X122146D01*
Y68307D01*
D02*
G37*
G36*
X38878Y71850D02*
X35433D01*
Y69587D01*
X38878D01*
Y71850D01*
D02*
G37*
%LPD*%
G36*
X1093521Y-64032D02*
Y-64318D01*
Y-64605D01*
Y-64891D01*
Y-65177D01*
Y-65464D01*
Y-65750D01*
Y-66036D01*
Y-66322D01*
Y-66609D01*
Y-66895D01*
Y-67181D01*
Y-67468D01*
Y-67754D01*
Y-68040D01*
Y-68327D01*
Y-68613D01*
Y-68899D01*
Y-69186D01*
Y-69472D01*
Y-69758D01*
X1093234D01*
Y-70044D01*
Y-70331D01*
Y-70617D01*
Y-70903D01*
Y-71190D01*
X1092948D01*
Y-71476D01*
Y-71762D01*
Y-72049D01*
Y-72335D01*
X1092662D01*
Y-72621D01*
Y-72908D01*
Y-73194D01*
Y-73480D01*
X1092375D01*
Y-73767D01*
Y-74053D01*
Y-74339D01*
X1092089D01*
Y-74625D01*
Y-74912D01*
Y-75198D01*
X1091803D01*
Y-75485D01*
Y-75771D01*
Y-76057D01*
X1091516D01*
Y-76343D01*
Y-76630D01*
Y-76916D01*
X1091230D01*
Y-77202D01*
Y-77489D01*
X1090944D01*
Y-77775D01*
Y-78061D01*
X1090657D01*
Y-78348D01*
Y-78634D01*
Y-78920D01*
X1090371D01*
Y-79207D01*
Y-79493D01*
X1090085D01*
Y-79779D01*
Y-80066D01*
Y-80352D01*
X1089799D01*
Y-80638D01*
Y-80924D01*
X1089512D01*
Y-81211D01*
Y-81497D01*
Y-81783D01*
X1089226D01*
Y-82070D01*
Y-82356D01*
X1088939D01*
Y-82642D01*
Y-82929D01*
Y-83215D01*
X1088653D01*
Y-83501D01*
Y-83788D01*
X1088367D01*
Y-84074D01*
Y-84360D01*
Y-84646D01*
X1088081D01*
Y-84933D01*
Y-85219D01*
X1087794D01*
Y-85505D01*
Y-85792D01*
Y-86078D01*
X1087508D01*
Y-86364D01*
Y-86651D01*
X1087222D01*
Y-86937D01*
Y-87223D01*
Y-87510D01*
X1086935D01*
Y-87796D01*
Y-88082D01*
X1086649D01*
Y-88369D01*
Y-88655D01*
Y-88941D01*
X1086363D01*
Y-89227D01*
Y-89514D01*
X1086076D01*
Y-89800D01*
Y-90086D01*
Y-90373D01*
X1085790D01*
Y-90659D01*
Y-90945D01*
X1085504D01*
Y-91232D01*
Y-91518D01*
Y-91804D01*
X1085217D01*
Y-92091D01*
Y-92377D01*
X1084931D01*
Y-92663D01*
Y-92950D01*
Y-93236D01*
X1084645D01*
Y-93522D01*
Y-93809D01*
X1084359D01*
Y-94095D01*
Y-94381D01*
Y-94667D01*
X1084072D01*
Y-94954D01*
Y-95240D01*
X1083786D01*
Y-95526D01*
Y-95813D01*
Y-96099D01*
X1083500D01*
Y-96385D01*
Y-96672D01*
X1083213D01*
Y-96958D01*
Y-97244D01*
Y-97531D01*
X1082927D01*
Y-97817D01*
Y-98103D01*
X1082641D01*
Y-98390D01*
Y-98676D01*
Y-98962D01*
X1082354D01*
Y-99248D01*
Y-99535D01*
X1082068D01*
Y-99821D01*
Y-100107D01*
Y-100394D01*
X1081782D01*
Y-100680D01*
Y-100966D01*
X1081495D01*
Y-101253D01*
Y-101539D01*
X1081209D01*
Y-101825D01*
Y-102112D01*
X1080923D01*
Y-102398D01*
Y-102684D01*
Y-102971D01*
X1080637D01*
Y-103257D01*
X1080350D01*
Y-103543D01*
Y-103829D01*
Y-104116D01*
X1080064D01*
Y-104402D01*
X1079778D01*
Y-104688D01*
Y-104975D01*
X1079491D01*
Y-105261D01*
Y-105547D01*
X1079205D01*
Y-105834D01*
Y-106120D01*
X1078919D01*
Y-106406D01*
Y-106693D01*
X1078632D01*
Y-106979D01*
X1078346D01*
Y-107265D01*
Y-107552D01*
X1078060D01*
Y-107838D01*
Y-108124D01*
X1077773D01*
Y-108410D01*
X1077487D01*
Y-108697D01*
X1077201D01*
Y-108983D01*
Y-109269D01*
X1076914D01*
Y-109556D01*
X1076628D01*
Y-109842D01*
Y-110128D01*
X1076342D01*
Y-110415D01*
X1076056D01*
Y-110701D01*
X1075769D01*
Y-110987D01*
Y-111274D01*
X1075483D01*
Y-111560D01*
X1075196D01*
Y-111846D01*
X1074910D01*
Y-112133D01*
X1074624D01*
Y-112419D01*
X1074338D01*
Y-112705D01*
Y-112991D01*
X1074051D01*
Y-113278D01*
X1073765D01*
Y-113564D01*
X1073479D01*
Y-113850D01*
X1073192D01*
Y-114137D01*
X1072906D01*
Y-114423D01*
X1072620D01*
Y-114709D01*
X1072333D01*
Y-114996D01*
X1071761D01*
Y-115282D01*
X1071474D01*
Y-115568D01*
X1071188D01*
Y-115855D01*
X1070902D01*
Y-116141D01*
X1070615D01*
Y-116427D01*
X1070043D01*
Y-116714D01*
X1069757D01*
Y-117000D01*
X1069184D01*
Y-117286D01*
X1068898D01*
Y-117572D01*
X1068325D01*
Y-117859D01*
X1068039D01*
Y-118145D01*
X1067466D01*
Y-118431D01*
X1066893D01*
Y-118718D01*
X1066321D01*
Y-119004D01*
X1065748D01*
Y-119290D01*
X1065176D01*
Y-119577D01*
X1064317D01*
Y-119863D01*
X1063744D01*
Y-120149D01*
X1062885D01*
Y-120436D01*
X1061740D01*
Y-120722D01*
X1060595D01*
Y-121008D01*
X1058877D01*
Y-121294D01*
X1056872D01*
Y-121581D01*
X1056586D01*
Y-121294D01*
Y-121008D01*
Y-120722D01*
Y-120436D01*
Y-120149D01*
Y-119863D01*
Y-119577D01*
Y-119290D01*
Y-119004D01*
Y-118718D01*
Y-118431D01*
Y-118145D01*
Y-117859D01*
Y-117572D01*
Y-117286D01*
Y-117000D01*
Y-116714D01*
Y-116427D01*
Y-116141D01*
Y-115855D01*
Y-115568D01*
Y-115282D01*
Y-114996D01*
Y-114709D01*
Y-114423D01*
Y-114137D01*
Y-113850D01*
Y-113564D01*
Y-113278D01*
Y-112991D01*
Y-112705D01*
Y-112419D01*
Y-112133D01*
X1057159D01*
Y-111846D01*
X1057731D01*
Y-111560D01*
X1058304D01*
Y-111274D01*
X1058877D01*
Y-110987D01*
X1059449D01*
Y-110701D01*
X1060022D01*
Y-110415D01*
X1060308D01*
Y-110128D01*
X1060881D01*
Y-109842D01*
X1061167D01*
Y-109556D01*
X1061740D01*
Y-109269D01*
X1062026D01*
Y-108983D01*
X1062312D01*
Y-108697D01*
X1062885D01*
Y-108410D01*
X1063171D01*
Y-108124D01*
X1063458D01*
Y-107838D01*
X1063744D01*
Y-107552D01*
X1064030D01*
Y-107265D01*
X1064317D01*
Y-106979D01*
X1064603D01*
Y-106693D01*
X1064889D01*
Y-106406D01*
X1065176D01*
Y-106120D01*
X1065462D01*
Y-105834D01*
X1065748D01*
Y-105547D01*
X1066035D01*
Y-105261D01*
Y-104975D01*
X1066321D01*
Y-104688D01*
X1066607D01*
Y-104402D01*
X1066893D01*
Y-104116D01*
Y-103829D01*
X1067180D01*
Y-103543D01*
X1067466D01*
Y-103257D01*
Y-102971D01*
X1067752D01*
Y-102684D01*
Y-102398D01*
X1068039D01*
Y-102112D01*
X1068325D01*
Y-101825D01*
Y-101539D01*
X1068611D01*
Y-101253D01*
Y-100966D01*
X1068898D01*
Y-100680D01*
Y-100394D01*
X1067180D01*
Y-100107D01*
X1065176D01*
Y-99821D01*
X1064030D01*
Y-99535D01*
X1063458D01*
Y-99248D01*
X1062599D01*
Y-98962D01*
X1062026D01*
Y-98676D01*
X1061740D01*
Y-98390D01*
X1061167D01*
Y-98103D01*
X1060881D01*
Y-97817D01*
X1060595D01*
Y-97531D01*
X1060308D01*
Y-97244D01*
X1060022D01*
Y-96958D01*
X1059736D01*
Y-96672D01*
Y-96385D01*
X1059449D01*
Y-96099D01*
X1059163D01*
Y-95813D01*
Y-95526D01*
X1058877D01*
Y-95240D01*
Y-94954D01*
X1058590D01*
Y-94667D01*
Y-94381D01*
X1058304D01*
Y-94095D01*
Y-93809D01*
Y-93522D01*
X1058018D01*
Y-93236D01*
Y-92950D01*
Y-92663D01*
Y-92377D01*
X1057731D01*
Y-92091D01*
Y-91804D01*
Y-91518D01*
Y-91232D01*
Y-90945D01*
Y-90659D01*
Y-90373D01*
X1057445D01*
Y-90086D01*
Y-89800D01*
Y-89514D01*
Y-89227D01*
Y-88941D01*
Y-88655D01*
Y-88369D01*
Y-88082D01*
Y-87796D01*
Y-87510D01*
Y-87223D01*
Y-86937D01*
Y-86651D01*
Y-86364D01*
Y-86078D01*
X1057159D01*
Y-85792D01*
Y-85505D01*
Y-85219D01*
Y-84933D01*
Y-84646D01*
Y-84360D01*
Y-84074D01*
Y-83788D01*
Y-83501D01*
Y-83215D01*
Y-82929D01*
Y-82642D01*
Y-82356D01*
Y-82070D01*
Y-81783D01*
X1056872D01*
Y-81497D01*
Y-81211D01*
Y-80924D01*
Y-80638D01*
Y-80352D01*
Y-80066D01*
Y-79779D01*
Y-79493D01*
Y-79207D01*
Y-78920D01*
Y-78634D01*
Y-78348D01*
Y-78061D01*
Y-77775D01*
Y-77489D01*
Y-77202D01*
X1056586D01*
Y-76916D01*
Y-76630D01*
Y-76343D01*
Y-76057D01*
Y-75771D01*
Y-75485D01*
Y-75198D01*
Y-74912D01*
Y-74625D01*
Y-74339D01*
Y-74053D01*
Y-73767D01*
Y-73480D01*
Y-73194D01*
Y-72908D01*
Y-72621D01*
X1056300D01*
Y-72335D01*
Y-72049D01*
Y-71762D01*
Y-71476D01*
Y-71190D01*
Y-70903D01*
Y-70617D01*
Y-70331D01*
Y-70044D01*
Y-69758D01*
Y-69472D01*
Y-69186D01*
Y-68899D01*
Y-68613D01*
X1056014D01*
Y-68327D01*
Y-68040D01*
Y-67754D01*
Y-67468D01*
Y-67181D01*
Y-66895D01*
Y-66609D01*
Y-66322D01*
Y-66036D01*
Y-65750D01*
Y-65464D01*
Y-65177D01*
Y-64891D01*
Y-64605D01*
Y-64318D01*
Y-64032D01*
X1055727D01*
Y-63746D01*
X1069470D01*
Y-64032D01*
Y-64318D01*
Y-64605D01*
Y-64891D01*
Y-65177D01*
Y-65464D01*
Y-65750D01*
Y-66036D01*
Y-66322D01*
Y-66609D01*
Y-66895D01*
Y-67181D01*
Y-67468D01*
Y-67754D01*
X1069757D01*
Y-68040D01*
Y-68327D01*
Y-68613D01*
Y-68899D01*
Y-69186D01*
Y-69472D01*
Y-69758D01*
Y-70044D01*
Y-70331D01*
Y-70617D01*
Y-70903D01*
Y-71190D01*
Y-71476D01*
Y-71762D01*
Y-72049D01*
Y-72335D01*
Y-72621D01*
Y-72908D01*
Y-73194D01*
Y-73480D01*
Y-73767D01*
Y-74053D01*
Y-74339D01*
Y-74625D01*
Y-74912D01*
Y-75198D01*
Y-75485D01*
Y-75771D01*
Y-76057D01*
Y-76343D01*
Y-76630D01*
Y-76916D01*
Y-77202D01*
Y-77489D01*
Y-77775D01*
Y-78061D01*
Y-78348D01*
Y-78634D01*
Y-78920D01*
Y-79207D01*
Y-79493D01*
X1070043D01*
Y-79779D01*
X1069757D01*
Y-80066D01*
Y-80352D01*
X1070043D01*
Y-80638D01*
Y-80924D01*
Y-81211D01*
Y-81497D01*
Y-81783D01*
Y-82070D01*
Y-82356D01*
Y-82642D01*
Y-82929D01*
Y-83215D01*
Y-83501D01*
Y-83788D01*
Y-84074D01*
Y-84360D01*
Y-84646D01*
Y-84933D01*
Y-85219D01*
Y-85505D01*
Y-85792D01*
Y-86078D01*
Y-86364D01*
Y-86651D01*
Y-86937D01*
Y-87223D01*
Y-87510D01*
Y-87796D01*
X1070329D01*
Y-88082D01*
Y-88369D01*
Y-88655D01*
X1070615D01*
Y-88941D01*
X1070902D01*
Y-89227D01*
X1071188D01*
Y-89514D01*
X1072047D01*
Y-89800D01*
X1072906D01*
Y-89514D01*
X1073192D01*
Y-89227D01*
Y-88941D01*
Y-88655D01*
X1073479D01*
Y-88369D01*
Y-88082D01*
X1073765D01*
Y-87796D01*
Y-87510D01*
Y-87223D01*
X1074051D01*
Y-86937D01*
Y-86651D01*
Y-86364D01*
X1074338D01*
Y-86078D01*
Y-85792D01*
Y-85505D01*
X1074624D01*
Y-85219D01*
Y-84933D01*
Y-84646D01*
X1074910D01*
Y-84360D01*
Y-84074D01*
X1075196D01*
Y-83788D01*
Y-83501D01*
Y-83215D01*
X1075483D01*
Y-82929D01*
Y-82642D01*
Y-82356D01*
X1075769D01*
Y-82070D01*
Y-81783D01*
Y-81497D01*
X1076056D01*
Y-81211D01*
Y-80924D01*
X1076342D01*
Y-80638D01*
Y-80352D01*
Y-80066D01*
X1076628D01*
Y-79779D01*
Y-79493D01*
Y-79207D01*
X1076914D01*
Y-78920D01*
Y-78634D01*
Y-78348D01*
X1077201D01*
Y-78061D01*
Y-77775D01*
X1077487D01*
Y-77489D01*
Y-77202D01*
Y-76916D01*
X1077773D01*
Y-76630D01*
Y-76343D01*
Y-76057D01*
X1078060D01*
Y-75771D01*
Y-75485D01*
Y-75198D01*
X1078346D01*
Y-74912D01*
Y-74625D01*
X1078632D01*
Y-74339D01*
Y-74053D01*
Y-73767D01*
X1078919D01*
Y-73480D01*
Y-73194D01*
Y-72908D01*
X1079205D01*
Y-72621D01*
Y-72335D01*
Y-72049D01*
X1079491D01*
Y-71762D01*
Y-71476D01*
Y-71190D01*
Y-70903D01*
X1079778D01*
Y-70617D01*
Y-70331D01*
Y-70044D01*
Y-69758D01*
X1080064D01*
Y-69472D01*
Y-69186D01*
Y-68899D01*
Y-68613D01*
Y-68327D01*
X1080350D01*
Y-68040D01*
Y-67754D01*
Y-67468D01*
Y-67181D01*
Y-66895D01*
Y-66609D01*
X1080637D01*
Y-66322D01*
Y-66036D01*
Y-65750D01*
Y-65464D01*
Y-65177D01*
Y-64891D01*
Y-64605D01*
Y-64318D01*
Y-64032D01*
Y-63746D01*
X1093521D01*
Y-64032D01*
D02*
G37*
G36*
X1035685Y-46567D02*
Y-46853D01*
X1035399D01*
Y-47139D01*
Y-47426D01*
Y-47712D01*
Y-47998D01*
Y-48285D01*
Y-48571D01*
X1035113D01*
Y-48857D01*
Y-49144D01*
Y-49430D01*
Y-49716D01*
Y-50003D01*
Y-50289D01*
X1034826D01*
Y-50575D01*
Y-50862D01*
Y-51148D01*
Y-51434D01*
Y-51720D01*
Y-52007D01*
Y-52293D01*
X1034540D01*
Y-52579D01*
Y-52866D01*
Y-53152D01*
Y-53438D01*
Y-53725D01*
Y-54011D01*
X1034254D01*
Y-54297D01*
Y-54584D01*
Y-54870D01*
Y-55156D01*
Y-55443D01*
Y-55729D01*
X1033967D01*
Y-56015D01*
Y-56301D01*
Y-56588D01*
Y-56874D01*
Y-57161D01*
Y-57447D01*
Y-57733D01*
X1033681D01*
Y-58019D01*
Y-58306D01*
Y-58592D01*
Y-58878D01*
Y-59165D01*
Y-59451D01*
X1033395D01*
Y-59737D01*
Y-60024D01*
Y-60310D01*
Y-60596D01*
Y-60883D01*
Y-61169D01*
X1033109D01*
Y-61455D01*
Y-61742D01*
Y-62028D01*
Y-62314D01*
Y-62600D01*
Y-62887D01*
X1032822D01*
Y-63173D01*
Y-63459D01*
Y-63746D01*
Y-64032D01*
Y-64318D01*
Y-64605D01*
Y-64891D01*
X1032536D01*
Y-65177D01*
Y-65464D01*
Y-65750D01*
Y-66036D01*
Y-66322D01*
Y-66609D01*
X1032250D01*
Y-66895D01*
Y-67181D01*
X1032822D01*
Y-66895D01*
X1033109D01*
Y-66609D01*
X1033395D01*
Y-66322D01*
X1033967D01*
Y-66036D01*
X1034254D01*
Y-65750D01*
X1034540D01*
Y-65464D01*
X1035113D01*
Y-65177D01*
X1035685D01*
Y-64891D01*
X1035972D01*
Y-64605D01*
X1036544D01*
Y-64318D01*
X1037403D01*
Y-64032D01*
X1037976D01*
Y-63746D01*
X1038835D01*
Y-63459D01*
X1040266D01*
Y-63173D01*
X1046565D01*
Y-63459D01*
X1047711D01*
Y-63746D01*
X1048569D01*
Y-64032D01*
X1049142D01*
Y-64318D01*
X1049428D01*
Y-64605D01*
X1050001D01*
Y-64891D01*
X1050287D01*
Y-65177D01*
X1050574D01*
Y-65464D01*
X1050860D01*
Y-65750D01*
X1051146D01*
Y-66036D01*
Y-66322D01*
X1051433D01*
Y-66609D01*
Y-66895D01*
X1051719D01*
Y-67181D01*
Y-67468D01*
Y-67754D01*
X1052005D01*
Y-68040D01*
Y-68327D01*
Y-68613D01*
Y-68899D01*
X1052291D01*
Y-69186D01*
Y-69472D01*
Y-69758D01*
Y-70044D01*
Y-70331D01*
Y-70617D01*
Y-70903D01*
Y-71190D01*
Y-71476D01*
Y-71762D01*
Y-72049D01*
Y-72335D01*
Y-72621D01*
Y-72908D01*
Y-73194D01*
Y-73480D01*
Y-73767D01*
Y-74053D01*
X1052005D01*
Y-74339D01*
Y-74625D01*
Y-74912D01*
Y-75198D01*
Y-75485D01*
Y-75771D01*
Y-76057D01*
X1051719D01*
Y-76343D01*
Y-76630D01*
Y-76916D01*
Y-77202D01*
Y-77489D01*
Y-77775D01*
Y-78061D01*
X1051433D01*
Y-78348D01*
Y-78634D01*
Y-78920D01*
Y-79207D01*
Y-79493D01*
Y-79779D01*
X1051146D01*
Y-80066D01*
Y-80352D01*
Y-80638D01*
Y-80924D01*
Y-81211D01*
Y-81497D01*
X1050860D01*
Y-81783D01*
Y-82070D01*
Y-82356D01*
Y-82642D01*
Y-82929D01*
Y-83215D01*
X1050574D01*
Y-83501D01*
Y-83788D01*
Y-84074D01*
Y-84360D01*
Y-84646D01*
Y-84933D01*
Y-85219D01*
X1050287D01*
Y-85505D01*
Y-85792D01*
Y-86078D01*
Y-86364D01*
Y-86651D01*
Y-86937D01*
X1050001D01*
Y-87223D01*
Y-87510D01*
Y-87796D01*
Y-88082D01*
Y-88369D01*
Y-88655D01*
X1049715D01*
Y-88941D01*
Y-89227D01*
Y-89514D01*
Y-89800D01*
Y-90086D01*
Y-90373D01*
Y-90659D01*
X1049428D01*
Y-90945D01*
Y-91232D01*
Y-91518D01*
Y-91804D01*
Y-92091D01*
Y-92377D01*
X1049142D01*
Y-92663D01*
Y-92950D01*
Y-93236D01*
Y-93522D01*
Y-93809D01*
Y-94095D01*
X1048856D01*
Y-94381D01*
Y-94667D01*
Y-94954D01*
Y-95240D01*
Y-95526D01*
Y-95813D01*
X1048569D01*
Y-96099D01*
Y-96385D01*
Y-96672D01*
Y-96958D01*
Y-97244D01*
Y-97531D01*
Y-97817D01*
X1048283D01*
Y-98103D01*
Y-98390D01*
Y-98676D01*
Y-98962D01*
Y-99248D01*
Y-99535D01*
X1047997D01*
Y-99821D01*
Y-100107D01*
X1034826D01*
Y-99821D01*
Y-99535D01*
X1035113D01*
Y-99248D01*
Y-98962D01*
Y-98676D01*
Y-98390D01*
Y-98103D01*
Y-97817D01*
X1035399D01*
Y-97531D01*
Y-97244D01*
Y-96958D01*
Y-96672D01*
Y-96385D01*
Y-96099D01*
Y-95813D01*
X1035685D01*
Y-95526D01*
Y-95240D01*
Y-94954D01*
Y-94667D01*
Y-94381D01*
Y-94095D01*
X1035972D01*
Y-93809D01*
Y-93522D01*
Y-93236D01*
Y-92950D01*
Y-92663D01*
Y-92377D01*
X1036258D01*
Y-92091D01*
Y-91804D01*
Y-91518D01*
Y-91232D01*
Y-90945D01*
Y-90659D01*
Y-90373D01*
X1036544D01*
Y-90086D01*
Y-89800D01*
Y-89514D01*
Y-89227D01*
Y-88941D01*
Y-88655D01*
X1036831D01*
Y-88369D01*
Y-88082D01*
Y-87796D01*
Y-87510D01*
Y-87223D01*
Y-86937D01*
Y-86651D01*
X1037117D01*
Y-86364D01*
Y-86078D01*
Y-85792D01*
Y-85505D01*
Y-85219D01*
Y-84933D01*
X1037403D01*
Y-84646D01*
Y-84360D01*
Y-84074D01*
Y-83788D01*
Y-83501D01*
Y-83215D01*
X1037689D01*
Y-82929D01*
Y-82642D01*
Y-82356D01*
Y-82070D01*
Y-81783D01*
Y-81497D01*
X1037976D01*
Y-81211D01*
Y-80924D01*
Y-80638D01*
Y-80352D01*
Y-80066D01*
Y-79779D01*
Y-79493D01*
X1038262D01*
Y-79207D01*
Y-78920D01*
Y-78634D01*
Y-78348D01*
Y-78061D01*
Y-77775D01*
X1038548D01*
Y-77489D01*
Y-77202D01*
Y-76916D01*
Y-76630D01*
Y-76343D01*
Y-76057D01*
Y-75771D01*
X1038835D01*
Y-75485D01*
Y-75198D01*
Y-74912D01*
Y-74625D01*
Y-74339D01*
Y-74053D01*
X1038548D01*
Y-73767D01*
Y-73480D01*
X1038262D01*
Y-73194D01*
X1037976D01*
Y-72908D01*
X1037403D01*
Y-72621D01*
X1035685D01*
Y-72908D01*
X1034254D01*
Y-73194D01*
X1033395D01*
Y-73480D01*
X1032822D01*
Y-73767D01*
X1032536D01*
Y-74053D01*
X1031963D01*
Y-74339D01*
X1031677D01*
Y-74625D01*
X1031391D01*
Y-74912D01*
Y-75198D01*
X1031104D01*
Y-75485D01*
Y-75771D01*
Y-76057D01*
X1030818D01*
Y-76343D01*
Y-76630D01*
Y-76916D01*
Y-77202D01*
Y-77489D01*
Y-77775D01*
X1030532D01*
Y-78061D01*
Y-78348D01*
Y-78634D01*
Y-78920D01*
Y-79207D01*
Y-79493D01*
Y-79779D01*
X1030245D01*
Y-80066D01*
Y-80352D01*
Y-80638D01*
Y-80924D01*
Y-81211D01*
Y-81497D01*
X1029959D01*
Y-81783D01*
Y-82070D01*
Y-82356D01*
Y-82642D01*
Y-82929D01*
Y-83215D01*
X1029673D01*
Y-83501D01*
Y-83788D01*
Y-84074D01*
Y-84360D01*
Y-84646D01*
Y-84933D01*
X1029387D01*
Y-85219D01*
Y-85505D01*
Y-85792D01*
Y-86078D01*
Y-86364D01*
Y-86651D01*
Y-86937D01*
X1029100D01*
Y-87223D01*
Y-87510D01*
Y-87796D01*
Y-88082D01*
Y-88369D01*
Y-88655D01*
X1028814D01*
Y-88941D01*
Y-89227D01*
Y-89514D01*
Y-89800D01*
Y-90086D01*
Y-90373D01*
X1028528D01*
Y-90659D01*
Y-90945D01*
Y-91232D01*
Y-91518D01*
Y-91804D01*
Y-92091D01*
Y-92377D01*
X1028241D01*
Y-92663D01*
Y-92950D01*
Y-93236D01*
Y-93522D01*
Y-93809D01*
Y-94095D01*
X1027955D01*
Y-94381D01*
Y-94667D01*
Y-94954D01*
Y-95240D01*
Y-95526D01*
Y-95813D01*
X1027669D01*
Y-96099D01*
Y-96385D01*
Y-96672D01*
Y-96958D01*
Y-97244D01*
Y-97531D01*
X1027382D01*
Y-97817D01*
Y-98103D01*
Y-98390D01*
Y-98676D01*
Y-98962D01*
Y-99248D01*
Y-99535D01*
X1027096D01*
Y-99821D01*
Y-100107D01*
X1013926D01*
Y-99821D01*
Y-99535D01*
X1014212D01*
Y-99248D01*
Y-98962D01*
Y-98676D01*
Y-98390D01*
Y-98103D01*
Y-97817D01*
Y-97531D01*
X1014498D01*
Y-97244D01*
Y-96958D01*
Y-96672D01*
Y-96385D01*
Y-96099D01*
Y-95813D01*
X1014785D01*
Y-95526D01*
Y-95240D01*
Y-94954D01*
Y-94667D01*
Y-94381D01*
Y-94095D01*
X1015071D01*
Y-93809D01*
Y-93522D01*
Y-93236D01*
Y-92950D01*
Y-92663D01*
Y-92377D01*
Y-92091D01*
X1015357D01*
Y-91804D01*
Y-91518D01*
Y-91232D01*
Y-90945D01*
Y-90659D01*
Y-90373D01*
X1015643D01*
Y-90086D01*
Y-89800D01*
Y-89514D01*
Y-89227D01*
Y-88941D01*
Y-88655D01*
X1015930D01*
Y-88369D01*
Y-88082D01*
Y-87796D01*
Y-87510D01*
Y-87223D01*
Y-86937D01*
X1016216D01*
Y-86651D01*
Y-86364D01*
Y-86078D01*
Y-85792D01*
Y-85505D01*
Y-85219D01*
Y-84933D01*
X1016502D01*
Y-84646D01*
Y-84360D01*
Y-84074D01*
Y-83788D01*
Y-83501D01*
Y-83215D01*
X1016789D01*
Y-82929D01*
Y-82642D01*
Y-82356D01*
Y-82070D01*
Y-81783D01*
Y-81497D01*
X1017075D01*
Y-81211D01*
Y-80924D01*
Y-80638D01*
Y-80352D01*
Y-80066D01*
Y-79779D01*
Y-79493D01*
X1017361D01*
Y-79207D01*
Y-78920D01*
Y-78634D01*
Y-78348D01*
Y-78061D01*
Y-77775D01*
X1017648D01*
Y-77489D01*
Y-77202D01*
Y-76916D01*
Y-76630D01*
Y-76343D01*
Y-76057D01*
X1017934D01*
Y-75771D01*
Y-75485D01*
Y-75198D01*
Y-74912D01*
Y-74625D01*
Y-74339D01*
X1018220D01*
Y-74053D01*
Y-73767D01*
Y-73480D01*
Y-73194D01*
Y-72908D01*
Y-72621D01*
Y-72335D01*
X1018507D01*
Y-72049D01*
Y-71762D01*
Y-71476D01*
Y-71190D01*
Y-70903D01*
Y-70617D01*
X1018793D01*
Y-70331D01*
Y-70044D01*
Y-69758D01*
Y-69472D01*
Y-69186D01*
Y-68899D01*
X1019079D01*
Y-68613D01*
Y-68327D01*
Y-68040D01*
Y-67754D01*
Y-67468D01*
Y-67181D01*
X1019366D01*
Y-66895D01*
Y-66609D01*
Y-66322D01*
Y-66036D01*
Y-65750D01*
Y-65464D01*
Y-65177D01*
X1019652D01*
Y-64891D01*
Y-64605D01*
Y-64318D01*
Y-64032D01*
Y-63746D01*
Y-63459D01*
X1019938D01*
Y-63173D01*
Y-62887D01*
Y-62600D01*
Y-62314D01*
Y-62028D01*
Y-61742D01*
X1020224D01*
Y-61455D01*
Y-61169D01*
Y-60883D01*
Y-60596D01*
Y-60310D01*
Y-60024D01*
Y-59737D01*
X1020511D01*
Y-59451D01*
Y-59165D01*
Y-58878D01*
Y-58592D01*
Y-58306D01*
Y-58019D01*
X1020797D01*
Y-57733D01*
Y-57447D01*
Y-57161D01*
Y-56874D01*
Y-56588D01*
Y-56301D01*
X1021083D01*
Y-56015D01*
Y-55729D01*
Y-55443D01*
Y-55156D01*
Y-54870D01*
Y-54584D01*
X1021370D01*
Y-54297D01*
Y-54011D01*
Y-53725D01*
Y-53438D01*
Y-53152D01*
Y-52866D01*
Y-52579D01*
X1021656D01*
Y-52293D01*
Y-52007D01*
Y-51720D01*
Y-51434D01*
Y-51148D01*
Y-50862D01*
X1021942D01*
Y-50575D01*
Y-50289D01*
Y-50003D01*
Y-49716D01*
Y-49430D01*
Y-49144D01*
X1022229D01*
Y-48857D01*
Y-48571D01*
Y-48285D01*
Y-47998D01*
Y-47712D01*
Y-47426D01*
Y-47139D01*
X1022515D01*
Y-46853D01*
Y-46567D01*
Y-46281D01*
X1035685D01*
Y-46567D01*
D02*
G37*
G36*
X1004477Y-50003D02*
X1006195D01*
Y-50289D01*
X1007054D01*
Y-50575D01*
X1007913D01*
Y-50862D01*
X1008772D01*
Y-51148D01*
X1009345D01*
Y-51434D01*
X1009631D01*
Y-51720D01*
X1010203D01*
Y-52007D01*
X1010490D01*
Y-52293D01*
X1011062D01*
Y-52579D01*
X1011349D01*
Y-52866D01*
X1011635D01*
Y-53152D01*
X1011921D01*
Y-53438D01*
X1012208D01*
Y-53725D01*
X1012494D01*
Y-54011D01*
X1012780D01*
Y-54297D01*
Y-54584D01*
X1013067D01*
Y-54870D01*
X1013353D01*
Y-55156D01*
Y-55443D01*
X1013639D01*
Y-55729D01*
X1013926D01*
Y-56015D01*
Y-56301D01*
X1014212D01*
Y-56588D01*
Y-56874D01*
Y-57161D01*
X1014498D01*
Y-57447D01*
Y-57733D01*
Y-58019D01*
X1014785D01*
Y-58306D01*
Y-58592D01*
Y-58878D01*
Y-59165D01*
X1015071D01*
Y-59451D01*
Y-59737D01*
Y-60024D01*
Y-60310D01*
Y-60596D01*
X1015357D01*
Y-60883D01*
Y-61169D01*
Y-61455D01*
Y-61742D01*
Y-62028D01*
Y-62314D01*
Y-62600D01*
Y-62887D01*
Y-63173D01*
Y-63459D01*
Y-63746D01*
Y-64032D01*
Y-64318D01*
Y-64605D01*
Y-64891D01*
Y-65177D01*
Y-65464D01*
Y-65750D01*
Y-66036D01*
Y-66322D01*
X1015071D01*
Y-66609D01*
Y-66895D01*
Y-67181D01*
Y-67468D01*
Y-67754D01*
Y-68040D01*
Y-68327D01*
X1014785D01*
Y-68613D01*
Y-68899D01*
Y-69186D01*
Y-69472D01*
Y-69758D01*
X1014498D01*
Y-70044D01*
Y-70331D01*
Y-70617D01*
Y-70903D01*
Y-71190D01*
X1014212D01*
Y-71476D01*
Y-71762D01*
Y-72049D01*
X1013926D01*
Y-72335D01*
Y-72621D01*
Y-72908D01*
Y-73194D01*
X1013639D01*
Y-73480D01*
Y-73767D01*
Y-74053D01*
X1013353D01*
Y-74339D01*
Y-74625D01*
X1013067D01*
Y-74912D01*
Y-75198D01*
Y-75485D01*
X1012780D01*
Y-75771D01*
Y-76057D01*
X1012494D01*
Y-76343D01*
Y-76630D01*
X1012208D01*
Y-76916D01*
Y-77202D01*
X1011921D01*
Y-77489D01*
X1011635D01*
Y-77775D01*
Y-78061D01*
X1011349D01*
Y-78348D01*
X1011062D01*
Y-78634D01*
X1010776D01*
Y-78920D01*
Y-79207D01*
X1010490D01*
Y-79493D01*
X1010203D01*
Y-79779D01*
X1009917D01*
Y-80066D01*
X1009631D01*
Y-80352D01*
X1009345D01*
Y-80638D01*
X1008772D01*
Y-80924D01*
X1008486D01*
Y-81211D01*
X1007913D01*
Y-81497D01*
X1007627D01*
Y-81783D01*
X1007054D01*
Y-82070D01*
X1006195D01*
Y-82356D01*
X1005336D01*
Y-82642D01*
X1004477D01*
Y-82929D01*
X1002759D01*
Y-83215D01*
X997606D01*
Y-82929D01*
X995029D01*
Y-82642D01*
X993025D01*
Y-82356D01*
X991593D01*
Y-82070D01*
X990162D01*
Y-81783D01*
X988730D01*
Y-82070D01*
Y-82356D01*
Y-82642D01*
Y-82929D01*
Y-83215D01*
Y-83501D01*
Y-83788D01*
X988444D01*
Y-84074D01*
Y-84360D01*
Y-84646D01*
Y-84933D01*
Y-85219D01*
Y-85505D01*
X988157D01*
Y-85792D01*
Y-86078D01*
Y-86364D01*
Y-86651D01*
Y-86937D01*
Y-87223D01*
X987871D01*
Y-87510D01*
Y-87796D01*
Y-88082D01*
Y-88369D01*
Y-88655D01*
Y-88941D01*
Y-89227D01*
X987585D01*
Y-89514D01*
Y-89800D01*
Y-90086D01*
Y-90373D01*
Y-90659D01*
Y-90945D01*
X987298D01*
Y-91232D01*
Y-91518D01*
Y-91804D01*
Y-92091D01*
Y-92377D01*
Y-92663D01*
X987012D01*
Y-92950D01*
Y-93236D01*
Y-93522D01*
Y-93809D01*
Y-94095D01*
Y-94381D01*
Y-94667D01*
X986726D01*
Y-94954D01*
Y-95240D01*
Y-95526D01*
Y-95813D01*
Y-96099D01*
Y-96385D01*
X986440D01*
Y-96672D01*
Y-96958D01*
Y-97244D01*
Y-97531D01*
Y-97817D01*
Y-98103D01*
X986153D01*
Y-98390D01*
Y-98676D01*
Y-98962D01*
Y-99248D01*
Y-99535D01*
Y-99821D01*
Y-100107D01*
X972696D01*
Y-99821D01*
X972983D01*
Y-99535D01*
Y-99248D01*
Y-98962D01*
Y-98676D01*
Y-98390D01*
X973269D01*
Y-98103D01*
Y-97817D01*
Y-97531D01*
Y-97244D01*
Y-96958D01*
Y-96672D01*
Y-96385D01*
X973555D01*
Y-96099D01*
Y-95813D01*
Y-95526D01*
Y-95240D01*
Y-94954D01*
Y-94667D01*
X973842D01*
Y-94381D01*
Y-94095D01*
Y-93809D01*
Y-93522D01*
Y-93236D01*
Y-92950D01*
X974128D01*
Y-92663D01*
Y-92377D01*
Y-92091D01*
Y-91804D01*
Y-91518D01*
Y-91232D01*
Y-90945D01*
X974414D01*
Y-90659D01*
Y-90373D01*
Y-90086D01*
Y-89800D01*
Y-89514D01*
Y-89227D01*
X974701D01*
Y-88941D01*
Y-88655D01*
Y-88369D01*
Y-88082D01*
Y-87796D01*
Y-87510D01*
X974987D01*
Y-87223D01*
Y-86937D01*
Y-86651D01*
Y-86364D01*
Y-86078D01*
Y-85792D01*
X975273D01*
Y-85505D01*
Y-85219D01*
Y-84933D01*
Y-84646D01*
Y-84360D01*
Y-84074D01*
Y-83788D01*
X975560D01*
Y-83501D01*
Y-83215D01*
Y-82929D01*
Y-82642D01*
Y-82356D01*
Y-82070D01*
X975846D01*
Y-81783D01*
Y-81497D01*
Y-81211D01*
Y-80924D01*
Y-80638D01*
Y-80352D01*
X976132D01*
Y-80066D01*
Y-79779D01*
Y-79493D01*
Y-79207D01*
Y-78920D01*
Y-78634D01*
X976419D01*
Y-78348D01*
Y-78061D01*
Y-77775D01*
Y-77489D01*
Y-77202D01*
Y-76916D01*
Y-76630D01*
X976705D01*
Y-76343D01*
Y-76057D01*
Y-75771D01*
Y-75485D01*
Y-75198D01*
Y-74912D01*
X976991D01*
Y-74625D01*
Y-74339D01*
Y-74053D01*
Y-73767D01*
Y-73480D01*
Y-73194D01*
X977277D01*
Y-72908D01*
Y-72621D01*
Y-72335D01*
Y-72049D01*
Y-71762D01*
Y-71476D01*
Y-71190D01*
X977564D01*
Y-70903D01*
Y-70617D01*
Y-70331D01*
Y-70044D01*
Y-69758D01*
Y-69472D01*
X977850D01*
Y-69186D01*
Y-68899D01*
Y-68613D01*
Y-68327D01*
Y-68040D01*
Y-67754D01*
X978137D01*
Y-67468D01*
Y-67181D01*
Y-66895D01*
Y-66609D01*
Y-66322D01*
Y-66036D01*
X978423D01*
Y-65750D01*
Y-65464D01*
Y-65177D01*
Y-64891D01*
Y-64605D01*
Y-64318D01*
Y-64032D01*
X978709D01*
Y-63746D01*
Y-63459D01*
Y-63173D01*
Y-62887D01*
Y-62600D01*
Y-62314D01*
X978995D01*
Y-62028D01*
Y-61742D01*
Y-61455D01*
Y-61169D01*
Y-60883D01*
Y-60596D01*
X979282D01*
Y-60310D01*
Y-60024D01*
Y-59737D01*
Y-59451D01*
Y-59165D01*
Y-58878D01*
Y-58592D01*
X979568D01*
Y-58306D01*
Y-58019D01*
Y-57733D01*
Y-57447D01*
Y-57161D01*
Y-56874D01*
X979854D01*
Y-56588D01*
Y-56301D01*
Y-56015D01*
Y-55729D01*
Y-55443D01*
Y-55156D01*
X980141D01*
Y-54870D01*
Y-54584D01*
Y-54297D01*
Y-54011D01*
Y-53725D01*
Y-53438D01*
Y-53152D01*
X980427D01*
Y-52866D01*
Y-52579D01*
Y-52293D01*
Y-52007D01*
Y-51720D01*
Y-51434D01*
X980713D01*
Y-51148D01*
Y-50862D01*
Y-50575D01*
Y-50289D01*
Y-50003D01*
Y-49716D01*
X1004477D01*
Y-50003D01*
D02*
G37*
G36*
X1137613Y-64032D02*
X1137326D01*
Y-64318D01*
X1137040D01*
Y-64605D01*
Y-64891D01*
X1136754D01*
Y-65177D01*
X1136467D01*
Y-65464D01*
X1136181D01*
Y-65750D01*
Y-66036D01*
X1135895D01*
Y-66322D01*
X1135608D01*
Y-66609D01*
X1135322D01*
Y-66895D01*
X1135036D01*
Y-67181D01*
Y-67468D01*
X1134750D01*
Y-67754D01*
X1134463D01*
Y-68040D01*
X1134177D01*
Y-68327D01*
Y-68613D01*
X1133891D01*
Y-68899D01*
X1133604D01*
Y-69186D01*
X1133318D01*
Y-69472D01*
X1133032D01*
Y-69758D01*
Y-70044D01*
X1132745D01*
Y-70331D01*
X1132459D01*
Y-70617D01*
X1132173D01*
Y-70903D01*
Y-71190D01*
X1131886D01*
Y-71476D01*
X1131600D01*
Y-71762D01*
X1131314D01*
Y-72049D01*
Y-72335D01*
X1131028D01*
Y-72621D01*
X1130741D01*
Y-72908D01*
X1130455D01*
Y-73194D01*
X1130169D01*
Y-73480D01*
Y-73767D01*
X1129882D01*
Y-74053D01*
X1129596D01*
Y-74339D01*
X1129310D01*
Y-74625D01*
Y-74912D01*
X1129023D01*
Y-75198D01*
X1128737D01*
Y-75485D01*
X1128451D01*
Y-75771D01*
Y-76057D01*
X1128164D01*
Y-76343D01*
X1127878D01*
Y-76630D01*
X1127592D01*
Y-76916D01*
X1127306D01*
Y-77202D01*
Y-77489D01*
X1127019D01*
Y-77775D01*
X1126733D01*
Y-78061D01*
X1126447D01*
Y-78348D01*
Y-78634D01*
X1126160D01*
Y-78920D01*
X1125874D01*
Y-79207D01*
X1125588D01*
Y-79493D01*
Y-79779D01*
X1125301D01*
Y-80066D01*
X1125015D01*
Y-80352D01*
X1124729D01*
Y-80638D01*
X1124442D01*
Y-80924D01*
Y-81211D01*
X1124156D01*
Y-81497D01*
X1123870D01*
Y-81783D01*
X1123583D01*
Y-82070D01*
Y-82356D01*
X1123297D01*
Y-82642D01*
X1123011D01*
Y-82929D01*
X1122725D01*
Y-83215D01*
X1122438D01*
Y-83501D01*
Y-83788D01*
X1122725D01*
Y-84074D01*
Y-84360D01*
X1123011D01*
Y-84646D01*
Y-84933D01*
X1123297D01*
Y-85219D01*
X1123583D01*
Y-85505D01*
Y-85792D01*
X1123870D01*
Y-86078D01*
Y-86364D01*
X1124156D01*
Y-86651D01*
Y-86937D01*
X1124442D01*
Y-87223D01*
Y-87510D01*
X1124729D01*
Y-87796D01*
Y-88082D01*
X1125015D01*
Y-88369D01*
Y-88655D01*
X1125301D01*
Y-88941D01*
Y-89227D01*
X1125588D01*
Y-89514D01*
Y-89800D01*
X1125874D01*
Y-90086D01*
X1126160D01*
Y-90373D01*
Y-90659D01*
X1126447D01*
Y-90945D01*
Y-91232D01*
X1126733D01*
Y-91518D01*
Y-91804D01*
X1127019D01*
Y-92091D01*
Y-92377D01*
X1127306D01*
Y-92663D01*
Y-92950D01*
X1127592D01*
Y-93236D01*
Y-93522D01*
X1127878D01*
Y-93809D01*
Y-94095D01*
X1128164D01*
Y-94381D01*
X1128451D01*
Y-94667D01*
Y-94954D01*
X1128737D01*
Y-95240D01*
Y-95526D01*
X1129023D01*
Y-95813D01*
Y-96099D01*
X1129310D01*
Y-96385D01*
Y-96672D01*
X1129596D01*
Y-96958D01*
Y-97244D01*
X1129882D01*
Y-97531D01*
Y-97817D01*
X1130169D01*
Y-98103D01*
Y-98390D01*
X1130455D01*
Y-98676D01*
X1130741D01*
Y-98962D01*
Y-99248D01*
X1131028D01*
Y-99535D01*
Y-99821D01*
X1131314D01*
Y-100107D01*
X1116139D01*
Y-99821D01*
X1115853D01*
Y-99535D01*
Y-99248D01*
Y-98962D01*
X1115567D01*
Y-98676D01*
Y-98390D01*
Y-98103D01*
X1115280D01*
Y-97817D01*
Y-97531D01*
X1114994D01*
Y-97244D01*
Y-96958D01*
Y-96672D01*
X1114708D01*
Y-96385D01*
Y-96099D01*
Y-95813D01*
X1114421D01*
Y-95526D01*
Y-95240D01*
X1114135D01*
Y-94954D01*
Y-94667D01*
Y-94381D01*
X1113849D01*
Y-94095D01*
Y-93809D01*
Y-93522D01*
X1113562D01*
Y-93236D01*
Y-92950D01*
Y-92663D01*
X1113276D01*
Y-92377D01*
X1112704D01*
Y-92663D01*
Y-92950D01*
X1112417D01*
Y-93236D01*
X1112131D01*
Y-93522D01*
Y-93809D01*
X1111845D01*
Y-94095D01*
X1111558D01*
Y-94381D01*
Y-94667D01*
X1111272D01*
Y-94954D01*
X1110986D01*
Y-95240D01*
Y-95526D01*
X1110699D01*
Y-95813D01*
X1110413D01*
Y-96099D01*
X1110127D01*
Y-96385D01*
Y-96672D01*
X1109840D01*
Y-96958D01*
X1109554D01*
Y-97244D01*
Y-97531D01*
X1109268D01*
Y-97817D01*
X1108981D01*
Y-98103D01*
Y-98390D01*
X1108695D01*
Y-98676D01*
X1108409D01*
Y-98962D01*
Y-99248D01*
X1108123D01*
Y-99535D01*
X1107836D01*
Y-99821D01*
Y-100107D01*
X1091803D01*
Y-99821D01*
X1092089D01*
Y-99535D01*
X1092375D01*
Y-99248D01*
X1092662D01*
Y-98962D01*
X1092948D01*
Y-98676D01*
Y-98390D01*
X1093234D01*
Y-98103D01*
X1093521D01*
Y-97817D01*
X1093807D01*
Y-97531D01*
X1094093D01*
Y-97244D01*
Y-96958D01*
X1094380D01*
Y-96672D01*
X1094666D01*
Y-96385D01*
X1094952D01*
Y-96099D01*
Y-95813D01*
X1095238D01*
Y-95526D01*
X1095525D01*
Y-95240D01*
X1095811D01*
Y-94954D01*
X1096097D01*
Y-94667D01*
Y-94381D01*
X1096384D01*
Y-94095D01*
X1096670D01*
Y-93809D01*
X1096956D01*
Y-93522D01*
X1097243D01*
Y-93236D01*
Y-92950D01*
X1097529D01*
Y-92663D01*
X1097815D01*
Y-92377D01*
X1098102D01*
Y-92091D01*
Y-91804D01*
X1098388D01*
Y-91518D01*
X1098674D01*
Y-91232D01*
X1098960D01*
Y-90945D01*
X1099247D01*
Y-90659D01*
Y-90373D01*
X1099533D01*
Y-90086D01*
X1099819D01*
Y-89800D01*
X1100106D01*
Y-89514D01*
Y-89227D01*
X1100392D01*
Y-88941D01*
X1100678D01*
Y-88655D01*
X1100965D01*
Y-88369D01*
X1101251D01*
Y-88082D01*
Y-87796D01*
X1101537D01*
Y-87510D01*
X1101824D01*
Y-87223D01*
X1102110D01*
Y-86937D01*
Y-86651D01*
X1102396D01*
Y-86364D01*
X1102683D01*
Y-86078D01*
X1102969D01*
Y-85792D01*
X1103255D01*
Y-85505D01*
Y-85219D01*
X1103541D01*
Y-84933D01*
X1103828D01*
Y-84646D01*
X1104114D01*
Y-84360D01*
X1104400D01*
Y-84074D01*
Y-83788D01*
X1104687D01*
Y-83501D01*
X1104973D01*
Y-83215D01*
X1105259D01*
Y-82929D01*
Y-82642D01*
X1105546D01*
Y-82356D01*
X1105832D01*
Y-82070D01*
X1106118D01*
Y-81783D01*
X1106405D01*
Y-81497D01*
Y-81211D01*
X1106691D01*
Y-80924D01*
Y-80638D01*
Y-80352D01*
X1106405D01*
Y-80066D01*
X1106118D01*
Y-79779D01*
Y-79493D01*
X1105832D01*
Y-79207D01*
Y-78920D01*
X1105546D01*
Y-78634D01*
Y-78348D01*
X1105259D01*
Y-78061D01*
Y-77775D01*
X1104973D01*
Y-77489D01*
Y-77202D01*
X1104687D01*
Y-76916D01*
Y-76630D01*
X1104400D01*
Y-76343D01*
X1104114D01*
Y-76057D01*
Y-75771D01*
X1103828D01*
Y-75485D01*
Y-75198D01*
X1103541D01*
Y-74912D01*
Y-74625D01*
X1103255D01*
Y-74339D01*
Y-74053D01*
X1102969D01*
Y-73767D01*
Y-73480D01*
X1102683D01*
Y-73194D01*
Y-72908D01*
X1102396D01*
Y-72621D01*
X1102110D01*
Y-72335D01*
Y-72049D01*
X1101824D01*
Y-71762D01*
Y-71476D01*
X1101537D01*
Y-71190D01*
Y-70903D01*
X1101251D01*
Y-70617D01*
Y-70331D01*
X1100965D01*
Y-70044D01*
Y-69758D01*
X1100678D01*
Y-69472D01*
Y-69186D01*
X1100392D01*
Y-68899D01*
Y-68613D01*
X1100106D01*
Y-68327D01*
X1099819D01*
Y-68040D01*
Y-67754D01*
X1099533D01*
Y-67468D01*
Y-67181D01*
X1099247D01*
Y-66895D01*
Y-66609D01*
X1098960D01*
Y-66322D01*
Y-66036D01*
X1098674D01*
Y-65750D01*
Y-65464D01*
X1098388D01*
Y-65177D01*
Y-64891D01*
X1098102D01*
Y-64605D01*
X1097815D01*
Y-64318D01*
Y-64032D01*
X1097529D01*
Y-63746D01*
X1113276D01*
Y-64032D01*
X1113562D01*
Y-64318D01*
Y-64605D01*
Y-64891D01*
X1113849D01*
Y-65177D01*
Y-65464D01*
Y-65750D01*
X1114135D01*
Y-66036D01*
Y-66322D01*
Y-66609D01*
X1114421D01*
Y-66895D01*
Y-67181D01*
Y-67468D01*
X1114708D01*
Y-67754D01*
Y-68040D01*
Y-68327D01*
X1114994D01*
Y-68613D01*
Y-68899D01*
Y-69186D01*
X1115280D01*
Y-69472D01*
Y-69758D01*
Y-70044D01*
X1115567D01*
Y-70331D01*
Y-70617D01*
Y-70903D01*
X1115853D01*
Y-71190D01*
Y-71476D01*
Y-71762D01*
Y-72049D01*
X1116426D01*
Y-71762D01*
X1116712D01*
Y-71476D01*
X1116998D01*
Y-71190D01*
Y-70903D01*
X1117284D01*
Y-70617D01*
X1117571D01*
Y-70331D01*
Y-70044D01*
X1117857D01*
Y-69758D01*
X1118143D01*
Y-69472D01*
Y-69186D01*
X1118430D01*
Y-68899D01*
X1118716D01*
Y-68613D01*
Y-68327D01*
X1119002D01*
Y-68040D01*
X1119289D01*
Y-67754D01*
Y-67468D01*
X1119575D01*
Y-67181D01*
X1119861D01*
Y-66895D01*
Y-66609D01*
X1120148D01*
Y-66322D01*
X1120434D01*
Y-66036D01*
Y-65750D01*
X1120720D01*
Y-65464D01*
X1121007D01*
Y-65177D01*
Y-64891D01*
X1121293D01*
Y-64605D01*
X1121579D01*
Y-64318D01*
Y-64032D01*
X1121865D01*
Y-63746D01*
X1137613D01*
Y-64032D01*
D02*
G37*
%LPC*%
G36*
X1000183Y-60883D02*
X992166D01*
Y-61169D01*
Y-61455D01*
Y-61742D01*
Y-62028D01*
Y-62314D01*
X991879D01*
Y-62600D01*
Y-62887D01*
Y-63173D01*
Y-63459D01*
Y-63746D01*
Y-64032D01*
X991593D01*
Y-64318D01*
Y-64605D01*
Y-64891D01*
Y-65177D01*
Y-65464D01*
Y-65750D01*
X991307D01*
Y-66036D01*
Y-66322D01*
Y-66609D01*
Y-66895D01*
Y-67181D01*
Y-67468D01*
X991020D01*
Y-67754D01*
Y-68040D01*
Y-68327D01*
Y-68613D01*
Y-68899D01*
Y-69186D01*
Y-69472D01*
X990734D01*
Y-69758D01*
Y-70044D01*
Y-70331D01*
Y-70617D01*
Y-70903D01*
Y-71190D01*
X990448D01*
Y-71476D01*
Y-71762D01*
Y-72049D01*
X997606D01*
Y-71762D01*
X998751D01*
Y-71476D01*
X999324D01*
Y-71190D01*
X999610D01*
Y-70903D01*
X999896D01*
Y-70617D01*
X1000183D01*
Y-70331D01*
X1000469D01*
Y-70044D01*
Y-69758D01*
X1000755D01*
Y-69472D01*
Y-69186D01*
X1001042D01*
Y-68899D01*
Y-68613D01*
X1001328D01*
Y-68327D01*
Y-68040D01*
Y-67754D01*
Y-67468D01*
X1001614D01*
Y-67181D01*
Y-66895D01*
Y-66609D01*
Y-66322D01*
Y-66036D01*
X1001900D01*
Y-65750D01*
Y-65464D01*
Y-65177D01*
Y-64891D01*
Y-64605D01*
Y-64318D01*
Y-64032D01*
Y-63746D01*
Y-63459D01*
Y-63173D01*
Y-62887D01*
X1001614D01*
Y-62600D01*
Y-62314D01*
X1001328D01*
Y-62028D01*
Y-61742D01*
X1001042D01*
Y-61455D01*
X1000755D01*
Y-61169D01*
X1000183D01*
Y-60883D01*
D02*
G37*
%LPD*%
D10*
X121949Y121076D02*
G03*
X120079Y125591I-6385J0D01*
G01*
X23547Y141807D02*
G03*
X30619Y138878I7071J7071D01*
G01*
X7433Y138630D02*
G03*
X7434Y138629I2016J2016D01*
G01*
D02*
G03*
X9449Y137795I2015J2018D01*
G01*
X19291Y129134D02*
G03*
X21260Y133886I-4752J4752D01*
G01*
Y135433D02*
G03*
X18898Y137795I-2362J0D01*
G01*
X13287Y125984D02*
G03*
X9423Y124384I0J-5465D01*
G01*
X8557Y123518D02*
G03*
X7087Y119968I3550J-3550D01*
G01*
Y100787D02*
G03*
X9449Y98425I2362J0D01*
G01*
X60630Y108110D02*
G03*
X50630Y118110I-10000J0D01*
G01*
X59055Y100236D02*
G03*
X49055Y110236I-10000J0D01*
G01*
X52756Y92362D02*
G03*
X51803Y96622I-10000J0D01*
G01*
D02*
G03*
X47016Y101410I-9047J-4260D01*
G01*
D02*
G03*
X42756Y102362I-4260J-9047D01*
G01*
X51181Y89370D02*
G03*
X50734Y92179I-9055J0D01*
G01*
D02*
G03*
X44935Y97979I-8608J-2809D01*
G01*
D02*
G03*
X42126Y98425I-2809J-8608D01*
G01*
X52066Y71048D02*
G03*
X55905Y72637I0J5430D01*
G01*
D02*
G03*
X55905Y72638I-3839J3840D01*
G01*
X49031Y71048D02*
G03*
X51181Y76237I-5190J5190D01*
G01*
X60630Y74803D02*
G03*
X56261Y72994I0J-6178D01*
G01*
X67809Y73137D02*
G03*
X65985Y74763I-2257J-696D01*
G01*
D02*
G03*
X65551Y74803I-434J-2322D01*
G01*
X65945Y63976D02*
G03*
X67809Y65840I0J1864D01*
G01*
X42717Y63976D02*
G03*
X41732Y62992I0J-985D01*
G01*
X52756Y79921D02*
G03*
X55905Y76772I3150J0D01*
G01*
X59055Y80315D02*
G03*
X61024Y78347I1969J0D01*
G01*
X60630Y81102D02*
G03*
X61811Y79921I1181J0D01*
G01*
X65748Y131890D02*
G03*
X67716Y129921I1969J0D01*
G01*
X68110Y137402D02*
G03*
X65748Y135039I0J-2362D01*
G01*
X73327Y149606D02*
G03*
X77863Y151486I0J6416D01*
G01*
X73327Y141732D02*
G03*
X77527Y143472I0J5941D01*
G01*
X82926Y145709D02*
G03*
X77527Y143472I0J-7636D01*
G01*
X88823Y151531D02*
G03*
X88825Y151529I3697J3697D01*
G01*
D02*
G03*
X92520Y150000I3695J3698D01*
G01*
X84646Y155709D02*
G03*
X80277Y153899I0J-6178D01*
G01*
X91204Y148425D02*
G03*
X84649Y145712I0J-9275D01*
G01*
D02*
G03*
X84646Y145709I6555J-6562D01*
G01*
X77783Y138878D02*
G03*
X79921Y139764I0J3024D01*
G01*
X81890Y140945D02*
G03*
X80546Y140388I0J-1901D01*
G01*
X85501Y140945D02*
G03*
X87402Y141732I0J2688D01*
G01*
X95276Y146850D02*
G03*
X90571Y144902I0J-6653D01*
G01*
X101969Y145669D02*
G03*
X100787Y146850I-1181J0D01*
G01*
X107087Y148819D02*
G03*
X104759Y149966I-2851J-2851D01*
G01*
D02*
G03*
X104235Y150000I-523J-3998D01*
G01*
X109843Y144882D02*
G03*
X109007Y146898I-2851J0D01*
G01*
X105905Y146063D02*
G03*
X103543Y148425I-2362J0D01*
G01*
X78529Y137402D02*
G03*
X80903Y138383I0J3360D01*
G01*
D02*
G03*
X80905Y138386I-2374J2379D01*
G01*
X83282Y139370D02*
G03*
X80905Y138386I0J-3360D01*
G01*
X80709Y133071D02*
G03*
X78808Y133858I-1901J-1901D01*
G01*
X80929Y132850D02*
G03*
X88000Y129921I7071J7071D01*
G01*
X79626Y127854D02*
G03*
X77559Y129921I-2067J0D01*
G01*
X100394Y126969D02*
G03*
X97441Y129921I-2953J0D01*
G01*
X100394Y117789D02*
G03*
X101280Y115650I3025J0D01*
G01*
X110232Y119484D02*
G03*
X112556Y124367I-5713J5713D01*
G01*
D02*
G03*
X112598Y125197I-8036J830D01*
G01*
X113779Y129579D02*
G03*
X112598Y126728I2851J-2851D01*
G01*
X116535Y131791D02*
G03*
X115608Y131408I0J-1313D01*
G01*
D02*
G03*
X115607Y131407I928J-929D01*
G01*
X118898Y131398D02*
G03*
X118896Y131399I-950J-950D01*
G01*
D02*
G03*
X117947Y131791I-949J-952D01*
G01*
X120079Y129528D02*
G03*
X119592Y130704I-1663J0D01*
G01*
X78347Y120472D02*
G03*
X78349Y120475I-3089J3089D01*
G01*
D02*
G03*
X79626Y123562I-3092J3086D01*
G01*
X68043Y115287D02*
G03*
X68042Y115286I2688J-2688D01*
G01*
D02*
G03*
X66929Y112598I2689J-2688D01*
G01*
Y109660D02*
G03*
X67911Y107286I3360J0D01*
G01*
D02*
G03*
X67913Y107283I2379J2374D01*
G01*
D02*
G03*
X70290Y106299I2376J2376D01*
G01*
X78937Y105315D02*
G03*
X76561Y106299I-2376J-2376D01*
G01*
X78937Y105315D02*
G03*
X81313Y104331I2376J2376D01*
G01*
X93701Y103150D02*
G03*
X92520Y104331I-1181J0D01*
G01*
X114567Y106299D02*
G03*
X115453Y107185I0J886D01*
G01*
X114567Y106299D02*
G03*
X113101Y105692I0J-2074D01*
G01*
X122047Y109252D02*
G03*
X123031Y110236I0J984D01*
G01*
Y115585D02*
G03*
X122638Y116535I-1344J0D01*
G01*
X108984Y101575D02*
G03*
X108981Y101573I1727J-1727D01*
G01*
D02*
G03*
X108268Y99847I1730J-1725D01*
G01*
X101181Y104724D02*
G03*
X100394Y102823I1901J-1901D01*
G01*
X112992Y90945D02*
G03*
X112991Y90946I-1901J-1901D01*
G01*
D02*
G03*
X111091Y91732I-1900J-1902D01*
G01*
X67303Y122027D02*
G03*
X65354Y117323I4705J-4705D01*
G01*
X71554Y74115D02*
G03*
X65139Y76772I-6415J-6416D01*
G01*
X75984Y65543D02*
G03*
X73055Y72614I-10000J0D01*
G01*
X72811Y75418D02*
G03*
X65740Y78347I-7071J-7071D01*
G01*
X77953Y65046D02*
G03*
X79820Y60534I6385J0D01*
G01*
D02*
G03*
X79823Y60532I4517J4512D01*
G01*
X77953Y66133D02*
G03*
X75024Y73204I-10000J0D01*
G01*
X75984Y58512D02*
G03*
X78913Y51441I10000J0D01*
G01*
X73228Y54536D02*
G03*
X76157Y47465I10000J0D01*
G01*
X84646Y45709D02*
G03*
X91094Y48378I0J9125D01*
G01*
D02*
G03*
X91098Y48381I-6448J6456D01*
G01*
X73362Y76992D02*
G03*
X66291Y79921I-7071J-7071D01*
G01*
X40945Y41271D02*
G03*
X41731Y39371I2688J0D01*
G01*
D02*
G03*
X41732Y39370I1902J1900D01*
G01*
X35433Y34646D02*
G03*
X36417Y35630I0J984D01*
G01*
X41535Y34449D02*
G03*
X40551Y33465I0J-984D01*
G01*
Y24804D02*
G03*
X40945Y23923I1181J0D01*
G01*
D02*
G03*
X41733Y23622I788J881D01*
G01*
X46457Y30709D02*
G03*
X48425Y32677I0J1969D01*
G01*
Y41705D02*
G03*
X46459Y46455I-6720J0D01*
G01*
D02*
G03*
X46457Y46457I-4753J-4750D01*
G01*
X65354Y104752D02*
G03*
X65871Y102167I6721J0D01*
G01*
D02*
G03*
X67323Y100000I6204J2585D01*
G01*
X67506Y99817D02*
G03*
X69478Y98633I3360J3360D01*
G01*
D02*
G03*
X70866Y98425I1388J4545D01*
G01*
X78740Y97638D02*
G03*
X76839Y98425I-1901J-1901D01*
G01*
X79134Y96687D02*
G03*
X78740Y97638I-1344J0D01*
G01*
X96457Y94685D02*
G03*
X99144Y95798I0J3800D01*
G01*
D02*
G03*
X100394Y98815I-3017J3017D01*
G01*
X103741Y93945D02*
G03*
X104331Y92520I2015J0D01*
G01*
D02*
G03*
X106232Y91732I1901J1901D01*
G01*
X102756Y85827D02*
G03*
X98725Y84158I0J-5704D01*
G01*
D02*
G03*
X98723Y84156I4031J-4035D01*
G01*
X106693Y84252D02*
G03*
X102892Y85827I-3801J-3801D01*
G01*
X108869Y82077D02*
G03*
X108870Y82075I2352J2352D01*
G01*
D02*
G03*
X111221Y81103I2350J2353D01*
G01*
X112944Y61960D02*
G03*
X112946Y61962I-2016J2016D01*
G01*
D02*
G03*
X113779Y63976I-2018J2015D01*
G01*
X95655Y55709D02*
G03*
X98032Y56693I0J3360D01*
G01*
X100787Y58268D02*
G03*
X98771Y57433I0J-2851D01*
G01*
X102323Y55709D02*
G03*
X100390Y55508I0J-9409D01*
G01*
D02*
G03*
X96318Y53543I1933J-9209D01*
G01*
D02*
G03*
X95673Y52956I6005J-7244D01*
G01*
D02*
G03*
X95669Y52953I6650J-6657D01*
G01*
X108465Y54724D02*
G03*
X106089Y55709I-2376J-2376D01*
G01*
X101378Y39764D02*
G03*
X98878Y45807I-8554J0D01*
G01*
D02*
G03*
X98873Y45813I-6054J-6044D01*
G01*
X100394Y29921D02*
G03*
X101378Y32297I-2376J2376D01*
G01*
X100394Y29921D02*
G03*
X99410Y27545I2376J-2376D01*
G01*
X92919Y23982D02*
G03*
X93504Y25394I-1411J1411D01*
G01*
X92808Y35918D02*
G03*
X92808Y35919I-1680J1680D01*
G01*
D02*
G03*
X93504Y37598I-1681J1680D01*
G01*
X90854Y33964D02*
G03*
X90158Y32283I1680J-1680D01*
G01*
X89406Y30469D02*
G03*
X89407Y30470I-1815J1815D01*
G01*
D02*
G03*
X89646Y30746I-1816J1813D01*
G01*
D02*
G03*
X90158Y32283I-2054J1538D01*
G01*
X79748Y43874D02*
G03*
X86819Y40945I7071J7071D01*
G01*
X98917Y40453D02*
G03*
X97729Y40945I-1188J-1188D01*
G01*
X99410Y39370D02*
G03*
X98992Y40378I-1426J0D01*
G01*
X22835Y78150D02*
G03*
X20460Y79134I-2375J-2375D01*
G01*
X33169Y34646D02*
G03*
X32972Y34449I0J-197D01*
G01*
X93701Y79527D02*
X94095D01*
X93898Y65945D02*
X109449D01*
X109646Y58268D02*
X110040Y58661D01*
X113779Y63976D02*
X115157Y65354D01*
X121949Y119094D02*
Y121076D01*
X108268Y95866D02*
X109449Y94685D01*
X79626Y125689D02*
X79646Y125709D01*
X84646D01*
X97441Y34941D02*
X98819Y33563D01*
X97441Y32185D02*
X98819Y33563D01*
X97441Y25394D02*
Y32185D01*
Y34941D02*
Y37598D01*
X94095Y33858D02*
X95472Y35236D01*
Y37598D01*
X79134Y81221D02*
X84646Y75709D01*
X101969Y133268D02*
Y141339D01*
X3937Y142126D02*
Y142323D01*
X71260Y125984D02*
X73327D01*
X103741Y113189D02*
X103937D01*
X121949Y117224D02*
Y119094D01*
X110039Y95276D02*
X117126D01*
X109449Y94685D02*
X110039Y95276D01*
X100000Y110236D02*
Y110237D01*
X97047Y107283D02*
X97048Y107284D01*
X70866Y118110D02*
X73327D01*
X84646Y75709D02*
X89882D01*
X93701Y79527D01*
X84646Y65709D02*
X93661D01*
X93701Y65748D01*
X22835Y78150D02*
X25197Y75788D01*
X4921Y68504D02*
X12598D01*
X13189Y67913D01*
X41732Y51182D02*
Y57086D01*
X35040Y45276D02*
X36417Y43898D01*
X31890Y75788D02*
X38583D01*
X39370Y76575D01*
X116142Y87795D02*
X117126D01*
X73327Y118110D02*
X75984D01*
X98032Y140157D02*
Y141732D01*
X97244Y139370D02*
X98032Y140157D01*
X107087Y35236D02*
Y37402D01*
X93307Y94685D02*
X93701Y95079D01*
X40945Y44488D02*
X41733Y45276D01*
X42913Y38189D02*
X43799D01*
X97048Y113189D02*
Y113779D01*
X96654Y113386D02*
X97048Y113779D01*
X13287Y149606D02*
X15748D01*
X4528D02*
X13287D01*
X3937Y149015D02*
X4528Y149606D01*
X15748D02*
X23547Y141807D01*
X3937Y142126D02*
X7433Y138630D01*
X9449Y137795D02*
X18898D01*
X21260Y133886D02*
Y135433D01*
X16142Y125984D02*
X19291Y129134D01*
X13287Y125984D02*
X16142D01*
X7087Y100787D02*
Y119968D01*
X8557Y123518D02*
X9423Y124384D01*
X13287Y118110D02*
X50630D01*
X13287Y110236D02*
X49055D01*
X13287Y102362D02*
X42756D01*
X9449Y98425D02*
X42126D01*
X51181Y76237D02*
Y89370D01*
X49031Y71048D02*
X52066D01*
X55905Y72637D02*
X55905Y72638D01*
X56261Y72994D01*
X60630Y74803D02*
X65551D01*
X67809Y65840D02*
Y73137D01*
Y73137D01*
X42717Y63976D02*
X65945D01*
X52756Y79921D02*
Y92362D01*
X59055Y80315D02*
Y100236D01*
X60630Y81102D02*
Y108110D01*
X65748Y131890D02*
Y135039D01*
X77863Y151486D02*
X80277Y153899D01*
X84646Y155709D02*
X88823Y151531D01*
X82926Y145709D02*
X84646D01*
X30619Y138878D02*
X77783D01*
X79921Y139764D02*
X80546Y140388D01*
X81890Y140945D02*
X85501D01*
X87402Y141732D02*
X90571Y144902D01*
X95276Y146850D02*
X100787D01*
X101969Y141339D02*
Y145669D01*
X92520Y150000D02*
X104235D01*
X107087Y148819D02*
X109007Y146898D01*
X109843Y141339D02*
Y144882D01*
X105905Y141339D02*
Y146063D01*
X91204Y148425D02*
X103543D01*
X68110Y137402D02*
X78529D01*
X83282Y139370D02*
X97244D01*
X73327Y133858D02*
X78808D01*
X80709Y133071D02*
X80929Y132850D01*
X67716Y129921D02*
X77559D01*
X79626Y125689D02*
Y127854D01*
X88000Y129921D02*
X97441D01*
X100394Y117789D02*
Y126969D01*
X101280Y115650D02*
X103741Y113189D01*
X103937D02*
X110232Y119484D01*
X112598Y125197D02*
Y126728D01*
X113779Y129579D02*
X115607Y131407D01*
X115608Y131408D01*
X116535Y131791D02*
X117947D01*
X118898Y131398D02*
X119592Y130704D01*
X120079Y125591D02*
Y129528D01*
X79626Y123562D02*
Y125689D01*
X75984Y118110D02*
X78347Y120472D01*
X68042Y115286D02*
X68043Y115287D01*
X70866Y118110D01*
X66929Y109660D02*
Y112598D01*
X70290Y106299D02*
X76561D01*
X81313Y104331D02*
X92520D01*
X93701Y95079D02*
Y103150D01*
X115453Y107185D02*
Y109252D01*
X112992Y105583D02*
X113101Y105692D01*
X120768Y109252D02*
X122047D01*
X123031Y110236D02*
Y115585D01*
X121949Y117224D02*
X122638Y116535D01*
X108268Y95866D02*
Y99847D01*
X108984Y101575D02*
X112992Y105583D01*
X103741Y107284D02*
X109216Y101808D01*
X109216D01*
Y101808D02*
Y101808D01*
X101181Y104724D02*
X103741Y107284D01*
X112992Y90945D02*
X116142Y87795D01*
X67303Y122027D02*
X71260Y125984D01*
X55905Y76772D02*
X65139D01*
X71554Y74115D02*
X73055Y72614D01*
X61024Y78347D02*
X65740D01*
X72811Y75418D02*
X75024Y73204D01*
X77953Y65046D02*
Y66133D01*
X79823Y60532D02*
X84646Y55709D01*
X75984Y58512D02*
Y65543D01*
X76157Y47465D02*
X79748Y43874D01*
X91098Y48381D02*
X93701Y50984D01*
X78913Y51441D02*
X84646Y45709D01*
X93701Y50984D02*
Y50984D01*
X61811Y79921D02*
X66291D01*
X40945Y41271D02*
Y44488D01*
X41732Y39370D02*
X42913Y38189D01*
X36417Y35630D02*
Y43898D01*
X41535Y34449D02*
X43799D01*
X40551Y24804D02*
Y33465D01*
X43799Y30709D02*
X46457D01*
X48425Y32677D02*
Y41705D01*
X41732Y51182D02*
X46457Y46457D01*
X65354Y104752D02*
Y117323D01*
X67323Y100000D02*
X67506Y99817D01*
X70866Y98425D02*
X76839D01*
X79134Y81221D02*
Y96687D01*
X93307Y94685D02*
X96457D01*
X100394Y98815D02*
Y102823D01*
X103741Y93945D02*
Y101378D01*
X106232Y91732D02*
X111091D01*
X94095Y79527D02*
X98723Y84156D01*
X102756Y85827D02*
X102892D01*
X106693Y84252D02*
X108869Y82077D01*
X111221Y81103D02*
X113977D01*
X110040Y59055D02*
X112944Y61960D01*
X84646Y55709D02*
X95655D01*
X98032Y56693D02*
X98771Y57433D01*
X100787Y58268D02*
X109646D01*
X93701Y50984D02*
X95669Y52953D01*
X102323Y55709D02*
X106089D01*
X108465Y54724D02*
X110040Y53150D01*
X98228Y46457D02*
X98873Y45813D01*
X93701Y50984D02*
X98228Y46457D01*
X101378Y32297D02*
Y39764D01*
X99410Y25394D02*
Y27545D01*
X89646Y20709D02*
X92919Y23982D01*
X84646Y15709D02*
X89646Y20709D01*
X90854Y33964D02*
X92808Y35918D01*
X92808Y35919D01*
X84646Y25709D02*
X88189Y29252D01*
X88189D02*
X89406Y30469D01*
X86819Y40945D02*
X97729D01*
X98917Y40453D02*
X98992Y40378D01*
X99410Y37598D02*
Y39370D01*
X100000Y110236D02*
X111417D01*
X11417Y79134D02*
X20460D01*
X33169Y34646D02*
X35433D01*
X73362Y76992D02*
X84646Y65709D01*
X73228Y54536D02*
Y58366D01*
D11*
X52362Y152362D02*
G03*
X52361Y152364I-1901J-1901D01*
G01*
D02*
G03*
X50461Y153150I-1900J-1902D01*
G01*
X58201Y152362D02*
G03*
X56301Y151577I0J-2689D01*
G01*
D02*
G03*
X56299Y151575I1899J-1903D01*
G01*
X63827Y150835D02*
G03*
X63826Y150834I2016J-2016D01*
G01*
D02*
G03*
X62992Y148819I2018J-2015D01*
G01*
X67126Y149803D02*
G03*
X67716Y151229I-1426J1426D01*
G01*
X66698Y149376D02*
G03*
X66142Y148031I1344J-1344D01*
G01*
X71260Y156693D02*
G03*
X69733Y156347I0J-3543D01*
G01*
D02*
G03*
X68063Y154677I1527J-3197D01*
G01*
D02*
G03*
X67716Y153150I3197J-1527D01*
G01*
X32110Y146236D02*
G03*
X39182Y143307I7071J7071D01*
G01*
X34473Y148598D02*
G03*
X41544Y145669I7071J7071D01*
G01*
X25984Y154331D02*
G03*
X23970Y153497I0J-2851D01*
G01*
D02*
G03*
X23968Y153496I2015J-2018D01*
G01*
X29528Y153543D02*
G03*
X29526Y153545I-1901J-1901D01*
G01*
D02*
G03*
X27627Y154331I-1900J-1902D01*
G01*
X7850Y131078D02*
G03*
X4921Y124007I7071J-7071D01*
G01*
X13287Y133858D02*
G03*
X8751Y131979I0J-6416D01*
G01*
X108071Y154724D02*
G03*
X105047Y153472I0J-4277D01*
G01*
D02*
G03*
X105046Y153472I3024J-3025D01*
G01*
X111095Y153472D02*
G03*
X111093Y153474I-3024J-3024D01*
G01*
D02*
G03*
X108071Y154724I-3022J-3027D01*
G01*
X112388Y152179D02*
G03*
X115748Y150787I3360J3360D01*
G01*
X124311Y146283D02*
G03*
X119807Y150787I-4504J0D01*
G01*
X92415Y133963D02*
G03*
X88201Y135709I-4214J-4214D01*
G01*
X62598Y115937D02*
G03*
X59670Y123008I-10000J0D01*
G01*
X62598Y99567D02*
G03*
X65352Y92915I9409J0D01*
G01*
D02*
G03*
X65354Y92913I6656J6651D01*
G01*
X68504Y88314D02*
G03*
X67479Y90789I-3501J0D01*
G01*
X68504Y87545D02*
G03*
X70274Y83270I6049J0D01*
G01*
D02*
G03*
X70276Y83268I4279J4275D01*
G01*
X81564Y71980D02*
G03*
X84252Y70866I2688J2688D01*
G01*
X87992Y69882D02*
G03*
X85616Y70866I-2376J-2376D01*
G01*
X87992Y69882D02*
G03*
X90368Y68898I2376J2376D01*
G01*
X123376Y75738D02*
G03*
X123378Y75740I-2257J2257D01*
G01*
D02*
G03*
X124311Y77996I-2259J2256D01*
G01*
X121260Y74803D02*
G03*
X123274Y75637I0J2851D01*
G01*
D02*
G03*
X123276Y75638I-2015J2018D01*
G01*
X114272Y114492D02*
G03*
X114567Y113779I1008J0D01*
G01*
X114949Y113398D02*
G03*
X114949Y113397I504J504D01*
G01*
D02*
G03*
X115453Y113189I504J504D01*
G01*
X121949Y105413D02*
G03*
X120472Y106890I-1476J0D01*
G01*
X118110Y108465D02*
G03*
X119685Y106890I1575J0D01*
G01*
X118110Y112205D02*
G03*
X117126Y113189I-984J0D01*
G01*
X109810Y150328D02*
G03*
X115354Y148031I5545J5545D01*
G01*
X120670Y84646D02*
G03*
X121949Y87734I-3088J3088D01*
G01*
X109449Y85827D02*
G03*
X110630Y84646I1181J0D01*
G01*
X119882Y77953D02*
G03*
X120670Y78740I0J787D01*
G01*
X116733Y53150D02*
X123228D01*
Y52362D02*
Y53150D01*
X116733D02*
Y59055D01*
X122638D01*
Y65354D01*
Y70472D01*
X115158D02*
X122638D01*
X115158D02*
Y72638D01*
X109449D02*
X115158D01*
X109449D02*
Y77953D01*
X120670Y78740D02*
Y81103D01*
X119882Y75197D02*
Y75787D01*
X102362Y48031D02*
X103150Y47244D01*
X102362Y48031D02*
Y52756D01*
X84646Y115709D02*
X89370D01*
Y122835D01*
X93307D01*
Y126772D01*
X73327Y94488D02*
X73622Y94193D01*
Y91339D02*
Y94193D01*
Y91339D02*
X74803Y90158D01*
X89764Y85709D02*
Y88386D01*
X84646Y85709D02*
X89764D01*
X114272Y126870D02*
X116929Y129528D01*
X114272Y119094D02*
Y126870D01*
X109449Y127058D02*
X113779Y131389D01*
X109449Y126772D02*
Y127058D01*
X113779Y131389D02*
Y141339D01*
X107874Y31496D02*
X117717D01*
X119882Y38976D02*
Y46260D01*
Y33661D02*
Y38976D01*
X69291Y96063D02*
X70866Y94488D01*
X67323Y96063D02*
X69291D01*
X65748Y97638D02*
X67323Y96063D01*
X70866Y94488D02*
X73327D01*
X113779Y134055D02*
X119095D01*
X103741Y133071D02*
X109449D01*
X102953Y62205D02*
X103150Y62008D01*
X97638Y62205D02*
X102953D01*
X102362Y76575D02*
Y83465D01*
Y76575D02*
X103150Y75787D01*
X103741Y119095D02*
Y133071D01*
X73327Y110236D02*
X80314D01*
X83267Y107283D01*
X73327Y102362D02*
X82284D01*
X83268Y101378D01*
X109449Y133071D02*
X109843Y133465D01*
X93307Y88386D02*
X109449D01*
X89764Y101181D02*
X89961Y101378D01*
X89764Y88386D02*
Y101181D01*
Y88386D02*
X93307D01*
X117717Y31496D02*
X119882Y33661D01*
X89764Y58268D02*
X93701D01*
X89764Y72047D02*
X93701D01*
X89764Y43504D02*
X93701D01*
X84842Y5512D02*
X93504D01*
X84646Y5709D02*
X84842Y5512D01*
X54724Y150000D02*
Y150000D01*
X52362Y152362D02*
X54724Y150000D01*
X58201Y152362D02*
X60630D01*
X54724Y150000D02*
X56299Y151575D01*
X63827Y150835D02*
X65354Y152362D01*
X62992Y145669D02*
Y148819D01*
X66698Y149376D02*
X67126Y149803D01*
X66142Y143307D02*
Y148031D01*
X71260Y156693D02*
X73622D01*
X67716Y151229D02*
Y153150D01*
X26772Y151575D02*
X32110Y146236D01*
X39182Y143307D02*
X66142D01*
X41544Y145669D02*
X62992D01*
X22047Y151575D02*
X23968Y153496D01*
X25984Y154331D02*
X27627D01*
X29528Y153543D02*
X34473Y148598D01*
X4921Y75197D02*
Y124007D01*
X7850Y131078D02*
X8751Y131979D01*
X105046Y153472D02*
X105047Y153472D01*
X111095Y153472D02*
X112388Y152179D01*
X115748Y150787D02*
X119807D01*
X85433Y135709D02*
X88201D01*
X93307Y133071D02*
X103741D01*
X92415Y133963D02*
X93307Y133071D01*
X46850Y135827D02*
X59670Y123008D01*
X62598Y99567D02*
Y115937D01*
X65354Y92913D02*
X67479Y90789D01*
X68504Y87545D02*
Y88314D01*
X70276Y83268D02*
X81564Y71980D01*
X84252Y70866D02*
X85616D01*
X90368Y68898D02*
X102362D01*
X123276Y75638D02*
X123376Y75738D01*
X124311Y77996D02*
Y146283D01*
X118898Y74803D02*
X121260D01*
X122047Y52362D02*
X123228D01*
X119882Y46260D02*
X120472Y46850D01*
Y50787D01*
X122047Y52362D01*
X114272Y114492D02*
Y119094D01*
X114567Y113779D02*
X114949Y113398D01*
X114949Y113397D01*
X115157Y113189D02*
X115453D01*
X117126D01*
X121949Y102165D02*
Y105413D01*
X119685Y106890D02*
X120472D01*
X118110Y111220D02*
X120768D01*
X118110Y108465D02*
Y111220D01*
Y112205D01*
X108563Y151575D02*
X109810Y150328D01*
X103937Y152362D02*
X105046Y153472D01*
X48425Y153150D02*
X50461D01*
X121949Y87734D02*
Y87795D01*
Y87734D02*
Y102165D01*
X120670Y81103D02*
Y84646D01*
X109449Y85827D02*
Y86024D01*
Y85827D02*
Y88386D01*
X110630Y84646D02*
X120670D01*
X109449Y77953D02*
X119882D01*
X118110Y0D02*
G03*
X125984Y7874I-0J7874D01*
G01*
Y153543D02*
G03*
X118110Y161417I-7874J-0D01*
G01*
X7874Y161417D02*
G03*
X0Y153543I0J-7874D01*
G01*
Y7874D02*
G03*
X7874Y0I7874J0D01*
G01*
X118110D01*
X0Y7874D02*
Y153543D01*
X7874Y161417D02*
X118110D01*
X125984Y7874D02*
Y153543D01*
X1311024Y-137795D02*
Y-98425D01*
X1153543Y-59055D02*
X1429134D01*
X1153543Y-98425D02*
X1429134D01*
X956693Y-137795D02*
X1429134D01*
X956693Y-19685D02*
X1429134D01*
X956693Y-177165D02*
Y-19685D01*
X1153543Y-177165D02*
Y-19685D01*
X-224410Y992126D02*
X1429134D01*
Y-177165D02*
Y992126D01*
X-224410Y-177165D02*
Y992126D01*
Y-177165D02*
X1429134D01*
X1167322Y-163388D02*
X1163386D01*
Y-169291D01*
X1167322D01*
X1163386Y-166340D02*
X1165354D01*
X1173225Y-164372D02*
X1172241Y-163388D01*
X1170273D01*
X1169289Y-164372D01*
Y-165356D01*
X1170273Y-166340D01*
X1172241D01*
X1173225Y-167324D01*
Y-168307D01*
X1172241Y-169291D01*
X1170273D01*
X1169289Y-168307D01*
X1175193Y-169291D02*
Y-163388D01*
X1178145D01*
X1179129Y-164372D01*
Y-166340D01*
X1178145Y-167324D01*
X1175193D01*
X1181097Y-169291D02*
X1183064D01*
X1182081D01*
Y-163388D01*
X1181097Y-164372D01*
X1189952Y-169291D02*
X1186016D01*
X1189952Y-165356D01*
Y-164372D01*
X1188968Y-163388D01*
X1187000D01*
X1186016Y-164372D01*
X1191920Y-170275D02*
X1195856D01*
X1197824Y-169291D02*
Y-163388D01*
X1200775D01*
X1201759Y-164372D01*
Y-166340D01*
X1200775Y-167324D01*
X1197824D01*
X1199791D02*
X1201759Y-169291D01*
X1207663Y-164372D02*
X1206679Y-163388D01*
X1204711D01*
X1203727Y-164372D01*
Y-168307D01*
X1204711Y-169291D01*
X1206679D01*
X1207663Y-168307D01*
Y-166340D01*
X1205695D01*
X1209631Y-163388D02*
Y-169291D01*
X1212582D01*
X1213566Y-168307D01*
Y-167324D01*
X1212582Y-166340D01*
X1209631D01*
X1212582D01*
X1213566Y-165356D01*
Y-164372D01*
X1212582Y-163388D01*
X1209631D01*
X1215534D02*
Y-169291D01*
X1217502Y-167324D01*
X1219470Y-169291D01*
Y-163388D01*
X1221438Y-170275D02*
X1225374D01*
X1227341Y-164372D02*
X1228325Y-163388D01*
X1230293D01*
X1231277Y-164372D01*
Y-168307D01*
X1230293Y-169291D01*
X1228325D01*
X1227341Y-168307D01*
Y-164372D01*
X1233245Y-169291D02*
X1235213D01*
X1234229D01*
Y-163388D01*
X1233245Y-164372D01*
X1238165Y-169291D02*
Y-168307D01*
X1239149D01*
Y-169291D01*
X1238165D01*
X1243084D02*
Y-163388D01*
X1246036D01*
X1247020Y-164372D01*
Y-166340D01*
X1246036Y-167324D01*
X1243084D01*
X1252924Y-165356D02*
X1249972D01*
X1248988Y-166340D01*
Y-168307D01*
X1249972Y-169291D01*
X1252924D01*
X1254892Y-163388D02*
Y-169291D01*
X1257843D01*
X1258827Y-168307D01*
Y-167324D01*
Y-166340D01*
X1257843Y-165356D01*
X1254892D01*
X1260795Y-163388D02*
Y-169291D01*
X1263747D01*
X1264731Y-168307D01*
Y-164372D01*
X1263747Y-163388D01*
X1260795D01*
X1267683Y-169291D02*
X1269651D01*
X1270635Y-168307D01*
Y-166340D01*
X1269651Y-165356D01*
X1267683D01*
X1266699Y-166340D01*
Y-168307D01*
X1267683Y-169291D01*
X1276538Y-165356D02*
X1273586D01*
X1272602Y-166340D01*
Y-168307D01*
X1273586Y-169291D01*
X1276538D01*
D12*
X44488Y68504D02*
G03*
X47244Y65748I2756J0D01*
G01*
X53732D02*
G03*
X60803Y68677I0J10000D01*
G01*
X113237Y111220D02*
G03*
X111811Y110630I0J-2016D01*
G01*
X95335Y16430D02*
G03*
X95333Y16429I2044J-2044D01*
G01*
D02*
G03*
X94488Y14387I2045J-2042D01*
G01*
X105905Y25197D02*
G03*
X102957Y23976I0J-4169D01*
G01*
X106722Y25591D02*
G03*
X106269Y25571I0J-5377D01*
G01*
D02*
G03*
X105328Y25407I453J-5358D01*
G01*
X106112Y25404D02*
G03*
X106269Y25571I-2352J2352D01*
G01*
D02*
G03*
X106285Y25591I-2509J2184D01*
G01*
D02*
G03*
X107087Y27756I-2525J2165D01*
G01*
X78740Y5709D02*
X84646D01*
X78740D02*
Y12205D01*
X75689D02*
X78740D01*
X75689D02*
Y14665D01*
X57087Y17717D02*
Y31496D01*
X46850Y17717D02*
X57087D01*
X46850Y9843D02*
Y17717D01*
X41733D02*
X46850D01*
X18996Y67913D02*
Y75787D01*
X21457Y58071D02*
Y62697D01*
X24213D01*
Y67913D01*
X18996D02*
X24213D01*
X18110Y75787D02*
X18996D01*
X13287Y94488D02*
X44488D01*
X97048Y107284D02*
X100000Y110236D01*
X97048Y113189D02*
X100000Y110237D01*
X97048Y101378D02*
Y107284D01*
X89960Y107283D02*
X97047D01*
X13977Y51181D02*
X35040D01*
X35039Y57086D02*
Y62992D01*
Y66535D01*
X37598Y69095D02*
X39370D01*
X33661Y67913D02*
X35039Y66535D01*
X72835Y17520D02*
Y31496D01*
X95472Y25394D02*
Y28543D01*
X94488Y29528D02*
X95472Y28543D01*
X91614Y29528D02*
X94488D01*
X89646Y27559D02*
X91614Y29528D01*
X75689Y14665D02*
X81693Y20669D01*
X72835Y17520D02*
X75689Y14665D01*
X81693Y20669D02*
X86614D01*
X89646Y23701D01*
Y27559D01*
X93504Y12205D02*
X94488Y13190D01*
X29528Y54331D02*
Y56299D01*
X30315Y57086D01*
X35039D01*
X24213Y67913D02*
X31890D01*
X33661D01*
X92126Y113386D02*
X96654D01*
X97048Y113779D02*
Y119095D01*
X105118Y39370D02*
X105512D01*
X112402Y46260D01*
X105118Y39370D02*
X107087Y37402D01*
X44488Y68504D02*
Y94488D01*
X47244Y65748D02*
X53732D01*
X60803Y68677D02*
X63173Y71048D01*
X113237Y111220D02*
X115453D01*
X109449Y108268D02*
X111417Y110236D01*
X111811Y110630D01*
X94488Y13190D02*
Y14387D01*
X95333Y16429D02*
X95335Y16430D01*
X101892Y22911D02*
X102957Y23976D01*
X95335Y16430D02*
X101854Y22949D01*
X105512Y25591D02*
X106285D01*
X106722D01*
X107087D01*
X105328Y25407D02*
X105512Y25591D01*
X105905Y25197D02*
X106112Y25404D01*
X1314961Y-110236D02*
Y-102365D01*
X1318896D01*
X1320208Y-103677D01*
Y-106300D01*
X1318896Y-107612D01*
X1314961D01*
X1317584D02*
X1320208Y-110236D01*
X1326768D02*
X1324144D01*
X1322832Y-108924D01*
Y-106300D01*
X1324144Y-104989D01*
X1326768D01*
X1328080Y-106300D01*
Y-107612D01*
X1322832D01*
X1330704Y-104989D02*
X1333327Y-110236D01*
X1335951Y-104989D01*
X960630Y-141735D02*
Y-149606D01*
X964566D01*
X965878Y-148294D01*
Y-143047D01*
X964566Y-141735D01*
X960630D01*
X972437Y-149606D02*
X969813D01*
X968501Y-148294D01*
Y-145671D01*
X969813Y-144359D01*
X972437D01*
X973749Y-145671D01*
Y-146983D01*
X968501D01*
X976373Y-149606D02*
X980309D01*
X981621Y-148294D01*
X980309Y-146983D01*
X977685D01*
X976373Y-145671D01*
X977685Y-144359D01*
X981621D01*
X986868Y-152230D02*
X988180D01*
X989492Y-150918D01*
Y-144359D01*
X985556D01*
X984244Y-145671D01*
Y-148294D01*
X985556Y-149606D01*
X989492D01*
X992116D02*
X994740D01*
X993428D01*
Y-144359D01*
X992116D01*
X998675Y-149606D02*
Y-144359D01*
X1002611D01*
X1003923Y-145671D01*
Y-149606D01*
X1010483D02*
X1007859D01*
X1006547Y-148294D01*
Y-145671D01*
X1007859Y-144359D01*
X1010483D01*
X1011794Y-145671D01*
Y-146983D01*
X1006547D01*
X1014418Y-144359D02*
Y-149606D01*
Y-146983D01*
X1015730Y-145671D01*
X1017042Y-144359D01*
X1018354D01*
X1157480Y-23625D02*
Y-31496D01*
X1161416D01*
X1162728Y-30184D01*
Y-24937D01*
X1161416Y-23625D01*
X1157480D01*
X1166664Y-31496D02*
X1169287D01*
X1170599Y-30184D01*
Y-27560D01*
X1169287Y-26248D01*
X1166664D01*
X1165352Y-27560D01*
Y-30184D01*
X1166664Y-31496D01*
X1178471Y-26248D02*
X1174535D01*
X1173223Y-27560D01*
Y-30184D01*
X1174535Y-31496D01*
X1178471D01*
X1181095Y-26248D02*
Y-30184D01*
X1182407Y-31496D01*
X1186342D01*
Y-26248D01*
X1188966Y-31496D02*
Y-26248D01*
X1190278D01*
X1191590Y-27560D01*
Y-31496D01*
Y-27560D01*
X1192902Y-26248D01*
X1194214Y-27560D01*
Y-31496D01*
X1200774D02*
X1198150D01*
X1196838Y-30184D01*
Y-27560D01*
X1198150Y-26248D01*
X1200774D01*
X1202085Y-27560D01*
Y-28872D01*
X1196838D01*
X1204709Y-31496D02*
Y-26248D01*
X1208645D01*
X1209957Y-27560D01*
Y-31496D01*
X1213893Y-24937D02*
Y-26248D01*
X1212581D01*
X1215205D01*
X1213893D01*
Y-30184D01*
X1215205Y-31496D01*
X1157480Y-62995D02*
Y-70866D01*
X1162728D01*
X1166664Y-65618D02*
X1169287D01*
X1170599Y-66930D01*
Y-70866D01*
X1166664D01*
X1165352Y-69554D01*
X1166664Y-68242D01*
X1170599D01*
X1173223Y-65618D02*
Y-69554D01*
X1174535Y-70866D01*
X1178471D01*
Y-72178D01*
X1177159Y-73490D01*
X1175847D01*
X1178471Y-70866D02*
Y-65618D01*
X1185030Y-70866D02*
X1182407D01*
X1181095Y-69554D01*
Y-66930D01*
X1182407Y-65618D01*
X1185030D01*
X1186342Y-66930D01*
Y-68242D01*
X1181095D01*
X1188966Y-65618D02*
Y-70866D01*
Y-68242D01*
X1190278Y-66930D01*
X1191590Y-65618D01*
X1192902D01*
X1204709Y-70866D02*
Y-62995D01*
X1209957Y-70866D01*
Y-62995D01*
X1213893Y-65618D02*
X1216516D01*
X1217828Y-66930D01*
Y-70866D01*
X1213893D01*
X1212581Y-69554D01*
X1213893Y-68242D01*
X1217828D01*
X1220452Y-70866D02*
Y-65618D01*
X1221764D01*
X1223076Y-66930D01*
Y-70866D01*
Y-66930D01*
X1224388Y-65618D01*
X1225700Y-66930D01*
Y-70866D01*
X1232259D02*
X1229636D01*
X1228324Y-69554D01*
Y-66930D01*
X1229636Y-65618D01*
X1232259D01*
X1233571Y-66930D01*
Y-68242D01*
X1228324D01*
X1157480Y-102365D02*
Y-110236D01*
X1161416D01*
X1162728Y-108924D01*
Y-103677D01*
X1161416Y-102365D01*
X1157480D01*
X1166664Y-104989D02*
X1169287D01*
X1170599Y-106300D01*
Y-110236D01*
X1166664D01*
X1165352Y-108924D01*
X1166664Y-107612D01*
X1170599D01*
X1174535Y-103677D02*
Y-104989D01*
X1173223D01*
X1175847D01*
X1174535D01*
Y-108924D01*
X1175847Y-110236D01*
X1183719D02*
X1181095D01*
X1179783Y-108924D01*
Y-106300D01*
X1181095Y-104989D01*
X1183719D01*
X1185030Y-106300D01*
Y-107612D01*
X1179783D01*
X1157480Y-141735D02*
Y-149606D01*
X1161416D01*
X1162728Y-148294D01*
Y-143047D01*
X1161416Y-141735D01*
X1157480D01*
X1166664Y-149606D02*
X1169287D01*
X1170599Y-148294D01*
Y-145671D01*
X1169287Y-144359D01*
X1166664D01*
X1165352Y-145671D01*
Y-148294D01*
X1166664Y-149606D01*
X1178471Y-144359D02*
X1174535D01*
X1173223Y-145671D01*
Y-148294D01*
X1174535Y-149606D01*
X1178471D01*
X1181095Y-144359D02*
Y-148294D01*
X1182407Y-149606D01*
X1186342D01*
Y-144359D01*
X1188966Y-149606D02*
Y-144359D01*
X1190278D01*
X1191590Y-145671D01*
Y-149606D01*
Y-145671D01*
X1192902Y-144359D01*
X1194214Y-145671D01*
Y-149606D01*
X1200774D02*
X1198150D01*
X1196838Y-148294D01*
Y-145671D01*
X1198150Y-144359D01*
X1200774D01*
X1202085Y-145671D01*
Y-146983D01*
X1196838D01*
X1204709Y-149606D02*
Y-144359D01*
X1208645D01*
X1209957Y-145671D01*
Y-149606D01*
X1213893Y-143047D02*
Y-144359D01*
X1212581D01*
X1215205D01*
X1213893D01*
Y-148294D01*
X1215205Y-149606D01*
D13*
X40350Y5319D02*
G03*
X46063Y2953I5713J5713D01*
G01*
X59449D02*
G03*
X61369Y3298I0J5512D01*
G01*
D02*
G03*
X64615Y6544I-1920J5167D01*
G01*
D02*
G03*
X64961Y8465I-5167J1920D01*
G01*
X84646Y35709D02*
G03*
X78658Y38189I-5988J-5988D01*
G01*
X74356D02*
G03*
X67727Y35443I0J-9375D01*
G01*
D02*
G03*
X67726Y35443I2352J-2353D01*
G01*
X65796Y33512D02*
G03*
X64961Y31496I2016J-2016D01*
G01*
X29134Y38189D02*
X32972D01*
X35040Y10630D02*
X35827Y9843D01*
X35040Y10630D02*
Y17717D01*
X32284Y20472D02*
X35040Y17717D01*
X29921Y20472D02*
X32284D01*
X35040Y23228D01*
X35827Y9843D02*
X40350Y5319D01*
X46063Y2953D02*
X59449D01*
X64961Y8465D02*
Y31496D01*
X74356Y38189D02*
X78658D01*
X65796Y33512D02*
X67726Y35443D01*
X67727Y35443D01*
X33858Y24804D02*
X35040Y23622D01*
X33858Y24804D02*
Y30709D01*
X32972D02*
X33858D01*
D14*
X11921Y43984D02*
G03*
X13976Y48946I-4962J4962D01*
G01*
Y58071D02*
Y67126D01*
X13189Y67913D02*
X13976Y67126D01*
Y48946D02*
Y49606D01*
Y48946D02*
Y58071D01*
X8083Y40146D02*
X11921Y43984D01*
D15*
X30625Y34449D02*
G03*
X28040Y33378I0J-3657D01*
G01*
X11417Y94488D02*
X13287D01*
X11417Y69685D02*
Y75787D01*
Y69685D02*
X12598Y68504D01*
X11417Y75787D02*
Y94488D01*
X30625Y34449D02*
X32972D01*
X21445Y26783D02*
X28040Y33378D01*
D16*
X110040Y53150D02*
D03*
X116733D02*
D03*
X110040Y59055D02*
D03*
X116733D02*
D03*
X113977Y81103D02*
D03*
X120670D02*
D03*
X103741Y101378D02*
D03*
X97048D02*
D03*
X31890Y75788D02*
D03*
X25197D02*
D03*
X35039Y62992D02*
D03*
X41732D02*
D03*
X41733Y23622D02*
D03*
X35040D02*
D03*
X41733Y51181D02*
D03*
X35040D02*
D03*
X35039Y57086D02*
D03*
X41732D02*
D03*
X18110Y75787D02*
D03*
X11417D02*
D03*
X35040Y45276D02*
D03*
X41733D02*
D03*
X83267Y107283D02*
D03*
X89960D02*
D03*
X103741Y119095D02*
D03*
X97048D02*
D03*
X89961Y101378D02*
D03*
X83268D02*
D03*
X103741Y113189D02*
D03*
X97048D02*
D03*
X103741Y107284D02*
D03*
X97048D02*
D03*
X41733Y17717D02*
D03*
X35040D02*
D03*
D17*
X109449Y65945D02*
D03*
Y72638D02*
D03*
X4921Y75197D02*
D03*
Y68504D02*
D03*
X3937Y142323D02*
D03*
Y149015D02*
D03*
X93504Y5512D02*
D03*
Y12205D02*
D03*
D18*
X21445Y40146D02*
D03*
X8083Y26783D02*
D03*
D19*
Y40146D02*
D03*
X21445Y26783D02*
D03*
D20*
X103150Y47244D02*
D03*
X93701Y50984D02*
D03*
X103150Y62008D02*
D03*
X93701Y65748D02*
D03*
X103150Y75787D02*
D03*
X93701Y79527D02*
D03*
D21*
X93701Y43504D02*
D03*
Y58268D02*
D03*
Y72047D02*
D03*
D22*
X118898Y74803D02*
D03*
X115157Y65354D02*
D03*
D23*
X122638Y65354D02*
D03*
D24*
X43799Y38189D02*
D03*
Y34449D02*
D03*
Y30709D02*
D03*
X32972D02*
D03*
Y34449D02*
D03*
Y38189D02*
D03*
D25*
X13189Y67913D02*
D03*
X24213D02*
D03*
X46850Y9843D02*
D03*
X35827D02*
D03*
D26*
X98032Y141339D02*
D03*
X105905D02*
D03*
X113779D02*
D03*
X109843D02*
D03*
X101969D02*
D03*
D27*
X118898Y156201D02*
D03*
X92913D02*
D03*
D28*
X115453Y111220D02*
D03*
X120768Y109252D02*
D03*
Y111220D02*
D03*
Y113189D02*
D03*
X115453D02*
D03*
Y109252D02*
D03*
D29*
X121949Y119094D02*
D03*
X119390D02*
D03*
X116831D02*
D03*
X114272D02*
D03*
Y102165D02*
D03*
X116831D02*
D03*
X119390D02*
D03*
X121949D02*
D03*
D30*
X39370Y69095D02*
D03*
Y76575D02*
D03*
X117126Y95276D02*
D03*
Y87795D02*
D03*
D31*
X63687Y86288D02*
D03*
X55687D02*
D03*
X47887D02*
D03*
X39887D02*
D03*
X32087D02*
D03*
X24287D02*
D03*
D32*
X13287Y94488D02*
D03*
Y102362D02*
D03*
Y110236D02*
D03*
Y118110D02*
D03*
Y125984D02*
D03*
Y133858D02*
D03*
Y141732D02*
D03*
Y149606D02*
D03*
X73327D02*
D03*
Y141732D02*
D03*
Y133858D02*
D03*
Y125984D02*
D03*
Y118110D02*
D03*
Y110236D02*
D03*
Y102362D02*
D03*
Y94488D02*
D03*
D33*
X117717Y31496D02*
D03*
D34*
X107087Y25591D02*
D03*
Y37402D02*
D03*
D35*
X107874Y31496D02*
D03*
D36*
X93504Y37598D02*
D03*
X97441D02*
D03*
Y25394D02*
D03*
X95472D02*
D03*
X93504D02*
D03*
X99410D02*
D03*
Y37598D02*
D03*
X95472D02*
D03*
D37*
X107087Y35236D02*
D03*
Y27756D02*
D03*
D38*
X109449Y88386D02*
D03*
X93307D02*
D03*
Y94685D02*
D03*
X109449D02*
D03*
Y126772D02*
D03*
X93307D02*
D03*
Y133071D02*
D03*
X109449D02*
D03*
D39*
X13976Y58071D02*
D03*
X21457D02*
D03*
X112402Y46260D02*
D03*
X119882D02*
D03*
D40*
X35040Y23228D02*
Y23622D01*
X1175197Y-76776D02*
X1184380D01*
X1179789D01*
Y-90551D01*
X1191268D02*
X1195860D01*
X1198155Y-88255D01*
Y-83664D01*
X1195860Y-81368D01*
X1191268D01*
X1188972Y-83664D01*
Y-88255D01*
X1191268Y-90551D01*
X1202747Y-95143D02*
Y-81368D01*
X1209635D01*
X1211930Y-83664D01*
Y-88255D01*
X1209635Y-90551D01*
X1202747D01*
X1230297Y-76776D02*
Y-90551D01*
X1239481D01*
X1246368Y-81368D02*
X1250960D01*
X1253256Y-83664D01*
Y-90551D01*
X1246368D01*
X1244072Y-88255D01*
X1246368Y-85960D01*
X1253256D01*
X1257847Y-81368D02*
Y-88255D01*
X1260143Y-90551D01*
X1267031D01*
Y-92847D01*
X1264735Y-95143D01*
X1262439D01*
X1267031Y-90551D02*
Y-81368D01*
X1278510Y-90551D02*
X1273918D01*
X1271622Y-88255D01*
Y-83664D01*
X1273918Y-81368D01*
X1278510D01*
X1280806Y-83664D01*
Y-85960D01*
X1271622D01*
X1285398Y-81368D02*
Y-90551D01*
Y-85960D01*
X1287693Y-83664D01*
X1289989Y-81368D01*
X1292285D01*
X978347Y-155517D02*
Y-171260D01*
X983594Y-166012D01*
X988842Y-171260D01*
Y-155517D01*
X994089Y-171260D02*
X999337D01*
X996713D01*
Y-160765D01*
X994089D01*
X1007209Y-171260D02*
Y-160765D01*
X1009832D01*
X1012456Y-163388D01*
Y-171260D01*
Y-163388D01*
X1015080Y-160765D01*
X1017704Y-163388D01*
Y-171260D01*
X1022952Y-155517D02*
Y-166012D01*
X1028199Y-171260D01*
X1033447Y-166012D01*
Y-155517D01*
X1049190Y-158141D02*
X1046566Y-155517D01*
X1041318D01*
X1038694Y-158141D01*
Y-168636D01*
X1041318Y-171260D01*
X1046566D01*
X1049190Y-168636D01*
Y-163388D01*
X1043942D01*
X1332677Y-118771D02*
X1335301Y-116147D01*
X1340549D01*
X1343172Y-118771D01*
Y-129266D01*
X1340549Y-131890D01*
X1335301D01*
X1332677Y-129266D01*
Y-118771D01*
X1348420Y-131890D02*
X1353668D01*
X1351044D01*
Y-116147D01*
X1348420Y-118771D01*
X1178475Y-131890D02*
X1169291D01*
X1178475Y-122706D01*
Y-120411D01*
X1176179Y-118115D01*
X1171587D01*
X1169291Y-120411D01*
X1183066Y-131890D02*
X1192250Y-122706D01*
X1196842Y-120411D02*
X1199137Y-118115D01*
X1203729D01*
X1206025Y-120411D01*
Y-129594D01*
X1203729Y-131890D01*
X1199137D01*
X1196842Y-129594D01*
Y-120411D01*
X1219800Y-118115D02*
X1210617D01*
Y-125002D01*
X1215208Y-122706D01*
X1217504D01*
X1219800Y-125002D01*
Y-129594D01*
X1217504Y-131890D01*
X1212912D01*
X1210617Y-129594D01*
X1224392Y-131890D02*
X1233575Y-122706D01*
X1247350Y-131890D02*
X1238167D01*
X1247350Y-122706D01*
Y-120411D01*
X1245054Y-118115D01*
X1240463D01*
X1238167Y-120411D01*
X1251942D02*
X1254238Y-118115D01*
X1258829D01*
X1261125Y-120411D01*
Y-129594D01*
X1258829Y-131890D01*
X1254238D01*
X1251942Y-129594D01*
Y-120411D01*
X1265717Y-131890D02*
X1270309D01*
X1268013D01*
Y-118115D01*
X1265717Y-120411D01*
X1286380Y-118115D02*
X1281788Y-120411D01*
X1277196Y-125002D01*
Y-129594D01*
X1279492Y-131890D01*
X1284084D01*
X1286380Y-129594D01*
Y-127298D01*
X1284084Y-125002D01*
X1277196D01*
X1173881Y-37407D02*
X1163386D01*
Y-53150D01*
X1173881D01*
X1163386Y-45278D02*
X1168633D01*
X1189624Y-40031D02*
X1187000Y-37407D01*
X1181753D01*
X1179129Y-40031D01*
Y-42654D01*
X1181753Y-45278D01*
X1187000D01*
X1189624Y-47902D01*
Y-50526D01*
X1187000Y-53150D01*
X1181753D01*
X1179129Y-50526D01*
X1194872Y-53150D02*
Y-37407D01*
X1202743D01*
X1205367Y-40031D01*
Y-45278D01*
X1202743Y-47902D01*
X1194872D01*
X1210615Y-53150D02*
X1215862D01*
X1213239D01*
Y-37407D01*
X1210615Y-40031D01*
X1234229Y-53150D02*
X1223734D01*
X1234229Y-42654D01*
Y-40031D01*
X1231605Y-37407D01*
X1226358D01*
X1223734Y-40031D01*
X1239477Y-55773D02*
X1249972D01*
X1255220Y-53150D02*
Y-37407D01*
X1263091D01*
X1265715Y-40031D01*
Y-45278D01*
X1263091Y-47902D01*
X1255220D01*
X1260467D02*
X1265715Y-53150D01*
X1281458Y-40031D02*
X1278834Y-37407D01*
X1273586D01*
X1270963Y-40031D01*
Y-50526D01*
X1273586Y-53150D01*
X1278834D01*
X1281458Y-50526D01*
Y-45278D01*
X1276210D01*
X1286705Y-37407D02*
Y-53150D01*
X1294577D01*
X1297201Y-50526D01*
Y-47902D01*
X1294577Y-45278D01*
X1286705D01*
X1294577D01*
X1297201Y-42654D01*
Y-40031D01*
X1294577Y-37407D01*
X1286705D01*
X1302448D02*
Y-53150D01*
X1307696Y-47902D01*
X1312944Y-53150D01*
Y-37407D01*
D41*
X119154Y63050D02*
X120450Y61753D01*
D42*
X120079Y125591D02*
D03*
D43*
X109449Y108268D02*
D03*
X63173Y71048D02*
D03*
X49031D02*
D03*
Y56905D02*
D03*
D44*
X84646Y5709D02*
D03*
Y85709D02*
D03*
Y115709D02*
D03*
D45*
Y15709D02*
D03*
Y25709D02*
D03*
Y35709D02*
D03*
Y35709D02*
D03*
Y45709D02*
D03*
Y55709D02*
D03*
Y65709D02*
D03*
Y75709D02*
D03*
Y155709D02*
D03*
Y145709D02*
D03*
D46*
X64961Y31496D02*
D03*
X72835D02*
D03*
X57087D02*
D03*
D47*
X72835Y7874D02*
D03*
X57087D02*
D03*
X84646Y135709D02*
D03*
Y125709D02*
D03*
D48*
X19685Y11811D02*
D03*
X106299D02*
D03*
D49*
X102362Y52756D02*
D03*
Y68898D02*
D03*
X123228Y52362D02*
D03*
X73228Y58366D02*
D03*
X29134Y38189D02*
D03*
X116929Y129528D02*
D03*
X98819Y33563D02*
D03*
X94095Y33858D02*
D03*
X46850Y135827D02*
D03*
X65748Y97638D02*
D03*
X74803Y90158D02*
D03*
X119095Y134055D02*
D03*
X44488Y94488D02*
D03*
X103937Y152362D02*
D03*
X115354Y148031D02*
D03*
X108563Y151575D02*
D03*
X62992Y145669D02*
D03*
X97638Y62205D02*
D03*
X102362Y83465D02*
D03*
X101892Y22911D02*
D03*
X29921Y20472D02*
D03*
X29528Y54331D02*
D03*
X31890Y67913D02*
D03*
X92126Y113386D02*
D03*
X119882Y38976D02*
D03*
X89764Y58268D02*
D03*
Y72047D02*
D03*
Y43504D02*
D03*
X105118Y39370D02*
D03*
X26772Y151575D02*
D03*
X22047D02*
D03*
X48425Y153150D02*
D03*
X60630Y152362D02*
D03*
X73622Y156693D02*
D03*
X65354Y152362D02*
D03*
X54724Y150000D02*
D03*
X66142Y143307D02*
D03*
M02*
