M48
;Layer_Color=9474304
;FILE_FORMAT=2:5
INCH,LZ
;TYPE=PLATED
T1F00S00C0.01181
T3F00S00C0.03543
;TYPE=NON_PLATED
T4F00S00C0.05118
T5F00S00C0.12598
%
T01
X0119882Y0038976
X0123228Y0052362
X0116929Y0129528
X0119095Y0134055
X0115354Y0148031
X0108563Y0151575
X0103937Y0152362
X0065354Y0152362
X006063Y0152362
X0054724Y015
X0062992Y0145669
X0066142Y0143307
X004685Y0135827
X0026772Y0151575
X0022047
X0044488Y0094488
X0065748Y0097638
X0074803Y0090158
X0089764Y0072047
Y0058268
X0097638Y0062205
X0102362Y0068898
Y0083465
Y0052756
X0105118Y003937
X0098819Y0033563
X0094095Y0033858
X0089764Y0043504
X0073228Y0058366
X0029528Y0054331
X003189Y0067913
X0029134Y0038189
X0029921Y0020472
X0101892Y0022911
X0092126Y0113386
X0073622Y0156693
X0048425Y015315
T03
X0109449Y0108268
X0120079Y0125591
X0084646Y0125709
Y0115709
Y0135709
Y0145709
Y0085709
Y0075709
Y0065709
Y0055709
Y0045709
Y0035709
Y0035709
Y0025709
Y0015709
Y0005709
X0063173Y0071048
X0049031
Y0056905
X0084646Y0155709
T04
X0057087Y0007874
X0072835
T05
X0106299Y0011811
X0019685
M30
